<?xml version="1.0" standalone="no"?>
<!DOCTYPE svg PUBLIC "-//W3C//DTD SVG 20010904//EN"
 "http://www.w3.org/TR/2001/REC-SVG-20010904/DTD/svg10.dtd">
<svg version="1.0" xmlns="http://www.w3.org/2000/svg"
 width="1280.000000pt" height="720.000000pt" viewBox="0 0 1280.000000 720.000000"
 preserveAspectRatio="xMidYMid meet">
<metadata>
Created by potrace 1.16, written by Peter Selinger 2001-2019
</metadata>
<g transform="translate(0.000000,720.000000) scale(0.100000,-0.100000)"
fill="#000000" stroke="none">
<path d="M6000 6368 c0 -5 10 -8 22 -8 64 0 -46 -22 -172 -35 -114 -11 -165
-21 -163 -31 1 -7 -22 -14 -59 -18 -70 -8 -180 -59 -242 -112 -51 -44 -132
-84 -168 -84 -22 0 -33 -8 -50 -35 -17 -30 -43 -47 -154 -101 -137 -66 -146
-74 -200 -166 -6 -11 -22 -27 -35 -36 -81 -56 -116 -94 -127 -136 -6 -21 -21
-52 -34 -69 -50 -68 -79 -146 -83 -220 -2 -40 -10 -85 -19 -101 -8 -16 -13
-33 -10 -38 14 -23 -12 -24 -64 -3 -62 25 -181 50 -296 61 -62 6 -75 11 -121
49 -55 45 -185 125 -275 170 -234 118 -424 92 -661 -88 -45 -34 -90 -68 -100
-75 -9 -7 -58 -22 -108 -32 -153 -31 -301 -91 -391 -159 -19 -14 -51 -28 -70
-31 -28 -4 -37 -11 -45 -36 -5 -16 -25 -48 -42 -71 -39 -48 -42 -67 -12 -58
19 6 21 4 15 -18 -13 -53 -46 -117 -60 -117 -23 0 -46 -29 -46 -58 0 -15 -6
-36 -14 -47 -41 -60 -54 -159 -48 -362 2 -81 3 -83 26 -83 22 0 26 -6 31 -44
4 -24 2 -52 -3 -63 -12 -21 -19 -219 -9 -229 3 -4 13 -4 22 -1 11 5 15 21 15
57 0 90 17 52 25 -54 4 -57 12 -145 19 -195 l13 -92 -26 -18 c-24 -18 -25 -24
-23 -93 1 -40 9 -120 17 -178 8 -58 19 -159 25 -225 6 -66 15 -158 20 -205 11
-105 3 -120 -98 -171 -38 -20 -84 -48 -102 -62 -19 -16 -44 -27 -61 -27 -26 0
-33 -6 -50 -44 -10 -24 -22 -66 -26 -93 -4 -35 -15 -58 -39 -86 -37 -40 -38
-46 -34 -154 l2 -73 -56 0 c-31 0 -91 -7 -133 -16 l-75 -15 -16 23 c-33 46
-93 106 -171 169 -45 35 -81 70 -81 77 0 7 7 24 16 37 12 19 15 36 9 71 l-6
45 -49 -45 c-26 -25 -69 -55 -94 -67 -37 -17 -45 -25 -41 -40 4 -11 2 -19 -4
-19 -6 0 -11 4 -11 10 0 16 -103 -43 -108 -62 -5 -19 -32 -25 -32 -8 0 6 5 10
10 10 6 0 10 5 10 10 0 18 -55 10 -73 -10 -9 -11 -17 -24 -17 -29 0 -4 -25 -7
-55 -6 -43 1 -55 -2 -55 -13 0 -12 -10 -14 -49 -9 -26 3 -52 2 -57 -3 -11 -11
-54 -2 -54 11 0 4 7 12 15 16 9 6 11 13 5 23 -8 13 -11 12 -24 -5 -8 -11 -13
-28 -10 -38 4 -12 0 -17 -14 -17 -26 0 -42 21 -47 59 -3 24 0 31 13 32 9 0
-10 7 -43 15 -33 7 -72 21 -87 29 -36 21 -41 19 -33 -14 3 -17 2 -32 -4 -36
-6 -3 -11 2 -11 12 -1 10 -3 40 -5 66 -7 82 42 128 198 188 78 29 87 35 71 46
-15 11 -115 19 -160 14 -11 -1 -28 68 -19 77 2 2 30 -8 61 -22 45 -21 59 -24
66 -14 14 23 9 28 -59 61 -73 34 -87 48 -87 87 -1 19 -6 25 -21 23 -11 -1 -41
-4 -66 -7 -26 -3 -99 -8 -163 -12 l-116 -7 0 35 c0 18 -6 40 -12 47 -10 11
-10 14 0 18 18 7 15 19 -13 49 -26 28 -24 28 -117 3 l-38 -10 0 -95 0 -96 33
5 c17 3 51 11 75 17 40 12 46 11 108 -21 70 -35 122 -89 149 -152 8 -20 24
-121 35 -224 22 -209 36 -287 55 -318 8 -11 21 -83 30 -160 9 -78 21 -142 27
-146 7 -4 27 -2 44 6 39 16 74 9 74 -15 0 -10 3 -31 6 -48 6 -29 4 -30 -55
-53 -34 -13 -61 -30 -61 -36 0 -18 21 -16 71 7 34 15 47 16 56 7 6 -7 21 -75
33 -152 24 -151 86 -439 101 -467 22 -41 68 -53 199 -53 110 0 135 3 206 28
99 33 162 67 204 110 l32 32 -7 150 c-11 206 -14 293 -17 489 l-3 169 65 24
c64 24 66 25 140 9 90 -20 144 -13 137 16 -4 12 -1 18 6 15 7 -2 11 -11 9 -20
-2 -11 2 -15 13 -11 19 8 19 18 0 34 -8 7 -15 19 -15 26 0 9 -11 14 -27 14
l-28 0 25 20 c14 11 39 20 55 21 17 0 41 4 55 8 44 12 68 2 74 -32 5 -24 22
-43 69 -77 89 -65 114 -72 252 -72 66 0 134 -4 151 -9 38 -12 80 -55 136 -139
38 -55 50 -66 94 -81 54 -19 171 -36 273 -41 l65 -3 63 90 c35 50 74 101 86
115 13 14 36 48 52 75 16 28 63 95 105 150 42 55 92 125 112 155 40 64 129
148 185 176 32 16 61 19 178 19 129 1 145 3 204 28 36 15 92 32 125 38 59 11
215 49 361 88 39 10 90 21 114 25 42 6 43 6 37 -16 -38 -132 -68 -274 -86
-405 -36 -268 -30 -246 -72 -260 -21 -7 -77 -17 -125 -23 -118 -14 -366 -48
-483 -66 -113 -17 -140 -20 -245 -29 -73 -5 -147 -19 -185 -33 -8 -3 -19 -6
-25 -7 -5 0 -23 -7 -40 -14 -45 -20 -14 -24 45 -7 53 16 191 40 440 76 80 11
188 28 240 36 52 8 149 21 215 29 66 8 139 18 163 21 l42 7 0 -39 c0 -31 -14
-203 -24 -310 -1 -12 -19 -44 -40 -72 -26 -36 -40 -67 -46 -109 -32 -192 14
-458 100 -585 34 -49 37 -57 22 -63 -15 -6 -15 -8 3 -21 20 -15 20 -15 1 -30
-17 -12 -18 -14 -3 -14 9 0 17 -4 17 -10 0 -5 -5 -10 -11 -10 -6 0 -1 -14 11
-30 12 -17 17 -30 11 -30 -6 0 -11 5 -11 11 0 5 -5 7 -11 3 -8 -4 -8 -8 -1
-13 6 -4 14 -26 18 -49 5 -31 2 -48 -11 -68 -15 -24 -16 -26 -1 -21 20 8 37
-22 29 -52 -3 -14 -11 -20 -20 -17 -8 4 -17 -4 -23 -19 -5 -14 -17 -28 -25
-31 -8 -4 -15 -17 -15 -30 0 -19 -5 -24 -25 -24 -23 0 -25 -2 -14 -22 12 -21
12 -22 19 -3 5 13 9 15 14 6 4 -6 2 -19 -5 -27 -10 -13 -10 -17 2 -25 9 -6 18
-4 25 6 6 8 16 15 23 15 19 0 12 -19 -15 -36 -31 -21 -16 -47 15 -27 15 10 22
9 32 -3 10 -12 9 -16 -9 -21 -12 -3 -22 -12 -22 -19 0 -13 -38 -36 -63 -38
-10 -1 -27 -28 -27 -43 0 -7 7 -13 15 -13 8 0 15 7 15 15 0 8 5 15 10 15 7 0
7 -6 1 -18 -6 -11 -6 -24 0 -35 7 -11 6 -23 0 -34 -6 -11 -11 -13 -11 -5 0 15
-20 6 -20 -9 0 -5 603 -9 1589 -9 l1589 0 10 29 c6 16 6 34 1 42 -12 20 -11
129 1 129 6 0 4 11 -5 24 -14 21 -14 25 0 36 16 13 21 65 6 74 -5 3 -8 42 -6
86 1 44 -2 83 -6 86 -12 7 -11 54 1 54 6 0 10 5 10 11 0 5 -4 8 -9 4 -5 -3
-13 0 -17 6 -5 9 0 10 16 6 16 -4 23 -1 27 13 5 18 7 18 34 5 15 -8 36 -15 46
-15 31 -1 -28 -29 -62 -30 -30 -1 -30 -2 -7 -13 18 -8 28 -8 43 1 33 21 42 15
34 -25 -4 -21 -12 -41 -18 -45 -9 -5 -8 -11 2 -20 11 -10 14 -10 18 0 3 7 22
12 44 12 22 0 38 4 35 9 -4 5 -2 21 4 36 14 36 3 51 -21 29 -15 -13 -22 -14
-33 -4 -14 10 -13 15 1 36 8 13 22 24 29 24 16 0 19 16 4 25 -5 3 -10 22 -10
42 0 29 -3 34 -17 30 -10 -2 -24 -6 -32 -8 -8 -2 -17 4 -19 13 -2 12 3 18 13
18 9 0 13 5 10 10 -4 6 -1 17 5 25 10 12 8 20 -11 40 -26 27 -49 31 -67 13 -9
-9 -12 -8 -12 5 0 24 35 40 60 27 28 -15 27 11 0 28 -17 10 -25 10 -43 -3 -27
-19 -47 -19 -47 0 0 8 -7 15 -15 15 -11 0 -14 16 -14 75 0 41 5 77 10 80 5 4
9 24 9 46 0 21 4 39 9 39 16 0 34 229 18 241 -4 3 4 17 18 31 26 26 26 30 23
148 -1 42 5 84 14 97 12 15 16 123 6 123 -5 0 -8 6 -8 14 0 8 -6 17 -12 19 -9
4 -8 6 2 6 17 0 72 -25 113 -53 17 -11 27 -27 27 -43 0 -13 4 -21 10 -18 6 4
10 -6 10 -22 0 -26 4 -29 34 -30 32 -1 74 -21 105 -51 16 -15 48 -30 106 -48
62 -19 183 -63 203 -73 9 -5 51 -20 92 -34 103 -35 383 -158 575 -255 88 -44
189 -92 225 -106 63 -27 125 -53 145 -64 6 -3 6 -1 0 6 -14 16 -531 271 -650
322 -55 23 -134 59 -175 80 -105 53 -216 104 -275 125 -27 10 -54 22 -60 26
-5 4 -26 12 -45 17 -152 46 -212 82 -230 137 -8 26 -22 39 -58 56 -49 24 -74
43 -67 51 3 3 -6 11 -20 18 -14 7 -25 17 -25 22 0 4 -9 8 -20 8 -11 0 -20 3
-21 8 0 4 -2 21 -4 37 -3 20 1 34 12 42 13 10 14 15 3 28 -10 11 -11 43 -7
122 4 93 2 113 -14 149 -11 23 -19 45 -18 50 5 22 -16 72 -45 105 -55 64 -61
73 -74 124 -7 28 -24 73 -37 101 -31 64 -31 86 5 264 24 120 33 148 51 160 80
54 109 108 109 202 0 57 90 351 157 513 38 91 47 124 50 190 6 100 -5 130 -54
151 -31 13 -46 14 -82 5 -24 -7 -45 -10 -46 -9 -1 2 8 46 20 98 12 52 30 140
39 195 9 55 22 128 28 163 6 35 7 91 3 128 -5 47 -3 69 5 74 6 4 14 34 17 67
4 45 0 73 -16 119 -18 51 -21 87 -24 269 -4 190 -6 216 -27 270 -25 64 -79
124 -178 197 -30 22 -73 58 -95 79 -21 22 -45 39 -52 39 -17 0 -55 48 -55 69
0 24 -100 116 -142 130 -20 7 -42 19 -48 27 -7 7 -17 14 -23 14 -5 0 -25 12
-44 26 -19 14 -40 27 -46 28 -25 6 -54 21 -113 62 -34 23 -106 59 -160 79 -55
21 -103 41 -109 45 -16 11 -132 46 -219 66 -82 18 -396 27 -396 12z m-2368
-948 c60 -18 254 -126 276 -153 13 -16 -130 -13 -408 8 -107 8 -237 15 -287
15 -51 0 -93 4 -93 8 0 21 194 120 265 135 57 13 187 6 247 -13z m2443 -20
c-8 -25 15 -36 42 -21 16 8 24 4 46 -21 15 -16 27 -36 27 -43 0 -8 21 -24 48
-36 26 -13 48 -24 50 -25 1 0 -3 -12 -10 -26 -27 -51 -118 -112 -118 -79 0 10
-33 2 -85 -20 -16 -7 -35 -11 -41 -10 -6 0 -17 -6 -24 -14 -14 -17 -14 -17
-86 55 -30 31 -34 39 -28 70 7 44 23 74 24 47 0 -12 6 -17 16 -15 11 2 17 15
19 39 2 37 38 99 56 99 6 0 7 -9 4 -20 -4 -11 -2 -20 4 -20 6 0 11 4 11 10 0
9 39 50 48 50 2 0 0 -9 -3 -20z m-1203 -2754 c12 -76 11 -77 -19 -139 -18 -34
-41 -72 -52 -84 -14 -15 -17 -23 -8 -26 7 -3 4 -6 -5 -6 -10 -1 -18 -6 -18
-12 0 -6 -7 -17 -15 -25 -8 -9 -15 -26 -15 -39 0 -13 -4 -26 -9 -30 -6 -3 -13
-27 -17 -53 -4 -26 -13 -59 -20 -74 -8 -15 -14 -34 -14 -43 0 -27 -40 -75 -61
-75 -18 0 -19 5 -13 68 4 37 16 101 26 142 11 41 22 86 25 100 3 14 12 33 21
43 15 17 11 21 -22 17 -17 -2 -18 3 -12 47 8 65 63 238 79 251 6 6 37 17 67
25 66 17 66 17 82 -87z m1176 78 c17 -12 37 -14 92 -8 64 6 70 5 70 -12 -1
-24 -31 -60 -50 -62 -8 0 -25 -4 -38 -7 -17 -6 -21 -4 -17 7 3 7 -1 22 -8 32
-11 15 -19 16 -50 8 -20 -6 -45 -8 -56 -5 -20 5 -47 -28 -34 -41 3 -3 1 -6 -5
-6 -7 0 -12 5 -12 11 0 6 -7 8 -16 5 -15 -6 -15 -5 0 16 9 13 19 30 23 38 20
42 61 52 101 24z m-3962 -417 c27 -14 106 -32 182 -40 24 -3 32 0 28 10 -3 7
-1 13 3 13 5 0 16 3 24 6 11 4 13 -1 10 -20 -3 -14 -1 -26 4 -26 16 0 45 -112
47 -185 1 -11 6 -23 11 -27 27 -20 -204 3 -279 28 -69 23 -175 94 -182 122
-11 39 6 94 37 123 32 30 51 29 115 -4z m-617 -44 c41 -37 87 -85 102 -106
l28 -38 -21 -21 c-28 -28 -178 -81 -183 -65 -7 25 -13 297 -7 297 4 0 41 -30
81 -67z m3199 -298 c1 -25 -1 -45 -7 -45 -5 0 -6 -15 0 -37 5 -26 4 -40 -4
-45 -9 -6 -8 -8 2 -8 10 0 12 -9 7 -32 -4 -18 -7 -40 -7 -49 0 -17 -40 -31
-57 -20 -5 3 -8 31 -6 61 1 30 3 84 4 120 3 91 7 100 38 100 25 0 27 -4 30
-45z m-3647 -20 c0 -6 -10 -13 -23 -17 -20 -5 -21 -6 -3 -7 19 -2 19 -2 2 -15
-16 -13 -15 -14 12 -18 38 -6 54 3 49 28 -2 11 3 19 10 18 6 -1 21 -2 32 -2
18 -2 19 -5 9 -24 -7 -13 -18 -27 -25 -33 -15 -12 -28 -55 -17 -56 50 -5 63
-3 63 8 0 7 7 13 15 13 22 0 18 -27 -5 -33 -13 -3 -20 -14 -20 -30 0 -14 -7
-28 -16 -31 -16 -6 -16 -8 0 -24 24 -27 20 -32 -26 -32 l-43 -1 42 -39 c23
-22 40 -40 38 -40 -2 0 0 -13 5 -30 l9 -30 -45 0 c-40 0 -44 2 -44 25 0 14 -6
25 -12 26 -10 0 -10 2 0 6 11 4 18 33 8 33 -2 0 -11 3 -20 6 -12 5 -16 0 -16
-20 0 -31 -20 -34 -38 -6 -7 12 -17 18 -22 15 -5 -3 -16 5 -24 17 -15 21 -14
23 17 37 40 20 40 53 0 49 -14 -2 -28 3 -30 10 -3 7 4 12 16 12 27 0 28 30 1
37 -20 5 -29 43 -10 43 6 0 10 7 10 15 0 8 9 19 21 26 15 7 18 14 11 21 -12
12 -1 26 33 46 22 13 37 11 36 -3z"/>
<path d="M1 3428 c-2 -271 0 -300 14 -288 18 15 26 9 40 -32 7 -23 20 -35 50
-45 73 -26 314 2 387 45 28 16 29 19 23 68 -3 29 -9 64 -13 78 -7 25 -8 25
-36 11 -46 -24 -136 -44 -228 -51 -92 -7 -198 2 -198 17 0 30 118 67 266 83
33 4 41 14 21 29 -9 6 -24 39 -32 72 -22 84 -68 174 -112 219 -45 45 -129 96
-160 96 l-21 0 -1 -302z"/>
<path d="M53 2660 c-25 -18 -43 -41 -46 -57 -3 -15 -6 -130 -6 -255 l-2 -228
43 0 c62 1 209 35 219 51 13 22 11 29 -15 40 -22 11 -62 76 -52 86 12 12 73
-21 109 -57 30 -32 45 -40 73 -40 36 0 36 0 30 35 -4 19 -11 70 -16 112 -10
93 -18 116 -36 109 -8 -3 -14 1 -14 9 0 8 -6 14 -12 12 -23 -4 -21 53 1 72 24
21 28 66 7 74 -15 6 -29 -2 -110 -57 -60 -42 -79 -42 -52 -2 23 37 20 64 -13
97 -37 37 -57 36 -108 -1z"/>
<path d="M405 2035 c-27 -22 -254 -105 -289 -105 -20 0 -45 -53 -39 -83 4 -19
9 -23 29 -19 13 2 27 8 29 13 3 4 12 6 20 2 11 -4 13 -1 9 11 -6 15 -3 15 19
5 21 -10 30 -8 54 8 33 22 73 19 73 -5 -1 -21 -52 -44 -150 -66 -49 -11 -76
-13 -78 -6 -2 5 -11 10 -19 10 -9 0 -13 6 -9 15 3 9 0 15 -9 15 -7 0 -17 5
-20 10 -4 7 3 8 22 4 23 -5 26 -4 16 7 -18 18 -16 39 5 55 15 12 14 13 -14 14
-47 0 -54 -14 -54 -118 0 -83 3 -97 25 -130 16 -23 25 -51 25 -74 0 -24 -8
-46 -25 -66 -17 -20 -25 -42 -25 -67 0 -41 -8 -39 85 -19 11 2 36 7 55 10 19
4 43 11 53 16 10 5 28 10 40 12 35 4 111 27 124 38 7 5 17 7 22 4 5 -4 13 -1
16 5 4 5 13 8 21 5 8 -3 30 9 50 27 34 30 36 37 35 89 0 58 -46 359 -59 390
-6 16 -10 16 -37 -7z m-21 -140 c3 -33 10 -98 16 -144 5 -47 8 -87 6 -89 -3
-2 0 -17 6 -33 7 -22 7 -33 -2 -44 -22 -26 -30 -16 -30 34 0 28 -4 52 -9 55
-7 5 -16 57 -25 144 -2 13 -8 27 -15 32 -9 5 -10 9 -2 14 8 5 6 12 -5 23 -12
13 -13 17 -2 24 11 7 11 9 0 9 -7 0 -10 5 -7 10 3 6 0 10 -7 11 -9 0 -9 2 2 6
8 4 21 13 29 20 22 23 38 -3 45 -72z"/>
<path d="M3151 900 c-3 -7 -10 -150 -15 -283 -2 -65 -7 -121 -10 -124 -3 -4
-6 1 -6 9 0 16 -20 28 -47 28 -19 0 -75 -39 -69 -48 6 -10 -27 -75 -40 -79 -6
-2 -17 9 -24 24 -8 16 -23 40 -33 56 -16 24 -17 28 -3 33 22 8 20 18 -6 29
-13 6 -24 19 -25 30 l-3 20 9 -20 c8 -17 10 -15 10 13 1 23 -3 31 -11 26 -8
-5 -9 0 -5 15 5 19 -2 78 -19 169 -2 12 -9 22 -15 22 -6 0 -9 -6 -6 -13 3 -7
-10 -28 -29 -47 -23 -22 -32 -39 -29 -51 3 -9 1 -21 -6 -25 -8 -4 -4 -11 12
-21 13 -8 17 -12 8 -9 -16 4 -39 -11 -39 -26 0 -4 11 -8 25 -8 26 0 35 -15 13
-22 -7 -3 -9 -12 -4 -23 6 -16 9 -17 16 -5 6 8 10 10 10 4 0 -6 -7 -17 -15
-24 -9 -7 -14 -19 -11 -26 3 -8 -5 -20 -17 -29 -19 -13 -20 -18 -9 -35 6 -11
12 -29 12 -41 0 -19 -4 -21 -36 -16 -20 3 -44 13 -53 21 -10 10 -26 13 -41 9
-42 -10 -49 -21 -39 -56 5 -18 9 -33 9 -34 0 -2 -10 -3 -21 -3 -21 0 -59 -34
-59 -52 0 -5 7 -11 15 -14 26 -10 16 -26 -12 -20 -23 5 -30 2 -39 -18 -8 -17
-8 -28 -1 -35 7 -7 4 -16 -11 -29 -12 -11 -22 -26 -22 -35 0 -8 -9 -17 -20
-20 -12 -3 -20 -14 -20 -26 0 -26 -25 -38 -44 -22 -11 10 -16 8 -21 -8 -3 -12
-3 -30 0 -41 6 -20 15 -20 571 -20 495 0 564 2 564 15 0 8 -6 15 -13 15 -10 0
-38 33 -43 50 -3 14 -39 82 -69 130 -19 30 -42 71 -52 90 -9 19 -23 42 -29 50
-7 8 -14 24 -16 35 -1 10 -10 27 -19 36 -26 26 -79 266 -89 404 -4 44 -8 78
-9 75z"/>
<path d="M8550 736 c-7 -9 -8 -16 -2 -16 6 0 8 -17 5 -42 -3 -29 -1 -38 5 -30
15 22 20 -8 7 -46 -10 -28 -13 -31 -24 -18 -10 12 -9 17 6 26 16 10 15 10 -5
5 -14 -4 -35 2 -60 17 -20 13 -47 24 -59 25 -20 2 -22 -2 -16 -28 4 -22 2 -28
-8 -26 -8 2 -11 2 -6 0 4 -3 7 -14 7 -25 0 -12 12 -37 27 -56 17 -23 23 -37
15 -40 -11 -3 -18 -32 -7 -32 3 0 14 9 25 20 11 11 24 20 28 20 10 0 9 -30 -1
-46 -3 -6 7 -23 23 -38 17 -14 30 -33 30 -40 0 -8 8 -17 18 -20 31 -11 62 -69
62 -119 0 -38 6 -53 30 -79 28 -31 31 -32 44 -15 14 18 10 67 -5 67 -5 0 -9 7
-9 15 0 17 12 19 26 5 11 -11 44 -3 44 10 0 4 -7 13 -15 20 -8 7 -15 21 -15
32 0 10 -7 21 -15 24 -11 5 -12 11 -5 24 7 13 7 21 -1 25 -6 4 -8 17 -5 30 4
17 1 24 -15 28 -15 4 -20 11 -16 21 8 21 -2 46 -19 46 -9 0 -14 10 -13 28 2
23 2 24 6 5 5 -26 13 -29 30 -12 12 12 7 65 -8 85 -5 6 -6 14 -2 17 3 4 0 13
-7 22 -7 8 -9 15 -4 15 5 1 -2 7 -16 15 -14 7 -34 32 -46 55 -18 36 -22 39
-34 26z"/>
<path d="M8275 508 c-6 -13 -19 -25 -30 -27 -11 -2 -24 -9 -28 -17 -4 -8 -14
-14 -22 -14 -21 0 -27 -17 -15 -39 8 -16 7 -22 -6 -29 -11 -6 -13 -11 -5 -16
16 -11 13 -46 -4 -46 -13 0 -13 -3 -3 -21 11 -17 10 -22 -5 -34 -15 -10 -19
-30 -22 -96 -2 -45 -9 -87 -15 -93 -15 -15 -12 -41 8 -59 16 -15 45 -17 195
-17 170 0 176 1 191 22 22 31 20 47 -9 70 -20 16 -23 23 -14 34 6 8 8 14 3 14
-14 0 -36 54 -24 58 19 7 10 63 -15 100 -29 43 -30 48 -10 68 24 25 18 36 -17
30 -18 -3 -27 -3 -20 0 17 8 15 44 -3 44 -8 0 -15 7 -15 15 0 8 -9 15 -20 15
-12 0 -17 5 -14 14 6 15 -31 46 -56 46 -8 0 -20 -10 -25 -22z"/>
<path d="M1834 308 c-191 -128 -414 -291 -414 -305 0 -1 109 -3 243 -3 l244 0
12 83 c18 120 27 150 67 209 30 43 76 124 92 161 9 20 -32 -5 -244 -145z"/>
<path d="M9521 368 c-12 -51 -27 -122 -32 -158 -11 -73 -27 -120 -41 -120 -5
0 -6 -4 -3 -10 3 -5 2 -26 -4 -45 -9 -35 -9 -35 22 -35 26 0 35 6 46 30 7 17
14 52 16 78 1 26 10 101 19 167 18 135 20 185 8 185 -5 0 -19 -42 -31 -92z"/>
</g>
</svg>
