<?xml version="1.0" standalone="no"?>
<!DOCTYPE svg PUBLIC "-//W3C//DTD SVG 20010904//EN"
 "http://www.w3.org/TR/2001/REC-SVG-20010904/DTD/svg10.dtd">
<svg version="1.0" xmlns="http://www.w3.org/2000/svg"
 width="1280.000000pt" height="720.000000pt" viewBox="0 0 1280.000000 720.000000"
 preserveAspectRatio="xMidYMid meet">
<metadata>
Created by potrace 1.16, written by Peter Selinger 2001-2019
</metadata>
<g transform="translate(0.000000,720.000000) scale(0.100000,-0.100000)"
fill="#000000" stroke="none">
<path d="M6260 6701 c0 -6 -9 -11 -19 -11 -11 0 -23 -4 -26 -10 -3 -5 -24 -10
-46 -10 -30 0 -47 -7 -77 -35 -43 -39 -170 -106 -246 -131 -93 -31 -109 -50
-130 -155 -3 -15 -22 -46 -42 -70 -27 -33 -35 -50 -32 -71 4 -24 -3 -35 -36
-65 -67 -60 -182 -187 -163 -180 23 9 22 -5 -3 -20 -10 -7 -42 -45 -70 -85
-28 -40 -72 -100 -98 -133 -39 -49 -52 -77 -69 -145 -22 -85 -32 -152 -38
-244 -2 -27 -6 -83 -10 -125 -3 -42 -2 -105 4 -141 5 -36 11 -136 12 -222 2
-86 8 -200 14 -252 16 -139 14 -151 -21 -152 -16 0 -42 -7 -59 -15 -26 -13
-30 -19 -29 -54 4 -116 25 -288 44 -345 12 -36 30 -112 40 -170 11 -58 23
-124 28 -147 7 -34 6 -40 -5 -36 -11 4 -10 -2 3 -30 26 -55 73 -69 147 -43 20
8 37 13 37 12 0 0 9 -31 19 -68 l19 -67 -27 1 c-16 1 -47 -10 -70 -23 -69 -38
-204 -254 -292 -466 -20 -46 -35 -70 -43 -67 -7 3 -13 10 -13 17 -2 21 -14
331 -15 355 0 12 -4 22 -10 22 -5 0 -6 5 -3 10 4 6 2 17 -4 24 -6 7 -14 75
-17 152 -3 77 -10 144 -15 150 -10 12 -20 107 -22 210 -1 34 -5 60 -9 58 -3
-2 -7 83 -7 188 -1 170 -20 436 -38 538 -20 115 -127 343 -190 407 -54 55
-222 137 -323 157 -41 8 -110 18 -153 22 -61 5 -87 13 -115 33 -356 249 -515
301 -720 236 -84 -27 -223 -108 -308 -180 -42 -37 -62 -46 -113 -54 -184 -30
-388 -123 -488 -222 -12 -13 -28 -19 -37 -16 -11 4 -16 1 -16 -10 0 -8 -16
-33 -35 -54 -39 -44 -45 -64 -15 -56 25 7 25 3 -4 -74 -16 -43 -30 -65 -42
-67 -11 -2 -23 -8 -28 -12 -5 -5 1 -6 14 -3 19 5 22 3 17 -11 -4 -10 -7 -20
-7 -22 0 -2 -7 -4 -15 -4 -8 0 -15 5 -15 11 0 5 -4 8 -10 4 -5 -3 -7 -12 -4
-20 3 -7 -9 -44 -26 -80 -31 -65 -32 -72 -37 -231 l-6 -164 31 -11 c24 -8 31
-17 36 -48 3 -21 2 -51 -3 -67 -5 -16 -12 -73 -14 -127 -5 -96 -5 -98 16 -95
19 3 23 11 27 63 5 59 5 60 12 20 4 -22 10 -83 13 -135 4 -52 12 -128 19 -168
l12 -73 -28 -15 -29 -15 6 -82 c3 -45 11 -113 16 -152 14 -103 49 -464 49
-507 0 -47 -44 -100 -97 -116 -21 -7 -60 -29 -88 -50 -27 -20 -61 -37 -75 -37
-30 0 -63 -54 -79 -131 -6 -35 -22 -69 -43 -95 -32 -40 -33 -44 -33 -133 l0
-91 -77 -6 c-42 -4 -89 -10 -105 -14 -72 -18 -77 -16 -121 40 -23 29 -82 86
-131 126 -50 39 -93 79 -96 87 -3 8 2 23 10 32 12 13 15 33 13 70 l-3 52 -52
-52 c-32 -32 -50 -57 -46 -66 3 -9 0 -14 -8 -12 -16 4 -19 -23 -4 -37 6 -5 8
-9 6 -8 -7 4 -61 -28 -61 -36 0 -5 -26 -17 -57 -26 -32 -9 -75 -21 -95 -27
-20 -6 -53 -8 -73 -5 -19 3 -33 2 -30 -3 6 -10 -80 -23 -132 -19 -21 2 -43 0
-48 -3 -17 -9 -107 -9 -119 1 -6 5 -24 11 -41 13 -26 3 -30 7 -30 32 0 17 -6
31 -15 34 -8 3 -26 16 -40 29 -34 34 -62 48 -59 31 1 -7 1 -26 0 -43 -2 -29
-3 -29 -12 -7 -5 13 -11 45 -14 72 -4 41 0 53 25 88 30 42 124 95 218 122 71
22 49 34 -77 44 -59 4 -66 9 -75 49 -8 34 8 35 65 6 23 -11 47 -18 55 -15 29
11 12 33 -48 62 -76 36 -88 48 -88 85 0 28 -2 30 -32 24 -68 -11 -215 -25
-274 -25 l-61 0 -6 52 c-5 36 -3 54 5 60 9 5 8 9 -4 13 -10 4 -20 15 -23 26
-5 14 -16 19 -40 19 -19 0 -37 -4 -40 -10 -3 -6 -17 -10 -31 -10 -24 0 -24 -1
-24 -95 0 -91 1 -95 22 -95 12 0 41 7 64 16 41 16 42 15 111 -20 82 -41 135
-97 157 -165 8 -25 20 -98 26 -161 17 -186 41 -332 60 -370 9 -19 23 -84 29
-145 20 -182 21 -183 90 -149 38 19 47 13 59 -42 9 -40 1 -74 -18 -74 -4 0
-30 -9 -56 -21 -66 -28 -40 -45 28 -18 52 20 69 23 67 12 -3 -16 14 -74 22
-79 5 -3 7 -9 4 -14 -6 -10 24 -190 53 -325 50 -225 56 -236 143 -254 67 -15
120 -14 204 3 145 29 238 69 304 130 l33 31 -7 150 c-5 83 -9 161 -10 175 -1
14 -3 51 -3 83 -1 36 -6 56 -12 52 -5 -3 -10 -1 -10 4 0 6 5 11 10 11 6 0 10
5 10 10 0 6 -7 10 -16 10 -13 0 -14 3 -5 13 14 17 24 90 11 82 -6 -4 -10 1
-10 9 0 8 5 18 10 21 7 4 9 43 8 98 l-3 91 72 28 c69 26 73 27 120 13 68 -21
115 -19 136 5 22 26 22 26 -5 34 -22 7 -22 7 -3 16 17 7 17 9 3 9 -33 2 -18
28 21 39 101 31 171 24 171 -16 0 -20 33 -53 100 -98 66 -45 70 -46 242 -53
181 -7 174 -4 254 -123 60 -89 80 -103 167 -124 78 -18 493 -32 513 -17 6 4
46 60 89 123 43 63 106 149 140 190 34 41 82 107 107 145 25 39 72 99 104 135
33 36 85 97 116 136 109 137 173 173 288 161 47 -5 77 -1 147 19 48 15 124 34
168 44 44 9 116 30 160 47 44 17 127 41 185 53 77 17 132 36 203 72 54 28 100
48 102 46 3 -2 -8 -56 -24 -119 -16 -63 -36 -172 -46 -244 -22 -171 -22 -173
-43 -178 -16 -4 -16 -5 1 -6 16 -1 18 -10 16 -88 -1 -68 -6 -93 -20 -112 -50
-63 0 -543 70 -680 13 -24 21 -54 18 -67 -3 -16 0 -24 9 -24 8 0 13 -3 12 -7
-1 -5 2 -18 6 -31 5 -14 3 -28 -4 -37 -8 -9 -8 -15 0 -20 8 -5 7 -11 -1 -22
-9 -10 -9 -17 -2 -21 11 -8 23 -69 23 -118 0 -17 7 -47 15 -67 15 -37 18 -187
3 -163 -6 8 -8 8 -8 -1 0 -6 -3 -19 -7 -29 -4 -11 -3 -15 5 -10 18 11 21 -6
11 -59 -5 -28 -10 -126 -10 -220 l-1 -170 -40 -102 c-39 -102 -43 -120 -52
-225 l-5 -58 30 0 29 0 0 66 c0 50 7 84 31 142 17 43 38 100 46 127 8 28 19
55 24 61 5 6 6 26 2 44 -5 26 -3 31 7 25 10 -6 11 -4 5 11 -4 10 -9 33 -12 49
-3 25 -2 27 6 10 5 -11 12 -33 16 -49 5 -23 9 -26 15 -16 17 27 20 3 6 -36
-15 -39 -15 -39 -16 -9 -1 17 -4 23 -7 13 -2 -9 0 -31 6 -50 6 -20 10 -26 10
-13 1 11 6 27 12 35 8 12 9 10 4 -7 -5 -18 -3 -22 9 -17 11 4 19 -2 26 -20 5
-15 17 -26 28 -26 22 0 79 27 87 41 4 5 15 9 26 9 10 0 18 5 16 11 -1 7 13 16
30 21 29 8 32 11 21 28 -20 31 4 48 31 21 25 -25 29 -26 53 -5 15 14 20 15 34
3 14 -11 18 -11 29 4 11 15 13 16 19 2 3 -8 11 -15 19 -15 18 0 57 -54 57 -80
0 -14 4 -19 12 -14 8 5 9 0 5 -15 -3 -12 1 -34 8 -49 11 -22 55 -209 55 -233
0 -4 -25 -15 -55 -24 -143 -45 -160 -45 1013 -45 862 1 1102 3 1103 13 1 6 2
23 3 37 1 21 5 25 28 22 18 -2 30 3 37 17 15 28 14 41 -4 35 -10 -4 -13 -13
-10 -25 5 -15 1 -19 -15 -19 -12 0 -20 3 -18 8 3 4 10 22 17 40 9 23 19 32 30
29 14 -3 16 6 16 64 -1 40 -6 73 -14 83 -9 10 -9 16 -3 16 6 0 9 7 6 15 -4 8
1 17 10 21 24 9 19 34 -6 35 -17 1 -18 3 -6 6 15 4 17 14 13 66 -2 35 -7 70
-11 80 -3 10 -1 17 5 17 7 0 9 9 5 24 -3 13 -1 33 5 44 7 13 8 23 1 27 -5 3
-7 19 -4 34 5 21 0 34 -17 50 -20 18 -21 25 -12 41 7 10 8 20 4 22 -14 5 -24
68 -11 68 7 0 5 7 -5 16 -9 9 -16 32 -15 53 0 20 -2 54 -5 76 -9 75 -5 159 9
175 8 8 14 27 14 41 0 15 7 49 17 78 13 40 15 65 8 118 -9 81 -11 65 21 188
15 55 33 150 42 210 8 61 18 126 21 145 3 19 5 86 4 148 -3 130 -1 132 86 82
43 -25 107 -90 88 -90 -15 0 30 -62 67 -93 73 -59 96 -68 313 -123 130 -33
439 -189 605 -304 41 -29 231 -123 236 -117 3 3 -12 13 -33 23 -50 24 -198
109 -298 171 -44 27 -120 71 -170 98 -49 27 -115 62 -145 78 -92 50 -293 120
-408 142 -26 5 -68 33 -96 64 -17 19 -22 35 -25 79 -1 6 -6 12 -12 12 -6 0
-27 14 -47 31 -20 18 -64 45 -98 61 -53 25 -62 33 -67 61 -3 18 -15 84 -25
147 -11 63 -27 133 -35 155 -37 103 -57 184 -51 212 5 24 -4 49 -46 124 -29
52 -64 109 -77 127 -14 18 -27 50 -29 70 -22 223 -25 290 -14 337 7 28 17 86
24 130 l12 80 44 -2 c57 -3 106 13 125 40 17 25 20 67 4 67 -5 0 -7 5 -4 10 4
6 10 8 15 5 8 -5 33 59 99 260 52 157 55 183 37 295 -21 129 -38 146 -141 143
-85 -2 -85 -2 -59 82 19 63 47 280 39 306 -4 10 -1 44 6 75 10 44 10 68 0 120
-11 52 -11 70 -1 95 11 26 10 38 -7 82 -11 29 -26 92 -32 141 -7 52 -22 111
-37 141 -13 29 -24 60 -24 69 0 9 -16 42 -35 72 -28 43 -35 65 -36 107 -1 49
-25 168 -28 137 -1 -13 -2 -13 -12 0 -8 11 -9 1 -4 -37 3 -30 2 -53 -4 -53
-15 0 -41 47 -54 101 -8 28 -19 54 -26 59 -8 4 -11 12 -8 17 3 5 1 15 -5 23
-8 12 -9 12 -4 -2 3 -10 3 -18 1 -18 -5 0 -36 58 -34 62 1 2 -5 17 -14 33 -13
24 -16 26 -17 10 0 -14 -10 -5 -34 30 -18 28 -41 57 -50 64 -9 7 -16 20 -16
28 0 8 -6 13 -12 10 -7 -2 -78 62 -157 142 -79 80 -149 146 -155 146 -6 0 -27
10 -46 22 -19 11 -51 25 -70 31 -110 34 -143 42 -225 52 -110 13 -175 26 -239
48 -39 14 -50 14 -54 4 -3 -9 -8 -10 -16 -2 -20 15 -106 25 -106 11z m703
-396 c26 -8 47 -12 47 -9 0 2 10 -2 23 -10 12 -7 34 -16 48 -20 74 -17 305
-227 345 -313 27 -58 29 -67 13 -57 -8 4 -9 0 -4 -15 4 -15 2 -21 -9 -21 -25
0 -46 12 -46 26 0 8 -4 14 -10 14 -5 0 -17 16 -26 35 -9 19 -19 35 -23 35 -3
0 -19 11 -35 25 -16 14 -35 25 -42 25 -7 0 -17 6 -21 13 -12 19 -90 67 -109
67 -10 0 -30 14 -46 32 -15 17 -28 27 -28 22 0 -5 -4 -4 -8 3 -10 16 -82 28
-82 14 0 -6 -7 -11 -16 -11 -9 0 -14 -6 -11 -13 3 -7 -2 -29 -10 -48 l-15 -34
-10 28 c-5 15 -14 27 -20 27 -6 0 -5 -6 2 -15 11 -13 10 -21 -1 -42 -11 -21
-11 -27 -1 -30 6 -3 12 -14 12 -25 0 -15 5 -19 19 -15 14 3 18 1 14 -9 -3 -8
0 -14 6 -14 24 0 9 -18 -19 -22 -19 -3 -31 0 -35 10 -4 10 -19 1 -54 -34 -27
-27 -46 -54 -44 -61 4 -9 9 -10 17 -4 8 7 17 -4 29 -40 10 -27 15 -53 12 -58
-3 -6 0 -13 6 -17 6 -3 15 -1 19 6 13 21 28 2 26 -32 -2 -28 -6 -33 -24 -31
-28 3 -29 -22 -2 -37 16 -9 24 -7 38 6 16 17 17 17 21 -2 5 -27 21 -44 42 -44
10 0 21 -5 25 -12 5 -7 2 -9 -9 -5 -18 7 -13 -17 10 -44 7 -9 10 -19 6 -22 -3
-4 -1 -7 6 -7 7 0 9 -5 5 -11 -5 -8 -9 -8 -14 1 -14 23 -36 -10 -32 -47 4 -30
2 -33 -21 -33 -26 0 -44 16 -32 28 3 3 10 0 15 -8 5 -8 12 -11 16 -7 11 10 -7
25 -35 29 -14 2 -26 -3 -29 -11 -3 -8 0 -11 7 -7 6 4 11 4 11 -1 -1 -16 -74
-54 -94 -49 -11 3 -26 0 -34 -6 -17 -14 -42 -19 -42 -9 0 13 -98 7 -112 -7 -6
-6 -22 -12 -34 -12 -12 0 -24 -7 -28 -15 -6 -18 -33 -20 -38 -3 -3 9 -11 9
-34 0 -29 -11 -53 -10 -113 3 -18 4 -31 3 -31 -3 0 -5 -7 -13 -16 -16 -11 -4
-15 -2 -11 8 4 11 1 13 -10 9 -10 -4 -14 -2 -10 4 5 7 -6 14 -25 18 -21 5 -33
4 -36 -4 -5 -15 -42 16 -42 36 0 20 -21 15 -27 -7 -5 -18 -8 -18 -37 -6 -17 7
-58 13 -91 15 -76 2 -118 10 -127 25 -6 8 -11 7 -17 -3 -5 -7 -14 -10 -20 -7
-6 4 -55 8 -108 8 -78 1 -98 -2 -108 -16 -15 -20 -21 -20 -28 -2 -4 11 -1 13
10 9 12 -5 14 -1 9 15 -4 13 -2 24 7 29 7 4 19 23 26 41 14 35 44 57 62 46 6
-3 17 2 24 12 8 11 15 14 15 7 0 -13 30 -6 30 7 0 14 -53 22 -60 9 -5 -6 -13
-8 -20 -4 -10 6 -9 11 5 22 22 15 75 18 75 3 0 -15 60 -12 66 4 3 8 19 16 35
20 24 5 30 10 27 27 -2 13 3 24 12 26 13 4 13 3 0 -6 -17 -12 -6 -14 28 -5 12
4 22 14 22 25 0 10 5 21 10 24 6 3 10 16 10 28 0 12 12 31 27 42 33 27 23 45
-22 40 -30 -4 -35 -2 -35 15 0 11 7 20 15 20 8 0 15 5 15 11 0 7 -11 8 -32 3
-18 -4 -42 -7 -52 -8 -23 -1 -34 -26 -12 -26 33 0 14 -15 -19 -16 -20 0 -30 3
-24 7 8 4 4 9 -11 14 -15 5 -28 1 -44 -14 -28 -27 -46 -27 -46 0 0 22 -24 52
-34 42 -3 -4 -6 -13 -6 -20 0 -25 -76 -106 -91 -97 -15 9 -10 42 7 52 9 5 15
15 12 22 -3 10 -8 9 -20 -3 -12 -12 -18 -13 -28 -4 -10 10 -12 8 -7 -5 3 -10
2 -20 -3 -23 -6 -4 -10 3 -10 14 0 37 -20 22 -26 -19 -6 -39 -8 -40 -45 -40
-29 0 -39 -5 -44 -21 -4 -12 -13 -18 -20 -15 -8 3 -16 -3 -19 -12 -3 -9 -4 6
-2 35 5 84 91 235 196 343 90 92 198 162 207 133 2 -6 15 -8 29 -5 16 3 29 -1
34 -9 7 -10 14 -10 34 -1 36 16 47 -3 39 -66 -5 -42 -9 -52 -24 -52 -12 0 -19
7 -19 20 0 11 5 20 11 20 8 0 9 4 0 13 -6 8 -9 17 -6 21 3 3 1 3 -4 -1 -5 -5
-11 -28 -13 -53 -2 -34 1 -46 13 -48 19 -3 89 64 89 86 0 4 8 17 18 28 10 10
21 27 25 38 6 14 15 17 44 14 28 -3 37 -1 41 14 2 10 16 21 31 24 14 3 38 10
54 14 60 19 146 23 169 8 27 -18 87 -28 94 -16 3 4 14 3 26 -3 11 -6 36 -11
54 -11 19 0 34 -5 34 -11 0 -6 6 -3 13 7 14 19 93 30 103 14 3 -5 10 -5 16 -2
6 4 17 -1 24 -10 15 -21 34 -13 34 15 0 23 8 27 68 33 24 2 46 7 50 10 3 3 6
6 6 6 1 0 22 -7 49 -15z m-3316 -888 c71 -29 192 -98 230 -132 l28 -24 -95 0
c-52 0 -176 6 -275 14 -99 8 -238 15 -310 15 l-130 1 34 29 c49 42 159 98 227
115 85 21 214 13 291 -18z m2864 -339 c14 -26 19 -55 18 -115 0 -24 5 -61 11
-84 8 -30 8 -44 0 -54 -6 -7 -10 -40 -9 -73 1 -32 -1 -64 -5 -70 -4 -6 2 -17
14 -24 11 -7 20 -17 20 -21 0 -5 9 -16 20 -25 22 -19 38 -72 22 -72 -6 0 -12
6 -15 13 -8 22 -19 -1 -19 -38 0 -32 -4 -39 -34 -51 -38 -16 -219 -20 -229 -4
-3 5 -12 7 -19 4 -8 -3 -17 0 -21 6 -6 9 -10 9 -16 -1 -7 -11 -9 -9 -9 6 0 26
27 65 46 65 8 0 14 5 14 10 0 6 7 10 15 10 8 0 15 4 15 9 0 4 11 24 24 43 17
25 26 57 31 109 10 98 9 112 -9 123 -12 9 -11 14 7 40 12 17 29 40 39 50 22
24 23 56 3 56 -24 0 -19 59 8 85 29 30 63 31 78 3z m-361 -329 c0 -6 -9 -22
-20 -36 -25 -32 -27 -65 -3 -56 10 4 14 2 10 -4 -4 -6 -2 -13 5 -15 7 -3 4
-12 -11 -27 -12 -12 -20 -29 -17 -36 3 -8 1 -17 -4 -20 -4 -3 -8 -24 -8 -48 1
-23 -7 -57 -16 -76 -10 -18 -13 -30 -7 -27 6 4 11 0 11 -8 0 -10 -6 -13 -15
-10 -21 9 -36 -37 -41 -126 -2 -41 -6 -97 -8 -125 -3 -27 -5 -71 -5 -97 0 -35
-4 -48 -14 -48 -8 0 -33 -25 -56 -55 -23 -30 -48 -55 -57 -55 -8 0 -23 13 -32
30 -18 32 -27 36 -37 20 -3 -5 -13 -10 -21 -10 -11 0 -14 10 -12 40 2 22 7 40
12 40 5 0 3 7 -5 16 -10 13 -10 17 1 24 11 7 11 11 1 24 -8 9 -19 16 -25 16
-6 0 -21 7 -34 15 -19 14 -20 19 -9 38 6 12 21 30 31 39 20 19 17 21 -29 18
-28 -1 -29 -1 -11 13 24 18 7 30 -29 21 -21 -5 -24 -10 -19 -28 4 -11 11 -23
16 -25 18 -6 -13 -19 -34 -13 -15 4 -16 7 -6 13 10 7 10 11 0 21 -10 10 -17
10 -32 0 -21 -13 -27 -3 -10 14 14 14 -6 80 -32 104 -17 16 -19 23 -10 32 7 7
12 16 12 20 0 15 -33 8 -46 -9 -11 -15 -13 -16 -14 -2 0 10 -17 20 -51 29 -27
8 -52 18 -55 22 -8 13 -52 9 -57 -4 -7 -22 -14 -5 -19 48 -5 48 -3 51 24 62
15 5 28 7 28 4 0 -4 4 -13 9 -21 7 -11 13 -9 29 7 11 11 18 22 16 25 -3 3 -2
16 2 31 4 18 13 26 28 26 20 1 20 2 4 14 -10 7 -18 16 -18 20 0 12 34 6 52
-11 11 -9 18 -11 18 -5 0 19 28 14 51 -9 16 -16 18 -23 8 -35 -9 -11 -9 -18
-1 -26 13 -13 32 -2 32 19 0 14 2 14 18 1 35 -30 46 -33 40 -10 -4 16 -2 22 9
22 12 0 14 -7 10 -30 -4 -17 -2 -30 3 -30 6 0 10 6 10 13 0 12 39 52 45 45 9
-9 -9 -58 -21 -58 -23 0 -16 -39 11 -56 24 -16 27 -16 48 3 12 11 30 23 40 26
9 4 17 13 17 22 0 13 11 39 28 65 2 2 7 -1 11 -8 6 -10 20 -6 57 17 27 17 59
35 72 41 15 6 22 18 22 37 0 28 37 77 75 100 26 15 35 16 35 2z m-669 -1535
l-1 -93 -54 -78 c-30 -43 -72 -97 -95 -121 -22 -23 -40 -43 -39 -45 2 -1 -16
-40 -39 -87 -22 -47 -44 -101 -48 -120 -4 -19 -11 -41 -15 -50 -5 -8 -16 -55
-26 -104 l-19 -90 -50 -14 c-27 -7 -61 -16 -74 -19 l-24 -6 8 69 c4 37 16 100
27 139 11 38 24 101 28 138 11 82 12 88 62 207 41 97 59 121 141 177 30 21 65
60 100 115 62 95 80 128 72 128 -4 0 -3 5 1 11 4 8 14 -2 26 -26 16 -30 20
-57 19 -131z m-11 -294 c-3 -58 0 -112 7 -140 35 -135 53 -190 77 -235 14 -27
29 -66 32 -85 3 -19 13 -41 22 -47 9 -7 11 -13 5 -13 -6 0 2 -26 17 -57 18
-36 25 -62 19 -67 -5 -6 -9 -17 -9 -25 0 -13 2 -14 9 -2 7 11 13 7 25 -18 9
-17 14 -31 11 -31 -3 0 4 -17 15 -37 11 -21 20 -42 20 -48 0 -6 9 -16 20 -23
11 -7 20 -20 20 -31 0 -10 9 -26 20 -36 11 -10 20 -27 20 -37 0 -23 51 -130
70 -148 16 -14 50 -70 50 -82 0 -7 13 -28 28 -46 15 -18 28 -41 29 -52 1 -12
-22 -45 -59 -82 -80 -83 -114 -134 -155 -232 -19 -44 -38 -90 -43 -101 -14
-30 -39 -138 -42 -178 -2 -19 -6 -33 -10 -31 -4 2 -8 -10 -10 -28 -2 -17 -9
-33 -15 -36 -20 -6 -16 62 5 89 10 13 24 60 31 104 7 44 17 88 22 97 12 23 11
135 -1 143 -18 11 -10 41 15 55 25 13 33 30 15 30 -5 0 -10 -5 -10 -11 0 -5
-5 -7 -10 -4 -8 5 -7 11 0 20 7 8 9 19 6 24 -4 5 -8 99 -11 208 -5 222 -16
337 -40 411 -10 28 -15 57 -13 64 3 7 -3 19 -12 28 -10 8 -32 51 -51 95 -18
44 -46 102 -60 130 -27 48 -49 69 -49 45 0 -10 -4 -10 -15 0 -11 9 -19 10 -28
1 -33 -27 -50 195 -23 299 8 30 19 82 26 114 10 51 31 112 34 104 1 -2 -1 -46
-4 -98z m2219 -365 c5 -66 10 -149 10 -185 1 -103 -30 -240 -55 -240 -6 0 -15
-16 -18 -35 -4 -19 -10 -35 -14 -36 -4 0 -21 -2 -38 -4 -28 -4 -32 -1 -37 23
-3 15 -1 34 3 43 6 10 5 21 -3 28 -9 10 -8 15 6 25 9 7 17 23 17 34 0 22 24
52 42 52 7 0 6 5 -1 14 -13 16 -5 66 11 66 6 0 7 7 4 16 -4 9 -1 23 5 30 14
17 2 94 -14 94 -7 0 -6 4 3 10 12 7 12 12 0 34 -10 20 -11 31 -2 51 15 32 15
45 2 45 -5 0 -10 -8 -10 -19 0 -19 -47 -77 -56 -68 -3 3 5 14 17 25 13 13 19
27 16 37 -6 14 1 38 26 92 5 12 11 32 12 45 1 13 3 25 5 28 1 3 3 16 4 30 1
14 3 39 5 55 5 54 50 -163 60 -290z m-5614 -245 c22 -10 69 -24 103 -32 60
-12 66 -11 103 10 39 23 39 23 39 2 0 -12 6 -33 14 -48 18 -35 52 -199 43
-208 -10 -10 -215 15 -272 33 -45 14 -118 57 -169 97 -23 18 -24 87 -2 120 39
61 57 64 141 26z m-605 -57 c44 -42 88 -89 96 -106 15 -28 15 -31 -5 -50 -11
-11 -56 -32 -100 -47 -66 -23 -81 -25 -85 -13 -10 25 -7 293 3 293 5 0 46 -34
91 -77z m-583 -94 c-18 -29 7 -41 45 -21 23 11 27 17 17 23 -12 7 -11 9 1 9 8
1 32 2 52 4 20 2 43 -1 50 -5 10 -7 10 -9 1 -9 -8 0 -13 -13 -13 -30 0 -16 5
-30 10 -30 6 0 10 -5 10 -11 0 -6 -7 -9 -15 -5 -8 3 -15 3 -15 0 0 -3 14 -10
31 -16 l31 -11 -42 -18 c-23 -11 -48 -19 -56 -19 -19 0 -27 19 -14 35 21 26 1
37 -59 33 l-56 -4 -23 43 c-12 23 -18 45 -13 48 6 3 12 1 16 -5 3 -5 13 -10
21 -10 11 0 13 6 8 22 -6 20 -5 21 9 10 13 -11 14 -17 4 -33z m233 -155 c0
-13 3 -14 14 -5 7 6 20 9 29 5 22 -8 29 -34 11 -41 -13 -5 -13 -8 2 -24 15
-17 19 -18 34 -4 14 13 18 12 33 -5 19 -22 22 -40 8 -40 -12 0 -41 -29 -41
-41 0 -5 12 -9 28 -10 15 0 21 -3 12 -6 -15 -6 -50 -38 -50 -47 0 -3 5 -17 12
-33 11 -28 14 -37 16 -60 1 -7 11 -13 21 -13 11 0 23 -5 27 -12 4 -6 3 -8 -4
-5 -17 11 -40 -3 -46 -29 -4 -14 -12 -24 -19 -23 -38 5 -49 -20 -26 -62 8 -15
7 -24 -2 -35 -11 -13 -15 -10 -33 18 -17 27 -21 29 -24 14 -2 -11 3 -23 12
-28 23 -13 20 -27 -10 -38 -19 -8 -25 -16 -22 -35 4 -36 -47 -81 -89 -77 -17
2 -37 10 -43 17 -9 11 -17 12 -31 4 -11 -5 -24 -7 -29 -4 -15 9 10 54 34 58
18 4 18 4 -4 6 -30 2 -70 33 -70 55 0 9 -4 16 -8 16 -5 0 -9 7 -9 15 0 9 6 14
12 11 13 -5 35 12 35 27 0 4 -9 6 -19 2 -23 -7 -30 2 -33 44 -1 18 -5 34 -9
37 -7 4 -23 -53 -20 -73 1 -7 -3 -13 -9 -13 -12 0 -13 6 0 49 6 21 6 40 0 51
-7 13 -6 20 3 23 9 3 9 9 0 26 -16 25 -17 51 -3 51 16 0 12 27 -5 34 -22 8
-18 25 7 35 22 8 22 8 -3 14 -17 4 -28 17 -37 47 -14 46 -8 68 14 49 11 -9 18
-8 30 1 9 9 43 13 90 13 50 0 78 4 85 13 6 8 22 14 35 14 13 0 24 4 24 9 0 5
8 12 18 14 36 10 52 7 52 -9z m5015 -1286 c14 -6 26 -16 27 -22 4 -34 3 -64
-4 -60 -11 7 -10 -4 3 -28 8 -15 8 -22 -1 -28 -7 -5 -14 -23 -16 -42 -6 -77
-12 -99 -29 -118 -14 -15 -15 -20 -4 -20 10 0 11 -2 2 -8 -6 -4 -15 -21 -19
-37 -9 -39 -37 -62 -71 -61 -27 1 -28 3 -25 45 3 32 0 41 -9 36 -9 -6 -11 3
-6 40 4 26 3 53 -2 59 -5 6 -11 46 -13 89 -4 63 -2 77 8 73 9 -4 14 2 14 18 0
16 5 23 17 22 10 0 22 9 28 21 7 17 15 21 32 17 14 -4 23 -2 23 5 0 14 13 14
45 -1z"/>
<path d="M5763 6024 c-19 -19 -23 -28 -14 -37 17 -17 13 -37 -9 -37 -21 0 -26
-16 -11 -39 6 -9 11 -10 15 -2 4 6 4 11 1 11 -10 0 18 26 43 39 20 10 23 9 34
-14 13 -28 25 -31 52 -10 26 19 34 19 39 -2 4 -15 5 -14 6 3 0 11 -6 29 -14
40 -8 10 -15 30 -15 43 0 21 -3 23 -35 18 -19 -3 -35 -2 -35 4 0 18 -31 9 -57
-17z"/>
<path d="M0 3441 c0 -269 1 -289 17 -287 13 1 19 -8 21 -31 5 -48 22 -56 135
-61 79 -3 123 1 197 17 124 28 135 38 125 125 -5 53 -10 66 -24 66 -9 0 -21
-4 -26 -9 -25 -22 -156 -44 -282 -47 -123 -2 -133 -1 -133 15 0 10 6 23 12 28
23 18 107 42 191 54 45 6 84 13 86 15 2 2 -2 12 -11 21 -8 10 -22 46 -32 81
-35 134 -107 231 -205 281 -75 39 -71 55 -71 -268z"/>
<path d="M35 2659 l-35 -31 0 -249 0 -249 46 0 c63 0 180 28 196 47 10 13 8
19 -14 37 -29 24 -62 82 -50 90 14 8 86 -31 114 -62 25 -27 83 -48 93 -32 6
10 -16 191 -27 222 -7 18 -15 25 -26 21 -12 -5 -14 -2 -9 11 4 10 3 15 -3 11
-5 -3 -15 5 -22 20 -10 21 -8 32 10 65 19 37 21 70 2 70 -4 0 -39 -22 -78 -50
-39 -27 -74 -50 -77 -50 -10 0 -4 36 10 54 19 25 10 54 -24 83 -36 31 -64 28
-106 -8z"/>
<path d="M380 2029 c-25 -16 -88 -43 -140 -59 -101 -32 -139 -50 -108 -50 9 0
20 5 23 10 3 6 18 7 32 4 17 -5 24 -3 20 3 -4 7 8 14 29 18 20 3 51 14 70 23
57 27 56 30 83 -250 5 -53 12 -102 16 -108 9 -15 -4 -50 -20 -50 -12 0 -17 18
-46 175 -14 74 -17 96 -19 140 -1 35 -2 37 -11 17 -5 -13 -6 -28 -3 -34 6 -10
-26 -39 -37 -32 -4 2 -12 -3 -19 -11 -7 -8 -24 -15 -37 -15 -14 0 -49 -7 -79
-16 -42 -12 -58 -13 -69 -4 -8 6 -18 9 -24 6 -5 -3 -12 1 -15 10 -4 12 -2 15
9 10 10 -4 15 1 15 15 0 15 -5 19 -16 15 -9 -3 -20 -6 -25 -6 -5 0 -9 -32 -9
-70 0 -51 5 -80 20 -107 25 -47 25 -91 0 -123 -11 -14 -20 -41 -20 -60 0 -34
1 -35 37 -33 21 1 56 7 78 13 22 6 68 18 103 26 34 7 76 21 93 29 16 9 34 13
39 10 6 -3 10 -2 10 3 0 5 20 13 45 16 36 6 48 13 65 41 19 31 20 40 10 122
-6 48 -17 124 -25 168 -8 44 -17 102 -20 129 -3 28 -7 51 -8 53 -2 1 -23 -11
-47 -28z"/>
<path d="M8674 1128 c-3 -5 2 -18 11 -28 16 -18 17 -50 2 -61 -4 -3 1 -16 11
-30 23 -29 35 -65 34 -101 0 -16 3 -28 8 -28 5 0 10 -10 12 -21 4 -30 33 -48
50 -31 21 21 12 133 -11 152 -11 8 -23 32 -26 52 -8 40 -28 64 -45 53 -5 -3
-13 1 -17 10 -3 10 0 20 6 25 9 5 6 9 -8 13 -12 3 -24 1 -27 -5z"/>
<path d="M3555 993 c11 -122 14 -213 6 -217 -4 -3 -6 -18 -3 -34 5 -38 -24
-86 -47 -77 -9 4 -21 8 -27 9 -7 1 -19 8 -28 15 -20 16 -72 17 -91 1 -7 -6
-16 -27 -20 -48 -3 -20 -11 -51 -17 -68 -10 -27 -14 -30 -49 -28 -35 2 -39 0
-39 -23 0 -22 -4 -25 -25 -21 -34 7 -40 -7 -16 -34 23 -24 27 -38 11 -38 -5 0
-10 4 -10 8 0 5 -6 17 -14 27 -12 16 -16 17 -30 6 -14 -12 -16 -10 -16 17 0
17 -4 34 -10 37 -5 3 -10 2 -10 -4 0 -5 -18 -12 -41 -16 -34 -6 -44 -3 -64 15
-27 25 -49 18 -41 -13 6 -23 -8 -54 -36 -78 -22 -20 -23 -29 -1 -29 9 0 13 -3
9 -7 -4 -4 -17 -8 -29 -8 -15 0 -23 -7 -25 -22 -2 -13 -9 -23 -15 -23 -7 0
-17 -10 -22 -22 -6 -12 -21 -25 -35 -29 -24 -7 -24 -7 -2 -8 27 -1 29 -21 2
-28 -12 -3 -20 -14 -20 -26 0 -11 -8 -26 -17 -33 -10 -7 -18 -18 -18 -26 0 -7
-11 -14 -25 -16 -62 -7 -69 -11 -76 -50 -4 -25 -18 -47 -43 -69 l-36 -32 907
-1 c532 0 909 4 912 9 4 5 -3 7 -14 4 -10 -3 -35 5 -54 17 -20 12 -59 23 -88
26 -28 3 -81 19 -116 35 -51 25 -63 35 -59 50 3 10 0 20 -6 20 -7 1 -17 2 -23
3 -15 1 -64 54 -64 67 0 6 -4 8 -9 4 -13 -8 -41 23 -41 46 0 21 -15 26 -24 7
-3 -7 -4 0 -2 15 2 20 0 27 -9 23 -8 -3 -11 2 -8 14 3 11 -2 27 -11 35 -9 9
-16 23 -16 31 0 8 -3 14 -8 14 -4 0 -13 15 -20 33 -37 92 -119 262 -136 280
-6 7 -20 28 -30 47 -11 19 -26 41 -33 48 -7 7 -13 21 -13 31 0 9 -4 21 -8 27
-10 12 -29 70 -37 117 -9 54 -25 46 -20 -10z"/>
<path d="M8626 813 c-10 -10 -7 -25 4 -18 6 3 10 1 10 -6 0 -6 6 -17 14 -23 8
-6 28 -38 45 -71 31 -60 31 -60 9 -65 -19 -5 -22 -13 -22 -60 -1 -34 6 -68 16
-90 10 -19 18 -36 18 -37 0 -2 -13 -3 -30 -3 -16 0 -30 -4 -30 -10 0 -5 5 -10
10 -10 14 0 30 -45 32 -87 1 -19 5 -36 10 -39 5 -3 5 -11 -1 -18 -13 -15 -8
-45 9 -56 11 -7 10 -13 -3 -34 -18 -26 -23 -91 -9 -100 5 -3 8 -23 8 -46 l-1
-40 53 0 c54 0 60 7 53 60 -7 57 -8 207 -1 220 11 21 -17 120 -33 120 -9 0 -9
2 -1 8 7 4 14 31 17 60 3 30 1 50 -4 46 -13 -8 -11 20 3 34 9 9 9 12 -1 12 -7
0 -9 5 -6 11 4 6 -1 16 -10 23 -14 10 -15 17 -6 34 6 11 8 27 5 36 -4 12 0 14
20 10 26 -4 36 9 16 21 -5 3 -10 17 -10 30 0 13 -7 28 -17 33 -9 6 -14 16 -10
25 3 8 0 18 -8 20 -16 7 -49 -28 -40 -42 3 -6 2 -11 -2 -11 -5 0 -14 9 -21 20
-7 11 -21 20 -31 20 -11 0 -26 7 -34 15 -8 8 -17 11 -21 8z"/>
<path d="M9700 780 c0 -10 -4 -29 -10 -42 -5 -13 -14 -54 -19 -93 -5 -38 -14
-86 -20 -105 -5 -19 -17 -64 -26 -100 -28 -115 -56 -200 -73 -216 -21 -21 -52
-80 -52 -99 0 -8 -9 -19 -20 -25 -11 -6 -20 -17 -20 -25 0 -8 -4 -15 -10 -15
-5 0 -10 -8 -10 -18 0 -10 -5 -23 -12 -30 -9 -9 4 -12 58 -12 63 0 72 2 82 23
14 26 60 209 69 273 3 24 9 44 14 44 4 0 7 12 7 28 0 15 7 77 16 137 10 61 19
124 22 140 16 108 20 155 12 155 -4 0 -8 -9 -8 -20z"/>
<path d="M2145 367 c-55 -35 -170 -108 -255 -161 -144 -91 -290 -193 -290
-202 0 -2 126 -4 280 -4 l280 0 -11 26 c-14 37 -14 97 0 179 9 54 21 85 55
135 55 83 59 90 49 90 -4 0 -53 -29 -108 -63z"/>
<path d="M8499 423 c-1 -5 -1 -16 0 -25 1 -10 -4 -18 -13 -18 -9 0 -16 -8 -16
-18 0 -10 -4 -22 -9 -27 -4 -6 -19 -41 -32 -80 -13 -38 -29 -79 -36 -90 -7
-11 -13 -29 -13 -40 0 -12 -9 -40 -20 -63 -11 -22 -20 -46 -20 -52 0 -6 37
-10 101 -10 l101 0 -6 33 c-13 72 -15 111 -7 121 5 6 8 24 7 40 -1 15 3 30 9
32 13 5 11 121 -4 157 -6 16 -11 33 -11 38 0 11 -29 12 -31 2z"/>
</g>
</svg>
