<?xml version="1.0" standalone="no"?>
<!DOCTYPE svg PUBLIC "-//W3C//DTD SVG 20010904//EN"
 "http://www.w3.org/TR/2001/REC-SVG-20010904/DTD/svg10.dtd">
<svg version="1.0" xmlns="http://www.w3.org/2000/svg"
 width="1200.000000pt" height="1600.000000pt" viewBox="0 0 1200.000000 1600.000000"
 preserveAspectRatio="xMidYMid meet">

<g transform="translate(0.000000,1600.000000) scale(0.100000,-0.100000)"
fill="#000000" stroke="none">
<path d="M2757 11492 c-20 -22 -22 -43 -5 -60 9 -9 7 -16 -10 -32 -12 -11 -20
-26 -17 -33 2 -6 6 -45 9 -86 3 -41 11 -80 17 -87 7 -8 9 -28 5 -49 -7 -37
-26 -49 -26 -16 0 10 -7 21 -15 25 -8 3 -15 12 -15 21 0 8 -5 15 -11 15 -6 0
-9 -3 -7 -8 24 -55 45 -92 54 -92 22 0 45 39 51 88 3 28 10 49 14 46 15 -9 10
6 -12 35 -12 16 -23 49 -26 74 -5 44 -5 45 22 39 16 -3 25 -1 22 4 -3 5 -8 34
-12 64 -8 66 -16 77 -38 52z m13 -26 c0 -3 -4 -8 -10 -11 -5 -3 -10 -1 -10 4
0 6 5 11 10 11 6 0 10 -2 10 -4z"/>
<path d="M2612 11258 c-15 -15 -16 -92 -2 -83 6 4 7 11 4 17 -4 6 0 14 7 19
10 6 11 9 2 9 -7 0 -13 7 -13 16 0 14 3 14 15 4 21 -17 33 -3 14 15 -12 12
-17 13 -27 3z"/>
<path d="M2883 11185 c0 -33 -3 -70 -7 -82 -5 -14 -3 -23 3 -23 6 0 11 -5 11
-12 0 -9 -3 -9 -12 0 -16 16 -28 15 -28 -2 0 -14 21 -26 46 -26 19 0 19 133
-1 175 -13 29 -13 29 -12 -30z"/>
<path d="M2820 11040 c0 -5 5 -10 10 -10 6 0 10 5 10 10 0 6 -4 10 -10 10 -5
0 -10 -4 -10 -10z"/>
<path d="M2792 11011 c2 -7 -3 -16 -9 -18 -7 -3 -13 1 -13 7 0 9 -4 9 -16 -1
-13 -10 -17 -10 -26 2 -7 11 -9 9 -5 -9 3 -13 -1 -25 -10 -31 -12 -6 -13 -12
-4 -29 6 -11 10 -29 9 -39 0 -10 0 -31 1 -48 2 -27 3 -28 11 -9 5 12 5 37 1
57 -10 40 -5 52 25 61 12 4 29 16 39 26 15 16 16 23 6 33 -10 9 -12 9 -9 -2z"/>
<path d="M6265 10120 c-22 -5 -57 -9 -79 -9 -29 -1 -37 -4 -32 -16 3 -8 -3
-19 -14 -25 -28 -15 -36 -12 -14 6 18 14 18 15 -6 8 -14 -4 -30 -14 -36 -22
-7 -10 -19 -13 -38 -8 -27 7 -72 -14 -59 -28 4 -3 -8 -3 -27 0 -24 5 -31 4
-26 -4 4 -7 2 -12 -5 -12 -7 0 -27 -18 -46 -39 -18 -22 -52 -49 -76 -61 -61
-31 -111 -61 -117 -70 -3 -5 -42 -27 -88 -51 -45 -23 -82 -45 -82 -49 0 -5
-19 -19 -42 -33 -50 -29 -89 -68 -115 -116 -11 -20 -37 -43 -66 -58 -26 -14
-47 -29 -47 -34 0 -5 -22 -40 -50 -78 -27 -38 -50 -72 -50 -75 0 -4 -9 -19
-20 -34 -22 -31 -55 -167 -54 -227 0 -22 4 -69 8 -105 4 -36 9 -195 12 -355 2
-159 9 -314 15 -343 6 -30 8 -56 6 -59 -3 -2 -23 7 -44 21 -50 34 -85 33 -125
-3 l-33 -29 1 -119 c0 -111 3 -124 38 -218 40 -108 90 -274 112 -369 19 -85
54 -118 132 -124 46 -3 66 0 87 14 26 17 28 17 41 0 17 -24 54 -146 64 -215 5
-31 11 -117 15 -191 3 -74 10 -198 15 -275 6 -77 10 -196 10 -265 l0 -126 -50
-49 c-27 -27 -50 -54 -49 -60 0 -5 3 -4 6 3 2 6 9 12 14 12 5 0 3 -15 -4 -33
-25 -59 -4 -161 69 -332 34 -79 48 -110 99 -215 l27 -55 -25 26 c-14 15 -37
57 -51 95 -15 38 -37 92 -50 119 -56 118 -84 207 -92 297 l-7 67 -35 -24 c-27
-19 -40 -22 -59 -14 -49 18 -100 11 -136 -20 -31 -27 -137 -71 -172 -71 -9 0
-38 -11 -65 -25 -27 -14 -55 -25 -63 -25 -7 0 -26 -14 -43 -31 -35 -37 -73
-54 -168 -75 -110 -25 -154 -43 -203 -86 -45 -39 -46 -39 -107 -33 l-61 6 -50
-51 c-53 -55 -161 -116 -275 -155 -177 -61 -421 -176 -500 -235 -201 -150
-324 -296 -368 -436 -25 -82 -94 -432 -116 -594 -9 -63 -23 -149 -31 -190 -8
-41 -14 -115 -15 -164 0 -74 -6 -106 -34 -191 -19 -57 -40 -131 -47 -166 -17
-87 -14 -269 6 -354 40 -179 39 -165 17 -378 -20 -183 -41 -441 -58 -683 -7
-95 -1 -117 38 -160 17 -20 50 -175 64 -304 3 -25 9 -56 14 -70 10 -29 33
-108 37 -130 1 -8 18 -69 38 -135 20 -66 37 -127 39 -135 10 -39 28 -108 37
-135 5 -16 18 -70 30 -120 11 -49 27 -112 35 -140 8 -27 30 -108 50 -180 82
-297 162 -445 350 -647 l44 -48 3395 0 c2709 0 3395 3 3395 13 0 9 2 9 8 -1 7
-10 183 -12 848 -10 832 3 839 3 837 23 -5 39 -4 150 1 186 4 26 1 41 -9 49
-8 7 -15 26 -15 42 0 23 -4 28 -17 24 -23 -7 -48 8 -39 23 4 6 0 18 -8 27 -9
9 -13 20 -10 26 4 6 2 8 -4 4 -6 -3 -14 -2 -17 4 -4 6 -15 8 -26 5 -23 -8 -27
20 -4 29 9 3 15 18 15 35 0 20 10 40 31 61 30 29 31 35 26 85 -4 37 -1 59 9
73 12 17 12 22 0 31 -12 10 -15 2 -21 -41 -4 -29 -12 -58 -17 -65 -5 -7 -7
-17 -3 -23 4 -6 1 -18 -6 -26 -9 -11 -14 -12 -20 -3 -5 9 -10 9 -21 -2 -22
-25 -39 -59 -28 -59 5 0 10 -4 10 -9 0 -10 -61 -8 -78 3 -6 4 -9 13 -5 21 3
11 -2 15 -17 15 -19 0 -20 3 -10 15 9 11 8 18 -9 36 -17 18 -21 20 -21 6 0 -8
5 -19 10 -22 11 -7 -12 -35 -29 -35 -13 0 -14 13 -3 24 4 4 7 19 7 32 1 19 -5
27 -25 31 -29 5 -31 10 -33 82 -1 27 -4 48 -7 46 -8 -5 -5 120 4 133 5 8 2 10
-8 6 -21 -8 -20 6 2 22 16 12 15 13 -5 14 -24 0 -43 22 -25 28 7 2 9 9 6 14
-4 6 1 17 10 24 16 11 15 14 -8 38 -32 31 -32 41 -1 70 14 13 25 27 25 32 0 5
-4 5 -8 -1 -4 -5 -22 -18 -41 -28 l-33 -17 6 35 c4 21 3 35 -3 35 -5 0 -9 14
-9 31 1 32 18 20 18 -13 0 -10 7 -18 15 -18 8 0 15 7 15 15 0 8 -4 15 -8 15
-4 0 -6 16 -4 35 2 19 8 35 13 35 16 0 9 18 -8 23 -10 2 3 3 30 2 26 -1 47 2
47 6 0 10 52 26 73 21 9 -2 17 -7 17 -12 0 -4 9 -10 20 -13 13 -3 20 0 20 9 0
8 7 17 15 20 8 4 15 13 15 21 0 11 -7 13 -27 9 -36 -7 -126 17 -132 35 -2 8
-11 20 -20 27 -12 10 -13 15 -4 18 8 4 4 13 -12 28 -14 13 -25 31 -25 41 0 10
-19 47 -41 82 -32 48 -47 63 -65 63 -36 0 -29 27 8 35 27 6 29 9 13 17 -10 6
-20 7 -24 1 -3 -5 -16 -10 -28 -10 -20 -2 -21 1 -11 23 8 18 14 21 20 12 12
-19 44 26 42 60 -2 41 -3 42 -24 42 -16 0 -19 5 -17 23 2 12 2 16 0 10 -10
-28 -30 -13 -25 18 4 30 3 31 -27 27 -21 -3 -31 0 -31 9 0 7 7 13 15 13 8 0
15 5 15 10 0 6 -7 13 -15 16 -8 4 -15 12 -15 19 0 8 -7 20 -15 29 -14 13 -11
14 22 9 21 -3 42 -12 46 -20 11 -18 27 -17 27 2 0 10 -14 17 -40 21 -30 5 -40
11 -40 25 0 21 16 24 54 9 21 -7 26 -6 26 5 0 9 -10 15 -24 15 -35 0 -56 10
-56 26 0 9 11 14 32 14 28 0 30 2 18 14 -8 7 -28 16 -45 19 -16 4 -24 4 -17 1
18 -8 15 -27 -4 -20 -9 4 -27 -1 -40 -9 -21 -13 -24 -13 -24 -1 0 8 9 18 20
21 11 3 20 11 20 16 0 5 -9 9 -20 9 -16 0 -20 7 -20 38 l0 37 -20 -25 c-10
-14 -22 -21 -26 -17 -4 4 -2 7 4 7 7 0 11 11 10 25 -3 31 -15 32 -41 3 -19
-23 -19 -23 -13 -1 4 12 2 24 -4 28 -6 4 -8 15 -5 25 4 13 0 20 -14 25 -11 3
-20 9 -20 13 5 32 -4 51 -26 56 -14 4 -25 13 -25 21 0 8 -4 15 -10 15 -16 0
-11 32 7 45 9 7 13 17 8 25 -6 10 -9 9 -17 -1 -7 -11 -11 -11 -15 -1 -10 26
-30 12 -25 -18 3 -19 0 -30 -7 -30 -7 0 -11 11 -9 26 4 33 -18 43 -27 14 -5
-16 -10 -19 -18 -11 -8 8 -8 14 1 23 8 8 6 19 -10 42 -12 17 -22 32 -23 34 -1
1 -9 0 -18 -3 -24 -10 -30 -48 -9 -64 15 -12 15 -12 -6 -6 -24 7 -25 8 5 -44
1 -2 12 7 24 20 l21 24 -6 -22 c-15 -57 -17 -68 -8 -50 7 17 9 16 30 -3 12
-11 22 -27 22 -34 0 -8 7 -16 15 -20 8 -3 15 -12 15 -21 0 -8 5 -15 10 -15 6
0 10 -5 10 -11 0 -6 -7 -8 -16 -5 -12 5 -15 2 -10 -10 3 -8 6 -20 6 -26 0 -5
7 -2 16 6 12 13 20 14 37 4 21 -11 21 -11 2 -19 -17 -6 -17 -8 -3 -8 10 -1 22
-10 29 -22 8 -16 14 -18 22 -10 9 9 8 17 -1 31 -10 17 -10 20 5 20 9 0 14 -3
10 -6 -3 -3 1 -23 8 -45 14 -39 11 -69 -6 -69 -5 0 -9 5 -9 10 0 6 5 10 12 10
6 0 9 2 6 5 -3 3 -12 3 -21 0 -22 -9 -28 -57 -10 -77 9 -10 11 -18 5 -18 -6 0
-14 4 -17 10 -3 5 -18 10 -33 10 -22 0 -30 -7 -40 -32 -13 -36 -12 -41 12 -32
9 3 16 17 16 30 0 27 17 32 26 9 4 -8 11 -12 16 -9 6 4 8 -4 6 -17 -2 -18 -8
-23 -24 -21 -12 2 -24 -4 -27 -13 -8 -19 -36 -20 -43 0 -4 8 -10 15 -14 15
-17 0 -17 -29 0 -68 11 -24 15 -42 9 -42 -6 0 -13 9 -16 20 -3 11 -9 20 -14
20 -10 0 -12 80 -3 104 3 8 12 12 20 9 8 -3 14 0 14 6 0 6 -13 11 -30 11 -27
0 -30 -3 -32 -32 0 -18 0 -41 1 -52 1 -16 -1 -17 -14 -6 -12 10 -13 16 -4 26
9 11 8 14 -1 14 -9 0 -9 4 1 17 12 13 12 17 1 21 -10 3 -7 8 8 19 15 11 18 18
10 28 -6 7 -8 19 -5 27 5 11 -1 14 -24 10 -26 -4 -29 -2 -24 18 4 16 12 21 29
17 22 -4 23 -3 8 24 -16 32 -34 38 -34 13 0 -9 -9 -27 -19 -40 -15 -19 -20
-21 -25 -9 -3 8 -2 25 3 38 5 12 5 31 0 42 -13 33 -11 35 36 35 33 0 45 -4 45
-15 0 -8 5 -15 10 -15 6 0 10 4 10 9 0 6 -4 13 -10 16 -5 3 -10 14 -10 23 0
22 -66 24 -80 2 -7 -11 -9 -4 -5 23 2 20 0 37 -4 37 -5 0 -8 11 -8 25 0 14 3
25 8 25 5 0 9 9 9 20 0 11 -4 20 -8 20 -5 0 -9 19 -9 43 0 23 -4 52 -8 65 -6
17 -3 22 10 22 13 0 16 5 10 23 -3 12 -10 35 -14 51 -3 16 -13 32 -20 34 -11
4 -12 -2 -7 -24 4 -16 12 -31 17 -32 6 -3 6 -8 0 -16 -6 -7 -12 -27 -13 -45
-3 -39 -11 -46 -37 -30 -16 10 -17 16 -7 33 6 12 15 24 20 27 12 10 -3 49 -20
49 -17 0 -19 31 -2 48 9 9 7 12 -9 12 -12 0 -25 -5 -28 -10 -8 -13 -35 -13
-35 0 0 6 7 10 16 10 8 0 12 5 9 10 -3 6 -15 10 -26 10 -25 0 -46 49 -27 62
10 6 10 8 1 8 -7 0 -13 6 -13 14 0 8 6 16 13 19 6 2 9 8 5 12 -8 8 -38 -18
-38 -33 0 -6 6 -13 13 -16 6 -3 3 -4 -8 -3 -15 2 -20 10 -18 30 1 15 -2 25 -8
22 -5 -4 -9 1 -9 10 0 10 8 15 23 14 51 -5 69 4 22 11 -53 7 -87 -4 -78 -27 3
-8 -3 -13 -16 -13 -26 0 -26 5 -1 37 20 26 18 48 -5 39 -7 -2 -21 2 -32 9 -17
14 -17 14 0 15 10 0 27 -5 38 -10 16 -9 19 -7 19 8 0 23 -25 46 -40 37 -6 -4
-10 6 -10 24 0 17 5 31 11 31 5 0 7 5 4 10 -4 7 -16 1 -30 -15 -28 -29 -35
-31 -35 -10 0 8 7 15 15 15 8 0 15 9 15 21 0 16 -4 19 -20 14 -24 -8 -26 2 -3
27 9 11 11 18 5 18 -7 0 -12 6 -12 14 0 8 -5 16 -11 18 -9 3 -9 10 1 27 11 21
10 23 -4 18 -9 -4 -15 -3 -14 1 2 4 -9 19 -22 34 -48 51 -52 58 -35 58 17 0
20 16 4 26 -8 4 -7 9 2 15 10 6 4 12 -20 22 -30 13 -32 15 -15 25 15 8 16 13
5 26 -7 8 -10 20 -6 26 3 5 -1 10 -9 10 -9 0 -16 -9 -16 -20 0 -11 -9 -29 -20
-40 -15 -15 -20 -16 -20 -6 0 8 5 18 10 21 6 3 10 15 10 25 0 10 6 20 13 23 9
3 9 10 -3 32 -10 19 -11 30 -4 32 6 2 8 17 6 35 -4 28 -6 30 -12 12 -7 -16
-15 -19 -44 -16 -36 4 -36 5 -20 23 16 18 16 19 -4 19 -34 0 -52 11 -52 32 0
11 -8 22 -20 25 -11 3 -20 14 -20 24 0 11 -4 19 -10 19 -5 0 -10 6 -10 14 0 9
13 16 33 19 l32 4 -32 1 c-22 2 -34 8 -38 22 -3 11 -15 20 -26 20 -10 0 -19 5
-19 10 0 6 11 10 25 10 14 0 25 5 25 10 0 6 -5 10 -11 10 -6 0 -9 9 -6 20 4
15 0 20 -13 20 -11 0 -22 -5 -25 -10 -8 -13 -25 -13 -25 0 0 6 7 10 15 10 11
0 15 11 15 40 0 39 -1 40 -35 40 -35 0 -35 0 -35 45 0 25 5 45 10 45 6 0 10 5
10 11 0 6 -9 8 -21 4 -18 -6 -20 -4 -14 15 5 14 3 20 -3 16 -14 -8 -43 4 -36
15 3 5 1 9 -3 9 -14 0 -33 58 -20 63 24 8 -6 29 -34 23 -34 -7 -36 -2 -8 27
l20 22 -20 3 c-12 2 -21 8 -21 13 0 5 -9 9 -20 9 -13 0 -18 5 -14 15 4 8 -1
17 -10 21 -27 11 -18 22 27 32 23 6 34 10 23 11 -13 1 -17 7 -13 20 3 13 -5
26 -25 41 -20 15 -28 28 -25 41 3 10 1 17 -4 13 -5 -3 -9 -12 -9 -20 0 -20
-20 -17 -21 4 0 13 -2 14 -6 2 -6 -16 -23 -30 -36 -30 -4 0 -1 13 8 30 17 33
20 60 6 60 -5 0 -12 -8 -14 -17 -4 -17 -5 -17 -6 0 -1 21 -21 23 -21 2 0 -21
-22 -14 -36 11 -15 27 -25 104 -13 104 5 0 9 -4 9 -10 0 -5 7 -10 15 -10 13 0
13 3 3 20 -10 16 -10 24 0 40 10 17 10 20 -3 20 -8 0 -15 -4 -15 -10 0 -5 -12
-10 -27 -10 -20 0 -24 3 -14 9 11 7 11 9 0 14 -8 4 -2 4 12 1 21 -4 27 -1 32
17 8 30 2 35 -20 18 -15 -12 -16 -12 -10 4 4 10 7 20 7 23 0 2 8 0 17 -3 13
-5 15 -3 8 13 -17 42 3 199 34 257 l20 38 21 -21 c26 -26 34 -20 36 25 0 20
15 54 36 86 l35 53 -23 34 c-13 19 -24 42 -24 51 -1 26 -23 47 -58 54 -29 6
-34 4 -43 -20 -6 -15 -8 -35 -6 -45 6 -21 -21 -149 -34 -162 -5 -6 -9 -18 -9
-28 0 -9 -8 -25 -18 -35 -10 -10 -24 -42 -30 -71 -11 -51 -46 -97 -64 -85 -14
8 -9 21 10 26 13 3 10 7 -13 16 -16 7 -37 10 -47 8 -20 -6 -22 1 -10 21 7 10
15 10 36 2 34 -13 46 -13 46 0 0 6 -7 10 -15 10 -25 0 -65 23 -65 37 0 18 -29
17 -36 -1 -3 -8 -12 -12 -19 -10 -9 4 -7 -8 8 -39 12 -25 26 -42 31 -39 5 3 7
-2 3 -11 -3 -9 1 -33 9 -53 8 -20 14 -43 12 -52 -2 -8 -13 11 -26 44 -55 141
-144 278 -190 295 -19 6 -56 30 -82 53 -45 38 -94 75 -145 111 -20 14 -20 14
3 15 12 0 22 -5 22 -11 0 -6 8 -8 19 -4 14 4 18 1 17 -11 -1 -21 14 -27 34
-14 13 9 13 11 0 20 -12 8 -11 10 5 8 11 -2 20 2 20 7 0 6 -2 9 -5 9 -3 -1
-15 -5 -27 -9 -17 -4 -23 -2 -23 9 0 8 5 18 10 21 6 3 10 12 10 18 0 7 -7 4
-14 -5 -7 -10 -18 -18 -25 -18 -6 0 -11 -4 -11 -10 0 -12 -30 -1 -49 17 -19
19 -5 29 15 12 14 -11 18 -11 22 -1 2 7 10 18 17 26 12 11 10 14 -12 14 -15 0
-20 -3 -13 -8 10 -6 9 -9 0 -15 -7 -4 -16 -2 -20 5 -4 7 -15 10 -23 7 -25 -9
-28 5 -5 21 20 15 20 16 3 29 -11 7 -35 13 -54 13 -56 0 -80 10 -83 34 -3 18
-8 21 -46 18 -34 -3 -41 -1 -36 11 3 9 -2 27 -11 41 -15 23 -19 24 -32 10 -14
-13 -27 -13 -69 3 -6 2 -11 -3 -11 -11 0 -8 4 -13 9 -10 4 3 12 -6 18 -20 9
-25 19 -31 49 -27 7 2 10 -2 7 -7 -3 -5 16 -19 42 -31 76 -34 145 -76 151 -92
4 -12 2 -12 -13 1 -33 27 -124 73 -190 96 -21 8 -44 18 -50 22 -6 5 -30 14
-53 22 -39 12 -58 30 -33 30 6 0 10 5 10 10 0 6 -7 10 -15 10 -8 0 -15 -7 -15
-16 0 -17 -28 -12 -65 10 -22 14 -252 117 -300 134 -16 6 -50 16 -75 23 -25 6
-108 43 -185 82 -77 38 -170 85 -207 104 -39 19 -79 48 -95 68 -38 49 -87 77
-147 87 -102 16 -132 26 -185 62 -29 20 -58 36 -63 36 -7 0 -8 24 -4 68 12
129 27 328 35 487 8 135 12 166 30 196 33 56 96 207 115 276 9 34 22 104 29
155 l13 92 33 7 c53 11 84 49 86 106 2 54 39 179 97 327 50 126 60 182 52 276
-6 63 -11 79 -35 102 -32 32 -74 36 -120 13 -32 -17 -57 -12 -41 8 14 17 21
134 28 462 5 237 3 311 -10 405 -9 63 -21 151 -27 195 -6 44 -16 98 -22 120
-7 22 -11 44 -9 48 5 16 -49 95 -70 100 -17 5 -19 9 -9 21 14 17 5 25 -37 32
-44 8 -77 29 -74 46 3 20 -50 65 -105 90 -24 10 -51 30 -60 44 -10 14 -26 34
-35 44 -9 11 -24 33 -33 49 -18 35 -30 41 -20 11 8 -24 -7 -26 -25 -5 -7 9
-18 14 -25 11 -6 -2 -43 19 -81 47 -38 28 -82 58 -99 67 -46 24 -79 44 -85 51
-10 11 -87 37 -130 44 -25 3 -63 9 -85 12 -71 9 -279 12 -320 3z m1054 -434
c23 -27 -3 -18 -39 14 l-35 31 31 -15 c17 -8 36 -22 43 -30z m-1189 -276 c0
-5 -5 -10 -11 -10 -5 0 -7 5 -4 10 3 6 8 10 11 10 2 0 4 -4 4 -10z m170 -14
c0 -11 -19 -15 -25 -6 -3 5 1 10 9 10 9 0 16 -2 16 -4z m-105 -57 c8 -25 30
-19 30 7 0 14 7 19 30 19 29 0 30 -2 33 -47 2 -29 -1 -48 -7 -48 -6 0 -11 7
-11 15 0 8 -4 15 -9 15 -5 0 -8 -18 -7 -40 0 -33 -5 -45 -31 -69 -33 -30 -77
-36 -79 -11 -2 31 -5 35 -15 20 -9 -12 -12 -13 -16 -1 -4 11 -7 11 -13 0 -5
-7 -24 -13 -43 -14 -34 -1 -34 0 -19 23 15 23 16 23 23 6 4 -11 8 -16 8 -12 1
3 4 14 7 23 4 10 2 15 -6 13 -7 -2 -16 6 -19 17 -3 11 -13 20 -21 20 -8 0 -16
9 -18 20 -2 12 0 16 5 9 11 -15 56 -12 76 5 11 9 29 11 50 7 20 -4 27 -3 18 3
-8 5 -9 11 -3 15 6 3 8 16 4 29 -5 19 -4 20 11 9 9 -8 19 -23 22 -33z m145 22
c16 -30 12 -36 -10 -16 -21 19 -26 35 -10 35 5 0 14 -9 20 -19z m-286 -16 c-7
-16 -24 -21 -24 -6 0 8 7 13 27 20 1 1 0 -6 -3 -14z m46 -10 c-7 -9 -15 -13
-17 -11 -7 7 7 26 19 26 6 0 6 -6 -2 -15z m45 5 c3 -5 2 -10 -4 -10 -5 0 -13
5 -16 10 -3 6 -2 10 4 10 5 0 13 -4 16 -10z m186 -33 c-5 -5 -7 -16 -4 -23 3
-8 1 -14 -3 -14 -5 0 -9 16 -10 35 -1 28 2 33 13 23 9 -7 10 -15 4 -21z m29
-17 c0 -5 -2 -10 -4 -10 -3 0 -8 5 -11 10 -3 6 -1 10 4 10 6 0 11 -4 11 -10z
m-331 -59 c-15 -5 -22 6 -14 19 6 9 10 9 16 -1 5 -8 4 -15 -2 -18z m281 19 c0
-5 -4 -10 -10 -10 -5 0 -10 5 -10 10 0 6 5 10 10 10 6 0 10 -4 10 -10z m40 1
c0 -5 -6 -11 -12 -14 -9 -3 -7 -10 7 -21 20 -17 20 -17 -2 -11 -18 5 -22 3
-17 -9 3 -9 2 -16 -4 -16 -5 0 -8 10 -7 23 1 12 3 30 4 40 1 17 31 25 31 8z
m-74 -48 c-10 -10 -19 5 -10 18 6 11 8 11 12 0 2 -7 1 -15 -2 -18z m-46 -83
c0 -5 -5 -10 -11 -10 -5 0 -7 5 -4 10 3 6 8 10 11 10 2 0 4 -4 4 -10z m-40
-235 c0 -8 -4 -15 -10 -15 -5 0 -10 7 -10 15 0 8 5 15 10 15 6 0 10 -7 10 -15z
m53 -19 c23 -18 22 -30 -3 -23 -11 3 -23 1 -26 -4 -8 -13 -24 -11 -24 4 0 13
19 37 30 37 3 0 13 -7 23 -14z m57 4 c0 -5 -4 -10 -10 -10 -5 0 -10 5 -10 10
0 6 5 10 10 10 6 0 10 -4 10 -10z m-225 -20 c3 -5 1 -10 -4 -10 -6 0 -11 5
-11 10 0 6 2 10 4 10 3 0 8 -4 11 -10z m99 -18 c19 -22 83 -22 97 -1 4 7 11
10 16 6 14 -15 -14 -42 -46 -45 -17 -2 -31 -8 -31 -13 0 -6 14 -7 33 -4 34 7
47 -2 60 -38 6 -15 3 -17 -12 -12 -11 3 -21 0 -24 -9 -8 -20 4 -28 21 -13 13
10 14 9 10 -3 -2 -8 -17 -16 -31 -18 -21 -3 -27 1 -27 16 0 18 -3 19 -29 9
-30 -11 -66 -3 -56 13 8 13 -1 13 -25 0 -16 -9 -18 -7 -14 15 3 18 0 25 -11
25 -8 0 -15 -5 -15 -12 0 -6 -3 -8 -6 -5 -4 4 -1 13 6 22 15 19 -3 47 -26 38
-8 -3 -14 0 -14 7 0 7 8 10 20 7 11 -3 23 -1 26 5 4 6 10 5 15 -3 7 -11 11
-11 21 -1 10 10 10 15 -2 22 -12 8 -11 10 6 10 11 0 28 -8 38 -18z m186 -104
c-1 -7 -7 -24 -14 -37 -16 -29 -28 -8 -15 27 9 23 29 31 29 10z m-126 -67 c7
-11 -22 -23 -35 -15 -5 3 -9 9 -9 15 0 12 37 12 44 0z m313 -427 c13 -13 14
-17 3 -24 -7 -4 -10 -15 -7 -24 4 -9 2 -16 -3 -16 -6 0 -10 11 -10 24 0 13 -3
31 -6 40 -8 20 3 20 23 0z m4 -114 c5 0 8 -11 7 -24 -4 -41 -28 -10 -27 33 1
23 3 28 6 14 2 -13 9 -23 14 -23z m-636 20 c3 -5 -1 -10 -9 -10 -9 0 -16 5
-16 10 0 6 4 10 9 10 6 0 13 -4 16 -10z m645 -115 c0 -24 -5 -35 -15 -35 -15
0 -20 26 -9 54 11 28 24 17 24 -19z m-342 -37 c17 -17 15 -26 -9 -33 -14 -5
-17 -10 -10 -19 7 -8 4 -15 -9 -24 -16 -9 -19 -8 -22 7 -3 16 -6 17 -37 4 -26
-11 -31 -17 -22 -26 9 -9 16 -9 31 1 21 13 27 3 9 -15 -14 -14 -2 -36 13 -27
7 5 8 2 2 -7 -4 -8 -8 -23 -9 -33 0 -11 -5 -21 -12 -23 -8 -3 -11 7 -9 32 2
33 -1 37 -36 54 l-38 17 20 22 c12 12 27 22 35 22 8 0 15 8 15 17 0 13 3 14
12 5 16 -16 28 -15 28 1 0 13 19 37 30 37 3 0 11 -5 18 -12z m-173 -99 c12
-19 -5 -23 -22 -6 -16 16 -16 17 -1 17 9 0 20 -5 23 -11z m69 -54 c-4 -8 -14
-15 -23 -14 -10 0 -11 2 -3 6 6 2 10 9 6 14 -3 5 2 9 10 9 10 0 13 -6 10 -15z
m-275 -7 c-3 -21 20 -70 30 -64 5 3 7 14 4 24 -2 10 3 25 13 33 16 12 17 12
11 -3 -4 -11 0 -21 10 -26 9 -5 17 -24 18 -42 l2 -32 -19 23 c-10 14 -17 18
-16 9 4 -18 -49 -27 -65 -11 -7 7 -15 7 -24 -1 -18 -15 -29 -2 -14 16 9 11 6
18 -15 33 -32 23 -24 47 12 40 14 -2 27 0 30 4 8 14 25 11 23 -3z m191 -38 c0
-5 -4 -10 -10 -10 -5 0 -10 5 -10 10 0 6 5 10 10 10 6 0 10 -4 10 -10z m-30
-40 c0 -5 -5 -10 -11 -10 -5 0 -7 5 -4 10 3 6 8 10 11 10 2 0 4 -4 4 -10z
m531 -7 c16 -10 28 -22 26 -28 -5 -13 -77 -19 -77 -6 0 6 -8 8 -17 4 -13 -4
-11 1 7 20 30 31 26 31 61 10z m129 -60 c0 -14 -18 -17 -44 -7 -26 10 -18 23
14 22 18 -1 30 -6 30 -15z m-75 -33 c-3 -5 -11 -10 -16 -10 -6 0 -7 5 -4 10 3
6 11 10 16 10 6 0 7 -4 4 -10z m-66 -527 c43 -4 53 -11 46 -34 -5 -14 -4 -19
4 -15 7 4 9 1 5 -7 -3 -8 -1 -18 5 -21 5 -4 12 3 16 14 3 11 10 20 15 20 4 0
10 8 13 19 7 28 77 36 77 9 0 -6 -8 -5 -17 3 -16 13 -17 12 -4 -4 10 -13 17
-15 27 -6 12 9 14 3 14 -33 0 -44 -1 -46 -32 -50 -52 -7 -238 0 -251 10 -7 5
-30 10 -52 11 -56 3 -67 17 -54 66 9 33 13 37 23 24 6 -9 17 -14 25 -11 8 3
22 -6 32 -19 l19 -24 0 23 c0 13 6 22 15 22 9 0 12 6 8 16 -5 14 -3 15 18 3
13 -7 35 -15 48 -16z m-223 -43 c0 -23 -5 -24 -40 -10 -36 13 -32 30 7 30 26
0 33 -4 33 -20z m590 -7 c-10 -10 -19 5 -10 18 6 11 8 11 12 0 2 -7 1 -15 -2
-18z m-101 7 c3 -5 -2 -18 -12 -29 -18 -19 -18 -19 -20 10 -2 29 18 41 32 19z
m90 -30 c3 -5 1 -10 -4 -10 -6 0 -11 5 -11 10 0 6 2 10 4 10 3 0 8 -4 11 -10z
m-475 -60 c8 -5 12 -11 9 -14 -7 -8 -49 5 -49 15 0 12 21 11 40 -1z m320 -39
c0 -13 -25 -20 -40 -11 -10 6 -8 9 6 13 31 8 34 7 34 -2z m-158 -13 c-9 -9
-15 -9 -24 0 -9 9 -7 12 12 12 19 0 21 -3 12 -12z m-993 -1396 c25 -49 51
-112 46 -112 -5 0 -54 89 -70 128 -19 43 0 31 24 -16z m564 -128 c-1 -7 7 -20
17 -29 22 -20 28 -8 8 15 -7 8 -3 6 10 -4 22 -19 32 -43 12 -31 -6 4 -10 -8
-10 -28 0 -39 -11 -51 -60 -65 -32 -9 -32 -10 -8 -11 43 -2 59 10 79 53 18 40
25 34 13 -11 -8 -27 -75 -62 -109 -56 -43 9 -75 47 -75 92 0 51 45 94 94 89
17 -2 30 -8 29 -14z m-471 -47 c19 -28 43 -68 52 -87 l17 -35 -23 27 c-24 28
-93 148 -85 148 2 0 20 -24 39 -53z m3362 27 c9 -3 16 -10 16 -16 0 -14 -43
-5 -48 10 -4 13 7 15 32 6z m16 -94 c13 -11 19 -20 14 -20 -13 1 -61 40 -48
40 6 0 21 -9 34 -20z m730 -45 c-7 -9 -15 -13 -18 -10 -3 2 1 11 8 20 7 9 15
13 18 10 3 -2 -1 -11 -8 -20z m-2133 -22 c-3 -10 -5 -4 -5 12 0 17 2 24 5 18
2 -7 2 -21 0 -30z m2173 10 c0 -20 -3 -24 -11 -16 -7 7 -9 19 -6 27 10 24 17
19 17 -11z m-640 7 c0 -5 -4 -10 -10 -10 -5 0 -10 5 -10 10 0 6 5 10 10 10 6
0 10 -4 10 -10z m-3410 -50 c0 -5 -4 -10 -9 -10 -6 0 -13 5 -16 10 -3 6 1 10
9 10 9 0 16 -4 16 -10z m28 -62 c12 -21 19 -38 17 -38 -7 0 -45 63 -45 74 0
12 1 10 28 -36z m1852 8 c0 -3 -4 -8 -10 -11 -5 -3 -10 -1 -10 4 0 6 5 11 10
11 6 0 10 -2 10 -4z m-10 -106 c0 -22 -3 -40 -7 -40 -7 0 -9 34 -4 70 3 27 11
5 11 -30z m-1792 -5 c-3 -3 -9 2 -12 12 -6 14 -5 15 5 6 7 -7 10 -15 7 -18z
m66 -114 c-5 -6 -33 31 -33 44 -1 6 8 -1 19 -15 10 -14 17 -27 14 -29z m3602
14 c-3 -9 -11 -13 -16 -10 -8 5 -7 11 1 21 14 18 24 11 15 -11z m-3176 -4 c-5
-11 -10 -28 -9 -38 0 -14 3 -12 10 6 15 37 40 51 86 48 57 -4 73 -20 73 -72 0
-35 -5 -48 -26 -64 -54 -42 -131 -16 -154 53 -11 34 2 86 22 86 5 0 4 -9 -2
-19z m1287 -78 c-2 -21 -4 -6 -4 32 0 39 2 55 4 38 2 -18 2 -50 0 -70z m1934
4 c-13 -13 -26 -3 -16 12 3 6 11 8 17 5 6 -4 6 -10 -1 -17z m-1931 -73 c0 -8
-4 -12 -10 -9 -5 3 -10 10 -10 16 0 5 5 9 10 9 6 0 10 -7 10 -16z m0 -45 c0
-5 -4 -9 -10 -9 -5 0 -10 7 -10 16 0 8 5 12 10 9 6 -3 10 -10 10 -16z m-13
-51 c-3 -7 -5 -2 -5 12 0 14 2 19 5 13 2 -7 2 -19 0 -25z m-6 -109 c-6 -24 -9
-28 -10 -12 -1 24 9 56 16 50 2 -3 0 -20 -6 -38z m2068 9 c-1 -7 1 -21 6 -31
4 -10 5 -21 1 -24 -3 -4 -6 2 -6 12 0 18 -1 18 -16 -1 -15 -18 -15 -18 -10 6
3 14 6 31 6 38 0 6 5 12 10 12 6 0 10 -6 9 -12z m-5 -185 c10 -32 23 -53 31
-53 8 0 15 -6 15 -14 0 -8 3 -16 8 -19 4 -2 1 -2 -5 -1 -15 4 -15 2 -7 -20 3
-9 10 -14 14 -11 4 3 8 -1 7 -8 -1 -39 5 -67 16 -79 17 -17 30 -78 16 -78 -5
0 -11 6 -13 13 -25 86 -62 196 -72 212 -6 11 -17 38 -24 60 -7 22 -16 45 -20
50 -12 17 -21 65 -14 77 4 6 13 -9 19 -33 7 -24 20 -68 29 -96z m-2067 95 c-3
-8 -6 -5 -6 6 -1 11 2 17 5 13 3 -3 4 -12 1 -19z m2 -60 c0 -13 -4 -43 -8 -68
-8 -44 -9 -44 -10 23 0 39 3 67 9 67 6 0 10 -10 9 -22z m2241 -58 c0 -5 -4
-10 -10 -10 -5 0 -10 5 -10 10 0 6 5 10 10 10 6 0 10 -4 10 -10z m-40 -20 c0
-12 -17 -12 -45 0 -17 7 -15 9 13 9 17 1 32 -3 32 -9z m70 -20 c9 -17 8 -20
-9 -20 -19 0 -35 23 -24 34 11 11 22 6 33 -14z m-123 -32 c-3 -8 -6 -5 -6 6
-1 11 2 17 5 13 3 -3 4 -12 1 -19z m-2196 -165 c-9 -16 -10 -16 -11 -1 0 9 3
25 7 35 7 16 8 17 11 1 2 -10 -1 -25 -7 -35z m2389 -4 c0 -5 -4 -9 -10 -9 -5
0 -10 7 -10 16 0 8 5 12 10 9 6 -3 10 -10 10 -16z m-152 -98 c6 -24 8 -51 4
-60 -4 -11 -9 -3 -14 24 -4 22 -10 54 -14 70 -4 20 -3 27 3 20 6 -5 15 -30 21
-54z m135 42 c-7 -2 -21 -2 -30 0 -10 3 -4 5 12 5 17 0 24 -2 18 -5z m84 -135
c-3 -7 -5 -2 -5 12 0 14 2 19 5 13 2 -7 2 -19 0 -25z m-191 -108 c2 -41 6 -85
9 -97 3 -13 1 -23 -3 -23 -5 0 -12 37 -16 83 -3 45 -8 100 -11 122 -5 36 -4
37 6 15 6 -14 13 -59 15 -100z m181 18 c-3 -8 -6 -5 -6 6 -1 11 2 17 5 13 3
-3 4 -12 1 -19z m-3513 -54 c3 -8 2 -12 -4 -9 -6 3 -10 10 -10 16 0 14 7 11
14 -7z m3543 10 c-3 -3 -12 -4 -19 -1 -8 3 -5 6 6 6 11 1 17 -2 13 -5z m58
-115 c12 -19 -5 -23 -22 -6 -16 16 -16 17 -1 17 9 0 20 -5 23 -11z m68 -11 c4
-12 4 -24 2 -26 -6 -6 -35 25 -35 37 0 20 28 11 33 -11z m-326 -65 c-2 -16 -4
-3 -4 27 0 30 2 43 4 28 2 -16 2 -40 0 -55z m338 -13 c3 -5 -1 -10 -9 -10 -9
0 -16 5 -16 10 0 6 4 10 9 10 6 0 13 -4 16 -10z m-325 -39 c0 -5 8 -12 18 -16
33 -11 91 -70 107 -107 9 -22 11 -38 5 -38 -5 0 -10 9 -10 21 0 23 -58 85
-108 114 -31 19 -42 35 -22 35 6 0 10 -4 10 -9z m360 -21 c0 -5 -7 -10 -15
-10 -8 0 -15 5 -15 10 0 6 7 10 15 10 8 0 15 -4 15 -10z m-3509 -82 c11 -21
11 -22 -4 -9 -10 7 -17 17 -17 22 0 15 9 10 21 -13z m3569 -19 c0 -5 -9 -9
-20 -9 -19 0 -26 11 -14 23 8 8 34 -3 34 -14z m-2965 -39 c3 -5 1 -10 -4 -10
-6 0 -11 5 -11 10 0 6 2 10 4 10 3 0 8 -4 11 -10z m2676 -132 c-10 -60 -9 -82
4 -123 21 -70 18 -80 -6 -20 -20 49 -20 106 -2 198 12 57 14 16 4 -55z m-3186
32 c9 -16 11 -30 6 -30 -5 0 -14 14 -20 30 -5 17 -8 30 -6 30 3 0 11 -13 20
-30z m55 -91 c0 -6 -4 -7 -10 -4 -5 3 -10 11 -10 16 0 6 5 7 10 4 6 -3 10 -11
10 -16z m3581 -10 l24 -21 -30 8 c-37 8 -39 10 -30 23 8 14 8 14 36 -10z
m-6376 -10 c5 -5 1 -9 -12 -9 -27 0 -38 -16 -18 -24 8 -3 13 -11 11 -18 -1 -7
-1 -10 1 -5 3 4 9 7 14 7 16 0 10 -37 -12 -64 -21 -27 -31 -28 -124 -10 -30 5
-35 11 -41 42 -7 33 -8 34 -16 13 -4 -12 -6 -27 -3 -31 3 -5 2 -16 -2 -26 -12
-32 -23 33 -11 67 11 32 18 35 36 17 8 -8 12 -9 12 -1 0 6 -6 13 -12 16 -22 8
7 29 48 36 46 8 116 2 129 -10z m18 -129 c-3 -11 -12 -20 -19 -20 -17 0 -18 7
-1 25 17 20 26 18 20 -5z m-179 -49 c-2 -3 -12 3 -22 13 -16 17 -16 18 5 5 12
-7 20 -15 17 -18z m6224 -147 c-6 -5 -108 155 -108 169 0 6 25 -29 56 -77 30
-48 54 -90 52 -92z m-6171 140 c-3 -3 -12 -4 -19 -1 -8 3 -5 6 6 6 11 1 17 -2
13 -5z m3133 -14 c25 -22 20 -41 -5 -20 -22 19 -39 -1 -39 -45 0 -20 -4 -34
-10 -32 -13 5 -9 58 5 72 5 5 9 17 9 27 0 23 11 23 40 -2z m-69 -16 c-12 -15
-21 -33 -21 -40 0 -7 -5 -16 -10 -19 -16 -10 -1 46 18 68 24 27 36 20 13 -9z
m125 -108 c-10 -39 -46 -77 -67 -71 -10 4 -19 2 -19 -4 0 -5 12 -12 28 -14 15
-2 -9 -5 -53 -5 -59 -1 -75 1 -62 9 9 6 26 7 37 4 14 -5 20 -2 20 9 0 9 8 16
19 16 30 0 71 39 71 66 0 14 4 22 10 19 6 -3 10 0 11 7 0 11 2 11 6 0 3 -7 2
-23 -1 -36z m-130 5 c-4 -5 0 -12 6 -14 8 -3 6 -6 -4 -6 -10 -1 -18 6 -18 14
0 8 5 15 11 15 5 0 8 -4 5 -9z m54 -9 c0 -12 -3 -12 -17 -1 -10 7 -20 14 -22
16 -2 1 6 1 18 0 11 -1 21 -8 21 -15z m3490 -18 c0 -8 -5 -12 -10 -9 -6 4 -8
11 -5 16 9 14 15 11 15 -7z m-401 -53 c0 -14 -1 -14 -6 -1 -3 8 -10 24 -15 35
-9 20 -9 20 6 1 9 -11 16 -27 15 -35z m481 13 c0 -8 -4 -12 -10 -9 -5 3 -10
10 -10 16 0 5 5 9 10 9 6 0 10 -7 10 -16z m-6940 -10 c0 -10 -6 -13 -17 -10
-10 3 -42 6 -70 7 -79 3 -64 19 17 19 57 0 70 -3 70 -16z m-110 -21 c8 -2 35
-7 60 -10 69 -9 86 -42 50 -100 l-20 -33 -35 20 c-36 20 -63 28 -35 10 22 -14
-25 -13 -52 1 -13 7 -18 7 -14 1 3 -6 2 -13 -3 -16 -23 -15 -51 75 -31 99 8
10 9 15 2 15 -11 0 -25 -33 -26 -59 -1 -20 -26 -26 -26 -6 0 24 27 73 47 84
17 9 44 7 83 -6z m6589 -48 c0 -5 -4 -3 -9 5 -5 8 -9 22 -9 30 0 16 17 -16 18
-35z m501 25 c0 -5 -4 -10 -9 -10 -5 0 -11 -9 -14 -20 -3 -11 -11 -20 -19 -19
-10 0 -10 2 0 6 6 2 12 13 12 22 0 10 3 21 7 24 10 10 23 8 23 -3z m-6902 -46
c-2 -9 -13 -21 -26 -25 -17 -7 -21 -6 -16 4 22 38 48 51 42 21z m6822 -14 c0
-5 -7 -10 -16 -10 -8 0 -12 5 -9 10 3 6 10 10 16 10 5 0 9 -4 9 -10z m60 -26
c0 -2 -7 -4 -15 -4 -8 0 -15 4 -15 10 0 5 7 7 15 4 8 -4 15 -8 15 -10z m79
-31 c0 -25 -1 -26 -9 -8 -12 27 -12 35 0 35 6 0 10 -12 9 -27z m58 6 c8 -8 6
-19 -6 -40 -17 -31 -31 -38 -31 -15 0 8 7 16 15 20 8 3 15 10 15 16 0 5 -7 10
-15 10 -8 0 -15 5 -15 10 0 13 23 13 37 -1z m-7287 -49 c0 -5 -2 -10 -4 -10
-3 0 -8 5 -11 10 -3 6 -1 10 4 10 6 0 11 -4 11 -10z m7212 -22 c-18 -19 -22
-20 -22 -6 0 9 8 21 17 27 27 15 29 3 5 -21z m-7132 12 c10 -6 5 -9 -18 -8
-18 1 -32 5 -32 10 0 11 31 10 50 -2z m6663 -10 c3 -11 1 -20 -4 -20 -5 0 -9
9 -9 20 0 11 2 20 4 20 2 0 6 -9 9 -20z m505 -48 c-10 -16 -15 -17 -25 -7 -14
15 -7 26 13 18 8 -3 14 1 14 8 0 7 3 10 6 6 3 -3 0 -14 -8 -25z m-7068 -10
c24 -10 24 -11 3 -11 -12 -1 -25 4 -28 9 -3 6 -26 10 -50 10 -37 0 -47 -4 -62
-27 -10 -15 -18 -31 -19 -37 0 -6 -2 -19 -2 -29 -1 -10 -6 -16 -11 -13 -5 3
-7 16 -5 29 2 12 -2 7 -9 -11 -15 -41 -29 -32 -16 10 24 84 101 111 199 70z
m6600 -16 c0 -5 -7 -1 -15 10 -8 10 -14 24 -14 29 0 6 6 1 14 -9 8 -11 15 -24
15 -30z m524 19 c-4 -8 -10 -15 -15 -15 -5 0 -9 7 -9 15 0 8 7 15 15 15 9 0
12 -6 9 -15z m36 -15 c0 -5 -4 -10 -10 -10 -5 0 -10 5 -10 10 0 6 5 10 10 10
6 0 10 -4 10 -10z m-7220 -20 c9 -8 15 -21 12 -27 -2 -8 4 -13 16 -13 25 0 35
-15 37 -52 1 -25 -2 -28 -33 -28 -26 0 -33 3 -28 15 7 20 -27 38 -44 22 -10
-10 -12 -8 -7 6 4 9 2 17 -3 17 -6 0 -10 -7 -10 -15 0 -30 -17 -14 -18 16 -2
62 41 94 78 59z m7193 -4 c4 -10 1 -13 -8 -9 -8 3 -12 9 -9 14 7 12 11 11 17
-5z m-510 -26 c3 -11 1 -20 -4 -20 -5 0 -9 4 -9 9 0 5 -3 17 -7 27 -4 11 -3
15 4 11 6 -4 13 -16 16 -27z m-6618 10 c3 -5 -1 -10 -9 -10 -9 0 -16 5 -16 10
0 6 4 10 9 10 6 0 13 -4 16 -10z m65 -40 c0 -5 -5 -10 -11 -10 -5 0 -7 5 -4
10 3 6 8 10 11 10 2 0 4 -4 4 -10z m20 -41 c0 -5 -5 -7 -11 -3 -6 3 -15 0 -20
-7 -4 -7 -11 -10 -14 -7 -11 11 5 28 26 28 10 0 19 -5 19 -11z m7080 -9 c0 -5
-4 -10 -10 -10 -5 0 -10 5 -10 10 0 6 5 10 10 10 6 0 10 -4 10 -10z m-7195
-70 c8 -13 -35 -13 -55 0 -11 7 -7 10 17 10 17 0 35 -4 38 -10z m6701 -12 c1
-13 6 -38 12 -56 6 -18 7 -30 1 -27 -5 4 -9 15 -9 25 0 10 -4 22 -10 25 -12 7
-14 55 -2 55 4 0 8 -10 8 -22z m-6321 -154 c-16 -9 -40 -28 -52 -42 -21 -25
-22 -25 -16 -4 7 28 49 62 77 62 18 -1 16 -3 -9 -16z m3865 -9 c75 -38 69 -48
-7 -13 -77 34 -83 38 -59 38 9 0 39 -11 66 -25z m2944 10 c-25 -19 -38 -19
-22 0 7 8 19 14 27 15 11 0 9 -4 -5 -15z m376 -27 c0 -10 -7 -18 -16 -18 -11
0 -14 5 -10 16 3 9 6 23 6 32 0 15 2 15 10 2 5 -8 10 -23 10 -32z m-310 2 c9
-16 8 -20 -5 -20 -8 0 -15 2 -15 4 0 2 -3 11 -6 20 -9 23 13 20 26 -4z m-6879
-30 c5 0 9 -10 8 -22 l0 -23 -10 24 c-6 15 -15 21 -24 17 -18 -7 -20 5 -2 23
10 10 13 9 15 -3 2 -9 8 -16 13 -16z m6935 3 c-10 -10 -19 5 -10 18 6 11 8 11
12 0 2 -7 1 -15 -2 -18z m378 -9 c19 -7 21 -24 4 -24 -16 0 -41 -52 -29 -59 5
-4 1 -17 -10 -30 l-19 -23 0 36 c0 29 -3 34 -16 29 -12 -4 -15 -2 -12 8 3 8 9
14 14 14 15 0 53 38 48 47 -6 10 -1 10 20 2z m-3819 -34 c-17 -18 -17 -20 -1
-20 9 0 28 7 41 16 30 20 33 5 5 -21 -14 -12 -17 -22 -10 -30 7 -8 2 -18 -15
-33 -14 -12 -29 -22 -34 -22 -5 0 -14 -7 -21 -15 -22 -26 -31 -17 -24 23 7 34
6 36 -9 23 -15 -12 -17 -11 -18 10 -1 13 -3 36 -5 52 -2 17 2 27 10 27 8 0 11
-10 8 -30 -2 -16 -2 -30 1 -30 3 0 23 16 44 35 42 38 56 46 28 15z m3665 -13
c0 -14 -19 -37 -31 -37 -4 0 -2 11 4 25 13 27 27 33 27 12z m-3294 -69 c-18
-26 -22 -17 -5 14 6 11 13 17 16 15 3 -3 -2 -16 -11 -29z m3291 12 c2 0 2 -38
0 -84 -1 -66 -5 -82 -14 -74 -17 14 -18 -13 -1 -30 9 -9 8 -12 -4 -12 -8 0
-21 -7 -28 -15 -7 -8 -20 -14 -29 -14 -14 1 -14 2 1 6 22 6 36 72 18 83 -9 5
-9 9 -1 14 6 4 11 2 11 -3 0 -6 6 -11 14 -11 20 0 -3 48 -26 56 -10 3 -18 10
-18 15 0 5 -5 9 -10 9 -6 0 -8 -10 -4 -24 7 -27 -13 -46 -27 -25 -5 8 -7 24
-4 36 3 12 1 25 -5 28 -5 3 -10 10 -10 16 0 13 44 11 59 -3 11 -11 13 -10 8 5
-12 33 1 46 36 36 18 -5 33 -9 34 -9z m174 -40 c5 0 9 -5 9 -11 0 -6 -7 -8
-16 -5 -10 4 -13 2 -8 -6 4 -6 8 -27 9 -45 0 -26 -3 -33 -18 -33 -15 0 -17 3
-8 14 15 18 -9 39 -34 30 -13 -5 -16 -3 -13 7 3 8 11 14 19 15 30 2 34 5 20
13 -10 7 -10 12 5 30 15 18 20 19 22 6 2 -8 8 -15 13 -15z m-327 -56 c9 -22 8
-24 -9 -24 -8 0 -15 9 -15 20 0 24 15 27 24 4z m-75 -37 c0 -21 -1 -21 -9 -2
-12 28 -12 37 0 30 6 -3 10 -16 9 -28z m337 8 c9 -8 11 -15 5 -15 -6 0 -11 -8
-11 -17 0 -14 -2 -15 -12 -4 -11 11 -10 14 0 18 10 4 8 9 -5 19 -12 9 -14 13
-5 14 7 0 20 -7 28 -15z m-372 -11 c4 -10 1 -14 -6 -12 -15 5 -23 28 -10 28 5
0 13 -7 16 -16z m-3446 -6 c5 -7 13 -40 17 -73 4 -33 10 -75 15 -92 5 -18 7
-33 5 -33 -11 0 -28 48 -45 125 -17 81 -15 100 8 73z m392 -8 c0 -3 -7 -14
-16 -25 -12 -16 -16 -17 -23 -6 -6 9 -11 10 -15 2 -4 -6 -12 -11 -18 -11 -6 0
-2 10 10 23 19 20 63 32 62 17z m3141 -10 c10 0 19 5 21 11 2 6 13 9 23 7 18
-4 17 -6 -6 -16 -15 -6 -29 -17 -31 -24 -4 -10 -8 -10 -22 1 -15 13 -19 13
-28 0 -8 -11 -9 -10 -4 4 3 10 6 24 6 30 0 8 4 7 12 -1 7 -7 20 -12 29 -12z
m109 -20 c0 -10 -5 -22 -10 -25 -13 -8 -24 20 -16 41 8 20 26 9 26 -16z
m-3063 -2 c-3 -8 -6 -5 -6 6 -1 11 2 17 5 13 3 -3 4 -12 1 -19z m2850 0 c-3
-8 -6 -5 -6 6 -1 11 2 17 5 13 3 -3 4 -12 1 -19z m47 -13 c5 -22 4 -26 -4 -15
-5 8 -10 24 -10 34 0 26 6 18 14 -19z m502 11 c16 -17 19 -36 4 -36 -9 0 -30
31 -30 44 0 10 11 7 26 -8z m-166 -36 c0 -28 2 -30 43 -32 l42 -1 -45 -6 c-42
-6 -45 -5 -48 19 -2 14 -8 31 -14 38 -8 9 -6 12 6 12 11 0 16 -9 16 -30z
m-3851 -55 c1 -16 -1 -17 -9 -5 -5 8 -9 31 -9 50 l1 35 8 -30 c4 -16 8 -39 9
-50z m3626 65 c4 -6 -7 -10 -27 -9 -31 1 -32 1 -8 9 14 4 26 8 27 9 1 1 5 -3
8 -9z m325 1 c0 -6 -4 -13 -10 -16 -5 -3 -10 1 -10 9 0 9 5 16 10 16 6 0 10
-4 10 -9z m-230 -26 c-7 -8 -17 -15 -22 -15 -11 0 14 29 26 30 5 0 3 -7 -4
-15z m64 -17 c6 -4 8 -9 5 -12 -11 -11 -42 21 -34 34 7 12 9 12 13 0 3 -8 10
-18 16 -22z m200 11 c-20 -22 -54 -44 -54 -34 0 10 52 55 63 55 6 0 2 -9 -9
-21z m-3417 5 c-3 -3 -12 -4 -19 -1 -8 3 -5 6 6 6 11 1 17 -2 13 -5z m3023 -4
c0 -5 -4 -10 -9 -10 -6 0 -13 5 -16 10 -3 6 1 10 9 10 9 0 16 -4 16 -10z
m-3355 -10 c3 -5 1 -10 -4 -10 -6 0 -11 5 -11 10 0 6 2 10 4 10 3 0 8 -4 11
-10z m145 -46 c24 -55 24 -54 5 -54 -9 0 -15 9 -15 24 0 14 -4 36 -10 50 -17
45 0 28 20 -20z m3310 26 c0 -5 -8 -10 -17 -10 -15 0 -16 2 -3 10 19 12 20 12
20 0z m85 -20 c3 -5 1 -10 -4 -10 -6 0 -11 5 -11 10 0 6 2 10 4 10 3 0 8 -4
11 -10z m21 -27 c-11 -11 -17 4 -9 23 7 18 8 18 11 1 2 -10 1 -21 -2 -24z
m-3446 22 c0 -2 -10 -10 -22 -16 -21 -11 -22 -11 -9 4 13 16 31 23 31 12z
m-373 -35 c0 -32 -11 -40 -21 -14 -10 26 -7 44 7 44 8 0 14 -12 14 -30z m3929
15 c-8 -8 -21 -15 -28 -15 -8 1 -6 6 6 15 26 20 42 19 22 0z m-3310 -42 c-8
-16 -23 -36 -33 -44 -17 -13 -17 -13 0 11 9 14 22 35 29 48 6 12 13 20 15 18
3 -2 -2 -17 -11 -33z m-86 12 c20 -24 6 -28 -15 -5 -10 11 -13 20 -8 20 6 0
16 -7 23 -15z m3420 5 c0 -5 -5 -10 -11 -10 -5 0 -7 5 -4 10 3 6 8 10 11 10 2
0 4 -4 4 -10z m-3928 -32 c-15 -15 -24 -6 -16 16 5 12 10 14 17 7 8 -8 8 -14
-1 -23z m3652 -10 c-3 -4 -13 -8 -22 -7 -11 0 -12 3 -4 6 6 2 12 12 12 21 0
14 2 15 9 2 6 -8 7 -18 5 -22z m33 10 c-3 -8 -6 -5 -6 6 -1 11 2 17 5 13 3 -3
4 -12 1 -19z m345 -6 c-7 -2 -12 -10 -12 -18 0 -12 -4 -12 -20 -2 -23 15 -27
33 -5 24 8 -3 15 -1 15 4 0 5 8 6 17 3 11 -4 12 -8 5 -11z m-3836 -20 c-18
-16 -18 -16 -6 6 6 13 14 21 18 18 3 -4 -2 -14 -12 -24z m3542 -11 c2 -22 0
-31 -8 -26 -6 4 -8 15 -5 26 5 13 2 19 -10 19 -9 0 -13 5 -10 11 12 19 30 3
33 -30z m-3320 7 c17 -17 15 -38 -3 -38 -8 0 -15 4 -15 9 0 5 -3 16 -6 25 -7
19 7 21 24 4z m3280 0 c19 -19 14 -38 -10 -38 -19 0 -20 2 -8 11 11 8 12 12 3
16 -14 5 -18 23 -5 23 4 0 13 -5 20 -12z m367 2 c3 -5 2 -10 -4 -10 -5 0 -13
5 -16 10 -3 6 -2 10 4 10 5 0 13 -4 16 -10z m-420 -20 c3 -5 -1 -10 -10 -10
-9 0 -13 5 -10 10 3 6 8 10 10 10 2 0 7 -4 10 -10z m285 0 c0 -5 -7 -7 -15 -4
-8 4 -15 8 -15 10 0 2 7 4 15 4 8 0 15 -4 15 -10z m156 -17 c-10 -10 -19 5
-10 18 6 11 8 11 12 0 2 -7 1 -15 -2 -18z m-3779 -15 c-3 -7 -5 -2 -5 12 0 14
2 19 5 13 2 -7 2 -19 0 -25z m233 28 c0 -2 -7 -7 -16 -10 -8 -3 -12 -2 -9 4 6
10 25 14 25 6z m3405 -54 c-1 -1 -10 0 -19 4 -13 5 -14 9 -4 21 10 13 13 13
19 -4 3 -10 5 -19 4 -21z m-65 19 c0 -6 -4 -12 -8 -15 -5 -3 -9 1 -9 9 0 8 4
15 9 15 4 0 8 -4 8 -9z m-159 -18 c33 -17 33 -18 9 -21 -13 -2 -26 1 -28 7 -3
8 -9 8 -23 1 -21 -12 -26 -39 -6 -41 6 -1 -4 -5 -23 -9 -39 -10 -54 -3 -27 11
9 6 17 16 17 23 0 10 23 33 46 45 0 1 16 -7 35 -16z m209 -23 c0 -5 -4 -10
-10 -10 -5 0 -10 5 -10 10 0 6 5 10 10 10 6 0 10 -4 10 -10z m160 -20 c12 -8
9 -10 -12 -10 -16 0 -28 5 -28 10 0 13 20 13 40 0z m-160 -20 c0 -5 -7 -7 -15
-4 -8 4 -15 8 -15 10 0 2 7 4 15 4 8 0 15 -4 15 -10z m197 -25 c10 -22 9 -25
-7 -25 -11 0 -19 9 -22 25 -7 33 13 33 29 0z m-387 -21 c0 -14 -22 -44 -33
-44 -9 0 -8 3 1 9 7 4 12 12 11 17 -3 16 1 24 11 24 6 0 10 -3 10 -6z m-40
-13 c0 -6 -4 -13 -10 -16 -5 -3 -10 1 -10 9 0 9 5 16 10 16 6 0 10 -4 10 -9z
m150 -41 c0 -5 -5 -10 -11 -10 -5 0 -7 5 -4 10 3 6 8 10 11 10 2 0 4 -4 4 -10z
m343 -10 c3 -11 1 -20 -4 -20 -5 0 -9 5 -9 11 0 5 -4 7 -10 4 -11 -7 -14 8 -3
18 11 12 21 8 26 -13z m-218 0 c-3 -5 -11 -10 -16 -10 -6 0 -7 5 -4 10 3 6 11
10 16 10 6 0 7 -4 4 -10z m115 -40 c0 -5 -4 -10 -10 -10 -5 0 -10 5 -10 10 0
6 5 10 10 10 6 0 10 -4 10 -10z m-420 -44 c0 -3 -4 -8 -10 -11 -5 -3 -10 -1
-10 4 0 6 5 11 10 11 6 0 10 -2 10 -4z m45 -36 c3 -5 -3 -10 -15 -10 -12 0
-18 5 -15 10 3 6 10 10 15 10 5 0 12 -4 15 -10z m335 -14 c0 -11 -19 -15 -25
-6 -3 5 1 10 9 10 9 0 16 -2 16 -4z m-193 -258 c-3 -8 -6 -5 -6 6 -1 11 2 17
5 13 3 -3 4 -12 1 -19z m33 -28 c0 -5 -4 -10 -10 -10 -5 0 -10 5 -10 10 0 6 5
10 10 10 6 0 10 -4 10 -10z m470 -430 c0 -5 -5 -10 -11 -10 -5 0 -7 5 -4 10 3
6 8 10 11 10 2 0 4 -4 4 -10z m-1332 -117 c-12 -42 -23 -72 -26 -65 -2 7 1 25
7 40 13 32 19 65 21 112 1 31 2 32 10 13 6 -15 2 -46 -12 -100z m1304 35 c-8
-8 -9 -4 -5 13 4 13 8 18 11 10 2 -7 -1 -18 -6 -23z m-1400 -270 c-7 -7 -12
-8 -12 -2 0 14 12 26 19 19 2 -3 -1 -11 -7 -17z m-26 -80 c-19 -27 -21 -13 -3
25 8 17 13 22 15 12 2 -8 -4 -25 -12 -37z"/>
<path d="M6240 9330 c0 -5 5 -10 11 -10 5 0 7 5 4 10 -3 6 -8 10 -11 10 -2 0
-4 -4 -4 -10z"/>
<path d="M6191 7974 c0 -11 3 -14 6 -6 3 7 2 16 -1 19 -3 4 -6 -2 -5 -13z"/>
<path d="M6067 5372 c-24 -27 -21 -59 8 -78 21 -14 31 -15 51 -5 17 7 24 17
20 26 -3 8 -1 15 4 15 15 0 12 27 -6 44 -21 21 -57 20 -77 -2z"/>
<path d="M6030 5300 c0 -5 10 -15 23 -21 22 -12 22 -12 3 10 -21 23 -26 26
-26 11z"/>
<path d="M6362 4928 c-16 -16 -15 -73 2 -87 8 -7 28 -16 44 -21 35 -9 68 8 59
31 -4 10 -6 9 -6 -3 -1 -10 -5 -18 -11 -18 -6 0 -6 9 0 26 14 35 13 41 -12 64
-24 22 -58 26 -76 8z"/>
<path d="M6325 4860 c3 -5 8 -10 11 -10 2 0 4 5 4 10 0 6 -5 10 -11 10 -5 0
-7 -4 -4 -10z"/>
<path d="M3945 3190 c28 -12 47 -12 40 0 -3 6 -18 10 -33 9 -24 0 -25 -1 -7
-9z"/>
<path d="M3514 2699 c-3 -5 9 -9 25 -9 17 0 31 2 31 4 0 8 -51 13 -56 5z"/>
<path d="M3650 2680 c0 -5 5 -10 10 -10 6 0 10 5 10 10 0 6 -4 10 -10 10 -5 0
-10 -4 -10 -10z"/>
<path d="M11125 1971 c-7 -12 12 -24 25 -16 11 7 4 25 -10 25 -5 0 -11 -4 -15
-9z"/>
<path d="M11124 1929 c-10 -17 13 -36 27 -22 12 12 4 33 -11 33 -5 0 -12 -5
-16 -11z"/>
<path d="M4700 6026 c0 -2 7 -7 16 -10 8 -3 12 -2 9 4 -6 10 -25 14 -25 6z"/>
<path d="M11810 5511 c-14 -4 -20 -10 -14 -14 6 -3 20 0 30 8 21 16 20 16 -16
6z"/>
<path d="M8925 5481 c-9 -16 9 -20 23 -5 10 12 10 14 -2 14 -8 0 -17 -4 -21
-9z"/>
<path d="M9068 5433 c7 -3 16 -2 19 1 4 3 -2 6 -13 5 -11 0 -14 -3 -6 -6z"/>
<path d="M9781 5366 c-7 -8 -8 -17 -3 -20 6 -3 13 1 16 10 9 23 2 28 -13 10z"/>
<path d="M9265 5270 c3 -5 8 -10 11 -10 2 0 4 5 4 10 0 6 -5 10 -11 10 -5 0
-7 -4 -4 -10z"/>
<path d="M9225 5250 c-3 -5 1 -10 9 -10 8 0 18 5 21 10 3 6 -1 10 -9 10 -8 0
-18 -4 -21 -10z"/>
<path d="M9191 5226 c-8 -10 -9 -16 -1 -21 5 -3 10 -2 10 3 0 5 16 2 35 -6 33
-15 46 -32 25 -32 -5 0 -10 5 -10 10 0 6 -4 10 -10 10 -21 0 -8 -17 31 -41 22
-13 48 -28 57 -34 24 -14 72 -64 72 -75 0 -5 5 -12 12 -16 8 -5 9 -2 5 9 -4
10 -2 17 4 17 7 0 9 -9 6 -22 -9 -34 9 -49 44 -36 16 5 36 7 45 4 10 -4 14 -1
12 6 -3 7 -21 16 -41 19 -50 8 -58 19 -16 20 l34 1 -33 8 c-34 8 -54 20 -34
20 7 0 12 5 12 10 0 16 -27 11 -34 -6 -5 -14 -10 -13 -31 8 -28 26 -32 40 -10
31 13 -5 14 -2 4 21 -13 28 -36 30 -31 2 4 -20 -11 -21 -28 -1 -7 8 -19 15
-26 15 -17 0 -18 36 -1 44 8 4 7 5 -3 4 -19 -2 -50 11 -71 29 -14 11 -18 11
-28 -1z"/>
<path d="M11525 5180 c-9 -16 -19 -30 -23 -30 -4 0 -18 -9 -32 -20 -19 -15
-21 -20 -8 -20 21 0 88 64 88 85 0 23 -8 18 -25 -15z"/>
<path d="M9325 5187 c-4 -10 -5 -21 -1 -24 10 -10 18 4 13 24 -4 17 -4 17 -12
0z"/>
<path d="M9440 5160 c0 -5 5 -10 11 -10 5 0 7 5 4 10 -3 6 -8 10 -11 10 -2 0
-4 -4 -4 -10z"/>
<path d="M11540 5135 c0 -8 4 -15 10 -15 5 0 7 7 4 15 -4 8 -8 15 -10 15 -2 0
-4 -7 -4 -15z"/>
<path d="M2285 5120 c3 -5 8 -10 11 -10 2 0 4 5 4 10 0 6 -5 10 -11 10 -5 0
-7 -4 -4 -10z"/>
<path d="M9400 5099 c0 -5 5 -7 10 -4 6 3 10 8 10 11 0 2 -4 4 -10 4 -5 0 -10
-5 -10 -11z"/>
<path d="M11500 5090 c0 -5 7 -10 15 -10 8 0 15 5 15 10 0 6 -7 10 -15 10 -8
0 -15 -4 -15 -10z"/>
<path d="M11562 5060 c-10 -17 -10 -20 3 -20 8 0 15 9 15 20 0 11 -1 20 -3 20
-1 0 -8 -9 -15 -20z"/>
<path d="M11433 5009 c-2 -21 2 -27 12 -22 8 3 15 11 15 19 0 8 5 14 10 14 6
0 10 -10 10 -22 1 -23 1 -23 15 2 20 35 20 35 -23 36 -34 0 -37 -2 -39 -27z"/>
<path d="M11545 5000 c4 -6 11 -8 16 -5 14 9 11 15 -7 15 -8 0 -12 -5 -9 -10z"/>
<path d="M10070 4965 c0 -7 32 -35 41 -35 18 0 9 17 -16 28 -14 6 -25 10 -25
7z"/>
<path d="M11265 4940 c3 -5 8 -10 11 -10 2 0 4 5 4 10 0 6 -5 10 -11 10 -5 0
-7 -4 -4 -10z"/>
<path d="M9733 4914 c-3 -9 0 -20 8 -25 11 -7 11 -9 1 -9 -7 0 -10 -5 -6 -11
4 -8 9 -7 15 2 4 7 3 19 -2 26 -6 7 -8 17 -4 23 3 5 4 10 0 10 -3 0 -8 -7 -12
-16z"/>
<path d="M9606 4911 c-4 -7 -5 -15 -2 -18 9 -9 19 4 14 18 -4 11 -6 11 -12 0z"/>
<path d="M9900 4910 c0 -5 5 -10 10 -10 6 0 10 5 10 10 0 6 -4 10 -10 10 -5 0
-10 -4 -10 -10z"/>
<path d="M10160 4907 c0 -7 9 -18 20 -25 24 -15 27 0 4 22 -19 19 -24 20 -24
3z"/>
<path d="M9810 4885 c0 -8 7 -15 16 -15 14 0 14 3 4 15 -7 8 -14 15 -16 15 -2
0 -4 -7 -4 -15z"/>
<path d="M9717 4734 c-3 -5 3 -15 13 -22 12 -7 21 -8 25 -2 3 6 0 10 -9 10 -8
0 -16 5 -18 12 -3 7 -7 8 -11 2z"/>
<path d="M9730 4600 c0 -15 7 -20 25 -20 27 0 32 9 13 28 -18 18 -38 14 -38
-8z"/>
<path d="M9760 4520 c0 -13 5 -18 15 -14 8 4 15 10 15 14 0 4 -7 10 -15 14
-10 4 -15 -1 -15 -14z"/>
<path d="M2025 4471 c-3 -5 -1 -12 5 -16 5 -3 10 1 10 9 0 18 -6 21 -15 7z"/>
<path d="M2137 4281 c-4 -17 -3 -21 5 -13 5 5 8 16 6 23 -3 8 -7 3 -11 -10z"/>
<path d="M9900 4260 c0 -5 5 -10 10 -10 6 0 10 5 10 10 0 6 -4 10 -10 10 -5 0
-10 -4 -10 -10z"/>
<path d="M10080 4074 c0 -8 5 -12 10 -9 6 4 8 11 5 16 -9 14 -15 11 -15 -7z"/>
<path d="M10065 3978 c-4 -10 -4 -26 0 -35 8 -17 8 -17 12 0 3 9 3 25 0 35 -4
16 -4 16 -12 0z"/>
<path d="M10170 3830 c-8 -5 -12 -11 -9 -14 3 -3 14 1 25 9 21 16 8 20 -16 5z"/>
<path d="M1930 3780 c0 -11 5 -20 10 -20 6 0 10 9 10 20 0 11 -4 20 -10 20 -5
0 -10 -9 -10 -20z"/>
<path d="M10160 3760 c0 -5 19 -10 43 -9 32 0 37 2 22 9 -28 12 -65 12 -65 0z"/>
<path d="M1389 3633 c-13 -16 -12 -17 4 -4 16 13 21 21 13 21 -2 0 -10 -8 -17
-17z"/>
<path d="M10460 3320 c0 -5 5 -10 10 -10 6 0 10 5 10 10 0 6 -4 10 -10 10 -5
0 -10 -4 -10 -10z"/>
<path d="M10540 3120 c0 -5 5 -10 10 -10 6 0 10 5 10 10 0 6 -4 10 -10 10 -5
0 -10 -4 -10 -10z"/>
<path d="M10850 3089 c0 -5 5 -7 10 -4 6 3 10 8 10 11 0 2 -4 4 -10 4 -5 0
-10 -5 -10 -11z"/>
<path d="M10851 2908 c-1 -16 4 -28 9 -28 12 0 12 8 0 35 -8 18 -9 17 -9 -7z"/>
<path d="M10768 2883 c6 -2 18 -2 25 0 6 3 1 5 -13 5 -14 0 -19 -2 -12 -5z"/>
<path d="M10820 2811 c0 -5 7 -11 14 -14 10 -4 13 -1 9 9 -6 15 -23 19 -23 5z"/>
<path d="M10840 2751 c0 -6 5 -13 10 -16 6 -3 10 1 10 9 0 9 -4 16 -10 16 -5
0 -10 -4 -10 -9z"/>
<path d="M11150 2609 c0 -5 5 -7 10 -4 6 3 10 8 10 11 0 2 -4 4 -10 4 -5 0
-10 -5 -10 -11z"/>
<path d="M11225 2609 c-4 -6 -4 -13 -1 -16 8 -8 36 5 36 17 0 13 -27 13 -35
-1z"/>
<path d="M10935 2570 c-28 -6 -27 -7 15 -12 53 -6 54 -5 32 8 -9 5 -30 7 -47
4z"/>
<path d="M11036 2563 c-12 -12 -6 -22 9 -17 19 8 20 -10 1 -25 -10 -9 -15 -8
-20 4 -3 8 -10 15 -16 15 -16 0 -12 -25 8 -43 17 -16 20 -15 40 8 12 14 22 29
22 33 0 11 -37 32 -44 25z"/>
<path d="M11288 2553 c6 -2 18 -2 25 0 6 3 1 5 -13 5 -14 0 -19 -2 -12 -5z"/>
<path d="M11200 2540 c0 -5 19 -10 43 -9 32 0 37 2 22 9 -28 12 -65 12 -65 0z"/>
<path d="M10880 2499 c0 -5 5 -7 10 -4 6 3 10 8 10 11 0 2 -4 4 -10 4 -5 0
-10 -5 -10 -11z"/>
<path d="M11080 2500 c0 -5 5 -10 10 -10 6 0 10 5 10 10 0 6 -4 10 -10 10 -5
0 -10 -4 -10 -10z"/>
<path d="M11252 2503 c-15 -6 -6 -23 14 -23 8 0 14 7 14 15 0 15 -6 17 -28 8z"/>
<path d="M677 2493 c-10 -9 -9 -53 2 -53 12 0 20 35 12 49 -4 6 -10 8 -14 4z"/>
<path d="M11240 2465 c0 -9 44 -23 54 -18 4 3 2 9 -5 14 -15 10 -49 12 -49 4z"/>
<path d="M11280 2410 c0 -5 7 -10 16 -10 8 0 12 5 9 10 -3 6 -10 10 -16 10 -5
0 -9 -4 -9 -10z"/>
<path d="M10890 2400 c0 -5 5 -10 11 -10 5 0 7 5 4 10 -3 6 -8 10 -11 10 -2 0
-4 -4 -4 -10z"/>
<path d="M11341 2401 c-11 -7 -11 -13 0 -32 l12 -24 10 23 c12 26 -1 46 -22
33z"/>
<path d="M10956 2373 c-11 -11 -6 -23 9 -23 8 0 15 4 15 9 0 13 -16 22 -24 14z"/>
<path d="M11245 2370 c3 -5 13 -10 21 -10 8 0 14 -9 14 -20 0 -11 7 -20 15
-20 19 0 19 10 -1 38 -14 21 -62 33 -49 12z"/>
<path d="M10890 2360 c0 -5 5 -10 10 -10 6 0 10 5 10 10 0 6 -4 10 -10 10 -5
0 -10 -4 -10 -10z"/>
<path d="M11195 2320 c-3 -5 0 -7 9 -4 9 3 16 -2 18 -13 3 -15 5 -15 10 5 5
17 2 22 -12 22 -11 0 -22 -4 -25 -10z"/>
<path d="M11373 2323 c-15 -5 -17 -23 -4 -23 5 0 11 7 15 15 3 8 4 15 3 14 -1
0 -8 -3 -14 -6z"/>
<path d="M11268 2270 c-7 -24 -3 -38 8 -28 3 4 4 17 2 30 l-3 23 -7 -25z"/>
<path d="M11375 2268 c-7 -16 -20 -24 -42 -26 -35 -3 -43 -16 -18 -26 18 -6
45 2 45 15 0 5 7 9 15 9 8 0 15 -7 15 -17 0 -26 7 -12 14 30 8 43 -12 53 -29
15z"/>
<path d="M1915 2251 c-3 -5 -1 -12 5 -16 5 -3 10 1 10 9 0 18 -6 21 -15 7z"/>
<path d="M10960 2220 c0 -5 7 -10 15 -10 8 0 15 5 15 10 0 6 -7 10 -15 10 -8
0 -15 -4 -15 -10z"/>
<path d="M11010 2220 c0 -5 7 -10 15 -10 8 0 15 5 15 10 0 6 -7 10 -15 10 -8
0 -15 -4 -15 -10z"/>
<path d="M11367 2170 c-3 -13 0 -20 9 -20 8 0 14 9 14 20 0 11 -4 20 -9 20 -5
0 -11 -9 -14 -20z"/>
<path d="M11318 2163 c6 -2 18 -2 25 0 6 3 1 5 -13 5 -14 0 -19 -2 -12 -5z"/>
<path d="M1918 2124 c-5 -4 -8 -16 -8 -28 0 -14 3 -17 11 -9 6 6 9 19 7 28 -1
9 -6 13 -10 9z"/>
<path d="M11078 2118 c17 -8 26 -8 34 0 9 9 4 12 -22 11 -33 0 -34 -1 -12 -11z"/>
<path d="M11010 2110 c0 -5 5 -10 10 -10 6 0 10 5 10 10 0 6 -4 10 -10 10 -5
0 -10 -4 -10 -10z"/>
<path d="M1965 2080 c3 -5 8 -10 11 -10 2 0 4 5 4 10 0 6 -5 10 -11 10 -5 0
-7 -4 -4 -10z"/>
<path d="M11470 1860 c0 -11 5 -20 10 -20 6 0 10 9 10 20 0 11 -4 20 -10 20
-5 0 -10 -9 -10 -20z"/>
<path d="M11526 1652 c-9 -37 -4 -49 11 -30 5 7 7 24 3 38 -6 24 -7 24 -14 -8z"/>
<path d="M2106 1522 c-3 -6 -1 -14 5 -17 14 -9 20 -2 10 14 -6 8 -11 9 -15 3z"/>
<path d="M2150 1519 c0 -5 5 -7 10 -4 6 3 10 8 10 11 0 2 -4 4 -10 4 -5 0 -10
-5 -10 -11z"/>
<path d="M2201 1353 c-1 -33 -7 -57 -17 -68 -20 -20 -10 -33 14 -19 19 12 25
83 11 119 -5 14 -8 4 -8 -32z"/>
<path d="M11680 1279 c0 -5 5 -7 10 -4 6 3 10 8 10 11 0 2 -4 4 -10 4 -5 0
-10 -5 -10 -11z"/>
<path d="M11570 1191 c0 -5 7 -14 15 -21 16 -14 18 -10 9 14 -6 17 -24 22 -24
7z"/>
<path d="M2031 1167 c-15 -19 -3 -27 24 -17 13 5 26 6 29 3 3 -4 6 1 6 10 0
21 -42 23 -59 4z"/>
<path d="M11545 1139 c-12 -19 5 -23 22 -6 16 16 16 17 1 17 -9 0 -20 -5 -23
-11z"/>
<path d="M1793 970 c-41 -18 -57 -40 -31 -40 15 0 78 42 78 53 0 9 2 10 -47
-13z"/>
<path d="M1600 805 c-13 -14 -29 -25 -37 -25 -7 0 -13 -4 -13 -10 0 -13 17
-13 26 1 3 6 15 9 25 6 21 -6 49 16 49 39 0 22 -24 17 -50 -11z"/>
<path d="M11920 779 c0 -5 5 -7 10 -4 6 3 10 8 10 11 0 2 -4 4 -10 4 -5 0 -10
-5 -10 -11z"/>
<path d="M1220 745 c-33 -19 -10 -19 26 0 16 8 22 15 14 15 -8 -1 -26 -7 -40
-15z"/>
<path d="M1508 743 c-10 -2 -18 -8 -18 -13 0 -4 -10 -6 -22 -4 -23 4 -23 4 0
-6 19 -8 29 -6 49 10 26 20 24 22 -9 13z"/>
<path d="M1052 508 c-7 -7 -12 -20 -12 -30 0 -12 -8 -18 -22 -19 -13 0 -33
-13 -45 -28 l-21 -27 29 4 c37 6 99 62 99 91 0 24 -10 27 -28 9z"/>
<path d="M2020 376 c0 -2 8 -10 18 -17 15 -13 16 -12 3 4 -13 16 -21 21 -21
13z"/>
<path d="M1240 310 c0 -5 5 -10 10 -10 6 0 10 5 10 10 0 6 -4 10 -10 10 -5 0
-10 -4 -10 -10z"/>
<path d="M2095 300 c-3 -5 1 -13 10 -16 22 -9 29 1 11 15 -10 8 -16 9 -21 1z"/>
<path d="M664 193 c-31 -32 -67 -69 -80 -83 -24 -26 -67 -101 -60 -107 8 -9
36 11 42 30 4 12 16 34 27 49 15 21 24 25 33 17 10 -8 13 -5 11 16 -2 22 5 31
40 48 25 13 41 27 38 35 -3 7 0 10 5 7 6 -3 13 1 16 9 3 9 12 16 20 16 8 0 14
5 14 10 0 6 -11 10 -25 10 -18 0 -42 -17 -81 -57z"/>
<path d="M2132 233 c2 -9 9 -18 16 -21 18 -6 15 25 -4 32 -11 4 -14 1 -12 -11z"/>
<path d="M1070 205 c-7 -8 -9 -15 -6 -15 4 0 14 7 22 15 9 8 11 15 6 15 -5 0
-15 -7 -22 -15z"/>
</g>
</svg>
