<?xml version="1.0" standalone="no"?>
<!DOCTYPE svg PUBLIC "-//W3C//DTD SVG 20010904//EN"
 "http://www.w3.org/TR/2001/REC-SVG-20010904/DTD/svg10.dtd">
<svg version="1.0" xmlns="http://www.w3.org/2000/svg"
 width="1280.000000pt" height="720.000000pt" viewBox="0 0 1280.000000 720.000000"
 preserveAspectRatio="xMidYMid meet">

<g transform="translate(0.000000,720.000000) scale(0.100000,-0.100000)"
fill="#000000" stroke="none">
<path d="M6708 6961 c11 -7 10 -10 -3 -15 -9 -3 -25 -6 -35 -6 -10 0 -20 -5
-22 -10 -2 -7 -25 -7 -73 -1 -78 11 -72 13 -188 -65 -55 -38 -88 -53 -122 -56
-27 -4 -55 -14 -68 -26 -13 -12 -52 -27 -93 -35 -84 -18 -161 -65 -170 -105
-4 -15 -16 -39 -26 -54 -11 -16 -17 -28 -13 -28 11 0 -33 -75 -59 -99 -14 -14
-26 -30 -26 -36 0 -7 -9 -20 -20 -30 -11 -10 -20 -26 -20 -37 0 -10 -4 -18 -9
-18 -15 0 -121 -92 -121 -105 0 -7 -31 -32 -70 -55 -38 -23 -70 -49 -70 -56 0
-23 -117 -162 -212 -253 -48 -47 -88 -89 -88 -94 0 -5 -6 -23 -13 -40 -62
-146 -96 -265 -108 -382 -5 -44 -13 -107 -19 -140 -6 -33 -13 -161 -15 -285
-1 -124 -7 -257 -13 -297 -5 -39 -8 -150 -5 -246 4 -170 4 -175 -16 -182 -12
-3 -25 -3 -31 0 -5 3 -10 -2 -11 -12 0 -10 -3 -13 -6 -5 -6 14 -39 16 -48 2
-3 -5 -15 -10 -26 -10 -17 0 -19 7 -19 72 0 39 -4 111 -10 160 -5 48 -15 128
-20 177 -12 107 -34 172 -105 318 -66 133 -107 174 -240 239 -100 48 -171 67
-319 84 -96 11 -101 13 -163 61 -36 27 -108 75 -161 106 -188 111 -328 147
-460 119 -111 -23 -244 -95 -370 -199 -43 -36 -64 -46 -105 -51 -129 -15 -339
-99 -434 -171 -24 -18 -51 -32 -61 -30 -9 1 -11 0 -5 -2 17 -6 16 -18 -2 -33
-16 -13 -39 -4 -29 12 4 7 2 8 -4 4 -7 -4 -12 -14 -12 -22 0 -7 -16 -34 -35
-60 -40 -52 -44 -68 -15 -59 25 8 25 4 -2 -72 -16 -44 -28 -63 -40 -63 -25 0
-48 -28 -48 -58 0 -15 -6 -36 -13 -47 -40 -60 -52 -118 -52 -270 -1 -82 1
-156 3 -162 2 -7 15 -13 27 -13 19 0 24 -7 30 -39 3 -21 1 -56 -5 -77 -6 -22
-10 -79 -8 -129 2 -72 6 -90 18 -90 10 0 17 14 20 45 7 64 17 39 24 -65 7 -91
24 -227 31 -255 3 -9 -8 -22 -25 -32 -30 -17 -31 -18 -25 -85 4 -37 13 -124
21 -193 7 -69 21 -199 29 -290 8 -91 17 -178 20 -193 6 -35 -36 -78 -110 -112
-27 -12 -67 -36 -89 -54 -23 -18 -50 -31 -67 -31 -35 0 -60 -44 -79 -135 -7
-35 -21 -70 -35 -85 -38 -42 -43 -61 -41 -181 1 -133 2 -136 93 -196 72 -47
99 -53 254 -58 75 -1 145 -8 155 -13 19 -11 57 -57 115 -140 48 -69 94 -88
259 -107 54 -7 57 -5 88 26 18 19 54 67 79 109 109 177 275 346 463 473 74 49
164 104 200 121 62 30 71 31 185 30 66 0 186 -9 267 -18 138 -17 156 -17 314
-2 211 21 424 32 424 21 0 -4 -31 -69 -69 -144 -69 -136 -153 -340 -205 -498
-15 -45 -34 -87 -42 -94 -10 -8 -11 -14 -4 -19 7 -4 6 -20 -5 -51 -25 -72 -35
-86 -97 -135 -37 -29 -67 -63 -82 -92 -61 -121 -95 -309 -96 -527 0 -146 16
-228 55 -285 127 -185 123 -177 115 -217 -4 -21 -24 -87 -44 -148 -20 -60 -36
-122 -36 -136 0 -15 -7 -46 -15 -69 -8 -23 -15 -44 -15 -46 0 -2 18 -4 39 -4
34 0 40 3 46 27 3 15 21 50 38 77 18 27 31 53 29 58 -1 4 2 8 7 8 13 0 20 -49
7 -54 -7 -3 -6 -8 3 -14 7 -5 10 -15 7 -21 -4 -6 0 -14 9 -17 9 -4 14 -13 11
-20 -3 -8 -3 -21 0 -29 5 -13 49 -15 309 -15 l303 0 10 28 c18 47 21 65 27
144 2 42 18 141 34 220 43 208 61 302 76 398 8 47 21 121 29 165 8 44 12 84 9
89 -3 5 -1 6 5 3 7 -5 8 6 5 33 -3 22 -2 40 3 40 5 0 9 28 10 63 1 34 3 118 4
187 3 109 0 138 -23 225 -14 56 -33 116 -40 134 -13 31 -15 32 -25 15 -25 -43
14 364 44 466 8 27 17 50 19 50 3 0 4 -71 4 -157 0 -135 4 -184 31 -338 53
-297 56 -330 35 -365 -4 -6 -2 -16 3 -23 10 -12 20 -60 29 -137 3 -25 9 -53
14 -62 5 -9 9 -28 9 -43 0 -14 7 -28 15 -31 10 -4 13 -13 10 -24 -3 -10 -1
-21 4 -24 6 -4 7 -14 4 -23 -4 -9 0 -21 9 -27 9 -6 23 -40 32 -74 8 -34 23
-73 31 -86 9 -13 18 -48 22 -77 3 -30 11 -61 17 -69 7 -8 13 -40 15 -70 3 -56
24 -95 47 -86 21 8 25 -6 8 -26 -13 -14 -14 -21 -5 -32 16 -19 -7 -42 -150
-149 -120 -89 -284 -253 -306 -307 l-13 -30 1418 0 1417 0 19 43 c10 23 25 55
32 71 8 16 14 35 14 41 0 7 6 18 14 24 8 6 16 24 19 39 6 29 44 134 70 194 9
20 19 56 23 80 4 23 10 48 15 53 6 9 26 109 32 167 1 9 4 15 7 13 4 -2 4 23 2
56 -4 55 -3 59 14 52 38 -14 94 -67 104 -99 7 -19 8 -53 5 -79 -9 -55 2 -118
18 -112 7 2 40 -22 75 -54 34 -33 69 -59 77 -59 8 0 15 -4 15 -9 0 -5 9 -11
19 -14 20 -5 39 -76 26 -97 -4 -6 5 -29 20 -52 18 -27 25 -48 21 -63 -7 -28 9
-42 29 -25 9 8 15 31 15 61 0 26 5 60 10 74 10 25 13 27 56 22 25 -4 69 -21
102 -40 31 -19 81 -47 111 -62 77 -38 222 -145 288 -211 8 -8 20 -14 26 -14
33 0 -152 154 -263 219 -68 40 -71 41 -199 124 -58 38 -118 80 -133 94 -22 21
-33 24 -62 19 -22 -4 -37 -2 -42 5 -3 6 -26 20 -50 30 -24 11 -55 35 -69 53
-27 36 -31 65 -20 134 5 25 4 42 -2 42 -5 0 -47 37 -93 82 -73 72 -83 86 -83
117 -1 86 3 122 13 116 13 -8 13 14 -1 55 -8 21 -8 34 -2 39 14 8 9 369 -7
531 -6 69 -12 138 -11 153 0 15 -4 25 -9 22 -6 -3 -7 1 -4 10 5 13 9 13 24 -5
9 -11 22 -20 27 -20 6 0 18 -9 28 -20 10 -11 24 -20 30 -20 7 0 18 -6 25 -14
6 -8 18 -12 25 -9 9 3 17 -5 21 -23 11 -42 83 -152 105 -159 11 -4 17 -11 13
-16 -3 -5 6 -32 20 -59 14 -27 26 -56 26 -65 0 -8 5 -15 11 -15 6 0 8 -7 5
-16 -3 -9 3 -47 14 -85 12 -38 18 -74 15 -79 -4 -6 1 -45 9 -88 29 -141 45
-318 40 -437 -4 -82 5 -106 31 -85 10 8 14 22 11 33 -3 12 4 33 16 50 26 37
34 109 20 185 -6 31 -14 100 -17 152 -4 52 -11 100 -16 106 -6 8 -6 27 0 54 5
23 7 52 5 64 -18 82 -24 123 -24 152 0 19 -18 67 -45 118 -25 48 -45 93 -45
101 0 8 -3 14 -8 12 -4 -1 -18 8 -32 21 -13 12 -30 22 -37 22 -7 0 -13 7 -13
15 0 8 -4 15 -10 15 -5 0 -10 9 -10 20 0 12 -8 35 -17 53 -9 18 -16 42 -14 54
1 13 -6 26 -19 33 -11 6 -20 16 -18 23 1 7 -6 26 -15 44 -9 18 -17 38 -17 46
0 7 -9 23 -20 35 -11 12 -20 26 -20 31 0 6 -20 32 -45 58 -25 25 -45 43 -45
39 0 -4 -6 -2 -12 4 -7 6 -24 19 -37 30 -13 11 -19 20 -12 20 26 0 383 -261
655 -480 93 -74 225 -180 295 -234 69 -54 144 -114 165 -133 22 -18 43 -33 48
-33 4 0 -6 37 -23 82 -111 302 -243 472 -494 639 -213 142 -367 215 -587 280
-133 39 -151 47 -144 62 15 37 67 217 91 317 16 63 33 118 39 122 6 4 24 8 40
8 65 0 127 87 110 154 -6 25 26 120 118 346 104 256 100 242 106 396 l4 142
-35 38 c-35 38 -37 39 -101 38 l-65 -1 6 46 c3 25 10 64 15 86 5 22 30 135 54
250 35 169 43 231 44 314 0 58 5 130 11 160 10 47 9 66 -6 116 -9 33 -21 103
-25 155 -11 113 -24 207 -39 273 -6 27 -9 53 -5 58 3 5 -4 24 -15 43 -23 36
-27 108 -12 200 10 57 4 86 -15 86 -8 0 -14 9 -14 21 0 12 -4 17 -11 13 -6 -3
-9 -18 -6 -33 3 -14 2 -46 -2 -71 l-6 -45 -19 27 c-20 31 -56 151 -63 213 -3
22 -15 51 -28 65 -12 14 -31 52 -40 85 -10 33 -20 54 -22 48 -8 -23 -19 -14
-49 43 -16 30 -37 63 -46 71 -10 9 -18 24 -18 34 0 12 -5 16 -14 13 -9 -3 -29
14 -54 48 -22 29 -50 62 -62 73 -21 18 -54 60 -132 164 -15 20 -27 44 -28 54
0 9 -4 17 -10 17 -5 0 -23 13 -39 29 -17 17 -32 24 -34 18 -4 -12 -41 21 -69
62 -11 15 -26 23 -45 23 -15 0 -31 4 -34 9 -3 5 -34 17 -70 25 -35 9 -69 21
-76 26 -15 12 -140 47 -146 41 -3 -2 -18 2 -34 10 -15 8 -57 20 -93 27 -36 6
-78 19 -94 27 -23 12 -30 12 -36 2 -6 -9 -21 -3 -59 24 -45 33 -53 35 -80 26
-26 -9 -35 -8 -57 10 -18 15 -41 21 -73 21 -29 0 -41 -3 -33 -9z m12 -592 c0
-8 4 -8 14 0 11 10 17 8 25 -6 9 -15 12 -16 20 -4 6 9 16 11 27 6 11 -4 33 -8
49 -9 17 -1 38 -5 48 -9 9 -4 24 -9 32 -12 9 -2 12 -11 9 -22 -5 -15 -4 -16 5
-3 7 10 11 11 11 3 0 -7 6 -13 13 -13 18 0 67 23 67 32 0 4 16 -1 35 -12 20
-11 44 -20 55 -20 13 0 20 -7 20 -20 0 -13 7 -20 20 -20 11 0 20 5 20 11 0 6
7 3 16 -6 9 -9 29 -19 45 -22 16 -3 29 -9 29 -14 0 -5 10 -8 22 -6 14 1 26 -6
34 -22 7 -14 23 -26 35 -28 12 -2 36 -17 52 -34 23 -25 31 -28 38 -18 5 8 9
18 9 22 0 5 16 25 36 44 27 26 31 33 16 29 -15 -5 -24 -1 -31 13 -13 24 6 42
20 20 7 -11 9 -10 9 4 0 9 7 17 15 17 8 0 15 7 15 15 0 17 55 22 64 6 3 -5 18
-12 33 -16 16 -3 35 -13 43 -20 8 -8 34 -18 57 -23 23 -5 67 -29 100 -54 60
-47 192 -177 221 -219 9 -13 22 -30 30 -38 23 -24 71 -127 68 -147 -2 -10 1
-25 6 -31 6 -7 8 -20 4 -28 -3 -9 1 -18 9 -21 22 -9 19 -46 -2 -42 -21 3 -34
13 -71 50 -44 45 -62 67 -62 78 0 6 -4 10 -10 10 -5 0 -16 12 -24 28 -9 15
-16 21 -16 12 0 -8 -7 -1 -14 15 -7 17 -25 39 -39 48 -16 10 -24 23 -21 31 4
10 -2 16 -18 18 -13 2 -22 9 -20 17 4 17 -38 62 -49 55 -5 -3 -14 7 -19 21 -6
17 -16 25 -24 22 -7 -3 -19 0 -25 6 -8 8 -11 6 -11 -7 0 -9 -5 -14 -10 -11 -8
5 -7 12 1 22 10 12 10 16 -2 24 -8 5 -22 9 -31 9 -10 0 -18 7 -18 15 0 9 -12
20 -26 25 -14 6 -22 15 -19 20 3 6 -2 13 -12 17 -10 4 -21 11 -25 17 -6 8 -10
7 -16 -1 -4 -6 -19 -15 -35 -18 -15 -4 -25 -11 -22 -15 3 -4 -5 -10 -16 -13
-15 -4 -20 -11 -16 -24 3 -10 8 -27 12 -38 8 -27 -29 -52 -51 -34 -7 6 -11 15
-8 20 3 5 -2 9 -12 9 -13 0 -14 -3 -5 -14 12 -14 11 -18 -16 -65 -2 -2 -9 2
-18 9 -12 10 -18 10 -30 0 -8 -7 -28 -10 -45 -8 -24 4 -27 2 -19 -9 8 -9 8
-17 0 -27 -7 -8 -11 -20 -10 -28 1 -7 -1 -21 -6 -31 -5 -12 -2 -22 10 -31 10
-7 15 -18 11 -24 -3 -6 2 -12 11 -14 14 -3 8 -14 -32 -56 -27 -28 -53 -52 -57
-52 -5 0 -8 14 -8 30 0 17 -6 33 -13 36 -20 7 -69 -14 -61 -27 4 -7 -1 -10
-12 -7 -12 2 -19 12 -19 27 0 17 -6 25 -22 27 -17 3 -23 -1 -23 -16 0 -11 5
-20 10 -20 6 0 10 -7 10 -16 0 -8 4 -13 9 -10 4 3 6 -5 4 -18 -3 -13 -17 -30
-31 -37 -15 -8 -31 -20 -35 -26 -4 -7 -15 -13 -22 -13 -21 0 -19 -14 5 -35 16
-14 17 -20 8 -26 -9 -6 -2 -11 19 -15 48 -10 59 -28 29 -48 -27 -17 -52 -21
-59 -8 -2 4 -2 2 -1 -5 2 -6 -2 -14 -9 -17 -8 -3 -1 -14 16 -29 22 -19 39 -24
73 -22 25 1 47 -2 50 -7 3 -4 -3 -8 -12 -8 -10 0 -15 -3 -11 -6 10 -10 47 7
47 21 0 12 6 12 27 4 15 -5 38 -8 50 -4 25 6 28 -1 13 -25 -6 -10 -10 -11 -10
-2 0 6 -4 12 -10 12 -5 0 -7 -7 -4 -15 4 -8 -1 -17 -10 -21 -24 -9 -19 -24 9
-24 14 0 25 6 26 13 0 6 5 -3 10 -20 7 -23 16 -33 29 -33 11 0 20 -4 20 -10 0
-5 -7 -10 -15 -10 -8 0 -15 -4 -15 -10 0 -5 7 -10 15 -10 8 0 15 -7 15 -16 0
-9 9 -18 20 -21 11 -3 20 -10 20 -16 0 -6 12 -21 26 -34 20 -17 31 -20 45 -13
24 14 25 13 24 -14 0 -34 -36 -67 -59 -54 -19 11 -70 2 -62 -11 3 -4 -14 -7
-37 -7 -28 1 -42 -3 -42 -12 0 -17 -45 -51 -67 -52 -20 0 -42 -35 -34 -56 3
-8 -1 -14 -9 -14 -8 0 -15 -4 -15 -10 0 -5 -8 -10 -18 -10 -10 0 -22 -4 -28
-10 -6 -6 -22 -6 -44 0 -19 6 -47 10 -62 10 -15 0 -28 6 -30 15 -3 13 -6 13
-32 0 -25 -14 -31 -14 -38 -2 -6 11 -18 13 -50 7 -23 -5 -44 -13 -46 -19 -2
-6 -15 -11 -28 -11 -14 0 -22 4 -19 10 3 6 -1 10 -10 10 -9 0 -19 9 -22 20 -5
17 -11 19 -41 14 -20 -4 -46 -18 -59 -30 -13 -13 -29 -24 -36 -24 -8 0 -6 4 3
11 12 9 11 10 -7 6 -14 -3 -23 0 -23 6 -1 7 -9 2 -19 -10 -24 -28 -27 -28 -34
-2 -4 15 -11 19 -26 14 -14 -4 -23 0 -31 15 -12 23 -40 27 -40 5 0 -17 -54
-21 -93 -6 -14 6 -56 13 -94 16 -81 7 -113 14 -130 29 -34 30 -43 36 -58 36
-8 0 -15 -4 -15 -10 0 -15 -16 -12 -33 5 -9 8 -39 17 -69 20 -29 3 -82 9 -117
15 -44 7 -68 7 -75 0 -5 -5 -23 -10 -38 -10 -17 0 -28 -5 -28 -14 0 -7 -8 -16
-17 -20 -10 -3 -24 -9 -31 -12 -7 -4 -10 0 -6 9 3 8 -2 17 -10 20 -19 7 -22
29 -3 26 6 -1 24 3 39 11 21 10 29 22 34 56 3 24 11 41 16 38 13 -8 48 25 42
40 -3 7 4 21 16 31 11 10 20 31 20 47 0 23 4 28 25 28 16 0 25 6 25 15 0 13 4
14 22 4 18 -10 24 -8 39 10 23 28 49 27 49 -1 0 -21 1 -21 13 -3 16 21 42 11
33 -12 -5 -12 -1 -14 19 -11 18 4 26 0 30 -13 4 -11 10 -19 15 -19 13 0 22 34
11 38 -17 6 -2 22 20 22 14 0 19 7 19 25 0 19 5 25 23 25 26 0 72 62 63 85 -4
11 0 14 17 12 12 -2 18 -2 12 0 -10 4 -35 50 -35 65 0 4 5 8 11 8 7 0 17 7 24
17 13 18 39 9 31 -12 -2 -7 2 -16 10 -19 28 -11 55 -6 61 11 4 9 22 30 40 46
32 28 39 48 11 31 -7 -5 -25 -9 -40 -10 -15 -1 -43 -5 -63 -8 -22 -4 -35 -3
-36 4 -1 5 -2 15 -3 20 0 6 -8 15 -16 20 -13 9 -11 13 10 30 14 11 28 20 33
20 11 0 9 -24 -4 -37 -8 -8 -8 -13 0 -17 6 -4 11 0 11 8 0 8 10 25 23 37 l22
22 -22 -6 c-13 -3 -25 -1 -28 3 -3 5 5 10 17 12 30 4 37 38 9 38 -22 0 -80
-56 -81 -77 0 -16 -17 -17 -22 -2 -2 7 -11 7 -28 0 -18 -7 -20 -10 -7 -10 20
-1 24 -37 5 -44 -26 -9 -48 13 -48 48 0 25 -4 35 -16 35 -8 0 -12 5 -9 10 9
15 -4 12 -21 -4 -8 -8 -14 -21 -14 -28 0 -16 -44 -60 -77 -77 -19 -10 -23 -9
-23 3 0 8 8 17 18 19 12 4 11 5 -6 6 -24 1 -42 28 -26 40 9 6 18 51 10 51 -2
0 -16 -6 -30 -14 -21 -10 -23 -15 -11 -19 23 -9 18 -29 -7 -27 -39 4 -46 1
-44 -17 3 -19 -26 -46 -61 -57 -17 -6 -23 -3 -23 9 0 9 -11 28 -25 43 l-25 27
-25 -27 c-14 -15 -25 -32 -25 -38 0 -22 -47 -30 -81 -13 -18 9 -34 12 -36 7
-2 -5 -22 -8 -45 -8 l-43 1 1 62 c0 34 6 71 11 84 6 12 17 38 24 57 43 118
214 318 347 409 110 74 222 115 222 80 0 -6 8 -9 18 -7 11 3 23 -2 30 -13 15
-23 15 -39 2 -39 -5 0 -10 9 -10 20 0 11 -4 20 -10 20 -5 0 -7 -7 -4 -15 4 -8
1 -21 -4 -28 -17 -20 2 -40 31 -35 23 4 28 0 43 -36 9 -23 19 -35 21 -29 3 8
14 11 29 7 19 -5 24 -2 24 13 0 21 44 48 61 37 6 -3 17 0 26 8 9 7 34 13 56
13 23 0 42 5 44 13 3 6 -2 12 -11 12 -9 0 -16 5 -16 10 0 13 46 13 71 -1 24
-13 62 -3 40 10 -10 7 -10 10 -1 16 7 4 16 2 20 -5 5 -9 13 -9 27 -2 11 6 29
8 41 5 15 -3 22 -1 22 8 0 8 24 24 53 36 61 25 77 27 77 12z m265 -29 c3 -5
-1 -10 -9 -10 -9 0 -16 5 -16 10 0 6 4 10 9 10 6 0 13 -4 16 -10z m-525 -30
c0 -5 -7 -7 -15 -4 -8 4 -15 8 -15 10 0 2 7 4 15 4 8 0 15 -4 15 -10z m-266
-19 c3 -5 -7 -11 -22 -14 -31 -6 -37 -3 -27 12 8 13 42 14 49 2z m58 -29 c-7
-2 -10 -8 -6 -13 3 -5 -8 -9 -25 -9 -16 0 -36 -3 -45 -6 -9 -3 -16 -1 -16 5 0
6 10 11 23 11 12 0 31 7 41 15 10 8 24 11 29 8 8 -5 7 -8 -1 -11z m1163 -60
c-8 -8 -25 10 -19 20 4 6 9 5 15 -3 4 -7 6 -15 4 -17z m35 -52 c0 -5 -2 -10
-4 -10 -3 0 -8 5 -11 10 -3 6 -1 10 4 10 6 0 11 -4 11 -10z m348 -122 c14 -14
16 -28 2 -28 -5 0 -14 9 -20 20 -12 22 -1 27 18 8z m-228 -38 c0 -5 -2 -10 -4
-10 -3 0 -8 5 -11 10 -3 6 -1 10 4 10 6 0 11 -4 11 -10z m-180 -30 c25 0 35
-19 15 -26 -16 -6 -45 21 -44 41 0 6 3 4 6 -2 2 -7 13 -13 23 -13z m0 -101 c0
-6 -4 -7 -10 -4 -5 3 -10 11 -10 16 0 6 5 7 10 4 6 -3 10 -11 10 -16z m-3 -25
c-3 -3 -12 -4 -19 -1 -8 3 -5 6 6 6 11 1 17 -2 13 -5z m52 -48 c-12 -10 -59
-15 -59 -6 0 5 14 10 32 10 17 0 29 -2 27 -4z m-217 -32 c-5 -30 -30 -50 -43
-37 -8 8 -6 18 7 37 21 29 41 29 36 0z m184 -42 c-12 -11 -18 7 -10 30 l8 23
4 -23 c2 -13 1 -26 -2 -30z m-56 28 c0 -5 -17 -10 -37 -9 -31 0 -34 2 -18 9
28 12 55 12 55 0z m-1294 -58 c-12 -11 -17 7 -9 34 l8 29 3 -28 c2 -16 1 -31
-2 -35z m1299 8 c3 -5 1 -10 -4 -10 -6 0 -11 5 -11 10 0 6 2 10 4 10 3 0 8 -4
11 -10z m-1211 -26 c14 -5 14 -8 0 -21 -12 -12 -12 -18 -2 -30 11 -13 9 -18
-10 -31 -12 -8 -22 -21 -22 -28 0 -9 -11 -14 -30 -14 -26 0 -30 4 -30 28 0 33
25 72 46 72 8 0 17 7 20 15 7 17 7 17 28 9z m986 -9 c0 -8 -7 -15 -15 -15 -26
0 -18 20 13 29 1 1 2 -6 2 -14z m1025 -15 c3 -5 -3 -10 -14 -10 -12 0 -21 5
-21 10 0 6 6 10 14 10 8 0 18 -4 21 -10z m-2427 -32 c-2 -25 -8 -34 -24 -36
-11 -2 -26 4 -33 12 -10 12 -8 16 8 21 12 3 21 13 21 21 0 8 7 14 16 14 11 0
14 -8 12 -32z m-162 0 c8 -13 -51 -68 -73 -68 -7 0 -13 11 -13 25 0 18 -5 25
-20 25 -11 0 -20 4 -20 8 0 4 15 6 34 4 18 -2 37 1 40 7 9 15 43 14 52 -1z
m274 2 c0 -5 -7 -10 -16 -10 -8 0 -12 5 -9 10 3 6 10 10 16 10 5 0 9 -4 9 -10z
m-46 -71 c14 -20 16 -20 31 -5 22 21 95 22 95 1 0 -11 -12 -15 -45 -15 -34 0
-47 -5 -55 -20 -6 -11 -15 -20 -21 -20 -6 0 -13 9 -16 20 -3 11 -9 20 -14 20
-5 0 -9 9 -9 20 0 26 15 25 34 -1z m357 -19 c5 0 9 -7 9 -17 0 -9 -3 -14 -6
-10 -3 3 -17 2 -30 -3 -20 -8 -24 -6 -24 9 0 23 10 33 28 26 7 -3 18 -5 23 -5z
m-2519 -100 c58 -18 216 -104 277 -152 24 -18 22 -18 -120 -13 -79 4 -193 11
-254 16 -60 6 -180 12 -265 15 -85 3 -156 6 -158 8 -5 6 127 86 176 107 68 29
107 37 198 38 56 1 102 -5 146 -19z m3903 -379 c3 -5 1 -12 -5 -16 -5 -3 -10
1 -10 9 0 18 6 21 15 7z m-1940 -21 c-3 -5 -11 -10 -16 -10 -6 0 -7 5 -4 10 3
6 11 10 16 10 6 0 7 -4 4 -10z m-35 -27 c0 -1 -9 -7 -20 -13 -16 -8 -20 -8
-20 4 0 9 8 14 20 13 11 -1 20 -2 20 -4z m-241 -30 c-3 -20 2 -26 11 -13 8 12
12 13 19 2 4 -8 12 -13 17 -12 5 1 10 -4 13 -11 2 -7 -1 -9 -8 -5 -7 5 -11 -2
-11 -18 0 -20 -7 -27 -32 -34 -23 -6 -34 -15 -36 -30 -2 -12 -8 -20 -13 -17
-5 4 -9 1 -9 -4 0 -6 -5 -11 -11 -11 -14 0 -4 59 12 75 7 7 8 4 4 -10 -5 -15
-4 -16 3 -6 6 8 10 29 10 47 0 18 3 37 7 43 7 12 26 15 24 4z m2176 -13 c-3
-5 -10 -10 -16 -10 -5 0 -9 5 -9 10 0 6 7 10 16 10 8 0 12 -4 9 -10z m-138
-36 c-3 -3 -12 -4 -19 -1 -8 3 -5 6 6 6 11 1 17 -2 13 -5z m198 -25 c4 -5 1
-9 -5 -9 -6 0 -8 -4 -5 -10 8 -13 -11 -13 -37 1 -13 7 -17 14 -10 18 17 10 51
11 57 0z m-5275 -148 c0 -5 -6 -14 -14 -20 -16 -13 -32 2 -21 19 8 12 35 13
35 1z m3085 -21 c0 -34 -10 -40 -18 -11 -3 14 8 41 18 41 0 0 0 -13 0 -30z
m-139 -166 c-18 -17 -21 -34 -7 -34 5 0 12 8 16 18 3 9 20 28 38 42 17 14 28
20 24 13 -4 -6 -2 -13 4 -15 14 -5 -6 -48 -27 -61 -7 -4 -15 -20 -19 -36 -4
-19 -12 -28 -23 -27 -12 1 -16 -6 -14 -24 5 -45 1 -93 -8 -109 -7 -14 -10 -12
-19 9 -6 16 -10 19 -10 9 -1 -19 -30 -34 -42 -22 -11 11 0 53 13 53 5 0 7 13
3 30 -5 22 -3 30 5 28 7 -2 15 3 17 10 3 6 0 12 -6 12 -6 0 -8 7 -4 16 3 9 12
13 22 9 12 -5 13 -3 5 5 -11 11 3 74 29 129 12 25 12 25 15 -7 2 -19 -3 -38
-12 -48z m-3023 -69 c4 -8 2 -17 -3 -20 -6 -4 -10 3 -10 14 0 25 6 27 13 6z
m4607 -4 c0 -5 9 -13 20 -16 25 -8 49 -62 46 -106 -1 -17 1 -51 4 -75 4 -24 3
-41 -2 -38 -13 8 -9 -18 7 -50 17 -32 20 -86 5 -86 -5 0 -10 -15 -10 -32 0
-113 -6 -238 -12 -238 -15 0 -8 -51 7 -56 8 -4 15 -12 15 -19 0 -7 7 -16 16
-19 9 -4 14 -13 10 -21 -4 -10 1 -15 15 -15 18 0 20 -4 15 -25 -5 -18 -1 -28
14 -37 26 -16 26 -28 0 -28 -11 0 -20 -4 -20 -10 0 -5 5 -10 10 -10 6 0 10 -4
10 -9 0 -5 -8 -7 -18 -4 -24 6 -44 -19 -40 -49 2 -19 8 -23 36 -20 21 1 31 -2
27 -8 -4 -6 -1 -17 5 -25 10 -12 7 -17 -15 -25 -35 -13 -41 -13 -61 7 -14 14
-36 18 -118 18 -56 1 -108 5 -116 10 -8 5 -29 8 -46 6 -22 -1 -35 3 -42 14 -5
9 -13 17 -18 17 -5 0 -13 2 -19 3 -5 2 -27 6 -47 10 -28 4 -37 11 -40 27 -2
14 -13 25 -28 29 -14 4 -19 7 -12 8 6 1 34 24 61 51 27 28 54 50 60 50 6 0 11
9 11 20 0 22 15 27 24 8 4 -7 4 -3 2 9 -3 15 2 24 15 28 10 4 19 15 19 25 0
10 5 22 11 25 7 5 4 14 -7 26 -20 23 -44 25 -44 4 0 -8 -7 -15 -16 -15 -14 0
-14 1 0 16 18 17 21 34 7 34 -33 0 -75 -16 -98 -39 -16 -14 -43 -31 -61 -38
l-33 -11 7 36 c9 51 22 72 39 66 23 -9 45 21 45 60 0 28 8 44 38 74 20 21 52
47 70 58 l32 19 25 -29 c14 -16 28 -26 32 -23 3 4 -2 16 -11 26 -21 23 -16
103 8 130 9 10 16 23 16 29 0 7 9 12 20 12 13 0 20 7 20 20 0 12 10 24 23 30
12 5 17 9 10 9 -7 1 -10 7 -7 15 3 8 0 24 -6 36 -9 17 -8 25 4 39 9 10 16 22
16 26 0 10 51 54 63 55 4 0 7 -4 7 -9z m-1050 -121 c0 -5 -7 -10 -16 -10 -8 0
-12 5 -9 10 3 6 10 10 16 10 5 0 9 -4 9 -10z m-563 -97 c-3 -10 -5 -4 -5 12 0
17 2 24 5 18 2 -7 2 -21 0 -30z m-947 -26 c0 -10 -18 -14 -66 -15 -55 0 -63 2
-53 14 15 19 119 20 119 1z m925 3 c23 -9 26 -14 21 -38 -5 -18 -4 -23 3 -13
7 11 11 2 16 -32 7 -43 9 -47 36 -47 19 0 29 -5 29 -15 0 -10 -10 -15 -30 -15
-16 0 -30 5 -30 10 0 6 -9 10 -20 10 -11 0 -20 6 -20 13 0 8 -9 22 -21 33 -20
18 -21 18 -40 -6 -15 -20 -19 -22 -19 -7 0 9 5 17 11 17 5 0 7 5 4 10 -3 6 1
10 9 10 9 0 16 7 16 15 0 8 -7 15 -15 15 -8 0 -15 7 -15 15 0 8 7 15 15 15 8
0 15 5 15 10 0 12 2 12 35 0z m-1228 -36 c-3 -3 -12 -4 -19 -1 -8 3 -5 6 6 6
11 1 17 -2 13 -5z m-522 -14 c3 -5 2 -10 -4 -10 -5 0 -13 5 -16 10 -3 6 -2 10
4 10 5 0 13 -4 16 -10z m1725 -110 c15 0 17 -6 13 -40 l-6 -40 53 0 c29 0 50
-3 47 -6 -9 -9 -147 -11 -147 -1 0 4 7 7 15 7 17 0 18 4 9 49 -4 17 -10 28
-15 25 -5 -3 -6 3 -2 12 4 11 8 13 11 6 2 -7 12 -12 22 -12z m253 -49 c4 -17
10 -18 43 -11 24 6 43 5 50 -1 7 -5 18 -8 25 -7 18 4 23 -30 8 -59 -10 -19
-10 -28 -1 -43 7 -11 12 -27 12 -35 0 -8 5 -24 10 -35 6 -11 14 -29 20 -39 10
-21 -8 -35 -33 -25 -8 3 -20 -2 -27 -11 -12 -14 -11 -18 0 -25 8 -5 11 -12 7
-16 -9 -10 -60 43 -53 55 8 12 -3 41 -15 41 -5 0 -9 -9 -9 -19 0 -22 -19 -31
-66 -31 -31 0 -37 5 -50 35 -8 20 -21 35 -31 35 -14 0 -13 3 5 20 23 21 30 60
11 60 -5 0 -3 10 5 22 9 12 16 29 16 38 0 16 45 70 59 70 5 0 11 -9 14 -19z
m-2718 -31 c3 -6 -5 -10 -19 -10 -14 0 -28 5 -31 10 -3 6 5 10 19 10 14 0 28
-4 31 -10z m2192 -42 c-3 -8 -6 -5 -6 6 -1 11 2 17 5 13 3 -3 4 -12 1 -19z
m392 -1 c7 -10 7 -17 0 -24 -8 -8 -7 -17 3 -32 10 -17 10 -25 0 -41 -7 -12
-10 -25 -7 -29 2 -5 -11 -11 -30 -13 -19 -2 -36 1 -39 7 -2 5 -11 1 -20 -10
-15 -20 -15 -20 -16 3 0 19 5 23 23 20 25 -3 29 4 20 28 -3 9 -2 24 4 33 15
23 -8 41 -52 41 -19 0 -35 5 -35 11 0 6 21 9 55 8 30 -1 58 0 62 4 10 10 19 8
32 -6z m980 -26 c14 -9 22 -91 9 -91 -5 0 -8 -10 -8 -22 0 -19 -2 -20 -10 -8
-7 10 -8 0 -4 -32 4 -30 2 -53 -5 -61 -6 -8 -9 -16 -6 -19 3 -3 -4 -13 -15
-23 -11 -10 -20 -26 -20 -37 0 -10 -6 -18 -13 -18 -23 0 -67 -25 -67 -38 0 -7
-7 -15 -15 -18 -18 -7 -20 -34 -2 -35 9 0 9 -2 0 -5 -9 -4 -6 -15 8 -40 10
-19 19 -36 19 -38 0 -2 -16 -11 -36 -21 -20 -9 -33 -20 -29 -23 6 -7 11 -8 36
-11 8 -1 9 -15 5 -43 -4 -24 -9 -59 -12 -78 -4 -23 -2 -31 4 -22 7 11 11 8 16
-12 7 -30 -2 -78 -14 -71 -10 6 -22 -77 -14 -98 3 -10 1 -24 -6 -32 -6 -8 -9
-23 -5 -35 8 -25 -20 -29 -29 -4 -5 13 -11 10 -29 -16 -12 -18 -31 -38 -42
-44 -10 -6 -27 -20 -37 -31 -10 -12 -17 -15 -18 -7 0 6 -11 12 -25 12 -52 0
-105 47 -109 96 -4 42 -16 58 -16 21 0 -15 -5 -27 -10 -27 -11 0 -10 15 5 78
5 22 13 32 26 32 11 0 19 4 19 9 0 5 3 17 6 26 6 14 1 16 -22 15 -48 -3 -50
-1 -19 20 17 11 38 18 48 16 12 -3 21 3 28 20 13 35 12 41 -11 47 -11 3 -20
14 -20 25 0 24 -25 48 -35 33 -3 -6 -1 -19 5 -30 6 -11 9 -26 8 -32 -2 -7 7
-18 19 -24 13 -7 20 -14 17 -18 -11 -11 -80 7 -119 31 -22 14 -48 25 -57 25
-16 -2 -16 0 0 18 9 10 20 19 24 19 12 0 88 81 88 93 0 22 -65 77 -92 77 -16
0 -28 2 -28 4 0 16 14 36 26 36 8 0 14 6 14 14 0 19 -52 38 -82 31 -15 -4 -29
-2 -32 4 -5 7 2 11 18 11 37 0 61 11 45 21 -9 5 2 14 34 28 34 15 47 26 47 41
0 24 26 38 43 21 8 -8 8 -11 -3 -11 -7 0 -10 -3 -7 -7 4 -3 22 10 41 29 19 19
48 38 66 41 17 4 29 11 25 17 -3 5 7 12 22 15 15 4 36 10 45 16 10 5 27 9 37
9 27 0 35 17 14 29 -13 7 -14 10 -4 11 8 0 28 11 45 24 18 13 57 29 88 35 31
7 62 19 68 27 14 16 38 18 59 5z m-1049 -21 c0 -5 -9 -10 -19 -10 -11 0 -23 5
-26 10 -4 6 5 10 19 10 14 0 26 -4 26 -10z m50 -120 c0 -5 -7 -10 -16 -10 -8
0 -12 5 -9 10 3 6 10 10 16 10 5 0 9 -4 9 -10z m110 -40 c0 -5 -2 -10 -4 -10
-3 0 -8 5 -11 10 -3 6 -1 10 4 10 6 0 11 -4 11 -10z m1064 -201 c-3 -5 -13 -9
-23 -9 -9 0 -22 -5 -28 -11 -5 -5 -21 -11 -34 -13 -13 -2 -33 -7 -43 -11 -13
-6 -21 -4 -24 3 -2 7 -10 12 -18 12 -19 0 -18 29 2 37 9 3 25 1 35 -5 28 -18
56 -14 62 7 3 14 11 18 26 14 14 -3 21 -1 21 8 1 10 5 8 15 -5 8 -10 12 -23 9
-27z m-1438 -299 c-12 -75 -12 -75 14 -80 14 -3 25 -12 25 -19 0 -25 -19 -22
-54 6 -35 30 -38 46 -26 121 8 41 8 42 27 25 15 -14 18 -26 14 -53z m83 -221
c30 -4 57 -6 61 -4 9 6 20 -30 20 -66 0 -33 -74 -119 -102 -119 -49 0 -74 39
-82 130 -5 54 9 84 32 75 9 -4 41 -11 71 -16z m1496 -163 c47 -41 41 -54 -15
-36 -47 16 -63 31 -54 54 9 24 25 20 69 -18z m-1312 -388 c-3 -18 -14 -33 -25
-35 -10 -3 -18 -10 -18 -15 0 -5 -4 -7 -9 -4 -5 4 -22 -7 -37 -23 -15 -17 -31
-28 -35 -25 -4 2 -35 -23 -68 -56 -33 -33 -70 -60 -80 -60 -20 0 -37 -32 -27
-49 10 -15 -5 -40 -20 -34 -18 7 -18 -7 2 -35 12 -17 13 -26 4 -37 -8 -9 -8
-15 0 -20 12 -7 7 -31 -20 -90 -28 -60 -54 -124 -80 -187 l-22 -58 -74 0 c-64
0 -74 2 -74 18 0 34 102 284 127 310 6 6 15 22 19 35 3 12 16 36 28 52 11 17
20 31 19 32 -1 2 0 10 4 20 4 9 2 18 -4 20 -18 6 1 56 61 156 71 117 93 144
108 129 9 -9 46 -8 106 4 20 4 22 10 22 78 0 63 3 75 18 78 24 5 84 -158 75
-204z m1318 -68 c30 -6 98 -11 151 -12 70 0 101 -5 109 -14 6 -8 20 -14 30
-14 26 0 24 -18 -3 -41 -28 -23 -57 -24 -86 -3 -12 8 -31 13 -41 9 -10 -3 -24
1 -31 10 -14 17 -66 20 -75 5 -4 -6 -21 -10 -38 -9 -18 0 -41 -2 -52 -5 -27
-9 -85 28 -85 53 0 32 33 38 121 21z m-4503 -96 c49 -21 137 -44 168 -44 14 0
42 9 63 20 l39 19 5 -37 c3 -20 15 -73 26 -117 12 -44 23 -88 25 -97 8 -31
-15 -37 -104 -27 -157 17 -218 38 -312 106 -46 33 -48 37 -48 83 0 38 6 55 26
79 29 35 56 39 112 15z m6082 -74 c8 -5 11 -10 5 -10 -5 0 -17 5 -25 10 -8 5
-10 10 -5 10 6 0 17 -5 25 -10z m245 0 c3 -6 -1 -7 -9 -4 -18 7 -21 14 -7 14
6 0 13 -4 16 -10z m-205 -360 c0 -11 -2 -20 -4 -20 -2 0 -6 9 -9 20 -3 11 -1
20 4 20 5 0 9 -9 9 -20z m-3444 -151 c36 -9 44 -15 44 -34 0 -31 -29 -60 -43
-46 -6 6 -33 11 -59 11 -26 0 -48 4 -48 10 0 20 24 59 39 63 9 3 17 5 19 6 2
0 23 -4 48 -10z m3221 -51 c-3 -8 -6 -5 -6 6 -1 11 2 17 5 13 3 -3 4 -12 1
-19z m23 -97 c0 -21 -13 -4 -17 22 -2 17 -1 19 7 7 5 -8 10 -21 10 -29z m-40
-71 c0 -16 -2 -30 -4 -30 -2 0 -6 14 -8 30 -3 17 -1 30 4 30 4 0 8 -13 8 -30z
m-3020 -184 c0 -19 -4 -38 -10 -41 -6 -4 -10 10 -10 34 0 23 5 41 10 41 6 0
10 -15 10 -34z m3016 -54 c-11 -10 -14 3 -8 33 l7 30 3 -28 c2 -16 1 -31 -2
-35z m-2146 -22 c0 -5 -4 -10 -10 -10 -5 0 -10 5 -10 10 0 6 5 10 10 10 6 0
10 -4 10 -10z m2125 -20 c-4 -12 -9 -19 -12 -17 -3 3 -2 15 2 27 4 12 9 19 12
17 3 -3 2 -15 -2 -27z m-24 -76 c12 -14 11 -16 -5 -13 -11 2 -21 10 -24 17 -5
17 13 15 29 -4z m-381 -256 c0 -20 5 -40 11 -43 9 -6 8 -36 -5 -130 0 -5 7 -9
17 -9 13 1 17 -6 17 -35 l0 -36 -23 25 c-37 40 -57 108 -62 210 -3 72 1 83 26
67 13 -8 19 -23 19 -49z m-50 -489 c0 -7 14 -34 30 -61 35 -57 33 -88 -6 -88
-13 0 -24 -4 -24 -9 0 -5 -9 -11 -20 -14 -11 -3 -18 -2 -15 3 3 4 -1 10 -8 13
-8 3 -12 28 -10 83 0 44 2 80 2 82 3 8 51 0 51 -9z"/>
<path d="M6275 6191 c-6 -11 9 -23 19 -14 9 9 7 23 -3 23 -6 0 -12 -4 -16 -9z"/>
<path d="M6072 6158 c2 -6 16 -21 30 -31 31 -23 72 -17 88 12 9 18 6 19 -43
15 -38 -4 -48 -2 -37 5 12 9 9 11 -13 11 -18 0 -27 -5 -25 -12z"/>
<path d="M6217 6145 c4 -11 -1 -18 -16 -22 -11 -3 -21 -9 -21 -14 0 -5 -9 -9
-20 -9 -24 0 -26 -22 -5 -40 12 -10 15 -10 15 3 0 17 21 27 58 27 15 0 34 5
42 10 13 9 12 13 -5 26 -11 8 -28 20 -37 25 -14 7 -16 6 -11 -6z"/>
<path d="M7320 6120 c0 -5 5 -10 10 -10 6 0 10 5 10 10 0 6 -4 10 -10 10 -5 0
-10 -4 -10 -10z"/>
<path d="M6015 6100 c-3 -5 -1 -18 5 -29 13 -26 4 -31 -65 -38 -45 -5 -53 -8
-44 -19 9 -11 8 -14 -5 -14 -10 0 -14 -5 -11 -10 4 -6 12 -10 18 -9 7 1 38 1
70 0 43 -1 57 -5 57 -16 0 -8 5 -15 10 -15 15 0 12 19 -5 36 -8 8 -12 22 -9
32 3 9 8 24 10 32 4 12 6 12 14 1 12 -21 37 -6 35 21 -1 17 -7 22 -23 20 -11
-2 -23 2 -27 8 -8 13 -22 13 -30 0z m-15 -90 c0 -5 -10 -10 -22 -10 -19 0 -20
2 -8 10 19 13 30 13 30 0z"/>
<path d="M7425 6050 c-3 -5 -1 -10 4 -10 6 0 11 5 11 10 0 6 -2 10 -4 10 -3 0
-8 -4 -11 -10z"/>
<path d="M5840 5995 c0 -8 2 -15 4 -15 2 0 6 7 10 15 3 8 1 15 -4 15 -6 0 -10
-7 -10 -15z"/>
<path d="M5878 5929 c-24 -41 -23 -51 4 -47 17 2 23 10 23 28 0 24 3 25 57 24
44 -1 55 1 51 12 -3 10 -23 14 -62 14 -52 0 -57 -2 -73 -31z"/>
<path d="M6065 5930 c-3 -6 0 -17 8 -24 19 -19 43 0 26 21 -14 16 -26 17 -34
3z"/>
<path d="M5920 5911 c0 -8 71 -22 79 -15 1 1 0 7 -4 13 -8 13 -75 15 -75 2z"/>
<path d="M6060 5873 c1 -21 27 -41 41 -32 12 8 11 12 -5 24 -22 16 -36 19 -36
8z"/>
<path d="M5900 5855 c-14 -8 -37 -19 -52 -25 -16 -5 -28 -15 -28 -21 0 -6 7
-8 16 -5 9 3 24 6 35 6 10 0 19 6 19 14 0 7 14 16 30 20 17 3 30 10 30 16 0
14 -21 12 -50 -5z"/>
<path d="M5764 5815 c-4 -9 -4 -18 -1 -21 10 -10 48 7 44 19 -6 19 -36 20 -43
2z"/>
<path d="M5750 5766 c0 -2 9 -6 20 -9 11 -3 20 -1 20 4 0 5 -9 9 -20 9 -11 0
-20 -2 -20 -4z"/>
<path d="M7028 5723 c7 -3 16 -2 19 1 4 3 -2 6 -13 5 -11 0 -14 -3 -6 -6z"/>
<path d="M6502 5711 c-11 -7 -10 -10 3 -15 20 -7 38 1 30 15 -7 11 -16 11 -33
0z"/>
<path d="M6412 5660 c-16 -27 -15 -30 8 -30 15 0 20 7 20 25 0 30 -11 32 -28
5z"/>
<path d="M7037 5439 c7 -7 15 -10 18 -7 3 3 -2 9 -12 12 -14 6 -15 5 -6 -5z"/>
<path d="M7091 5402 c-13 -25 -3 -35 17 -16 10 11 12 18 4 26 -7 7 -13 4 -21
-10z"/>
<path d="M6920 5345 c-10 -13 -11 -18 -1 -28 10 -9 15 -8 27 7 8 11 14 23 14
28 0 14 -27 9 -40 -7z"/>
<path d="M5910 5305 c0 -9 6 -12 15 -9 8 4 15 10 15 15 0 5 -7 9 -15 9 -8 0
-15 -7 -15 -15z"/>
<path d="M5516 5585 c-4 -13 -2 -14 14 -5 23 13 26 20 6 20 -8 0 -16 -7 -20
-15z"/>
<path d="M6580 3936 c0 -9 -4 -16 -10 -16 -5 0 -10 -4 -10 -9 0 -5 11 -4 25 2
25 12 28 28 7 35 -7 2 -12 -3 -12 -12z"/>
<path d="M5148 4213 c7 -3 16 -2 19 1 4 3 -2 6 -13 5 -11 0 -14 -3 -6 -6z"/>
<path d="M5177 4154 c6 -15 23 -19 23 -5 0 5 -7 11 -14 14 -10 4 -13 1 -9 -9z"/>
<path d="M5998 3455 c-5 -25 -4 -25 10 -11 12 11 13 19 5 27 -7 7 -12 3 -15
-16z"/>
<path d="M5896 3451 c-6 -11 10 -46 23 -47 6 -1 15 -2 19 -3 4 0 6 -17 4 -36
-4 -29 -1 -35 15 -35 42 0 57 46 22 68 -16 10 -18 16 -9 27 8 10 8 15 -1 21
-16 9 -68 14 -73 5z"/>
<path d="M5820 3420 c0 -5 5 -10 10 -10 6 0 10 5 10 10 0 6 -4 10 -10 10 -5 0
-10 -4 -10 -10z"/>
<path d="M1 3433 c-2 -267 0 -295 14 -283 19 16 21 14 37 -34 11 -32 20 -42
53 -53 82 -30 359 10 396 56 14 17 15 28 5 83 -9 47 -16 62 -27 59 -7 -2 -50
-15 -94 -28 -64 -20 -107 -25 -212 -28 -121 -3 -133 -1 -133 15 0 40 76 73
210 89 79 10 88 14 72 34 -7 7 -21 45 -33 83 -46 148 -105 228 -205 278 -88
44 -82 64 -83 -271z"/>
<path d="M70 3019 l-65 -16 -3 -92 c-3 -104 -4 -103 83 -73 48 17 52 17 95 -2
122 -52 186 -131 201 -248 4 -40 18 -151 29 -246 13 -117 26 -185 39 -210 12
-24 25 -86 34 -171 9 -74 20 -138 25 -143 6 -6 24 -3 47 6 54 23 72 14 80 -40
3 -25 4 -49 0 -52 -3 -3 -29 -16 -58 -28 -28 -12 -53 -27 -55 -33 -5 -16 10
-14 68 9 l50 20 10 -23 c10 -21 47 -192 55 -252 14 -100 18 -121 25 -130 4 -5
10 -28 13 -50 15 -103 37 -181 57 -197 11 -9 52 -24 92 -33 60 -13 83 -14 147
-4 150 22 304 86 352 147 20 25 21 35 15 122 -3 52 -8 140 -12 195 -6 114 -13
143 -24 105 l-6 -25 -6 28 c-3 15 -3 25 0 22 3 -2 11 7 19 22 14 27 10 59 -5
49 -5 -3 -7 18 -5 47 2 31 0 45 -5 34 -4 -10 -12 -19 -17 -20 -6 -1 -10 -13
-11 -27 -2 -51 -4 -60 -19 -60 -8 0 -15 9 -15 19 0 19 -23 35 -34 24 -22 -23
12 -93 45 -93 6 0 9 -8 7 -17 -2 -12 -11 -17 -26 -15 -20 3 -22 0 -16 -22 4
-16 2 -26 -5 -26 -6 0 -11 -17 -11 -40 0 -22 5 -40 10 -40 6 0 10 6 10 13 0 6
5 4 11 -6 12 -20 1 -47 -11 -27 -12 20 -50 -6 -50 -35 0 -19 -5 -25 -21 -25
-16 0 -19 4 -14 20 7 23 2 25 -26 10 -24 -13 -25 -30 -1 -30 15 0 17 -6 14
-35 -5 -42 -22 -57 -22 -20 0 21 -4 26 -16 21 -9 -3 -24 -6 -35 -6 -14 0 -18
-6 -16 -22 1 -18 -4 -24 -23 -26 -14 -2 -28 -9 -32 -15 -4 -6 -10 -8 -13 -5
-11 11 5 28 25 28 28 0 35 20 8 22 -13 0 -30 2 -38 2 -10 1 -14 11 -13 29 2
29 -11 37 -21 12 -7 -19 -20 -19 -62 1 -24 12 -34 23 -34 39 0 13 -7 30 -15
38 -11 12 -12 17 -2 20 6 3 2 6 -9 6 -21 1 -43 41 -23 41 5 0 9 7 9 15 0 9 -9
15 -21 15 -17 0 -20 5 -18 33 4 45 -22 127 -40 127 -8 0 -11 3 -7 7 11 11 30
10 38 -2 11 -15 10 9 -2 40 -5 14 -14 23 -20 20 -5 -3 -10 -1 -10 4 0 6 7 11
15 11 18 0 20 21 3 38 -9 9 -9 15 0 24 16 16 15 28 -2 28 -19 0 -22 6 -31 58
-6 40 -6 42 19 42 16 0 26 6 26 14 0 18 35 30 52 20 8 -5 7 0 -2 11 -14 17
-13 18 19 12 34 -7 34 -7 16 13 -10 11 -26 20 -35 20 -9 0 -22 11 -29 24 -23
43 9 126 44 113 7 -3 19 1 25 9 7 8 23 14 36 14 12 0 26 5 29 10 10 15 25 12
25 -6 0 -9 6 -14 13 -11 6 2 11 14 9 25 -3 24 13 30 21 9 7 -18 62 -20 77 -2
7 8 16 12 22 9 5 -3 15 -1 23 6 10 8 19 8 34 -2 23 -14 26 -24 11 -33 -16 -10
-12 -25 6 -25 10 0 14 -6 11 -14 -3 -8 -1 -16 6 -19 7 -2 12 -12 12 -23 0 -10
7 -19 15 -19 8 0 15 -4 15 -10 0 -5 -10 -8 -21 -7 -18 3 -21 -1 -16 -23 3 -19
8 -23 15 -16 22 22 40 12 34 -19 -4 -18 -1 -34 7 -42 7 -7 11 -28 10 -46 -2
-31 8 -42 21 -22 7 12 26 14 23 3 0 -5 2 -16 7 -27 5 -11 3 -26 -4 -39 -11
-17 -10 -22 3 -29 9 -5 16 -19 16 -31 0 -20 1 -20 17 -4 13 13 14 20 6 28 -9
9 -8 15 3 26 9 10 13 26 9 46 -3 18 -2 47 3 65 6 30 15 37 66 58 69 28 84 29
151 8 47 -14 131 -11 109 4 -12 9 -34 58 -34 76 0 14 37 33 79 41 13 2 26 7
29 10 8 8 -20 6 -83 -7 -56 -11 -59 -11 -77 13 -38 47 -94 103 -175 172 -73
61 -101 97 -75 97 17 0 29 46 23 85 l-6 39 -38 -37 c-22 -23 -37 -47 -37 -62
0 -14 -8 -29 -20 -35 -11 -6 -19 -14 -19 -18 6 -37 -4 -48 -53 -65 -29 -10
-66 -24 -83 -32 -47 -20 -270 -48 -380 -46 -80 1 -102 5 -112 18 -7 9 -13 13
-13 9 0 -5 -6 -4 -13 2 -8 7 -18 7 -27 2 -23 -15 -28 -12 -22 16 3 18 0 30
-11 36 -9 4 -14 15 -11 23 5 13 -42 53 -51 43 -3 -2 -1 -19 4 -36 6 -21 6 -34
-1 -38 -27 -17 -48 55 -37 126 9 62 64 107 191 158 92 37 96 40 72 50 -14 7
-58 12 -99 12 l-75 0 0 40 c0 22 3 40 8 39 4 0 30 -11 57 -24 50 -24 73 -20
62 9 -5 12 -105 66 -123 66 -3 0 -12 7 -20 15 -9 8 -11 15 -5 15 13 0 15 36 3
44 -4 2 -84 -1 -177 -8 -178 -13 -191 -13 -193 7 -1 7 -5 27 -8 45 -4 19 -2
38 5 46 9 10 8 15 -4 20 -9 3 -19 14 -23 24 -7 17 -10 17 -72 1z m425 -208
c-4 -8 -55 -24 -70 -22 -14 2 -3 17 17 23 35 9 60 9 53 -1z m977 -550 c31 -28
71 -70 89 -92 31 -39 32 -42 17 -66 -11 -19 -38 -33 -99 -54 -46 -15 -85 -27
-86 -25 -2 2 -6 71 -9 155 -6 175 -11 171 88 82z m-214 -46 c9 -20 9 -27 -1
-30 -20 -7 -51 1 -55 15 -3 7 0 10 6 6 6 -3 13 3 17 14 9 27 19 25 33 -5z
m-740 -13 c4 -24 -7 -29 -26 -10 -18 18 -15 40 6 36 9 -2 18 -13 20 -26z m39
6 c-3 -8 -6 -5 -6 6 -1 11 2 17 5 13 3 -3 4 -12 1 -19z m-43 -69 c-3 -5 -10
-7 -15 -3 -5 3 -7 10 -3 15 3 5 10 7 15 3 5 -3 7 -10 3 -15z m746 1 c0 -5 -4
-10 -10 -10 -5 0 -10 5 -10 10 0 6 5 10 10 10 6 0 10 -4 10 -10z m-735 -79
c-3 -12 -11 -21 -16 -21 -6 0 -8 3 -6 8 2 4 7 16 11 26 9 25 20 13 11 -13z
m242 -3 c-3 -8 -6 -5 -6 6 -1 11 2 17 5 13 3 -3 4 -12 1 -19z m607 -569 c-6
-11 -24 -2 -24 11 0 5 7 7 15 4 8 -4 12 -10 9 -15z m-44 -19 c0 -5 -7 -10 -15
-10 -8 0 -15 5 -15 10 0 6 7 10 15 10 8 0 15 -4 15 -10z m-108 -135 c0 -5 -5
-11 -11 -13 -6 -2 -11 4 -11 13 0 9 5 15 11 13 6 -2 11 -8 11 -13z"/>
<path d="M444 3025 c-19 -14 -19 -14 3 -15 28 0 53 10 53 21 0 14 -34 11 -56
-6z"/>
<path d="M463 2981 c-26 -22 -31 -46 -7 -37 9 3 18 6 20 6 3 0 2 4 -1 10 -4 6
3 9 17 7 14 -1 23 4 26 16 5 23 -26 22 -55 -2z"/>
<path d="M260 2720 c0 -5 5 -10 11 -10 5 0 7 5 4 10 -3 6 -8 10 -11 10 -2 0
-4 -4 -4 -10z"/>
<path d="M58 2663 c-45 -37 -48 -43 -49 -83 -11 -376 -10 -460 5 -460 9 0 13
6 10 14 -3 8 -1 23 5 33 9 16 11 14 17 -14 3 -18 9 -33 12 -33 27 0 132 24
132 30 0 5 8 6 19 3 18 -5 51 20 51 38 0 5 -10 14 -23 20 -21 10 -55 74 -45
85 12 11 77 -23 110 -58 30 -29 46 -38 72 -38 34 0 34 1 26 29 -4 17 -11 61
-15 98 -8 88 -13 113 -24 113 -5 0 -12 -8 -14 -17 -3 -10 -6 0 -7 22 -1 22 -4
34 -7 27 -8 -20 -23 -3 -23 27 0 16 6 44 14 63 9 22 11 39 6 49 -11 16 -20 12
-115 -55 -30 -22 -58 -37 -61 -33 -4 3 4 22 16 41 26 42 21 65 -21 101 -38 32
-50 31 -91 -2z m232 -157 c0 -13 3 -38 6 -55 6 -27 4 -31 -14 -31 -46 0 -68
56 -35 92 23 25 43 23 43 -6z m-166 -52 c3 -26 6 -65 5 -88 l0 -41 -15 45 c-8
25 -13 55 -11 67 2 12 0 27 -4 34 -4 7 -5 17 -3 21 12 19 22 5 28 -38z m-107
-26 c-3 -7 -5 -2 -5 12 0 14 2 19 5 13 2 -7 2 -19 0 -25z m9 -166 c-12 -11
-16 6 -9 39 l8 34 3 -33 c2 -19 1 -36 -2 -40z m14 -53 c0 -5 -4 -9 -10 -9 -5
0 -10 7 -10 16 0 8 5 12 10 9 6 -3 10 -10 10 -16z"/>
<path d="M1040 2176 c0 -9 5 -16 10 -16 6 0 10 4 10 9 0 6 -4 13 -10 16 -5 3
-10 -1 -10 -9z"/>
<path d="M1118 2178 c-7 -19 2 -38 18 -38 8 0 14 10 14 25 0 26 -24 35 -32 13z"/>
<path d="M1828 2163 c6 -2 18 -2 25 0 6 3 1 5 -13 5 -14 0 -19 -2 -12 -5z"/>
<path d="M840 2150 c0 -5 5 -10 10 -10 6 0 10 5 10 10 0 6 -4 10 -10 10 -5 0
-10 -4 -10 -10z"/>
<path d="M1140 2110 c0 -5 7 -10 16 -10 8 0 12 5 9 10 -3 6 -10 10 -16 10 -5
0 -9 -4 -9 -10z"/>
<path d="M1008 2073 c7 -3 16 -2 19 1 4 3 -2 6 -13 5 -11 0 -14 -3 -6 -6z"/>
<path d="M1186 2071 c-4 -7 -5 -15 -2 -18 9 -9 19 4 14 18 -4 11 -6 11 -12 0z"/>
<path d="M380 2019 c-30 -20 -57 -36 -60 -34 -3 1 -14 -2 -25 -6 -18 -9 -18
-9 3 -5 12 2 22 0 22 -5 0 -6 9 -5 21 2 12 6 25 7 29 2 6 -7 26 -164 35 -283
2 -25 6 -59 10 -76 5 -22 2 -34 -9 -43 -22 -19 -31 -7 -28 36 2 19 -4 45 -12
58 -8 12 -15 40 -14 61 0 22 -4 50 -10 64 -5 14 -7 30 -5 37 7 19 -17 26 -35
11 -17 -15 -55 -27 -147 -48 -80 -18 -90 -17 -93 6 -2 16 -8 20 -23 17 -10 -3
-19 0 -19 6 0 6 -4 11 -10 11 -6 0 -10 -27 -10 -61 0 -46 5 -68 21 -91 12 -16
24 -49 26 -72 4 -35 1 -47 -21 -73 -18 -21 -26 -43 -26 -68 0 -34 2 -37 23
-30 12 4 30 7 40 8 9 1 17 5 17 9 0 4 11 8 24 8 29 0 205 45 266 68 25 9 50
16 56 14 6 -1 26 11 43 27 l32 30 -6 79 c-7 86 -7 85 -29 212 -9 47 -18 103
-22 125 -3 22 -6 40 -7 41 -1 0 -27 -16 -57 -37z m-170 -243 c0 -8 -8 -17 -17
-19 -12 -3 -8 -5 9 -6 15 0 30 4 33 9 14 22 36 10 33 -17 -3 -23 -11 -29 -73
-49 -105 -34 -111 -32 -113 37 -1 22 5 28 46 41 61 21 82 21 82 4z m-12 -138
c30 -30 -10 -99 -57 -98 -49 1 -69 66 -29 94 27 19 69 21 86 4z"/>
<path d="M1068 2048 c9 -9 15 -9 24 0 9 9 7 12 -12 12 -19 0 -21 -3 -12 -12z"/>
<path d="M938 1973 c7 -3 16 -2 19 1 4 3 -2 6 -13 5 -11 0 -14 -3 -6 -6z"/>
<path d="M250 1961 c0 -5 14 -14 32 -20 30 -11 31 -12 12 -25 -10 -8 -23 -11
-28 -6 -5 5 -15 6 -22 3 -25 -9 -15 -19 22 -20 20 -1 40 -7 45 -14 4 -7 11
-10 15 -6 4 3 2 13 -5 20 -6 8 -9 22 -5 30 4 12 -2 18 -20 23 -14 3 -26 10
-26 15 0 5 -4 9 -10 9 -5 0 -10 -4 -10 -9z"/>
<path d="M165 1939 c-43 -14 -50 -18 -25 -15 19 2 51 11 70 19 48 21 27 19
-45 -4z"/>
<path d="M28 1903 c7 -3 16 -2 19 1 4 3 -2 6 -13 5 -11 0 -14 -3 -6 -6z"/>
<path d="M1318 1762 c-11 -4 -14 -12 -10 -19 6 -9 12 -7 25 7 17 21 14 23 -15
12z"/>
<path d="M1382 1730 c0 -19 2 -27 5 -17 2 9 2 25 0 35 -3 9 -5 1 -5 -18z"/>
<path d="M3143 1734 c8 -8 367 -7 375 1 3 3 -82 5 -188 5 -106 0 -190 -3 -187
-6z"/>
<path d="M3578 1723 c7 -3 16 -2 19 1 4 3 -2 6 -13 5 -11 0 -14 -3 -6 -6z"/>
<path d="M3623 1723 c9 -2 25 -2 35 0 9 3 1 5 -18 5 -19 0 -27 -2 -17 -5z"/>
<path d="M3713 1723 c20 -2 54 -2 75 0 20 2 3 4 -38 4 -41 0 -58 -2 -37 -4z"/>
<path d="M3853 1723 c9 -2 25 -2 35 0 9 3 1 5 -18 5 -19 0 -27 -2 -17 -5z"/>
<path d="M4138 1713 c7 -3 16 -2 19 1 4 3 -2 6 -13 5 -11 0 -14 -3 -6 -6z"/>
<path d="M4388 1703 c6 -2 18 -2 25 0 6 3 1 5 -13 5 -14 0 -19 -2 -12 -5z"/>
<path d="M2931 1374 c0 -11 3 -14 6 -6 3 7 2 16 -1 19 -3 4 -6 -2 -5 -13z"/>
<path d="M945 1350 c3 -5 8 -10 11 -10 2 0 4 5 4 10 0 6 -5 10 -11 10 -5 0 -7
-4 -4 -10z"/>
<path d="M2857 1163 c-38 -121 -48 -171 -22 -118 29 62 45 108 45 130 0 12 7
28 15 35 16 14 19 38 7 58 -5 8 -22 -32 -45 -105z"/>
<path d="M8615 560 c3 -5 11 -10 16 -10 6 0 7 5 4 10 -3 6 -11 10 -16 10 -6 0
-7 -4 -4 -10z"/>
<path d="M2711 494 c0 -11 3 -14 6 -6 3 7 2 16 -1 19 -3 4 -6 -2 -5 -13z"/>
<path d="M8310 474 c-13 -33 -13 -54 0 -54 6 0 10 5 10 10 0 6 7 10 15 10 20
0 19 19 -1 27 -8 3 -13 12 -10 19 3 8 3 14 0 14 -2 0 -9 -12 -14 -26z"/>
<path d="M2702 430 c0 -14 2 -19 5 -12 2 6 2 18 0 25 -3 6 -5 1 -5 -13z"/>
<path d="M2688 378 c0 -13 -2 -34 -4 -48 -1 -14 -5 -83 -8 -155 -4 -72 -9
-140 -12 -152 -4 -21 -1 -23 36 -23 38 0 52 12 30 25 -6 4 -11 30 -10 58 0 29
-4 86 -9 127 -5 41 -7 101 -4 133 4 39 2 57 -6 57 -6 0 -12 -10 -13 -22z"/>
<path d="M8284 374 c-10 -39 13 -54 26 -18 6 16 17 32 23 36 7 5 1 8 -15 8
-21 0 -29 -6 -34 -26z"/>
<path d="M8307 293 c-12 -11 -8 -44 7 -58 19 -20 26 -9 15 27 -10 36 -13 40
-22 31z"/>
<path d="M2555 240 c4 -6 11 -8 16 -5 14 9 11 15 -7 15 -8 0 -12 -5 -9 -10z"/>
<path d="M2544 205 c-4 -11 -16 -26 -26 -33 -10 -7 -18 -24 -18 -36 0 -13 -7
-29 -15 -36 -19 -15 -20 -50 -2 -50 8 0 19 -11 25 -25 6 -14 20 -25 30 -25 20
0 33 45 48 159 5 46 4 53 -9 48 -9 -3 -18 -1 -20 6 -3 7 -8 4 -13 -8z"/>
<path d="M8230 121 c-6 -22 -11 -57 -13 -78 -2 -36 0 -38 31 -41 32 -3 32 -3
32 40 0 24 3 60 6 81 6 35 5 37 -19 37 -22 0 -28 -6 -37 -39z"/>
<path d="M8601 134 c0 -11 3 -14 6 -6 3 7 2 16 -1 19 -3 4 -6 -2 -5 -13z"/>
<path d="M2376 98 c-26 -10 -28 -13 -22 -51 4 -23 8 -43 10 -45 2 -2 25 -2 51
0 l47 3 -22 27 c-12 15 -19 32 -16 36 3 5 0 16 -7 24 -9 12 -18 14 -41 6z"/>
<path d="M1940 44 l-65 -44 73 0 72 0 0 45 c0 25 -3 45 -7 44 -5 -1 -37 -21
-73 -45z"/>
<path d="M8600 65 c0 -8 5 -15 10 -15 6 0 10 7 10 15 0 8 -4 15 -10 15 -5 0
-10 -7 -10 -15z"/>
</g>
</svg>
