<?xml version="1.0" standalone="no"?>
<!DOCTYPE svg PUBLIC "-//W3C//DTD SVG 20010904//EN"
 "http://www.w3.org/TR/2001/REC-SVG-20010904/DTD/svg10.dtd">
<svg version="1.0" xmlns="http://www.w3.org/2000/svg"
 width="1280.000000pt" height="720.000000pt" viewBox="0 0 1280.000000 720.000000"
 preserveAspectRatio="xMidYMid meet">

<g transform="translate(0.000000,720.000000) scale(0.100000,-0.100000)"
fill="#000000" stroke="none">
<path d="M5726 6168 c-6 -21 -7 -22 -20 -5 -13 17 -46 24 -46 9 0 -14 -65 -32
-116 -32 -56 0 -68 -7 -163 -88 -30 -25 -58 -39 -88 -44 -25 -4 -55 -16 -67
-27 -12 -12 -28 -21 -34 -21 -26 0 -143 -60 -171 -87 -27 -26 -61 -106 -61
-143 0 -9 -15 -34 -33 -56 -18 -21 -38 -50 -44 -64 -19 -45 -63 -89 -137 -136
-257 -166 -418 -347 -541 -607 -155 -329 -250 -653 -280 -959 l-7 -67 -57 32
c-32 18 -68 39 -81 48 l-23 15 12 179 c12 173 41 378 77 534 16 69 21 79 85
146 52 55 77 90 100 146 42 100 79 209 79 231 0 31 -41 108 -66 125 -22 14
-28 14 -66 -5 -78 -37 -112 -90 -186 -292 -97 -264 -172 -655 -172 -899 0
-112 4 -107 -113 -107 -85 0 -114 -4 -172 -25 -84 -30 -191 -91 -282 -161 -59
-45 -79 -54 -153 -70 -170 -36 -322 -96 -401 -159 -22 -17 -49 -29 -66 -29
-30 0 -63 -26 -63 -50 0 -7 -18 -32 -40 -56 -44 -48 -51 -69 -20 -61 26 7 25
4 -6 -70 -15 -35 -33 -63 -41 -63 -22 0 -66 -49 -59 -66 3 -9 -2 -28 -12 -42
-28 -40 -54 -119 -56 -166 -1 -23 -5 -46 -8 -51 -9 -15 -13 -209 -4 -223 4 -7
16 -12 27 -12 23 0 23 -14 0 -199 -18 -143 -18 -136 7 -139 19 -3 22 1 22 30
0 18 4 39 9 46 4 7 11 -71 15 -178 l7 -192 -27 -21 -27 -21 7 -195 c4 -108 11
-288 15 -401 l9 -205 -27 -29 c-14 -16 -53 -41 -87 -56 -33 -15 -77 -42 -96
-59 -23 -20 -46 -31 -65 -31 -46 0 -75 -44 -102 -157 -7 -29 -19 -57 -27 -64
-46 -38 -59 -73 -64 -169 l-5 -95 -95 -6 c-52 -4 -111 -12 -130 -18 -38 -12
-32 -16 -87 56 -30 39 -141 150 -180 180 -38 29 -40 39 -13 73 19 24 29 118
14 133 -4 3 -27 -12 -53 -34 -25 -23 -62 -49 -81 -59 -42 -21 -153 -59 -194
-67 -16 -2 -39 -9 -52 -13 -68 -26 -351 -35 -454 -14 -70 15 -120 51 -120 88
0 55 98 125 240 171 30 9 59 21 63 25 18 16 -30 34 -101 40 -72 5 -76 6 -83
32 -4 15 -5 29 -2 32 3 3 28 -6 55 -20 39 -20 53 -23 64 -13 30 25 14 42 -78
85 -44 21 -47 25 -50 66 -2 32 -7 42 -18 39 -8 -2 -93 -11 -187 -19 -199 -19
-208 -25 -121 -82 102 -67 129 -141 127 -345 -1 -92 -3 -103 -10 -65 -13 68
-21 130 -23 180 -1 41 -3 45 -28 48 -16 2 -28 -1 -28 -6 0 -5 -20 -23 -45 -41
l-45 -32 0 -145 0 -144 25 -10 c14 -5 30 -21 35 -34 12 -32 38 -46 92 -49 30
-2 43 -8 43 -18 0 -7 7 -35 15 -60 9 -27 14 -65 11 -95 -4 -47 -5 -48 -11 -16
-10 43 -16 48 -37 30 -23 -20 -110 -63 -145 -72 -27 -6 -28 -9 -28 -66 0 -49
3 -60 17 -60 15 0 15 -1 0 -18 -13 -15 -17 -39 -17 -116 l0 -97 155 2 c85 1
152 5 150 9 -3 5 9 13 25 19 18 6 28 6 25 1 -4 -6 1 -10 9 -10 9 0 16 -4 16
-10 0 -6 136 -10 389 -10 l389 0 7 138 c9 183 11 207 18 219 4 6 33 20 66 33
59 22 60 22 140 5 71 -16 90 -16 158 -5 43 7 102 21 132 31 43 15 57 16 75 7
18 -11 19 -13 4 -16 -10 -2 -18 -8 -18 -14 0 -6 10 -8 22 -5 14 4 35 -4 62
-23 50 -35 119 -52 206 -50 148 5 168 2 194 -26 l24 -27 24 39 c14 22 42 80
63 129 115 270 253 520 338 610 15 17 35 42 43 57 14 27 101 91 173 128 114
57 296 89 350 61 31 -17 48 -14 197 34 142 46 174 53 174 35 0 -26 -53 -137
-93 -193 -70 -99 -100 -156 -132 -252 l-31 -90 -64 -18 -65 -17 64 6 c59 5 63
4 57 -13 -4 -10 -28 -97 -52 -193 -25 -96 -52 -197 -61 -225 -23 -76 -81 -193
-128 -260 -23 -33 -48 -70 -54 -82 -11 -22 -10 -23 23 -23 32 0 37 5 93 93 90
140 111 193 173 432 59 226 71 270 81 281 10 12 98 29 224 42 80 9 122 2 109
-19 -3 -6 3 -5 14 2 12 7 18 17 16 21 -3 4 -1 8 5 8 5 0 11 -6 14 -12 3 -10 9
-10 25 -1 18 11 20 10 16 -2 -4 -8 -13 -15 -21 -15 -8 0 -11 -5 -8 -10 3 -6
14 -10 25 -10 13 0 17 -5 13 -19 -7 -28 10 -33 59 -17 75 24 136 36 152 30 9
-3 16 -2 16 2 0 9 35 14 98 14 26 0 32 4 30 17 -2 14 4 18 27 18 26 0 29 -4
30 -30 0 -26 -3 -30 -25 -27 -14 1 -20 -1 -14 -5 12 -9 25 -39 21 -50 -1 -4
-10 -8 -19 -8 -20 -2 -38 -15 -20 -15 7 0 12 -7 12 -15 0 -8 -6 -12 -14 -9
-15 6 -40 -29 -29 -40 3 -3 17 -6 29 -6 17 0 22 -4 18 -15 -4 -8 1 -17 10 -21
24 -9 20 -18 -16 -33 -23 -9 -28 -14 -18 -18 8 -3 24 -13 34 -22 18 -15 19
-15 14 7 -4 12 -3 22 0 22 9 0 29 46 38 85 3 17 12 39 18 50 7 11 18 40 25 65
7 25 23 70 36 100 13 30 49 118 81 195 77 188 155 346 190 386 24 26 34 75 20
94 -11 16 -15 16 -50 1 -24 -10 -35 -20 -30 -27 5 -8 3 -9 -5 -5 -7 5 -20 1
-29 -7 -9 -9 -29 -19 -45 -22 -15 -4 -30 -11 -33 -16 -3 -5 -12 -9 -20 -9 -15
0 -94 -48 -106 -65 -4 -5 -16 -10 -28 -10 -20 0 -74 -40 -131 -97 -15 -16 -34
-28 -43 -28 -10 0 -27 -10 -39 -23 -18 -19 -77 -51 -97 -52 -3 0 -21 -15 -40
-33 -19 -17 -41 -32 -49 -32 -8 0 -12 -3 -9 -6 9 -8 -53 -65 -63 -58 -5 3 -12
-3 -16 -13 -7 -19 -40 -47 -58 -49 -5 -1 -14 -2 -18 -3 -13 -2 20 -31 35 -31
7 0 1 -11 -13 -26 -18 -18 -47 -30 -95 -40 -38 -8 -70 -19 -72 -24 -2 -6 -16
-10 -30 -10 -15 0 -53 -6 -84 -14 -55 -13 -58 -12 -58 6 0 47 47 149 121 261
55 84 86 144 101 192 11 39 25 75 30 82 12 15 119 33 195 33 47 0 77 7 130 31
142 65 241 100 338 119 55 11 155 32 223 46 68 15 126 23 130 20 4 -4 -1 -21
-11 -38 -9 -16 -15 -34 -12 -38 3 -5 1 -40 -5 -79 -17 -120 -13 -238 11 -346
5 -22 9 -54 9 -72 0 -17 8 -39 17 -48 13 -14 14 -21 5 -36 -14 -22 -16 -56 -3
-63 13 -8 44 -154 36 -173 -3 -9 0 -20 6 -24 6 -3 13 -25 15 -48 2 -22 10 -55
19 -71 9 -17 13 -35 10 -40 -3 -5 3 -24 13 -43 9 -18 17 -52 17 -75 0 -34 3
-42 17 -42 15 0 18 -9 18 -52 0 -29 6 -76 14 -105 10 -36 11 -54 3 -62 -7 -7
-7 -14 0 -23 19 -24 25 -70 11 -79 -7 -5 5 -6 27 -2 37 6 39 5 25 -11 -13 -16
-12 -20 5 -33 17 -13 17 -15 2 -10 -20 7 -47 -1 -47 -14 0 -5 676 -9 1620 -9
891 0 1620 4 1620 8 0 4 -5 13 -11 19 -7 7 -5 19 9 41 16 27 20 29 33 17 8 -7
43 -17 79 -20 36 -3 83 -12 105 -20 76 -26 180 -45 240 -44 55 1 57 1 30 11
-16 6 -41 19 -55 28 -14 10 -59 28 -100 40 -41 12 -84 25 -95 30 -11 4 -28 11
-37 14 -11 3 -15 11 -12 21 5 11 2 14 -10 9 -10 -4 -16 -1 -16 9 0 8 -9 17
-20 20 -33 8 -25 43 13 55 25 8 27 10 10 11 -25 1 -30 15 -11 27 6 4 26 7 44
6 33 -1 56 25 33 39 -6 4 -8 12 -5 18 13 20 24 12 32 -22 l7 -32 13 50 c7 28
13 53 14 58 0 4 6 7 14 7 19 0 26 21 14 43 -5 9 -6 22 -3 27 9 15 -4 50 -19
50 -8 0 -16 14 -20 30 -7 36 -45 90 -63 90 -7 0 -13 5 -13 11 0 6 -7 9 -15 6
-8 -4 -17 -2 -20 3 -4 6 -1 10 4 10 19 0 12 28 -9 35 -11 3 -19 12 -17 18 1 7
-7 12 -18 12 -11 0 -23 8 -27 17 -4 9 -21 24 -39 33 -17 9 -67 40 -112 68 -44
29 -84 51 -89 49 -5 -1 -11 5 -14 13 -4 8 -21 22 -40 31 -18 9 -39 29 -46 45
-7 16 -16 29 -19 29 -4 0 -21 23 -39 50 -18 28 -45 57 -60 65 -15 8 -30 25
-34 37 -3 13 -22 34 -43 47 -37 24 -112 99 -113 113 0 3 10 4 23 1 20 -4 20
-3 -6 20 -16 13 -63 43 -105 67 -110 62 -142 87 -142 114 0 13 -9 49 -20 81
-25 74 -25 138 1 195 27 60 83 286 110 445 28 166 23 155 59 155 75 0 130 61
130 143 0 90 41 143 89 118 28 -16 84 -13 130 5 42 16 86 65 120 131 11 23 27
46 34 50 8 4 22 21 32 36 21 32 28 28 45 -28 15 -48 46 -85 72 -85 70 0 291
160 334 242 35 67 26 389 -17 601 -33 164 -41 181 -129 246 -101 76 -190 123
-259 137 -38 8 -39 11 -76 149 -56 211 -162 450 -272 612 -34 51 -67 98 -72
105 -70 86 -124 143 -149 158 -34 21 -62 66 -62 102 0 41 -12 69 -26 64 -8 -3
-14 1 -14 9 0 8 -5 15 -11 15 -6 0 -8 -9 -4 -21 11 -35 -16 -18 -57 36 -30 40
-36 54 -31 79 6 28 5 30 -10 18 -22 -19 -33 -9 -42 35 -13 74 -29 113 -47 113
-16 0 -138 125 -138 141 0 5 -6 6 -13 3 -12 -4 -50 30 -132 119 -11 11 -48 47
-82 80 -33 32 -67 72 -73 88 -7 16 -16 26 -21 23 -15 -9 -99 38 -137 78 -39
40 -55 48 -46 23 4 -8 2 -15 -2 -15 -14 0 -83 26 -90 33 -4 4 -16 7 -26 7 -19
0 -51 15 -80 39 -11 8 -29 11 -47 8 -16 -4 -56 -1 -88 5 -32 6 -86 10 -121 9
-48 -2 -72 3 -97 18 -20 11 -37 16 -40 10 -10 -14 -37 -11 -58 9 -13 12 -37
17 -76 18 -31 0 -70 4 -87 8 -27 7 -32 5 -38 -16z m869 -168 c3 -5 2 -10 -4
-10 -5 0 -13 5 -16 10 -3 6 -2 10 4 10 5 0 13 -4 16 -10z m-510 -441 c25 1 75
-19 75 -30 0 -4 18 -13 40 -19 21 -6 47 -18 56 -28 10 -9 27 -22 38 -27 20
-11 22 -24 13 -80 -2 -12 -6 -26 -10 -32 -4 -6 -5 -17 -2 -25 4 -9 -7 -20 -29
-31 -28 -13 -34 -13 -30 -2 4 10 0 12 -15 8 -16 -4 -21 -1 -21 16 0 11 -5 21
-10 21 -6 0 -8 -11 -4 -25 4 -15 2 -25 -5 -25 -6 0 -11 -7 -11 -15 0 -8 5 -15
10 -15 6 0 10 7 10 15 0 8 5 15 11 15 6 0 8 -9 3 -22 -4 -13 -8 -31 -8 -40 0
-23 -16 -24 -16 -2 0 12 -5 15 -22 9 -13 -4 -36 -8 -53 -9 -16 -1 -39 -7 -50
-14 -20 -11 -20 -12 3 -18 30 -8 28 -20 -5 -29 -19 -4 -29 -2 -35 9 -8 14 -12
13 -31 -4 -17 -16 -19 -23 -9 -29 30 -18 5 -41 -47 -41 -25 0 -32 3 -27 15 3
9 0 15 -9 15 -8 0 -15 5 -15 10 0 6 -9 10 -20 10 -11 0 -20 5 -20 10 0 6 -6
10 -13 10 -7 0 -24 12 -36 26 -22 25 -23 25 -42 8 -25 -22 -41 -8 -43 38 -1
22 -7 34 -19 36 -11 2 -14 8 -10 15 10 15 11 117 1 111 -13 -8 -20 18 -7 27
12 8 12 11 -1 19 -14 9 -10 13 7 8 4 -2 10 10 13 27 3 18 13 31 25 35 11 3 32
13 46 23 39 26 102 35 209 30 52 -3 104 -5 115 -4z m-1145 -135 c0 -9 -9 -18
-21 -21 -16 -4 -18 -8 -7 -14 11 -7 10 -11 -2 -19 -8 -5 -10 -10 -5 -10 6 0 2
-5 -7 -11 -10 -5 -18 -17 -18 -24 0 -8 -4 -15 -10 -15 -5 0 -10 -9 -10 -20 0
-13 -7 -20 -20 -20 -15 0 -22 -9 -27 -30 -3 -17 -9 -33 -13 -35 -5 -3 -6 5 -3
17 3 13 4 21 1 18 -16 -16 -78 -112 -78 -121 0 -5 -8 -8 -18 -5 -13 4 -21 -2
-29 -24 -6 -17 -18 -30 -27 -30 -13 0 -14 5 -5 28 47 127 150 262 249 328 42
28 50 29 50 8z m2000 -13 c14 -10 34 -21 45 -25 16 -6 17 -9 5 -16 -11 -7 -6
-10 18 -10 23 0 32 -5 32 -16 0 -9 11 -25 26 -36 30 -24 26 -32 -9 -19 -14 5
-28 19 -32 31 -5 14 -12 19 -24 15 -10 -3 -24 1 -31 10 -7 8 -21 13 -30 10
-13 -4 -21 2 -28 25 -8 20 -18 30 -31 30 -12 0 -21 7 -21 15 0 19 43 11 80
-14z m-1062 -309 c6 -18 -15 -14 -22 4 -4 10 -1 14 6 12 6 -2 14 -10 16 -16z
m1825 -759 c34 -67 80 -193 74 -199 -3 -3 -27 -6 -53 -7 l-47 -2 -15 75 c-10
56 -11 83 -3 106 6 17 11 40 11 52 0 33 7 27 33 -25z m-3392 -358 c12 -271 12
-276 5 -282 -2 -3 -34 -2 -71 2 l-67 8 7 81 c15 183 63 479 83 510 16 27 33
-98 43 -319z m-701 -121 c3 -22 4 -58 2 -80 l-4 -39 -86 7 c-48 3 -159 7 -247
7 l-160 2 28 22 c44 37 159 95 218 111 33 9 90 14 149 13 l95 -2 5 -41z m4134
20 c8 -20 8 -68 0 -88 -12 -30 -24 -5 -24 50 0 52 11 71 24 38z m-3906 -94
c34 -22 62 -43 62 -47 0 -5 -30 -6 -67 -3 l-68 5 -3 43 c-2 23 1 42 6 42 5 0
37 -18 70 -40z m2134 -187 c-10 -4 -10 -8 0 -20 16 -20 21 -74 19 -222 -1 -89
2 -127 11 -132 9 -6 8 -13 -6 -28 -13 -14 -16 -25 -9 -33 5 -7 9 -45 8 -85 -1
-54 2 -74 13 -78 9 -3 13 -14 9 -30 -3 -17 1 -30 13 -38 24 -17 31 -63 11 -80
-36 -32 -71 -34 -144 -10 -72 25 -113 59 -96 80 6 6 9 17 7 25 -4 17 22 78 33
78 5 0 9 12 8 28 -2 57 26 253 50 347 6 22 11 67 11 101 0 60 11 87 40 97 19
7 39 7 22 0z m-3552 -88 c-7 -8 -16 -15 -21 -15 -5 0 -9 7 -9 15 0 9 9 15 21
15 18 0 19 -2 9 -15z m1207 -77 c-3 -7 -5 -2 -5 12 0 14 2 19 5 13 2 -7 2 -19
0 -25z m397 -77 c-4 -9 -8 -24 -9 -33 -3 -29 -14 -32 -19 -7 -7 31 -3 53 13
73 7 8 10 20 6 26 -3 5 -3 16 2 23 10 16 17 -59 7 -82z m-1764 -145 c0 -18
-17 -29 -30 -21 -8 5 -7 11 1 21 15 18 29 18 29 0z m1161 -43 c-11 -21 -20
-35 -21 -31 0 12 33 78 38 74 2 -2 -6 -21 -17 -43z m4736 -280 c-3 -10 -5 -4
-5 12 0 17 2 24 5 18 2 -7 2 -21 0 -30z m-2297 -1167 l32 -13 -27 -7 c-34 -9
-65 1 -65 20 0 18 19 18 60 0z m210 -16 c0 -5 -11 -10 -25 -10 -14 0 -25 5
-25 10 0 6 11 10 25 10 14 0 25 -4 25 -10z m-5930 -767 c0 -10 -9 -29 -20 -43
l-20 -25 0 33 c0 20 4 31 10 27 6 -3 10 1 10 9 0 9 5 16 10 16 6 0 10 -8 10
-17z m-60 -58 c0 -46 -3 -55 -17 -55 -45 1 -64 59 -30 91 36 33 47 24 47 -36z
m8107 -141 c-3 -3 -12 -4 -19 -1 -8 3 -5 6 6 6 11 1 17 -2 13 -5z m-6297 -38
c14 -7 34 -17 45 -23 11 -7 28 -14 38 -17 10 -3 15 -10 12 -16 -3 -5 3 -10 13
-10 12 0 22 -9 25 -21 5 -19 11 -21 49 -16 24 4 55 9 70 13 24 5 29 2 39 -22
6 -16 11 -59 12 -97 1 -95 -6 -100 -113 -86 -140 17 -209 44 -293 113 -53 44
-58 66 -28 132 32 70 64 82 131 50z m-613 -58 c68 -71 103 -122 103 -151 0
-22 -42 -54 -82 -61 -20 -4 -50 -13 -65 -21 -47 -25 -53 -20 -53 38 0 95 13
267 20 267 4 0 38 -33 77 -72z m6963 32 c0 -5 -7 -10 -15 -10 -8 0 -15 5 -15
10 0 6 7 10 15 10 8 0 15 -4 15 -10z m-7952 -90 c3 -21 2 -22 -12 -11 -19 16
-21 44 -3 39 6 -3 14 -15 15 -28z m-178 -285 c0 -28 -4 -35 -19 -35 -21 0 -26
34 -8 58 17 22 27 13 27 -23z m-3 -96 c1 -19 4 -59 7 -89 4 -60 -2 -100 -14
-100 -5 0 -6 15 -3 33 3 18 0 51 -6 72 -8 29 -7 42 1 53 10 11 9 17 -5 27 -11
8 -15 19 -11 29 10 27 28 12 31 -25z m259 -64 c3 -19 4 -41 1 -48 -3 -7 -32
-25 -66 -39 l-61 -27 -6 25 c-10 39 4 94 25 94 9 0 26 7 37 15 10 8 29 15 41
15 17 0 23 -7 29 -35z m7844 -55 c8 -5 11 -10 5 -10 -5 0 -17 5 -25 10 -8 5
-10 10 -5 10 6 0 17 -5 25 -10z"/>
<path d="M6220 5390 c0 -5 5 -10 10 -10 6 0 10 -6 9 -12 -4 -32 1 -52 11 -42
7 7 7 21 -1 42 -10 30 -29 44 -29 22z"/>
<path d="M5835 5200 c-3 -5 -2 -10 4 -10 5 0 13 5 16 10 3 6 2 10 -4 10 -5 0
-13 -4 -16 -10z"/>
<path d="M7287 5380 c3 -11 9 -20 15 -20 5 0 4 9 -2 20 -6 11 -12 20 -14 20
-2 0 -2 -9 1 -20z"/>
<path d="M0 1940 c0 -127 4 -220 9 -220 5 0 11 4 13 9 2 5 17 12 33 15 25 5
26 5 10 -4 -16 -8 -13 -9 15 -4 19 4 40 10 45 14 6 4 25 8 44 8 44 1 47 6 24
39 -11 15 -26 57 -32 93 -21 109 -71 204 -131 249 l-30 22 0 -221z"/>
<path d="M317 1719 c-19 -11 -40 -16 -104 -26 -38 -5 -43 -3 -44 13 0 16 -2
15 -10 -5 -8 -20 -14 -22 -40 -17 -20 4 -39 0 -55 -10 -13 -9 -33 -14 -44 -11
-19 5 -20 0 -20 -85 l0 -91 93 7 c104 8 203 28 247 51 28 14 30 20 30 69 0 69
-10 116 -24 116 -6 0 -19 -5 -29 -11z"/>
<path d="M308 1483 c-38 -15 -52 -43 -23 -43 8 0 15 -4 15 -10 0 -5 -7 -10
-15 -10 -10 0 -15 -10 -15 -26 0 -24 3 -26 32 -20 17 3 40 14 50 23 19 17 24
48 9 57 -5 3 -7 15 -4 26 6 24 0 24 -49 3z"/>
<path d="M2 1350 c0 -19 2 -27 5 -17 2 9 2 25 0 35 -3 9 -5 1 -5 -18z"/>
<path d="M3950 1345 c-47 -10 -51 -13 -30 -19 40 -11 105 -3 105 13 0 20 -11
21 -75 6z"/>
<path d="M3903 1232 c-24 -15 -43 -31 -43 -37 0 -6 -9 -16 -19 -22 -17 -11
-18 -16 -8 -38 15 -31 23 -32 31 -2 3 13 17 29 31 37 14 7 25 20 26 29 0 14 1
14 7 0 9 -23 26 -3 29 34 2 33 -1 33 -54 -1z"/>
<path d="M50 1175 c0 -21 27 -55 43 -55 19 0 18 3 -8 30 -28 30 -35 34 -35 25z"/>
<path d="M731 1043 c-26 -13 -36 -14 -39 -5 -5 16 -21 15 -53 -1 -14 -8 -45
-17 -68 -21 -24 -4 -53 -12 -65 -18 -11 -7 -30 -13 -41 -15 -10 -2 -22 -7 -25
-11 -3 -4 -12 -8 -20 -10 -21 -5 -57 -40 -63 -62 -3 -11 1 -24 8 -30 13 -11
28 -3 70 38 8 6 17 12 21 12 4 0 28 13 54 29 27 16 50 27 53 25 3 -3 20 1 38
9 19 8 37 14 42 15 52 8 79 17 87 31 6 10 12 12 17 6 9 -12 63 -14 63 -3 0 6
-33 28 -42 28 -2 0 -18 -8 -37 -17z"/>
<path d="M856 1045 c10 -8 26 -14 34 -15 13 0 13 2 1 9 -11 7 -9 10 10 14 14
2 6 5 -20 6 -41 1 -43 0 -25 -14z"/>
<path d="M688 837 c-16 -6 -28 -15 -28 -20 0 -5 8 -6 17 -3 9 4 38 10 63 13
39 6 42 8 20 14 -33 9 -40 9 -72 -4z"/>
<path d="M3100 780 c-58 -9 -152 -22 -210 -29 -58 -7 -134 -20 -170 -28 -36
-9 -72 -16 -80 -16 -8 0 -17 -3 -20 -6 -3 -4 -18 -17 -34 -29 -39 -30 -15 -28
70 7 38 16 90 32 115 35 24 4 80 13 124 21 44 7 133 21 198 31 64 9 117 20
117 25 0 5 -1 8 -2 8 -2 -1 -50 -9 -108 -19z"/>
<path d="M3825 790 c3 -5 8 -10 11 -10 2 0 4 5 4 10 0 6 -5 10 -11 10 -5 0 -7
-4 -4 -10z"/>
<path d="M3960 736 c0 -8 6 -17 13 -19 7 -3 5 -6 -5 -6 -22 -1 -24 -31 -3 -31
8 0 15 6 15 14 0 8 6 17 13 19 10 4 10 6 0 6 -7 1 -13 8 -13 16 0 8 -4 15 -10
15 -5 0 -10 -6 -10 -14z"/>
<path d="M3851 704 c-11 -13 -10 -17 5 -29 11 -8 25 -15 32 -15 6 0 12 -5 12
-11 0 -6 9 -8 20 -4 16 5 20 2 20 -15 0 -13 5 -20 13 -18 18 7 21 38 4 38 -8
0 -17 7 -21 15 -4 11 -13 14 -30 9 -28 -7 -43 11 -26 31 17 21 -10 20 -29 -1z"/>
<path d="M3820 660 c0 -5 5 -10 10 -10 16 0 12 -42 -6 -61 -15 -17 -15 -19 0
-34 9 -9 21 -13 27 -9 8 5 8 9 -1 14 -7 4 -10 16 -8 26 3 15 8 10 21 -18 18
-43 26 -46 50 -18 26 31 13 71 -22 68 -20 -2 -26 1 -25 15 1 9 -4 17 -12 17
-8 0 -14 5 -14 10 0 6 -4 10 -10 10 -5 0 -10 -4 -10 -10z"/>
<path d="M0 565 c0 -32 2 -36 15 -25 8 7 15 18 15 25 0 7 -7 18 -15 25 -13 11
-15 7 -15 -25z"/>
<path d="M2458 463 c-9 -10 -21 -29 -28 -43 -11 -21 -11 -23 1 -13 15 12 53
73 46 73 -2 0 -11 -8 -19 -17z"/>
<path d="M2366 188 c-3 -13 -7 -48 -10 -78 -3 -30 -9 -67 -12 -83 -5 -22 -3
-27 13 -27 19 0 43 35 43 63 0 7 7 20 15 31 14 18 16 17 50 -17 19 -19 35 -40
35 -46 0 -6 7 -8 15 -5 8 4 17 -1 21 -10 5 -12 20 -16 66 -16 l61 0 -39 35
c-21 19 -46 35 -55 35 -9 0 -19 7 -23 15 -3 8 -10 15 -16 15 -6 0 -25 13 -43
29 -100 92 -113 98 -121 59z"/>
</g>
</svg>
