<?xml version="1.0" standalone="no"?>
<!DOCTYPE svg PUBLIC "-//W3C//DTD SVG 20010904//EN"
 "http://www.w3.org/TR/2001/REC-SVG-20010904/DTD/svg10.dtd">
<svg version="1.0" xmlns="http://www.w3.org/2000/svg"
 width="1280.000000pt" height="720.000000pt" viewBox="0 0 1280.000000 720.000000"
 preserveAspectRatio="xMidYMid meet">

<g transform="translate(0.000000,720.000000) scale(0.100000,-0.100000)"
fill="#000000" stroke="none">
<path d="M6050 6215 c0 -12 -4 -14 -19 -5 -22 11 -37 -2 -26 -21 4 -6 -3 -5
-15 3 -18 10 -24 10 -27 1 -3 -9 -28 -13 -73 -13 -61 0 -73 -3 -102 -28 -73
-61 -115 -88 -162 -100 -26 -7 -62 -23 -78 -37 -16 -14 -39 -25 -51 -25 -21 0
-88 -21 -97 -30 -3 -3 -17 -13 -32 -23 -15 -9 -31 -31 -37 -49 -23 -78 -44
-124 -70 -157 -15 -20 -37 -55 -48 -77 -12 -23 -44 -63 -72 -89 -28 -26 -51
-54 -51 -61 0 -7 -10 -18 -21 -25 -27 -14 -91 -63 -166 -126 -216 -181 -333
-329 -431 -548 -180 -398 -241 -618 -277 -985 -10 -105 -9 -103 -71 -97 -29 3
-58 8 -64 12 -15 9 -12 307 5 467 15 147 53 348 87 464 18 64 27 78 88 138 61
60 72 77 118 185 68 162 70 171 37 235 -33 65 -59 84 -84 62 -10 -9 -24 -16
-32 -16 -46 0 -128 -147 -208 -370 -99 -279 -159 -621 -162 -937 l-1 -112
-101 53 c-228 121 -369 127 -575 24 -45 -23 -122 -71 -170 -108 -71 -54 -98
-69 -138 -74 -141 -20 -366 -107 -440 -170 -17 -13 -46 -26 -65 -28 -26 -2
-37 -10 -50 -34 -8 -17 -29 -49 -47 -72 -37 -46 -41 -67 -12 -59 11 3 20 3 20
1 0 -3 -13 -34 -29 -69 -23 -49 -35 -65 -50 -65 -24 0 -54 -41 -49 -68 2 -11
-4 -28 -13 -38 -29 -34 -59 -135 -64 -219 -2 -27 -7 -89 -10 -137 l-6 -87 28
-3 c25 -3 28 -7 31 -47 2 -25 -1 -54 -7 -65 -5 -12 -12 -52 -16 -91 -3 -38 -9
-87 -12 -108 -5 -36 -4 -39 18 -35 20 2 25 10 30 48 9 78 17 21 23 -166 l5
-181 -24 -11 c-23 -11 -25 -17 -26 -94 -1 -46 -1 -87 0 -92 1 -4 7 -150 13
-322 l11 -315 -29 -30 c-16 -17 -56 -43 -89 -58 -33 -15 -76 -42 -96 -59 -21
-18 -48 -32 -69 -34 -40 -3 -58 -32 -89 -141 -11 -36 -30 -76 -46 -93 -38 -41
-45 -64 -45 -154 0 -45 -5 -82 -11 -85 -6 -4 -38 -8 -72 -10 -34 -2 -90 -8
-124 -15 -50 -10 -66 -10 -78 0 -8 7 -15 17 -15 22 0 16 -180 201 -216 221
-18 10 -18 41 1 57 10 9 15 32 15 76 0 59 -11 83 -23 51 -7 -20 -120 -93 -163
-106 -21 -7 -48 -16 -59 -21 -11 -5 -56 -16 -100 -25 -44 -8 -104 -20 -133
-26 -65 -13 -256 -13 -335 0 -70 12 -136 47 -143 77 -15 58 119 152 274 193
23 7 42 15 42 19 0 9 -49 32 -67 32 -16 0 -17 32 -1 48 16 16 7 24 -70 62 -38
19 -62 37 -63 48 -4 69 -3 67 -29 64 -134 -14 -235 -23 -287 -24 -58 -1 -63
-3 -63 -24 0 -14 9 -25 29 -33 40 -17 97 -79 120 -131 26 -60 35 -270 11 -255
-5 3 -10 15 -10 25 0 24 -20 37 -30 20 -4 -7 -13 -9 -19 -6 -14 9 -14 36 0 36
18 0 35 23 42 56 7 35 0 49 -30 58 -12 4 -24 12 -26 19 -2 7 -2 2 0 -11 3 -17
-7 -29 -42 -54 l-45 -32 0 -147 c0 -137 1 -148 19 -154 11 -3 29 -21 39 -40
16 -26 30 -35 64 -42 24 -5 44 -5 46 -1 8 18 22 6 22 -19 1 -16 7 -39 15 -53
16 -27 21 -130 6 -115 -5 6 -11 18 -13 27 -3 15 -10 13 -53 -16 -27 -18 -71
-39 -98 -47 l-47 -13 0 -58 c0 -48 3 -58 18 -58 16 -1 16 -1 0 -14 -15 -11
-18 -30 -18 -120 l0 -107 133 3 c72 2 141 7 151 12 13 7 17 6 13 -1 -5 -7 0
-9 13 -6 10 3 18 10 17 16 -1 6 7 13 18 15 11 2 17 1 13 -3 -4 -5 0 -14 10
-21 13 -11 100 -13 403 -14 l386 0 8 152 c4 84 7 166 7 181 -1 24 6 31 56 53
59 27 98 28 199 6 43 -9 118 0 246 32 58 14 87 13 87 -5 0 -5 -7 -9 -15 -9 -8
0 -15 -5 -15 -11 0 -7 11 -8 30 -4 25 5 37 1 65 -23 39 -34 99 -46 225 -44
137 2 152 -3 197 -58 49 -60 49 -60 117 80 26 52 89 158 141 235 51 77 101
155 110 174 52 104 220 321 273 352 21 12 62 46 93 76 41 40 73 60 125 79 136
51 205 65 304 65 86 -1 107 3 218 40 67 23 125 39 128 36 3 -3 -21 -39 -53
-79 -82 -103 -100 -134 -144 -250 -21 -56 -43 -105 -49 -108 -6 -4 -80 -12
-163 -19 -84 -7 -195 -17 -247 -23 -52 -5 -104 -11 -116 -12 -11 -1 -24 -5
-30 -8 -5 -3 -25 -9 -44 -13 -40 -9 -88 -31 -108 -52 -23 -23 -10 -22 38 1 67
33 153 54 276 70 160 21 383 40 389 35 8 -9 -110 -352 -149 -431 -20 -40 -95
-153 -168 -250 -73 -98 -148 -198 -166 -223 l-33 -45 43 0 c40 0 45 3 72 46
16 25 82 118 146 206 143 196 180 269 260 510 l62 188 37 9 c83 23 391 37 391
19 0 -5 7 -8 15 -8 8 0 15 5 15 10 0 13 52 -13 70 -35 11 -14 10 -17 -8 -22
-12 -3 -22 -9 -22 -14 0 -13 45 -22 69 -14 12 4 21 2 21 -4 0 -6 -4 -11 -9
-11 -5 0 -7 -8 -4 -19 6 -23 -13 -37 -30 -22 -22 17 -33 -2 -35 -62 l-2 -57
37 -1 c21 -1 44 -1 51 0 11 2 11 -2 2 -19 -16 -29 2 -49 25 -30 9 8 33 15 53
17 20 2 42 9 47 16 18 22 63 40 82 32 10 -4 41 -7 68 -7 41 0 44 -1 20 -7 -27
-6 -28 -7 -9 -13 12 -3 26 -3 31 1 15 10 33 48 33 70 0 12 4 29 9 39 5 9 17
37 26 62 22 56 37 92 64 152 12 26 21 49 21 53 0 11 69 182 94 230 13 28 30
62 35 75 11 25 32 61 41 70 15 15 43 80 37 86 -4 4 -28 2 -55 -5 -110 -28
-179 -41 -211 -41 -33 0 -101 -36 -101 -52 0 -5 -12 -8 -26 -8 -14 0 -23 -4
-19 -10 6 -10 -30 -52 -38 -43 -3 3 -12 -4 -19 -16 -7 -12 -21 -21 -31 -21
-11 0 -21 -9 -24 -20 -7 -26 -23 -26 -23 0 0 20 -15 25 -44 14 -15 -6 -15 -7
-1 -18 22 -16 11 -38 -26 -55 -26 -12 -32 -12 -40 0 -5 9 -2 17 9 23 9 5 18 9
19 10 1 1 4 13 8 29 6 23 4 27 -13 27 -12 0 -24 -5 -27 -10 -3 -6 -14 -10 -24
-10 -10 0 -26 -9 -36 -20 -10 -11 -23 -20 -30 -20 -16 0 -79 -70 -70 -78 3 -4
10 0 14 7 5 7 14 10 20 7 6 -4 21 0 33 8 29 20 68 21 68 1 0 -8 -4 -15 -10
-15 -5 0 -10 -7 -10 -15 0 -8 -4 -15 -10 -15 -5 0 -10 -7 -10 -15 0 -9 -10
-19 -22 -24 -21 -8 -65 -51 -52 -51 3 0 -7 -16 -22 -35 -20 -27 -34 -35 -58
-35 -18 0 -36 -4 -42 -10 -5 -5 -36 -12 -69 -15 -33 -3 -76 -10 -95 -15 -63
-16 -170 -23 -170 -12 0 6 14 49 30 94 22 60 50 110 99 175 37 50 81 111 97
137 16 25 38 49 49 52 11 4 72 8 135 10 97 2 126 6 185 29 164 63 285 97 385
110 58 8 158 25 223 38 113 22 140 21 119 -6 -5 -7 -10 -50 -11 -97 -2 -47 -7
-88 -13 -91 -7 -4 -7 -9 1 -13 15 -10 14 -56 -1 -56 -9 0 -9 -3 0 -12 7 -7 12
-22 12 -34 0 -13 4 -25 9 -28 8 -5 13 -38 28 -179 3 -31 9 -60 14 -63 5 -3 9
-23 9 -44 0 -21 5 -40 11 -42 8 -3 8 -10 -2 -26 -13 -21 -12 -25 10 -41 17
-13 20 -20 10 -23 -11 -4 -10 -9 4 -31 24 -37 23 -60 -4 -52 -20 7 -20 6 -5
-18 9 -13 14 -32 10 -41 -3 -9 -2 -16 4 -16 18 0 63 -53 51 -60 -8 -5 -7 -13
2 -28 11 -17 11 -24 1 -34 -23 -23 -14 -55 18 -67 31 -10 42 -45 18 -54 -10
-3 -10 -11 1 -38 7 -19 16 -52 18 -74 2 -22 7 -47 10 -55 3 -8 5 -28 4 -43 -2
-26 0 -27 25 -21 l28 7 -26 -28 c-34 -37 -35 -83 -1 -96 12 -4 23 -13 23 -19
0 -5 6 -10 14 -10 16 0 27 -22 18 -37 -4 -6 -26 -19 -50 -28 -23 -10 -42 -21
-42 -26 0 -6 676 -9 1655 -9 l1655 1 0 41 c0 29 -6 46 -21 59 -24 21 -17 40
14 38 17 -1 18 -2 5 -6 -28 -7 -21 -23 11 -23 50 0 94 12 79 21 -10 7 -9 9 4
9 9 0 20 -5 23 -11 4 -6 13 -8 21 -5 17 7 28 -10 12 -18 -7 -3 -1 -4 14 -1 15
3 30 1 33 -5 3 -6 18 -7 32 -4 17 5 24 3 20 -3 -4 -7 8 -14 30 -18 67 -12 112
-35 106 -53 -4 -13 -3 -14 5 -4 8 12 15 11 41 -3 22 -11 51 -15 94 -13 55 3
58 4 32 12 -16 5 -36 17 -42 26 -7 10 -28 21 -47 24 -19 4 -45 15 -59 26 -28
22 -181 90 -203 90 -8 0 -14 4 -14 8 0 4 -12 8 -27 7 -37 -1 -79 25 -61 37 9
6 2 8 -19 5 -18 -2 -31 -1 -28 1 3 3 0 11 -6 19 -9 10 -8 17 1 28 10 12 10 21
2 40 -7 15 -8 26 -2 30 6 4 10 1 10 -4 0 -20 39 -11 45 9 7 24 35 27 35 4 0
-8 -4 -12 -10 -9 -5 3 -10 -1 -10 -9 0 -19 5 -20 31 -5 12 6 18 17 15 25 -4
10 3 14 24 14 20 0 31 6 35 21 4 11 20 25 36 31 16 5 29 14 29 18 0 16 -21 23
-33 11 -17 -17 -31 -13 -17 4 10 12 10 18 0 30 -11 13 -11 20 0 40 7 14 20 25
29 26 9 1 5 4 -9 8 -19 6 -25 13 -23 34 1 19 -11 39 -45 75 -43 44 -192 152
-210 152 -4 0 -13 9 -20 20 -7 11 -19 20 -27 20 -8 0 -15 5 -15 10 0 6 -6 10
-13 10 -8 0 -21 8 -30 18 -9 10 -36 28 -59 41 -65 33 -80 44 -101 69 -10 12
-27 22 -37 22 -11 0 -27 12 -37 28 -20 31 -119 130 -195 194 -28 24 -56 49
-64 55 -7 7 -16 13 -21 13 -4 0 -30 20 -58 45 -27 25 -53 45 -57 45 -4 0 -28
12 -52 27 -47 28 -66 61 -66 113 0 14 -11 60 -25 100 -30 88 -32 156 -6 213
66 148 109 303 136 486 8 57 16 106 18 108 2 1 25 7 51 12 76 14 113 64 115
156 0 37 36 136 53 147 12 8 22 7 81 -8 65 -16 160 43 202 125 26 52 78 106
93 97 6 -3 13 -19 17 -36 9 -40 42 -80 67 -80 44 0 199 94 273 165 71 68 73
72 85 139 24 132 -1 464 -46 616 -21 72 -76 148 -108 150 -4 0 -25 13 -45 29
-34 27 -149 86 -180 93 -39 9 -95 46 -102 68 -89 304 -199 530 -352 720 -82
101 -99 120 -159 174 -25 23 -28 32 -28 90 0 74 -8 105 -21 84 -6 -9 -9 -4 -9
15 0 15 -4 27 -10 27 -6 0 -10 -28 -10 -62 l0 -63 -20 25 c-11 14 -27 45 -36
70 -10 25 -21 49 -26 55 -4 5 -8 24 -8 42 0 22 -4 31 -13 27 -15 -5 -42 46
-52 100 -4 20 -11 37 -16 37 -5 1 -13 2 -19 3 -11 1 -120 135 -120 148 0 4 -4
7 -9 5 -21 -6 -267 250 -277 287 -4 16 -11 22 -23 19 -10 -2 -23 3 -30 11 -8
9 -19 16 -27 16 -7 0 -33 20 -58 45 -26 25 -52 45 -59 46 -85 6 -111 10 -143
24 -38 16 -127 35 -281 60 -45 8 -91 18 -102 24 -11 6 -27 8 -35 5 -9 -3 -32
4 -51 16 -30 18 -41 21 -60 12 -18 -9 -31 -7 -61 9 -46 23 -64 24 -64 4z m156
-573 c23 -21 110 -48 129 -41 28 11 47 11 40 0 -10 -17 15 -23 31 -7 8 9 21
16 28 16 18 0 55 -42 57 -65 4 -42 -2 -65 -16 -65 -18 0 -20 26 -2 33 6 3 4 6
-7 6 -10 1 -25 9 -32 19 -13 16 -13 16 -14 0 0 -10 -4 -18 -9 -18 -5 0 7 -18
26 -40 20 -22 42 -40 50 -40 18 0 16 -12 -9 -59 -18 -34 -27 -41 -51 -41 -25
0 -28 -3 -23 -23 4 -18 1 -23 -17 -24 -12 -1 -26 -8 -32 -16 -5 -7 -18 -16
-28 -20 -10 -4 -15 -12 -12 -17 5 -8 11 -8 20 0 9 8 15 8 20 0 4 -6 -6 -15
-23 -21 -17 -6 -33 -17 -36 -25 -7 -19 -46 -18 -46 1 0 8 7 15 15 15 8 0 15 5
15 10 0 11 -15 12 -48 4 -13 -4 -21 -12 -19 -18 5 -14 -11 -46 -23 -46 -10 0
-25 39 -22 56 3 15 -43 27 -69 19 -13 -4 -19 -2 -19 9 0 9 -9 16 -20 16 -11 0
-23 8 -26 18 -12 38 -28 62 -40 62 -27 0 -47 48 -41 95 6 40 5 45 -13 45 -11
0 -20 5 -20 10 0 6 7 10 15 10 8 0 15 5 15 11 0 12 95 108 108 110 30 3 58 11
66 19 12 12 68 13 82 2z m351 -104 c-3 -8 -6 -5 -6 6 -1 11 2 17 5 13 3 -3 4
-12 1 -19z m-1255 -29 c-3 -33 -32 -69 -56 -69 -6 -1 -20 -15 -31 -33 -11 -18
-30 -36 -43 -42 -20 -9 -32 -28 -38 -63 -1 -8 -19 -28 -40 -46 -21 -18 -44
-48 -51 -67 -11 -28 -13 -30 -10 -7 3 19 0 25 -10 21 -7 -3 -13 -11 -13 -19 0
-7 -8 -19 -19 -26 -10 -7 -21 -22 -24 -33 -4 -16 -5 -15 -6 6 -3 64 126 258
226 339 24 19 50 41 58 48 8 7 19 10 25 7 6 -4 10 -3 9 2 -3 18 2 24 14 20 7
-2 11 -17 9 -38z m48 37 c0 -3 -4 -8 -10 -11 -5 -3 -10 -1 -10 4 0 6 5 11 10
11 6 0 10 -2 10 -4z m1755 -16 c3 -5 15 -10 27 -10 23 0 70 -31 111 -72 15
-15 31 -28 36 -28 5 0 11 -9 14 -21 3 -12 10 -18 16 -15 15 10 47 -62 33 -76
-12 -12 -46 8 -37 22 3 4 -5 10 -18 14 -18 5 -20 8 -7 16 13 8 12 10 -3 10
-10 0 -28 11 -41 25 -25 26 -42 34 -30 13 4 -7 -8 2 -26 20 -18 17 -36 32 -41
32 -5 0 -9 6 -9 14 0 8 -7 13 -17 12 -10 0 -19 10 -24 27 -7 26 3 38 16 17z
m-513 -22 c-7 -7 -12 -8 -12 -2 0 14 12 26 19 19 2 -3 -1 -11 -7 -17z m-661
-61 c-1 -4 -1 -14 -1 -22 0 -13 -4 -14 -20 -5 -16 9 -18 13 -8 25 13 14 30 16
29 2z m-116 -17 c4 -6 15 -8 25 -5 13 4 23 -1 32 -14 7 -12 20 -21 30 -21 23
0 50 -56 34 -69 -14 -12 -30 -3 -39 22 -9 23 -37 22 -37 -2 0 -11 5 -23 10
-26 6 -4 7 -11 4 -17 -9 -13 -24 10 -24 37 0 12 -16 36 -35 55 -19 19 -35 38
-35 43 0 11 28 8 35 -3z m-35 -34 c0 -14 -29 -31 -38 -22 -2 3 -2 12 1 21 8
19 37 20 37 1z m1600 -92 c0 -8 -5 -12 -10 -9 -6 4 -8 11 -5 16 9 14 15 11 15
-7z m-3166 -150 c-21 -36 -40 -60 -42 -55 -5 14 35 101 56 124 32 35 24 -3
-14 -69z m1751 -424 c3 -5 -1 -10 -10 -10 -9 0 -13 5 -10 10 3 6 8 10 10 10 2
0 7 -4 10 -10z m12 -30 l27 0 -22 -16 c-13 -9 -30 -13 -39 -10 -9 4 -20 1 -24
-5 -4 -6 -12 -8 -18 -5 -16 10 -14 26 4 26 9 0 12 6 8 16 -5 14 -3 15 15 5 11
-6 33 -11 49 -11z m8 -70 c0 -7 -6 -15 -12 -17 -8 -3 -13 4 -13 17 0 13 5 20
13 18 6 -3 12 -11 12 -18z m540 0 c-3 -5 -13 -10 -21 -10 -8 0 -14 5 -14 10 0
6 9 10 21 10 11 0 17 -4 14 -10z m-1925 -342 c5 -46 11 -210 14 -366 l5 -283
-47 39 c-26 22 -63 47 -82 57 -19 10 -36 19 -38 20 -2 1 2 52 8 111 15 157 47
320 91 468 25 85 35 75 49 -46z m3353 -58 c2 -23 -1 -25 -37 -23 -22 2 -44 8
-48 15 -9 12 1 153 12 178 4 10 72 -146 73 -170z m-4006 18 c-3 -8 -6 -5 -6 6
-1 11 2 17 5 13 3 -3 4 -12 1 -19z m4019 -292 c8 -33 2 -69 -13 -74 -9 -2 -13
11 -13 47 0 53 15 69 26 27z m-4386 -46 c30 -6 79 -22 109 -35 76 -35 211
-117 211 -129 0 -10 -201 -4 -485 15 -93 6 -198 8 -232 5 -35 -4 -63 -3 -63 1
0 12 74 59 146 93 111 54 212 69 314 50z m2680 -41 c0 -10 -5 -19 -11 -19 -5
0 1 -15 14 -32 23 -31 25 -42 25 -156 0 -68 -3 -148 -7 -178 -4 -30 -5 -56 -2
-59 2 -3 6 -34 7 -70 1 -35 9 -78 18 -94 52 -100 49 -90 32 -116 -15 -23 -28
-30 -50 -26 -4 1 -24 2 -42 3 -19 1 -37 5 -40 9 -2 5 -11 6 -19 3 -16 -7 -65
41 -65 63 0 8 10 17 21 20 20 6 21 7 5 19 -10 7 -13 15 -7 18 6 4 7 14 4 23
-4 9 0 21 9 27 12 9 17 41 21 136 4 69 13 151 22 183 8 32 15 80 15 107 0 27
5 61 12 77 15 36 15 38 17 69 1 29 21 23 21 -7z m-3840 -349 c-11 -21 -22 -25
-33 -13 -9 9 12 33 30 33 11 0 11 -4 3 -20z m1888 -47 c-10 -71 -15 -83 -28
-83 -15 0 -12 65 4 105 23 54 34 43 24 -22z m-586 -165 c-7 -7 -12 -8 -12 -2
0 6 3 14 7 17 3 4 9 5 12 2 2 -3 -1 -11 -7 -17z m-1468 -93 c-6 -16 -34 -21
-34 -7 0 13 11 22 26 22 8 0 11 -6 8 -15z m-84 -255 c0 -5 -4 -10 -10 -10 -5
0 -10 5 -10 10 0 6 5 10 10 10 6 0 10 -4 10 -10z m3973 -927 c15 -3 27 -9 27
-14 0 -14 -69 -22 -85 -9 -18 15 -8 43 14 35 9 -4 28 -9 44 -12z m187 -27 c0
-3 -4 -8 -10 -11 -5 -3 -10 -1 -10 4 0 6 5 11 10 11 6 0 10 -2 10 -4z m-1400
-101 c0 -8 -2 -15 -4 -15 -2 0 -6 7 -10 15 -3 8 -1 15 4 15 6 0 10 -7 10 -15z
m7 -57 c-3 -7 -5 -2 -5 12 0 14 2 19 5 13 2 -7 2 -19 0 -25z m-4481 -700 c47
-27 43 -39 -12 -33 -57 6 -61 9 -61 40 0 29 14 28 73 -7z m4021 -194 c-3 -3
-12 -4 -19 -1 -8 3 -5 6 6 6 11 1 17 -2 13 -5z m-4407 -41 c0 -16 3 -38 6 -50
8 -31 -20 -41 -46 -18 -23 21 -23 64 0 82 25 20 40 15 40 -14z m4411 7 c5 0 9
-4 9 -10 0 -5 -11 -10 -25 -10 -16 0 -25 6 -25 16 0 11 5 14 16 10 9 -3 20 -6
25 -6z m-241 -15 c0 -13 19 -20 44 -16 5 1 22 -1 38 -5 23 -4 27 -9 19 -17 -8
-8 -14 -8 -19 -2 -4 6 -31 11 -61 13 -62 2 -69 6 -51 27 16 19 30 19 30 0z
m-73 -57 c-3 -8 -6 -5 -6 6 -1 11 2 17 5 13 3 -3 4 -12 1 -19z m68 13 c7 -12
-12 -24 -25 -16 -11 7 -4 25 10 25 5 0 11 -4 15 -9z m69 -30 c8 -12 -20 -22
-39 -15 -19 8 -9 24 15 24 10 0 21 -4 24 -9z m-4133 -34 c-10 -9 -11 -8 -5 6
3 10 9 15 12 12 3 -3 0 -11 -7 -18z m3981 1 c16 -19 22 -20 38 -10 28 17 32
15 28 -10 -2 -13 -9 -22 -17 -20 -7 1 -19 -5 -26 -15 -12 -16 -15 -14 -31 20
-10 20 -22 37 -26 37 -5 0 -6 5 -3 10 9 15 15 13 37 -12z m232 -9 c-7 -12 -41
-12 -49 0 -6 11 23 20 42 13 7 -2 10 -8 7 -13z m-68 -46 c-10 -10 -19 5 -10
18 6 11 8 11 12 0 2 -7 1 -15 -2 -18z m-2396 -47 c22 -12 37 -26 34 -29 -4 -4
5 -11 20 -16 14 -6 26 -14 26 -18 0 -21 58 -33 110 -23 30 6 58 6 62 2 16 -16
23 -115 12 -170 -6 -33 -7 -33 -61 -31 -82 4 -220 36 -261 61 -21 12 -56 38
-79 57 -36 30 -43 41 -43 72 0 34 36 102 64 122 17 11 70 -1 116 -27z m-639
-54 c41 -42 81 -92 88 -110 13 -31 12 -34 -14 -62 -16 -17 -39 -30 -51 -30
-12 0 -45 -10 -73 -21 -28 -12 -52 -20 -54 -18 -1 2 -1 75 1 162 2 122 6 157
16 157 7 0 47 -35 87 -78z m7359 -12 c0 -5 -2 -10 -4 -10 -3 0 -8 5 -11 10 -3
6 -1 10 4 10 6 0 11 -4 11 -10z m-8352 -33 c2 -10 -3 -17 -12 -17 -10 0 -16 9
-16 21 0 24 23 21 28 -4z m-180 -289 c-4 -39 -25 -48 -34 -14 -7 29 1 46 22
46 11 0 14 -9 12 -32z m109 10 c-3 -8 -6 -5 -6 6 -1 11 2 17 5 13 3 -3 4 -12
1 -19z m-111 -70 c4 -6 -1 -17 -11 -24 -23 -17 -26 -14 -18 14 6 24 18 28 29
10z m4 -73 c0 -13 -4 -27 -10 -30 -5 -3 -10 -11 -10 -16 0 -6 5 -7 10 -4 6 4
10 -15 10 -51 0 -77 -25 -58 -28 21 -1 31 -3 59 -3 63 -1 4 2 17 6 29 9 28 25
20 25 -12z m252 -26 c11 -49 5 -57 -58 -85 -50 -22 -57 -23 -68 -9 -6 8 -10
35 -8 58 3 37 7 42 29 44 14 0 28 5 32 11 6 10 40 21 56 18 5 -2 13 -18 17
-37z m4838 -19 c0 -5 -7 -10 -16 -10 -8 0 -12 5 -9 10 3 6 10 10 16 10 5 0 9
-4 9 -10z"/>
<path d="M0 1945 c0 -197 5 -238 25 -205 3 6 18 10 33 9 l27 -1 -25 -9 c-19
-7 -16 -7 15 -3 40 5 125 33 125 41 0 2 -6 14 -14 26 -8 12 -22 55 -30 95 -24
117 -82 223 -137 253 -18 9 -19 3 -19 -206z"/>
<path d="M280 1714 c-15 -9 -45 -13 -73 -12 -26 2 -47 0 -47 -4 0 -5 -18 -8
-40 -8 -22 0 -40 -4 -40 -10 0 -5 -18 -10 -40 -10 l-40 0 0 -90 0 -91 68 6
c100 9 232 34 263 50 35 19 39 31 32 114 -6 69 -7 71 -32 70 -14 -1 -37 -7
-51 -15z"/>
<path d="M305 1485 c-22 -8 -41 -15 -42 -15 -7 0 -2 -30 5 -30 4 0 6 -16 4
-36 -4 -36 -4 -37 24 -30 16 4 39 14 52 22 22 15 30 48 13 58 -5 3 -7 15 -4
26 6 23 1 24 -52 5z"/>
<path d="M4190 1434 c-55 -18 -45 -29 31 -31 61 -1 70 1 67 15 -2 10 -11 16
-22 14 -9 -2 -23 1 -29 6 -7 5 -26 3 -47 -4z"/>
<path d="M0 1424 c0 -8 5 -12 10 -9 6 3 10 10 10 16 0 5 -4 9 -10 9 -5 0 -10
-7 -10 -16z"/>
<path d="M4210 1390 c0 -5 7 -10 15 -10 8 0 15 5 15 10 0 6 -7 10 -15 10 -8 0
-15 -4 -15 -10z"/>
<path d="M2 1355 c0 -16 2 -22 5 -12 2 9 2 23 0 30 -3 6 -5 -1 -5 -18z"/>
<path d="M4288 1363 c6 -2 18 -2 25 0 6 3 1 5 -13 5 -14 0 -19 -2 -12 -5z"/>
<path d="M60 1157 c0 -14 19 -37 32 -37 16 0 7 30 -12 40 -15 8 -20 8 -20 -3z"/>
<path d="M775 1059 c-133 -15 -145 -17 -182 -29 -21 -7 -43 -17 -50 -22 -7 -5
-17 -7 -22 -4 -5 4 -12 2 -15 -2 -3 -5 -26 -15 -51 -22 -66 -18 -128 -94 -89
-107 6 -2 31 12 56 31 25 19 57 38 72 42 14 3 26 10 26 15 0 5 3 8 8 7 4 -1
20 4 35 10 16 7 39 12 53 12 13 0 24 4 24 8 0 5 6 9 13 10 49 4 107 13 137 22
19 5 49 10 67 10 17 0 34 4 37 9 6 9 -18 22 -37 20 -7 -1 -43 -6 -82 -10z"/>
<path d="M680 834 l-25 -15 30 7 c17 4 38 6 47 6 10 0 20 3 23 9 10 15 -48 10
-75 -7z"/>
<path d="M2636 603 c-6 -14 -5 -15 5 -6 7 7 10 15 7 18 -3 3 -9 -2 -12 -12z"/>
<path d="M0 570 c0 -22 4 -28 15 -24 16 7 18 14 9 38 -10 26 -24 18 -24 -14z"/>
<path d="M2570 401 c-4 -9 -14 -44 -20 -79 -7 -34 -15 -64 -19 -66 -10 -7 0
-156 11 -156 5 0 7 12 3 29 -4 19 0 44 13 73 11 24 23 58 27 76 9 44 32 54 81
37 21 -8 49 -14 62 -15 12 0 22 -4 22 -10 0 -5 7 -10 15 -10 8 0 15 4 15 9 0
11 -94 91 -108 91 -5 0 -15 6 -21 14 -18 21 -70 26 -81 7z"/>
</g>
</svg>
