<?xml version="1.0" standalone="no"?>
<!DOCTYPE svg PUBLIC "-//W3C//DTD SVG 20010904//EN"
 "http://www.w3.org/TR/2001/REC-SVG-20010904/DTD/svg10.dtd">
<svg version="1.0" xmlns="http://www.w3.org/2000/svg"
 width="1280.000000pt" height="720.000000pt" viewBox="0 0 1280.000000 720.000000"
 preserveAspectRatio="xMidYMid meet">

<g transform="translate(0.000000,720.000000) scale(0.100000,-0.100000)"
fill="#000000" stroke="none">
<path d="M5535 7191 c-11 -3 -33 -13 -50 -22 -16 -9 -52 -22 -80 -28 -62 -15
-152 -73 -160 -104 -3 -12 -12 -38 -20 -57 -7 -19 -19 -55 -26 -80 -8 -25 -28
-61 -45 -80 -17 -19 -39 -50 -48 -68 -9 -18 -48 -66 -86 -106 -38 -40 -67 -76
-64 -79 4 -3 -15 -21 -41 -39 -129 -90 -130 -91 -111 -98 17 -5 15 -10 -16
-36 -20 -16 -39 -40 -43 -53 -4 -14 -25 -44 -47 -67 -22 -23 -54 -62 -71 -86
-18 -23 -52 -63 -77 -88 -44 -44 -63 -83 -100 -205 -7 -22 -17 -48 -22 -58 -5
-10 -9 -39 -9 -65 -1 -26 -7 -72 -14 -102 -7 -30 -14 -77 -14 -105 -1 -54 -4
-104 -16 -259 l-8 -98 -36 6 c-20 4 -86 13 -147 21 -110 14 -113 15 -178 65
-94 70 -245 157 -335 193 -99 38 -217 47 -310 22 -106 -27 -239 -102 -345
-194 -34 -30 -58 -41 -93 -46 -73 -10 -263 -70 -329 -103 -72 -37 -150 -92
-170 -121 -17 -23 -40 -28 -47 -8 -3 7 -6 4 -6 -6 -1 -10 -17 -38 -36 -61 -41
-50 -45 -71 -13 -61 15 6 20 4 16 -6 -3 -8 -15 -42 -28 -76 -16 -44 -28 -63
-40 -63 -23 0 -54 -36 -47 -54 4 -9 -5 -37 -18 -63 -33 -65 -42 -123 -44 -286
l-2 -137 31 -7 32 -6 -6 -116 c-4 -64 -9 -138 -12 -164 -6 -47 -5 -49 17 -45
19 2 25 11 30 38 5 32 6 33 11 10 4 -14 11 -81 17 -150 6 -69 14 -141 17 -160
5 -32 3 -37 -20 -48 -24 -11 -26 -16 -26 -74 0 -35 7 -103 14 -153 8 -49 20
-142 26 -205 5 -63 15 -171 22 -239 l11 -125 -34 -29 c-19 -16 -56 -39 -84
-51 -27 -13 -64 -35 -81 -49 -18 -15 -43 -27 -58 -27 -39 0 -64 -35 -82 -119
-10 -47 -25 -86 -39 -101 -40 -44 -44 -63 -42 -190 l2 -123 37 -31 c20 -18 61
-45 90 -62 51 -27 60 -29 210 -34 177 -6 178 -6 241 -102 16 -27 34 -48 39
-48 4 0 8 -7 8 -16 0 -25 15 -9 86 94 74 107 180 237 240 294 56 52 348 240
489 314 66 34 156 73 200 85 71 19 95 21 212 15 115 -5 146 -3 250 18 147 30
318 56 370 56 l39 0 -73 -144 c-75 -149 -180 -400 -228 -546 -15 -47 -32 -91
-38 -98 -6 -8 -37 -27 -69 -43 -52 -26 -67 -29 -153 -29 -57 0 -94 -4 -90 -9
3 -5 31 -8 62 -5 l56 4 -49 -53 c-74 -80 -129 -147 -132 -163 -2 -8 -7 -14
-11 -14 -11 0 -57 -130 -70 -198 -17 -84 -15 -251 5 -339 20 -93 41 -144 86
-212 18 -27 47 -71 63 -96 17 -26 34 -53 40 -60 11 -16 -36 -166 -86 -271 -20
-41 -32 -82 -31 -103 1 -28 -1 -33 -9 -21 -8 12 -9 11 -5 -5 3 -11 -1 -32 -8
-47 -8 -15 -17 -42 -21 -60 -4 -18 -13 -44 -21 -58 -7 -14 -22 -44 -34 -68
l-20 -42 38 0 c37 0 38 1 81 85 24 47 47 83 51 80 5 -3 6 5 2 17 -4 16 -2 19
8 13 8 -5 11 -4 7 2 -4 6 0 24 8 39 8 16 15 24 15 17 0 -6 8 -9 19 -6 13 3 20
-1 23 -14 2 -10 10 -18 18 -19 54 -4 80 -39 30 -39 -13 0 -25 -6 -28 -14 -3
-10 1 -12 17 -8 22 5 30 -8 9 -16 -7 -3 2 -8 20 -12 34 -8 39 -14 22 -31 -7
-7 -1 -20 19 -39 26 -27 27 -31 12 -42 -13 -10 16 -12 151 -13 l167 0 11 43
c6 23 22 68 36 100 14 31 22 62 19 67 -3 6 -2 10 3 10 5 0 15 21 21 48 7 26
17 65 22 87 6 22 37 130 71 240 33 110 73 243 89 295 15 52 35 123 44 158 19
75 71 226 90 262 14 26 47 134 50 160 0 9 4 21 8 27 8 13 17 108 19 198 0 33
4 69 8 81 5 11 4 27 -1 36 -8 14 8 233 27 365 7 50 25 58 24 10 0 -17 1 -104
3 -192 3 -129 1 -165 -11 -183 -8 -13 -11 -22 -6 -20 15 5 16 -5 5 -35 -13
-33 -14 -48 -3 -44 9 3 11 -13 5 -30 -3 -7 -3 -31 -1 -52 2 -22 1 -38 -2 -36
-5 3 -2 -198 4 -280 2 -22 5 -87 6 -145 3 -132 5 -139 31 -133 19 5 20 4 8
-15 -11 -17 -11 -24 -1 -34 6 -6 12 -25 12 -40 0 -15 4 -28 9 -28 16 0 41 -96
37 -143 -2 -36 1 -50 16 -64 10 -9 16 -23 14 -30 -3 -7 3 -22 14 -33 19 -19
19 -20 -14 -52 -19 -18 -81 -56 -138 -85 -137 -69 -264 -147 -261 -160 1 -6
-8 -19 -20 -29 -18 -16 -20 -16 -8 -1 7 9 9 17 4 17 -11 0 -143 -134 -143
-146 0 -4 14 5 32 22 l31 29 -20 -30 c-12 -16 -33 -41 -47 -54 -14 -13 -28
-36 -31 -52 -4 -17 -11 -26 -17 -23 -7 4 -8 2 -4 -4 4 -6 0 -25 -9 -41 -8 -17
-15 -32 -15 -36 0 -3 97 -5 215 -5 l215 0 0 28 1 27 22 -27 23 -28 1565 0
c1067 0 1568 3 1575 10 8 8 19 8 38 0 15 -5 72 -10 126 -10 l99 0 -6 35 c-5
29 -2 36 17 43 20 8 21 9 4 23 -13 11 -18 11 -21 2 -3 -7 -9 -13 -14 -13 -16
0 -9 21 14 41 17 14 19 21 9 27 -7 5 -10 16 -6 25 4 13 1 17 -14 17 -12 0 -24
-5 -27 -10 -8 -14 -35 6 -35 26 0 20 17 26 38 13 11 -7 27 -9 36 -6 16 7 16 8
1 24 -14 14 -22 15 -48 5 -17 -6 -32 -11 -33 -9 -1 1 1 22 6 47 8 42 3 71 -7
43 -3 -7 -9 -13 -15 -13 -7 0 -6 5 1 14 9 11 9 20 2 35 -6 11 -11 31 -11 45 0
18 -4 24 -15 20 -9 -4 -15 0 -15 10 0 9 7 16 16 16 9 0 14 6 11 13 -2 7 -15
11 -30 9 -19 -2 -26 1 -23 10 2 7 7 25 10 41 4 18 13 27 26 27 11 0 20 -4 20
-10 0 -5 5 -10 11 -10 7 0 8 7 3 18 -4 9 -8 33 -8 52 -1 32 -4 35 -31 36 -17
1 -40 -4 -52 -12 -14 -9 -24 -10 -28 -4 -3 6 -1 10 4 10 6 0 11 17 11 39 0 23
6 44 16 52 13 11 15 9 10 -17 -5 -26 -4 -26 6 4 8 23 8 36 1 40 -6 4 -11 19
-11 34 0 15 4 25 9 22 5 -2 11 6 15 20 3 13 15 27 27 31 l22 6 -21 9 c-30 12
-43 34 -15 25 15 -5 21 -2 21 9 0 28 18 17 85 -49 36 -36 70 -65 75 -65 5 0
24 -13 42 -29 18 -16 100 -63 183 -106 136 -69 278 -157 314 -193 8 -7 24 -20
37 -29 13 -8 24 -22 24 -29 0 -8 6 -14 14 -14 7 0 25 -9 40 -21 14 -11 26 -17
26 -12 0 4 4 3 8 -2 4 -6 28 -23 54 -38 66 -38 202 -149 349 -284 28 -26 56
-43 70 -43 l24 0 -21 18 c-12 9 -54 44 -95 77 -41 32 -110 91 -155 130 -44 38
-103 87 -130 107 -87 66 -178 133 -226 166 -26 18 -52 38 -60 45 -7 7 -42 33
-78 57 -36 24 -66 47 -68 52 -2 4 -8 8 -14 8 -14 0 -163 101 -208 140 -19 17
-59 47 -89 67 -30 19 -61 41 -68 49 -15 14 -27 18 -52 15 -7 -2 -11 1 -8 6 3
5 -10 19 -29 32 -19 13 -37 34 -40 47 -7 26 4 66 19 76 6 3 14 30 18 60 4 29
10 63 14 76 11 33 -22 29 -37 -5 -7 -16 -18 -36 -26 -45 -14 -17 -16 -17 -28
0 -13 16 -13 16 -14 -3 0 -16 -2 -17 -9 -6 -7 11 -13 12 -23 3 -11 -8 -17 -7
-26 9 -11 16 -9 19 8 19 16 0 20 7 20 35 0 19 -1 36 -2 38 -2 1 5 13 15 27 19
27 23 55 7 45 -6 -3 -10 -1 -10 4 0 6 5 11 10 11 7 0 9 21 5 57 -4 48 -6 124
-4 183 0 8 -2 63 -4 123 -3 59 -2 107 2 107 3 0 7 30 8 66 1 40 8 75 17 89 9
14 16 33 16 44 0 22 4 26 43 35 24 6 27 3 27 -17 0 -16 9 -28 26 -36 17 -8 24
-17 20 -27 -8 -20 3 -66 14 -59 5 3 11 -19 15 -47 4 -29 16 -64 26 -77 11 -13
19 -31 19 -40 0 -10 4 -21 9 -26 13 -13 30 -113 33 -191 2 -40 9 -68 19 -80
10 -11 19 -28 21 -39 5 -32 42 -26 45 7 1 15 10 39 19 53 14 22 15 31 5 46 -6
11 -9 24 -5 30 3 5 0 16 -6 24 -10 12 -10 15 0 15 10 0 10 3 0 15 -7 9 -10 18
-7 21 10 10 -19 87 -51 137 -17 27 -33 66 -37 86 -4 24 -20 52 -41 75 -19 20
-34 44 -34 54 0 9 -29 45 -64 80 -57 56 -65 67 -69 110 -4 44 -13 84 -31 140
-7 22 -6 23 16 16 12 -4 39 -8 58 -9 19 0 40 -3 45 -7 6 -3 31 -4 58 -1 61 7
68 29 32 98 -75 144 -121 192 -241 249 -41 20 -77 43 -80 50 -3 8 2 54 10 102
9 49 17 102 18 118 2 16 10 32 18 36 126 58 131 65 141 175 7 79 79 309 185
590 l38 100 -1 154 c-1 171 -6 186 -73 223 -34 18 -71 19 -125 3 -19 -6 -20
-3 -14 72 3 43 11 92 17 108 28 73 77 421 79 558 1 75 5 158 9 183 8 55 -10
153 -38 202 -16 30 -19 47 -14 93 7 57 -10 172 -41 289 -8 30 -17 68 -20 85
-3 16 -15 42 -26 57 -18 24 -19 37 -13 150 4 77 3 129 -4 138 -7 12 -10 8 -10
-17 0 -18 -5 -33 -11 -33 -5 0 -7 4 -4 10 8 12 -5 83 -14 75 -3 -4 -4 -36 -3
-73 4 -94 -9 -108 -42 -44 -14 27 -34 83 -45 122 -11 40 -25 78 -30 84 -6 7
-8 22 -4 34 4 17 2 21 -9 17 -16 -6 -58 72 -58 109 0 35 -10 56 -26 56 -18 0
-134 148 -134 171 0 22 -17 34 -23 17 -5 -14 -72 52 -164 162 -31 36 -65 74
-77 85 -36 34 -74 89 -81 117 -4 16 -11 25 -16 22 -5 -3 -26 7 -46 21 -21 14
-43 25 -49 25 -14 0 -74 66 -74 80 0 14 -38 12 -42 -1 -3 -9 -9 -9 -25 0 -24
12 -1500 15 -1538 2z m710 -473 c4 -4 17 -3 29 1 33 13 148 5 180 -12 16 -9
45 -14 67 -12 24 2 42 -2 50 -11 6 -8 17 -14 25 -14 7 0 17 -6 21 -14 10 -17
53 -24 72 -12 9 6 12 5 8 -1 -3 -5 9 -17 28 -26 19 -9 35 -22 35 -27 0 -6 4
-9 8 -6 16 10 49 -23 55 -54 5 -24 12 -30 31 -30 13 0 27 6 29 13 3 6 10 -3
17 -20 12 -34 28 -41 48 -21 8 8 8 17 1 30 -7 13 -6 22 5 33 13 13 19 13 50
-6 35 -20 49 -49 24 -49 -6 0 -9 -3 -5 -6 3 -3 2 -16 -3 -29 -7 -17 -5 -25 5
-29 8 -3 12 -12 9 -21 -7 -17 -34 -21 -34 -4 0 6 -9 9 -20 6 -22 -6 -28 8 -7
16 9 3 7 10 -5 23 -17 18 -18 17 -18 -14 0 -41 -24 -43 -39 -2 -10 29 -21 37
-34 23 -4 -3 1 -15 10 -26 10 -11 18 -35 18 -56 0 -40 -15 -67 -27 -47 -5 8
-10 8 -20 -2 -6 -6 -22 -12 -35 -12 -24 0 -32 -15 -11 -22 9 -3 8 -10 -5 -22
-10 -10 -24 -15 -32 -12 -8 3 -17 1 -20 -3 -2 -5 4 -11 15 -14 18 -5 19 -9 9
-33 -10 -27 -25 -44 -41 -44 -4 0 -4 8 -1 17 5 13 2 15 -11 10 -15 -6 -17 -3
-13 13 6 24 -2 25 -29 6 -15 -12 -17 -17 -6 -27 18 -19 15 -27 -20 -45 -29
-15 -32 -15 -43 0 -17 22 -55 21 -55 -2 0 -9 -9 -23 -20 -30 -12 -7 -18 -17
-15 -21 9 -15 -6 -40 -21 -34 -10 4 -14 -3 -14 -21 0 -21 -5 -26 -24 -26 -14
0 -28 5 -31 10 -3 6 -14 10 -23 10 -14 0 -15 -2 -2 -10 12 -8 12 -10 -3 -16
-10 -3 -17 -17 -17 -33 0 -33 -14 -56 -30 -46 -6 4 -20 -1 -30 -10 -13 -12
-33 -16 -67 -14 -27 1 -55 -1 -61 -5 -7 -4 -19 -3 -26 3 -7 6 -28 12 -46 14
-23 3 -37 11 -44 26 -5 13 -18 21 -33 21 -14 0 -21 4 -18 10 3 6 15 10 26 10
15 0 19 7 19 31 0 28 -1 29 -16 15 -20 -20 -44 -21 -44 -1 0 17 -18 19 -40 5
-12 -8 -12 -10 5 -10 17 -1 17 -2 -4 -11 -16 -6 -28 -6 -35 1 -7 7 -6 10 2 10
7 0 12 7 12 15 0 8 6 16 13 17 6 0 17 2 22 3 6 2 18 3 28 4 32 2 17 21 -17 21
-19 0 -37 4 -40 9 -3 5 -18 11 -33 14 -26 5 -26 4 -8 -9 10 -8 22 -14 27 -14
4 0 8 -4 8 -10 0 -5 -13 -10 -30 -10 -23 0 -30 4 -30 20 0 15 -7 20 -26 20
-20 0 -24 -4 -19 -19 3 -10 -1 -23 -9 -30 -13 -11 -14 -8 -9 22 5 31 3 35 -20
39 -14 3 -32 -1 -39 -8 -19 -20 -61 10 -53 36 4 14 -2 23 -22 33 -41 21 -81
28 -88 17 -4 -6 -10 -8 -15 -5 -5 3 -14 -4 -20 -15 -14 -27 -28 -25 -40 5 -10
26 -30 34 -30 12 0 -8 -12 -20 -27 -28 -16 -8 -30 -17 -33 -21 -6 -7 -44 -12
-71 -10 -9 1 -20 9 -23 18 -4 12 0 15 22 13 37 -3 72 10 72 27 0 8 -4 14 -9
14 -5 0 -7 10 -4 21 5 19 8 20 17 7 19 -26 40 -26 61 1 11 14 20 28 21 31 1 9
15 44 27 68 7 15 18 22 31 20 16 -2 22 3 24 25 2 16 11 31 19 34 13 5 11 10
-12 29 l-28 22 24 7 c42 13 50 25 34 48 -20 28 -19 67 0 67 8 0 15 5 15 10 0
6 11 15 25 20 14 5 25 15 25 21 0 7 10 9 25 7 17 -4 29 0 36 11 8 12 11 13 16
3 3 -9 14 -6 40 14 27 21 37 24 46 14 9 -10 9 -14 0 -17 -15 -5 -18 -33 -4
-33 5 0 14 6 20 14 7 8 21 12 33 8 12 -3 19 -1 15 4 -3 6 8 16 24 23 16 7 29
19 29 27 0 8 6 11 15 7 9 -3 23 2 33 10 9 8 33 17 52 19 59 5 138 3 145 -4z
m969 -105 c22 -21 54 -23 81 -3 12 10 55 -6 55 -19 0 -6 11 -13 25 -17 14 -3
25 -9 25 -13 0 -4 12 -13 26 -20 62 -28 284 -237 284 -267 0 -8 3 -14 8 -14 9
0 33 -47 56 -108 20 -52 20 -52 0 -52 -8 0 -12 -4 -9 -10 3 -5 2 -10 -3 -10
-5 0 -13 -15 -17 -32 -4 -21 -9 -28 -13 -18 -3 8 -18 28 -34 43 -15 16 -28 38
-28 49 0 11 -8 22 -20 25 -11 3 -17 10 -14 15 3 5 -4 12 -16 15 -15 4 -20 11
-17 24 3 11 1 19 -4 19 -4 0 -20 17 -34 38 -17 24 -33 37 -48 37 -12 0 -21 5
-20 12 3 16 -43 63 -82 84 -16 9 -36 27 -42 40 -8 14 -13 18 -13 9 -1 -11 -5
-10 -18 6 -10 12 -28 27 -41 33 -12 7 -20 15 -17 18 11 11 -14 42 -36 45 -13
2 -22 9 -20 16 2 10 -10 16 -29 14 -3 -1 -18 11 -32 26 -19 20 -25 34 -20 50
6 25 3 27 67 -35z m-1919 37 c-3 -5 -2 -10 4 -10 5 0 12 4 16 10 3 5 11 7 18
5 7 -2 24 -6 40 -9 27 -6 27 -7 10 -34 -9 -15 -23 -32 -31 -39 -12 -10 -13
-15 -2 -28 14 -17 7 -45 -12 -45 -7 0 -21 -13 -30 -29 -14 -26 -14 -32 -2 -42
21 -17 17 -29 -8 -30 -22 0 -22 0 2 -10 30 -12 39 -26 33 -50 -6 -20 -37 -34
-53 -24 -5 3 -10 2 -10 -4 0 -5 -15 -25 -32 -43 -30 -31 -36 -33 -65 -25 -18
5 -40 7 -49 3 -16 -6 -15 -9 6 -23 17 -12 25 -13 28 -5 6 18 29 14 35 -5 3
-10 14 -31 24 -46 18 -28 17 -29 -2 -45 -11 -9 -28 -30 -38 -45 -13 -20 -25
-27 -38 -24 -10 3 -19 0 -20 -6 0 -7 -4 -2 -9 11 -12 29 -30 28 -30 -2 0 -14
-4 -28 -10 -31 -5 -3 -10 -10 -10 -16 0 -5 5 -9 10 -9 6 0 10 7 10 15 0 8 5
15 10 15 6 0 10 -7 10 -15 0 -8 9 -15 20 -15 11 0 20 -6 20 -14 0 -23 -22 -31
-32 -12 -12 21 -27 20 -51 -1 -15 -13 -21 -15 -24 -5 -3 7 -22 12 -47 12 -23
0 -47 5 -54 12 -9 9 -12 8 -12 -5 0 -11 -8 -17 -21 -17 -15 0 -19 -5 -14 -19
3 -10 1 -29 -4 -42 -8 -21 -10 -17 -10 24 -1 50 -16 62 -31 25 -8 -21 -9 -22
-10 -3 -1 17 -3 17 -11 -5 -6 -13 -8 -34 -5 -45 3 -11 1 -27 -4 -35 -7 -11
-10 -8 -10 15 0 22 -3 26 -12 17 -7 -7 -17 -8 -29 -1 -26 14 -18 119 17 204
66 167 168 307 310 428 90 76 233 156 209 117z m1810 -4 c12 -12 11 -15 -5
-19 -15 -4 -20 0 -20 14 0 23 7 24 25 5z m-1445 -22 c0 -8 -4 -12 -10 -9 -5 3
-10 10 -10 16 0 5 5 9 10 9 6 0 10 -7 10 -16z m1260 -76 c0 -13 -24 -8 -45 9
-16 12 -16 14 -3 10 10 -3 20 -1 24 5 6 10 23 -7 24 -24z m-1510 -53 c0 -8 -4
-15 -10 -15 -5 0 -10 7 -10 15 0 8 5 15 10 15 6 0 10 -7 10 -15z m195 -15 c-3
-5 -12 -10 -18 -10 -7 0 -6 4 3 10 19 12 23 12 15 0z m-245 -25 c0 -16 -6 -25
-15 -25 -16 0 -19 9 -9 34 9 25 24 19 24 -9z m65 -15 c-3 -5 -13 -10 -21 -10
-8 0 -14 5 -14 10 0 6 9 10 21 10 11 0 17 -4 14 -10z m145 -30 c0 -5 -7 -10
-16 -10 -8 0 -12 5 -9 10 3 6 10 10 16 10 5 0 9 -4 9 -10z m-190 -10 c0 -5 -4
-10 -10 -10 -5 0 -10 5 -10 10 0 6 5 10 10 10 6 0 10 -4 10 -10z m170 -28 c0
-4 -9 -8 -20 -8 -11 0 -20 4 -20 8 0 4 9 8 20 8 11 0 20 -4 20 -8z m1394 -33
c-3 -5 -10 -7 -15 -3 -5 3 -7 10 -3 15 3 5 10 7 15 3 5 -3 7 -10 3 -15z
m-1459 -9 c3 -5 -1 -10 -9 -10 -8 0 -18 5 -21 10 -3 6 1 10 9 10 8 0 18 -4 21
-10z m1575 -22 c-11 -12 -22 -19 -25 -17 -7 8 28 48 37 43 4 -3 -1 -15 -12
-26z m-1600 -60 c0 -5 -4 -8 -10 -8 -5 0 -10 10 -10 23 0 18 2 19 10 7 5 -8
10 -18 10 -22z m-183 -110 c-3 -8 -6 -5 -6 6 -1 11 2 17 5 13 3 -3 4 -12 1
-19z m376 15 c-7 -2 -19 -2 -25 0 -7 3 -2 5 12 5 14 0 19 -2 13 -5z m-291 -71
c9 -9 9 -12 0 -12 -22 0 -13 -15 17 -28 15 -7 36 -10 45 -6 11 4 16 1 16 -10
0 -10 9 -16 23 -17 16 -1 18 -2 5 -6 -10 -2 -18 -10 -19 -16 0 -7 -4 -2 -9 11
-16 39 -110 24 -110 -17 0 -31 -21 -40 -57 -25 -36 15 -42 34 -18 54 8 7 12
16 9 21 -10 16 -24 9 -24 -11 0 -11 -7 -20 -16 -20 -8 0 -13 -4 -9 -9 3 -5 1
-12 -4 -15 -5 -3 -9 10 -9 29 0 19 4 35 9 35 14 0 11 28 -3 33 -7 2 9 4 35 4
26 0 53 5 59 11 14 14 44 10 60 -6z m-176 -98 c-3 -9 -6 -27 -6 -40 0 -15 -6
-24 -16 -24 -11 0 -14 5 -10 16 3 9 6 27 6 40 0 15 6 24 16 24 11 0 14 -5 10
-16z m-92 -65 c-3 -6 2 -16 11 -23 10 -7 16 -19 13 -27 -3 -10 -12 -6 -31 15
-21 22 -24 32 -16 42 12 15 33 8 23 -7z m183 5 c-3 -3 -12 -4 -19 -1 -8 3 -5
6 6 6 11 1 17 -2 13 -5z m1119 -45 c8 -14 -18 -31 -30 -19 -9 9 0 30 14 30 5
0 12 -5 16 -11z m-432 -24 c18 -14 18 -15 1 -21 -11 -5 -22 -2 -29 8 -6 8 -18
17 -26 21 -9 3 -6 6 10 6 14 0 34 -6 44 -14z m286 -5 c0 -5 -4 -10 -10 -10 -5
0 -10 5 -10 10 0 6 5 10 10 10 6 0 10 -4 10 -10z m140 -90 c8 -5 11 -10 5 -10
-5 0 -17 5 -25 10 -8 5 -10 10 -5 10 6 0 17 -5 25 -10z m-390 -30 c6 -11 8
-25 5 -30 -9 -14 -45 12 -45 32 0 24 27 23 40 -2z m248 12 c9 -6 5 -12 -14
-21 -17 -8 -31 -8 -37 -2 -22 22 21 41 51 23z m72 -37 c0 -8 -4 -15 -10 -15
-5 0 -7 7 -4 15 4 8 8 15 10 15 2 0 4 -7 4 -15z m-260 -5 c0 -5 -5 -10 -11
-10 -5 0 -7 5 -4 10 3 6 8 10 11 10 2 0 4 -4 4 -10z m-257 -17 c-18 -7 -16
-33 2 -33 8 0 15 7 15 15 0 17 16 20 26 4 3 -6 16 -8 29 -5 14 4 28 0 35 -9
17 -20 27 -19 35 6 6 17 12 19 38 13 18 -3 52 -17 77 -30 25 -13 65 -25 90
-27 56 -3 85 -19 77 -41 -5 -12 -14 -14 -37 -10 l-30 7 1 -54 c1 -30 3 -46 6
-36 2 9 10 17 18 17 7 0 18 14 24 30 8 26 15 30 38 28 23 -2 29 1 31 21 3 20
0 23 -17 18 -12 -3 -21 -1 -21 4 0 15 37 10 54 -7 18 -17 18 -20 10 -51 -5
-18 -14 -23 -38 -24 -29 0 -29 -1 -8 -9 18 -8 21 -15 16 -35 -7 -29 2 -32 33
-10 15 11 24 12 29 4 3 -6 0 -15 -7 -20 -12 -7 -11 -9 1 -9 12 -1 11 -4 -3
-15 -28 -20 -18 -51 14 -47 20 2 28 -2 33 -20 8 -33 8 -33 -16 -34 -13 -1 -33
-5 -46 -9 -20 -6 -23 -4 -20 11 2 14 -2 18 -16 16 -17 -3 -38 4 -88 29 -24 12
-28 11 -28 -4 0 -8 -10 -13 -22 -13 -14 1 -24 -6 -26 -16 -3 -14 3 -18 26 -18
41 0 62 -9 56 -24 -3 -7 6 -21 20 -30 15 -9 26 -23 26 -32 0 -13 -6 -11 -30 6
-17 12 -28 25 -25 30 3 4 -4 10 -14 13 -14 3 -17 0 -14 -13 4 -13 -2 -19 -19
-22 -28 -4 -40 -48 -13 -48 9 0 13 -5 10 -10 -5 -8 -11 -8 -19 -1 -7 6 -21 8
-32 5 -15 -4 -28 3 -47 25 -15 19 -31 29 -40 25 -8 -3 -18 -1 -22 5 -11 18
-47 12 -66 -11 -22 -25 -26 -46 -5 -29 10 9 15 8 19 -4 4 -8 3 -14 -1 -13 -4
1 -18 -2 -31 -6 -15 -5 -26 -4 -31 4 -9 14 -86 9 -83 -6 2 -14 -58 -15 -75 -1
-8 6 -23 12 -35 14 -11 2 -27 9 -36 16 -12 10 -14 9 -9 -4 4 -9 -2 -28 -12
-43 l-17 -28 -7 27 c-5 19 -11 25 -22 21 -21 -8 -40 4 -24 14 8 5 7 9 -4 13
-12 5 -16 0 -16 -23 0 -17 5 -30 10 -30 6 0 10 -4 10 -10 0 -5 -6 -7 -14 -4
-8 3 -17 25 -21 50 -3 24 -10 44 -16 44 -8 0 -13 -15 -10 -32 1 -7 -12 -9 -76
-12 -12 -1 -17 5 -15 16 2 15 -4 16 -50 11 -29 -3 -54 -10 -56 -15 -6 -15 -52
-9 -52 7 0 19 -46 31 -63 16 -9 -7 -24 -8 -48 -1 -46 13 -82 13 -73 -1 4 -8 0
-7 -15 1 l-22 11 23 30 c13 16 37 45 55 65 18 20 35 45 38 55 4 10 15 19 26
19 14 0 19 -7 19 -29 0 -29 24 -49 35 -31 4 6 1 10 -4 10 -14 0 -14 37 -1 45
11 7 63 -41 72 -66 4 -11 23 -18 60 -22 29 -2 55 -3 58 0 12 11 -37 33 -72 33
l-38 0 2 45 c1 37 5 45 21 45 15 0 17 -3 8 -14 -14 -16 4 -26 50 -26 24 0 29
4 29 25 0 29 17 33 36 8 13 -17 13 -17 14 0 0 9 8 17 18 17 14 0 15 -2 2 -10
-13 -8 -12 -10 3 -10 9 0 25 9 34 19 9 11 19 18 23 16 3 -2 5 9 2 24 -4 26 -2
28 27 23 25 -3 30 -1 25 11 -8 21 30 42 44 24 5 -6 11 -18 14 -26 3 -11 9 -9
26 9 18 19 22 21 22 7 0 -9 11 -19 25 -23 31 -8 33 -6 41 34 5 25 3 32 -9 32
-9 0 -18 -4 -21 -9 -8 -12 -53 -2 -67 15 -7 8 -7 14 -1 14 5 0 15 14 22 30 7
17 16 30 20 30 5 0 15 3 24 6 11 4 16 1 16 -10 0 -10 -9 -16 -25 -16 -33 0
-32 -12 2 -27 37 -18 42 -16 35 9 -4 17 -2 20 12 15 14 -5 17 -2 16 16 -3 34
-2 37 23 36 12 0 16 -3 10 -6z m655 -89 c12 -8 22 -20 22 -26 0 -6 -10 -2 -23
10 -15 15 -30 20 -47 16 -20 -5 -22 -3 -10 5 20 15 32 14 58 -5z m197 -13 c3
-5 1 -12 -5 -16 -5 -3 -10 1 -10 9 0 18 6 21 15 7z m-245 -11 c13 0 13 -1 0
-10 -18 -12 -70 -13 -70 -2 0 16 14 23 35 18 11 -3 27 -6 35 -6z m-934 -76
c-3 -9 -6 -18 -6 -20 0 -10 -59 -3 -66 7 -5 8 1 10 19 7 16 -3 28 0 31 8 3 8
10 14 17 14 6 0 8 -7 5 -16z m1325 -27 c-8 -8 -11 -7 -11 4 0 9 3 19 7 23 4 4
9 2 11 -4 3 -7 -1 -17 -7 -23z m-123 -1 c5 -22 -20 -20 -40 3 -16 19 -15 19
10 17 15 -2 28 -10 30 -20z m-252 -41 c-14 -21 -15 -29 -5 -41 13 -15 7 -27
-15 -30 -9 -1 -12 5 -9 17 3 11 1 25 -4 32 -6 6 -13 20 -17 31 -6 16 -3 18 24
13 19 -4 30 -2 30 5 0 6 3 8 6 5 4 -4 -1 -18 -10 -32z m-2776 -8 c69 -28 194
-98 236 -133 l29 -23 -85 0 c-47 0 -168 6 -270 14 -102 8 -245 15 -317 15 -73
0 -133 3 -133 8 0 10 80 62 148 96 121 61 274 70 392 23z m2947 27 c-3 -3 -12
-4 -19 -1 -8 3 -5 6 6 6 11 1 17 -2 13 -5z m128 -4 c4 -6 15 -8 25 -5 12 4 26
-1 38 -13 12 -12 25 -16 32 -12 9 6 7 11 -6 19 -18 10 -18 10 0 11 11 0 27 -7
37 -16 17 -15 17 -18 2 -40 -8 -13 -22 -24 -29 -24 -13 0 -18 -12 -15 -32 0
-5 -7 -9 -16 -10 -10 0 -23 -2 -29 -2 -6 -1 -23 -8 -37 -15 -21 -11 -29 -11
-41 -2 -11 10 -17 6 -30 -20 -17 -33 -19 -33 32 -12 7 3 12 -3 12 -15 0 -28
-78 -47 -97 -24 -6 8 -18 12 -25 9 -37 -13 -66 42 -32 61 11 6 13 11 5 16 -6
4 -11 16 -11 27 0 10 -4 19 -10 19 -5 0 -10 9 -10 20 0 13 9 22 25 26 29 7 46
-3 26 -15 -10 -6 -9 -10 4 -15 20 -7 35 0 35 18 0 12 32 33 75 47 29 10 33 10
40 -1z m-239 -56 c-18 -19 -25 -6 -13 21 10 20 13 21 18 7 3 -9 1 -22 -5 -28z
m-71 -121 l-27 -28 7 25 c11 36 26 53 38 41 6 -6 0 -20 -18 -38z m-125 -17 c0
-20 -19 -31 -32 -18 -6 6 -7 15 -4 21 10 16 36 13 36 -3z m200 6 c0 -13 -12
-22 -22 -16 -10 6 -1 24 13 24 5 0 9 -4 9 -8z m-1485 -52 c3 -6 -1 -7 -9 -4
-18 7 -21 14 -7 14 6 0 13 -4 16 -10z m652 -46 c-3 -3 -12 -4 -19 -1 -8 3 -5
6 6 6 11 1 17 -2 13 -5z m-984 -163 c-6 -22 -53 -26 -53 -4 0 8 4 12 9 9 5 -3
14 1 21 9 16 19 30 11 23 -14z m-73 -206 c0 -8 -4 -15 -10 -15 -5 0 -10 7 -10
15 0 8 5 15 10 15 6 0 10 -7 10 -15z m-2320 -29 c0 -16 -14 -36 -26 -36 -14 0
-19 22 -7 33 7 8 33 10 33 3z m-80 -271 c0 -8 -2 -15 -4 -15 -2 0 -6 7 -10 15
-3 8 -1 15 4 15 6 0 10 -7 10 -15z m4133 -16 c22 -10 26 -21 36 -98 6 -48 11
-104 11 -123 0 -20 5 -38 11 -40 7 -2 7 -12 -1 -33 -8 -21 -8 -31 -1 -33 14
-5 14 -29 1 -34 -5 -1 -11 -35 -13 -74 -2 -38 -7 -76 -12 -84 -5 -8 -2 -18 9
-26 13 -9 16 -21 12 -51 -5 -28 -4 -33 3 -18 8 17 10 16 10 -12 1 -18 -3 -33
-9 -33 -21 0 -11 -85 15 -120 13 -18 22 -36 20 -40 -3 -4 0 -42 5 -85 8 -67 8
-80 -8 -100 -9 -14 -23 -25 -29 -25 -7 0 -13 -4 -13 -9 0 -5 -19 -19 -43 -31
-38 -19 -48 -20 -102 -10 -106 20 -155 23 -155 9 0 -9 -5 -8 -17 3 -10 8 -26
18 -36 22 -11 3 -21 15 -24 26 -5 19 -6 19 -32 1 -32 -23 -46 -12 -56 43 -6
28 -4 37 9 42 9 3 16 14 16 23 0 9 13 22 29 29 17 7 35 26 42 41 7 15 25 35
41 44 15 9 28 23 28 32 0 8 5 15 11 15 8 0 10 17 5 53 -3 28 -7 75 -8 102 l-2
51 -32 -4 c-18 -2 -40 -13 -50 -23 -29 -32 -52 -24 -64 21 -11 42 -1 80 23 80
7 0 23 13 37 30 16 20 36 31 55 33 25 2 30 -2 35 -28 3 -16 11 -29 18 -28 6 2
9 -4 6 -12 -4 -8 -12 -15 -20 -15 -8 0 -14 -4 -14 -10 0 -22 26 -8 49 25 22
32 23 39 12 74 -6 21 -11 50 -11 65 0 14 -4 26 -10 26 -17 0 -11 25 9 37 11 7
21 25 23 40 2 23 7 28 28 25 33 -4 63 50 63 110 0 24 4 49 10 56 5 6 6 12 2
12 -9 0 37 39 47 40 4 0 18 -5 31 -11z m-1968 -149 c-11 -5 -29 -9 -40 -9 -17
-1 -17 1 -5 9 8 5 26 9 40 9 23 0 23 -1 5 -9z m-117 -84 c4 -17 0 -18 -29 -11
-19 5 -49 8 -67 8 -33 0 -33 1 -10 14 35 19 102 13 106 -11z m-235 -23 c-7 -2
-19 -2 -25 0 -7 3 -2 5 12 5 14 0 19 -2 13 -5z m-1328 -214 c11 -10 -9 -12
-42 -3 -13 4 -20 10 -17 16 6 9 43 2 59 -13z m2132 -93 c-3 -8 0 -20 8 -26 7
-6 15 -20 18 -30 4 -15 0 -20 -14 -20 -14 0 -19 -7 -19 -27 0 -16 -4 -23 -8
-18 -10 14 -42 15 -42 2 0 -6 -2 -8 -4 -6 -8 8 14 93 30 117 16 24 39 30 31 8z
m63 -6 c0 -5 -5 -10 -11 -10 -5 0 -7 5 -4 10 3 6 8 10 11 10 2 0 4 -4 4 -10z
m1085 -70 c3 -5 -1 -10 -10 -10 -9 0 -13 5 -10 10 3 6 8 10 10 10 2 0 7 -4 10
-10z m-365 -31 c0 -17 27 -39 50 -39 20 0 20 -1 -4 -26 -13 -15 -27 -40 -30
-55 -6 -29 10 -79 25 -79 5 0 6 -6 3 -13 -2 -7 -25 -19 -50 -26 -36 -11 -48
-20 -56 -42 -5 -16 -14 -26 -19 -23 -5 3 -9 -5 -9 -17 0 -17 -4 -20 -25 -16
-22 4 -25 1 -23 -16 2 -16 -4 -24 -27 -30 -16 -5 -38 -13 -48 -19 -10 -5 -22
-6 -26 -3 -5 2 -14 -2 -21 -10 -18 -22 -43 -19 -37 4 4 16 -2 20 -30 23 -19 2
-36 0 -39 -4 -3 -4 -12 -8 -20 -8 -11 0 -14 14 -14 60 0 50 -3 60 -17 60 -17
1 -17 1 0 14 9 7 17 19 17 25 0 15 25 41 39 41 5 0 12 8 15 18 3 10 19 23 35
29 17 6 38 24 48 39 12 20 27 30 48 31 17 1 50 4 75 5 32 2 45 7 45 18 0 25
22 40 56 40 27 0 30 2 19 15 -10 12 -10 15 4 15 9 0 16 -5 16 -11z m54 -135
c11 -28 6 -38 -9 -18 -8 10 -15 22 -15 27 0 13 18 7 24 -9z m-505 -147 c-2 -1
-12 -9 -22 -16 -15 -12 -17 -12 -11 3 3 9 13 16 22 16 8 0 13 -1 11 -3z m751
-62 c0 -8 -4 -15 -10 -15 -5 0 -10 7 -10 15 0 8 5 15 10 15 6 0 10 -7 10 -15z
m-140 -4 c0 -5 -6 -11 -12 -14 -7 -2 -2 -2 12 0 29 4 55 -10 46 -25 -6 -11
-92 -9 -103 2 -3 3 5 14 18 25 26 22 39 26 39 12z m60 -1 c0 -5 -5 -10 -11
-10 -5 0 -7 5 -4 10 3 6 8 10 11 10 2 0 4 -4 4 -10z m-500 -94 c0 -3 -4 -8
-10 -11 -5 -3 -10 -1 -10 4 0 6 5 11 10 11 6 0 10 -2 10 -4z m-60 -126 c0 -5
-7 -10 -15 -10 -8 0 -15 5 -15 10 0 6 7 10 15 10 8 0 15 -4 15 -10z m226 -150
c4 -22 12 -40 19 -40 15 0 25 -22 25 -56 0 -18 -5 -24 -22 -24 -22 0 -88 -52
-88 -70 0 -4 6 -11 13 -13 6 -3 -12 -6 -40 -6 l-53 -1 0 44 c0 38 -3 45 -22
49 -13 2 -8 4 10 3 17 -1 32 3 32 9 1 17 48 65 65 65 8 0 15 4 15 9 0 4 -20 7
-45 6 -45 -2 -59 7 -29 19 9 3 28 6 42 6 16 0 32 8 40 20 19 31 31 24 38 -20z
m-206 -140 c0 -5 -7 -10 -16 -10 -8 0 -12 5 -9 10 3 6 10 10 16 10 5 0 9 -4 9
-10z m241 -53 c-1 -12 -15 -9 -19 4 -3 6 1 10 8 8 6 -3 11 -8 11 -12z m519
-208 c0 -5 11 -14 25 -19 36 -14 32 -34 -5 -27 -59 12 -102 57 -67 70 15 5 47
-10 47 -24z m-1414 -95 c-3 -8 -10 -12 -16 -9 -7 4 -6 14 2 28 12 24 24 8 14
-19z m1619 26 c-3 -5 -19 -10 -36 -10 -16 0 -29 5 -29 10 0 6 16 10 36 10 21
0 33 -4 29 -10z m-1656 -201 c-8 -5 -19 -7 -26 -4 -15 5 -37 -21 -28 -35 3 -6
10 -8 15 -5 4 3 10 -4 13 -15 4 -15 0 -20 -14 -20 -10 0 -19 -7 -19 -15 0 -9
-6 -18 -14 -21 -10 -4 -12 -16 -9 -45 4 -25 2 -39 -6 -39 -6 0 -11 -4 -11 -10
0 -9 -7 -18 -55 -71 -8 -9 -15 -23 -15 -32 0 -10 -4 -17 -9 -17 -5 0 -11 -9
-14 -20 -3 -11 -1 -20 4 -20 5 0 9 -4 9 -10 0 -5 -10 -10 -23 -10 -13 0 -32
-7 -43 -15 -31 -23 -44 -19 -34 13 33 106 119 302 132 302 4 0 8 4 8 9 0 6 11
22 25 37 13 14 22 30 19 35 -3 5 0 18 6 30 9 15 19 20 36 16 13 -2 24 0 24 4
0 5 10 -1 21 -12 17 -17 19 -23 8 -30z m-2484 -104 c95 -37 139 -41 181 -15
20 11 37 20 39 18 16 -22 69 -254 60 -268 -17 -27 -248 9 -330 51 -71 37 -117
74 -128 102 -12 32 3 85 34 118 33 35 41 35 144 -6z m4060 -114 c52 -14 216
-21 236 -10 21 11 99 -10 93 -25 -5 -13 -10 -14 -99 -19 -33 -2 -72 -7 -87
-11 -18 -5 -34 -2 -51 9 -15 9 -35 14 -48 10 -41 -10 -174 -11 -185 -1 -12 11
-6 68 8 77 5 3 28 0 51 -7 23 -7 60 -18 82 -23z m1915 -101 c0 -5 -5 -10 -11
-10 -5 0 -7 5 -4 10 3 6 8 10 11 10 2 0 4 -4 4 -10z m-3764 -512 c-10 -49 -26
-59 -26 -17 0 36 6 49 23 49 5 0 7 -14 3 -32z m3634 -468 c10 -19 10 -20 -9
-8 -11 6 -17 16 -15 20 8 12 12 10 24 -12z m-3 -442 c-3 -8 -6 -5 -6 6 -1 11
2 17 5 13 3 -3 4 -12 1 -19z m-126 -91 c-8 -8 -11 -4 -11 14 0 33 14 47 18 19
2 -12 -1 -27 -7 -33z m-1 -31 c0 -8 -4 -18 -10 -21 -5 -3 -10 3 -10 14 0 12 5
21 10 21 6 0 10 -6 10 -14z m-3905 -98 c-2 -18 -3 -45 -4 -60 -1 -16 -6 -28
-11 -28 -11 0 -7 73 5 103 10 25 13 21 10 -15z m-35 -62 c0 -3 -4 -8 -10 -11
-5 -3 -10 -1 -10 4 0 6 5 11 10 11 6 0 10 -2 10 -4z m3897 -98 c-3 -7 -5 -2
-5 12 0 14 2 19 5 13 2 -7 2 -19 0 -25z m-3157 -18 c0 -5 -5 -10 -11 -10 -5 0
-7 5 -4 10 3 6 8 10 11 10 2 0 4 -4 4 -10z m3335 -90 c-3 -5 -12 -7 -20 -3
-21 7 -19 13 6 13 11 0 18 -4 14 -10z m186 -28 c-7 -2 -18 1 -23 6 -8 8 -4 9
13 5 13 -4 18 -8 10 -11z m-186 -11 c3 -6 -4 -15 -15 -21 -16 -8 -20 -8 -20 3
0 25 23 36 35 18z m-25 -67 c0 -8 -4 -14 -10 -14 -5 0 -10 9 -10 21 0 11 5 17
10 14 6 -3 10 -13 10 -21z"/>
<path d="M5709 6580 c-23 -18 -23 -19 -4 -19 20 0 55 21 55 33 0 13 -29 5 -51
-14z"/>
<path d="M6620 6160 c0 -5 5 -10 10 -10 6 0 10 5 10 10 0 6 -4 10 -10 10 -5 0
-10 -4 -10 -10z"/>
<path d="M5840 6120 c0 -6 7 -10 15 -10 8 0 15 2 15 4 0 2 -7 6 -15 10 -8 3
-15 1 -15 -4z"/>
<path d="M6090 6015 c0 -8 5 -15 10 -15 6 0 10 7 10 15 0 8 -4 15 -10 15 -5 0
-10 -7 -10 -15z"/>
<path d="M5217 6393 c-4 -3 -7 -11 -7 -16 0 -6 3 -8 6 -4 6 5 15 0 49 -31 16
-14 55 -8 55 9 0 5 -8 9 -19 9 -10 0 -30 9 -44 20 -28 22 -31 23 -40 13z"/>
<path d="M5200 6284 c0 -8 5 -12 10 -9 6 4 8 11 5 16 -9 14 -15 11 -15 -7z"/>
<path d="M5997 5609 c-3 -13 -1 -19 6 -16 15 5 22 37 9 37 -5 0 -12 -9 -15
-21z"/>
<path d="M5441 5384 c0 -11 3 -14 6 -6 3 7 2 16 -1 19 -3 4 -6 -2 -5 -13z"/>
<path d="M5745 5220 c-8 -13 8 -18 29 -10 19 6 19 7 -2 12 -12 4 -24 2 -27 -2z"/>
<path d="M6772 5371 c-23 -6 -32 -23 -15 -28 9 -3 49 25 42 30 -2 2 -14 1 -27
-2z"/>
<path d="M6071 4014 c0 -11 3 -14 6 -6 3 7 2 16 -1 19 -3 4 -6 -2 -5 -13z"/>
<path d="M5541 3747 c-14 -17 -4 -27 26 -27 16 0 23 6 23 20 0 23 -31 27 -49
7z"/>
<path d="M5567 3654 c-8 -8 1 -24 14 -24 5 0 9 7 9 15 0 15 -12 20 -23 9z"/>
<path d="M5328 3423 c6 -2 18 -2 25 0 6 3 1 5 -13 5 -14 0 -19 -2 -12 -5z"/>
<path d="M5381 2908 c-1 -16 4 -28 9 -28 12 0 12 8 0 35 -8 18 -9 17 -9 -7z"/>
<path d="M0 3440 c0 -269 4 -315 25 -280 11 18 25 0 25 -34 0 -50 20 -60 128
-64 159 -7 317 29 328 75 8 31 -9 139 -21 136 -6 -1 -41 -14 -78 -28 -110 -41
-367 -48 -367 -11 0 8 11 21 25 30 29 19 182 55 233 56 35 0 39 6 18 29 -7 9
-23 50 -36 91 -30 101 -53 144 -108 199 -45 44 -125 91 -156 91 -12 0 -15 -45
-16 -290z"/>
<path d="M43 3026 l-43 -10 0 -93 0 -93 30 0 c16 0 47 7 68 15 38 15 40 15
100 -15 68 -35 109 -71 147 -128 23 -34 28 -64 50 -253 31 -261 33 -275 55
-319 10 -20 23 -83 30 -144 19 -183 17 -180 87 -151 19 8 37 15 39 15 8 0 22
-38 29 -76 l6 -42 -65 -23 c-36 -13 -66 -27 -66 -30 0 -17 32 -16 69 2 34 16
71 25 71 17 0 -2 13 -70 29 -152 17 -82 28 -153 25 -157 -2 -4 0 -10 6 -14 6
-4 8 -10 5 -15 -3 -4 1 -30 9 -56 8 -27 22 -85 32 -129 22 -106 38 -131 93
-150 106 -36 323 0 466 77 65 35 112 99 101 137 -3 9 -8 59 -11 111 -9 130
-20 170 -48 170 -21 0 -21 1 3 13 23 12 25 18 25 85 0 39 -3 72 -7 72 -5 0 -8
7 -8 16 0 8 5 12 10 9 6 -3 10 3 10 15 0 13 -4 19 -12 14 -8 -5 -9 6 -4 42 4
27 9 81 10 121 2 40 8 78 14 85 21 25 110 50 155 44 135 -19 150 -19 144 -3
-4 10 0 17 11 20 15 4 15 5 -1 6 -10 0 -16 5 -12 10 3 5 1 12 -5 16 -17 11 7
42 42 55 18 7 60 16 93 20 l60 7 -55 2 c-31 0 -82 -6 -113 -14 -32 -8 -62 -15
-66 -15 -5 0 -28 25 -52 56 -23 31 -82 87 -130 125 -48 39 -90 76 -92 84 -3 7
1 21 8 32 15 19 21 109 8 115 -5 2 -22 -11 -39 -29 -19 -19 -27 -34 -20 -37 6
-3 5 -5 -3 -5 -21 -1 -40 -33 -35 -61 4 -20 -4 -31 -42 -60 -26 -19 -54 -36
-63 -37 -9 -2 -27 -6 -41 -9 -50 -9 -55 -11 -70 -16 -8 -4 -33 -9 -55 -12 -22
-2 -51 -8 -65 -11 -14 -3 -79 -7 -145 -9 -116 -3 -175 5 -175 26 0 5 -12 9
-27 8 -16 -1 -35 -2 -43 -1 -13 1 -13 2 0 11 8 5 15 14 15 20 0 6 7 15 15 21
13 9 12 10 -2 5 -10 -3 -24 1 -32 9 -8 9 -22 12 -33 9 -17 -6 -17 -6 -1 7 17
13 16 15 -7 26 -24 11 -25 10 -25 -28 0 -42 -17 -53 -24 -16 -11 55 -16 127
-8 127 5 0 14 10 21 23 18 33 73 68 174 108 84 34 89 37 68 49 -13 6 -56 12
-96 11 l-73 -1 -6 31 c-12 60 -10 61 51 34 31 -14 63 -23 70 -21 29 12 9 34
-59 67 -70 33 -73 35 -76 72 -3 35 -6 38 -25 33 -12 -3 -91 -11 -175 -17 -114
-9 -156 -9 -165 0 -6 6 -11 34 -11 63 -1 83 -33 105 -123 84z m442 -215 c-7
-12 -64 -25 -72 -17 -7 7 35 24 60 25 10 1 16 -3 12 -8z m994 -557 c45 -42 89
-90 97 -107 15 -28 15 -31 -8 -51 -22 -22 -165 -72 -175 -63 -10 10 -16 297
-6 297 5 0 47 -34 92 -76z m-965 -37 c8 -12 7 -20 -2 -29 -14 -14 -18 -11 -28
26 -5 21 -4 28 6 24 8 -2 18 -12 24 -21z m686 -40 c8 -6 16 -11 17 -9 2 1 9 2
16 1 10 0 10 -2 0 -6 -8 -3 -13 -23 -13 -49 0 -33 -5 -46 -17 -51 -9 -4 -19
-1 -21 5 -2 7 -11 12 -19 12 -9 0 -13 -6 -9 -15 5 -15 -26 -39 -38 -28 -3 3
-6 -6 -6 -22 0 -27 1 -27 18 -12 22 20 72 23 73 5 0 -7 4 -2 10 10 12 32 34
22 34 -14 0 -19 5 -29 15 -29 11 0 15 10 13 34 -1 24 2 30 10 22 13 -13 10
-105 -4 -109 -5 -2 -9 -8 -9 -13 0 -6 5 -7 10 -4 25 15 27 -9 2 -30 -23 -21
-25 -26 -12 -35 10 -6 11 -10 3 -10 -22 0 -14 -19 10 -25 20 -5 22 -11 19 -43
-2 -20 -14 -47 -25 -59 -11 -13 -16 -23 -10 -23 6 0 10 -11 9 -25 0 -14 -5
-25 -9 -25 -5 0 -6 -13 -2 -28 7 -34 -9 -115 -25 -120 -6 -2 -15 -15 -20 -28
-12 -32 -35 -40 -55 -20 -20 19 -36 21 -30 3 3 -7 -9 -27 -26 -46 -27 -30 -30
-38 -24 -72 4 -26 3 -39 -4 -39 -6 0 -11 7 -11 15 0 7 -6 18 -13 22 -8 4 -22
20 -32 36 -17 26 -65 39 -65 17 0 -5 7 -10 15 -10 8 0 15 -5 15 -10 0 -7 -6
-7 -19 0 -14 7 -21 6 -23 -2 -6 -17 -38 14 -38 36 0 9 -4 16 -10 16 -5 0 -10
-9 -10 -19 0 -11 -4 -22 -8 -25 -5 -3 -5 23 -1 56 7 63 4 88 -13 88 -13 0 -38
26 -38 40 0 6 -7 13 -15 16 -12 5 -13 10 -4 20 12 14 8 101 -6 123 -5 10 -4
16 3 19 15 5 16 32 1 32 -7 0 -10 12 -7 30 4 27 3 29 -12 15 -21 -19 -36 -19
-20 0 7 8 10 22 6 30 -3 8 -1 15 5 15 6 0 17 7 26 16 12 11 13 18 4 27 -8 8
-11 7 -11 -6 0 -9 -7 -17 -15 -17 -22 0 -19 53 4 81 17 21 22 22 41 11 24 -15
40 -8 40 17 0 11 9 21 22 24 27 7 41 -1 34 -19 -3 -8 1 -14 10 -14 10 0 14 6
10 15 -3 8 -2 15 2 15 4 0 12 11 18 24 8 17 8 28 -2 41 -12 16 -14 16 -36 -9
-19 -22 -28 -26 -55 -20 -42 8 -53 34 -15 35 18 1 21 3 9 6 -17 4 -17 6 -2 23
22 24 10 43 -21 36 -14 -4 -24 -2 -24 4 0 5 9 10 20 10 11 0 20 4 20 9 0 5 9
11 20 14 12 3 20 14 20 26 0 27 16 27 23 1 7 -25 37 -16 37 11 0 25 16 24 30
-1 7 -13 21 -20 40 -20 17 0 30 -4 30 -10 0 -5 8 -10 18 -10 10 0 24 -6 31
-12 10 -11 12 -9 9 7 -2 12 -13 21 -26 23 -33 5 -27 48 6 45 12 -2 22 2 22 8
0 9 23 -6 80 -54z m-637 18 c4 -8 2 -17 -3 -20 -6 -4 -10 3 -10 14 0 25 6 27
13 6z m-53 -45 c0 -5 -5 -10 -11 -10 -5 0 -7 5 -4 10 3 6 8 10 11 10 2 0 4 -4
4 -10z m20 -68 c0 -5 -7 -17 -15 -28 -15 -19 -20 -8 -9 20 6 17 24 22 24 8z
m790 -258 c0 -8 -4 -12 -10 -9 -5 3 -10 10 -10 16 0 5 5 9 10 9 6 0 10 -7 10
-16z m-2 -145 c-15 -10 -23 14 -13 39 6 14 8 13 16 -7 7 -18 6 -27 -3 -32z
m49 -21 c-3 -8 -6 -5 -6 6 -1 11 2 17 5 13 3 -3 4 -12 1 -19z m-37 -79 c13 -9
12 -10 -2 -5 -10 3 -18 1 -18 -4 0 -6 -7 -10 -15 -10 -8 0 -15 7 -15 15 0 17
28 20 50 4z m-450 -115 c0 -8 -4 -12 -10 -9 -5 3 -10 10 -10 16 0 5 5 9 10 9
6 0 10 -7 10 -16z m377 -39 c9 -25 -4 -29 -17 -6 -7 15 -7 21 0 21 6 0 13 -7
17 -15z m-73 -51 c9 -23 8 -24 -14 -24 -19 0 -27 20 -13 33 11 11 20 8 27 -9z
m-184 -65 c0 -5 -4 -9 -10 -9 -5 0 -10 7 -10 16 0 8 5 12 10 9 6 -3 10 -10 10
-16z"/>
<path d="M1170 2145 c7 -8 16 -15 21 -15 5 0 9 7 9 15 0 9 -9 15 -21 15 -18 0
-19 -2 -9 -15z"/>
<path d="M940 2115 c0 -14 -5 -25 -12 -25 -6 0 -8 -3 -5 -6 4 -4 13 -1 22 6
17 14 21 50 5 50 -5 0 -10 -11 -10 -25z"/>
<path d="M967 1993 c-4 -3 -7 -12 -7 -20 0 -11 4 -11 20 -1 11 7 20 16 20 20
0 10 -24 10 -33 1z"/>
<path d="M1220 1873 c0 -12 5 -25 10 -28 13 -8 13 15 0 35 -8 12 -10 11 -10
-7z"/>
<path d="M1260 1761 c0 -6 5 -13 10 -16 6 -3 10 1 10 9 0 9 -4 16 -10 16 -5 0
-10 -4 -10 -9z"/>
<path d="M1227 1633 c-12 -12 -7 -33 8 -33 17 0 19 9 7 28 -5 7 -11 9 -15 5z"/>
<path d="M832 1564 c1 -9 9 -19 16 -22 9 -3 13 2 10 14 -1 9 -9 19 -16 22 -9
3 -13 -2 -10 -14z"/>
<path d="M1212 1567 c-8 -9 -12 -22 -10 -29 3 -7 -2 -18 -11 -25 -12 -9 -13
-15 -4 -23 8 -9 15 -4 28 23 9 20 15 44 13 53 -3 16 -4 16 -16 1z"/>
<path d="M882 1528 c6 -16 36 -34 44 -26 8 9 -20 38 -36 38 -6 0 -10 -5 -8
-12z"/>
<path d="M923 1443 c-15 -5 -18 -33 -4 -33 5 0 11 9 14 20 3 11 4 20 4 19 -1
0 -8 -3 -14 -6z"/>
<path d="M951 1424 c0 -11 3 -14 6 -6 3 7 2 16 -1 19 -3 4 -6 -2 -5 -13z"/>
<path d="M1070 1420 c0 -5 7 -10 16 -10 8 0 12 5 9 10 -3 6 -10 10 -16 10 -5
0 -9 -4 -9 -10z"/>
<path d="M930 1375 c0 -8 5 -15 10 -15 6 0 10 7 10 15 0 8 -4 15 -10 15 -5 0
-10 -7 -10 -15z"/>
<path d="M443 3033 c-23 -9 -14 -23 13 -21 34 3 56 28 23 27 -13 0 -30 -3 -36
-6z"/>
<path d="M495 3000 c-11 -4 -30 -10 -41 -14 -15 -5 -20 -14 -17 -27 6 -23 5
-23 48 -5 24 10 35 22 35 35 0 12 -1 21 -2 20 -2 -1 -12 -4 -23 -9z"/>
<path d="M260 2720 c0 -5 5 -10 11 -10 5 0 7 5 4 10 -3 6 -8 10 -11 10 -2 0
-4 -4 -4 -10z"/>
<path d="M47 2663 c-19 -16 -38 -37 -40 -48 -2 -11 -5 -125 -7 -252 l-2 -233
89 0 c93 0 136 7 128 20 -3 5 4 6 14 3 13 -3 23 2 30 15 11 21 3 33 -29 44
-14 5 -46 75 -38 83 12 12 80 -19 98 -45 22 -32 86 -58 101 -43 11 11 -7 173
-24 213 l-10 25 -8 -25 c-7 -25 -7 -25 -8 3 -1 16 -10 40 -21 54 -21 27 -27
63 -10 63 13 0 25 69 13 81 -5 5 -37 -11 -81 -42 -40 -28 -77 -49 -82 -47 -6
2 -1 20 10 41 20 36 20 39 4 67 -17 27 -51 50 -78 50 -7 0 -29 -12 -49 -27z
m247 -195 c6 -43 5 -48 -11 -48 -56 0 -79 66 -35 100 31 25 36 18 46 -52z
m-174 0 c0 -18 2 -58 5 -88 7 -74 -10 -24 -20 59 -5 42 -4 61 4 61 6 0 11 -15
11 -32z m-103 -50 c-2 -13 -4 -3 -4 22 0 25 2 35 4 23 2 -13 2 -33 0 -45z m13
-145 c0 -7 -4 -13 -10 -13 -5 0 -10 12 -10 28 0 21 2 24 10 12 5 -8 10 -21 10
-27z m20 -125 c0 -5 -7 -8 -15 -8 -15 0 -20 21 -8 33 7 7 23 -11 23 -25z"/>
<path d="M399 2036 c-23 -20 -154 -71 -234 -91 -16 -4 -24 -10 -18 -12 7 -3
28 0 46 6 19 7 42 9 51 5 10 -4 21 -3 25 2 3 5 18 17 33 27 21 13 33 15 53 7
21 -8 25 -16 26 -52 0 -24 2 -54 3 -68 2 -14 6 -61 10 -105 4 -44 12 -95 16
-114 10 -36 -2 -71 -23 -71 -7 0 -12 17 -13 45 -1 25 -6 51 -12 57 -7 7 -12
36 -12 64 0 29 -5 56 -11 60 -6 3 -8 15 -6 26 3 11 0 21 -8 24 -18 7 -98 -30
-88 -40 5 -5 -2 -5 -14 -2 -12 4 -47 0 -78 -8 -65 -17 -83 -13 -87 17 -2 14
-11 23 -26 25 -20 3 -23 8 -18 28 4 14 2 24 -4 24 -6 0 -10 -35 -10 -89 0 -77
4 -97 25 -137 14 -26 25 -56 25 -66 0 -24 -19 -60 -36 -71 -8 -4 -14 -25 -14
-46 0 -33 3 -38 23 -37 49 3 234 49 269 67 9 5 35 12 58 15 22 4 40 10 40 15
0 5 3 8 8 7 4 -1 22 2 40 6 48 11 62 49 56 151 -3 44 -8 87 -11 95 -6 16 -14
60 -34 183 -7 42 -15 77 -18 77 -3 0 -18 -11 -32 -24z m-361 -231 c-3 -3 -9 2
-12 12 -6 14 -5 15 5 6 7 -7 10 -15 7 -18z m169 -30 c-4 -8 -17 -15 -29 -16
-22 0 -22 -1 -3 -9 13 -5 28 -3 42 6 31 19 53 17 53 -5 0 -23 -21 -41 -52 -45
-13 -2 -36 -9 -52 -15 -17 -7 -41 -11 -55 -9 -23 3 -26 8 -29 45 l-3 41 63 15
c35 8 65 13 67 11 2 -2 1 -10 -2 -19z m-9 -137 c19 -19 14 -55 -10 -72 -31
-22 -71 -20 -92 3 -41 45 59 112 102 69z"/>
<path d="M225 1932 c6 -4 11 -15 13 -25 2 -14 -2 -17 -25 -12 -24 5 -25 5 -10
-5 10 -7 26 -8 35 -4 28 13 66 10 80 -6 12 -13 13 -13 8 3 -3 10 -6 24 -6 29
0 6 -3 8 -7 5 -3 -4 -12 1 -19 11 -12 16 -13 16 -19 0 -4 -10 -11 -18 -17 -18
-5 0 -7 4 -4 9 3 5 -1 12 -10 15 -21 8 -31 7 -19 -2z"/>
<path d="M90 1920 c0 -13 11 -13 30 0 12 8 11 10 -7 10 -13 0 -23 -4 -23 -10z"/>
<path d="M20 1916 c0 -9 40 -13 46 -5 3 5 -6 9 -20 9 -14 0 -26 -2 -26 -4z"/>
<path d="M175 1870 c-3 -5 3 -10 15 -10 12 0 18 5 15 10 -3 6 -10 10 -15 10
-5 0 -12 -4 -15 -10z"/>
<path d="M25 1860 c3 -5 10 -10 16 -10 5 0 9 5 9 10 0 6 -7 10 -16 10 -8 0
-12 -4 -9 -10z"/>
<path d="M95 1850 c-3 -5 1 -10 9 -10 9 0 16 5 16 10 0 6 -4 10 -9 10 -6 0
-13 -4 -16 -10z"/>
<path d="M3525 1800 l-110 -6 100 -1 c55 0 129 3 165 7 l65 7 -55 -1 c-30 0
-104 -3 -165 -6z"/>
<path d="M2770 1789 c-19 -4 118 -6 305 -6 187 0 322 2 300 4 -84 6 -572 8
-605 2z"/>
<path d="M8297 1356 c-6 -15 6 -29 35 -39 23 -8 32 8 18 33 -12 23 -45 27 -53
6z"/>
<path d="M2502 1335 c-33 -72 -62 -207 -62 -289 0 -57 4 -86 11 -86 8 0 10 14
6 40 -3 28 1 59 16 98 16 46 50 250 42 260 -1 1 -7 -9 -13 -23z"/>
<path d="M4825 969 c-9 -14 -2 -20 14 -10 8 6 9 11 3 15 -6 3 -14 1 -17 -5z"/>
<path d="M2440 916 c0 -8 5 -18 10 -21 6 -3 10 1 10 9 0 8 -4 18 -10 21 -5 3
-10 -1 -10 -9z"/>
<path d="M2452 755 c2 -69 0 -125 -4 -125 -5 0 -8 -14 -8 -32 0 -58 -9 -36
-45 115 -9 38 -23 71 -30 74 -8 2 -11 12 -8 21 4 11 3 14 -4 7 -22 -23 -36
-146 -28 -254 5 -58 9 -119 10 -136 1 -16 5 -63 9 -102 7 -62 6 -73 -7 -73 -9
0 -18 6 -21 13 -3 6 -4 0 -1 -16 3 -15 1 -27 -4 -27 -5 0 -9 -12 -8 -27 2 -24
-2 -28 -20 -26 -24 3 -27 -6 -23 -57 1 -14 6 -26 11 -28 5 -2 9 -17 9 -33 0
-28 -1 -29 -21 -16 -26 19 -59 11 -59 -14 0 -18 11 -19 215 -19 118 0 215 4
215 9 0 5 -9 29 -20 54 -11 25 -25 81 -30 124 -17 141 -27 197 -48 260 -11 34
-24 88 -27 120 -4 32 -9 66 -11 75 -1 9 -6 48 -10 85 -4 37 -8 77 -9 88 -1 11
-3 30 -4 43 0 12 -6 22 -12 22 -7 0 -9 -42 -7 -125z m-104 -527 c-2 -6 -10
-14 -16 -16 -7 -2 -10 2 -6 12 7 18 28 22 22 4z"/>
<path d="M8210 646 c0 -2 7 -6 15 -10 8 -3 15 -1 15 4 0 6 -7 10 -15 10 -8 0
-15 -2 -15 -4z"/>
<path d="M4930 630 c0 -5 5 -10 11 -10 5 0 7 5 4 10 -3 6 -8 10 -11 10 -2 0
-4 -4 -4 -10z"/>
<path d="M8220 578 l-25 -9 23 -19 c13 -11 24 -30 26 -44 4 -35 26 -60 40 -45
8 8 8 13 -2 16 -6 3 -9 9 -6 14 11 18 -6 59 -24 59 -14 0 -15 2 -2 10 24 15 0
30 -30 18z"/>
<path d="M8150 525 c0 -8 5 -17 10 -20 6 -3 10 -14 10 -23 0 -15 -2 -15 -11
-2 -8 11 -9 8 -3 -15 3 -16 7 -49 8 -72 0 -38 3 -42 21 -37 31 10 38 21 37 59
-1 19 3 35 8 35 6 0 10 7 10 15 0 8 -4 15 -9 15 -5 0 -8 7 -7 16 0 11 -13 21
-36 30 -32 11 -38 11 -38 -1z"/>
<path d="M8791 411 c-1 -9 -9 -11 -23 -8 -12 4 -32 4 -44 1 -20 -5 -21 -8 -8
-33 7 -14 40 -56 74 -91 33 -36 60 -73 60 -82 0 -10 9 -22 20 -28 11 -6 20
-17 20 -25 0 -25 17 -17 24 10 8 30 1 45 -20 45 -19 0 -18 10 4 26 16 13 16
15 -1 25 -11 6 -16 17 -12 29 3 11 0 20 -10 24 -8 3 -15 12 -15 21 0 8 -4 15
-10 15 -5 0 -10 6 -10 14 0 7 -9 16 -19 19 -11 2 -21 15 -24 28 -2 13 -5 18
-6 10z"/>
<path d="M8140 316 c0 -8 7 -16 15 -20 17 -6 18 -4 9 18 -8 20 -24 21 -24 2z"/>
<path d="M8896 101 c-4 -7 -5 -15 -2 -18 9 -9 19 4 14 18 -4 11 -6 11 -12 0z"/>
<path d="M8866 43 c-3 -4 -6 -15 -6 -25 0 -13 8 -18 31 -18 23 0 30 4 27 16
-3 18 -42 37 -52 27z"/>
</g>
</svg>
