<?xml version="1.0" standalone="no"?>
<!DOCTYPE svg PUBLIC "-//W3C//DTD SVG 20010904//EN"
 "http://www.w3.org/TR/2001/REC-SVG-20010904/DTD/svg10.dtd">
<svg version="1.0" xmlns="http://www.w3.org/2000/svg"
 width="1280.000000pt" height="720.000000pt" viewBox="0 0 1280.000000 720.000000"
 preserveAspectRatio="xMidYMid meet">

<g transform="translate(0.000000,720.000000) scale(0.100000,-0.100000)"
fill="#000000" stroke="none">
<path d="M5725 7190 c-11 -4 -40 -14 -65 -21 -24 -8 -67 -31 -94 -51 -28 -21
-54 -38 -57 -38 -16 0 -60 -115 -55 -141 4 -21 -4 -36 -46 -80 -53 -56 -85
-99 -73 -99 3 0 16 5 28 11 18 9 16 6 -7 -20 -17 -17 -35 -31 -41 -31 -6 0
-24 -13 -40 -30 -16 -16 -46 -42 -67 -56 -21 -15 -38 -35 -38 -46 0 -11 -17
-29 -43 -46 -63 -40 -109 -80 -103 -91 3 -4 -4 -17 -15 -27 -11 -10 -40 -48
-64 -84 -24 -36 -78 -101 -120 -145 -107 -112 -119 -130 -148 -215 -14 -41
-33 -92 -42 -113 -8 -20 -17 -62 -20 -92 -2 -31 -9 -79 -14 -108 -6 -29 -10
-65 -10 -82 2 -46 -9 -193 -19 -256 -4 -31 -5 -91 -1 -135 4 -43 7 -80 5 -81
-2 -2 -42 15 -90 37 -94 44 -166 62 -316 80 -86 10 -99 14 -145 49 -124 95
-304 195 -404 225 -66 19 -198 21 -266 2 -93 -25 -239 -109 -338 -194 -35 -30
-57 -41 -96 -46 -180 -24 -439 -142 -498 -226 -17 -24 -48 -27 -39 -4 3 8 2
12 -4 9 -6 -3 -10 -13 -10 -21 0 -9 -16 -35 -35 -58 -40 -49 -45 -71 -15 -61
25 8 25 5 -2 -68 -17 -47 -27 -61 -49 -69 -29 -10 -45 -39 -40 -71 1 -10 -4
-26 -12 -35 -39 -45 -51 -112 -52 -277 l0 -160 26 -3 c23 -3 27 -9 33 -48 3
-25 2 -53 -3 -63 -6 -9 -10 -57 -11 -107 -2 -127 -2 -124 20 -124 17 0 20 7
20 48 1 90 17 19 29 -131 7 -81 16 -160 20 -175 7 -23 3 -30 -22 -45 l-30 -18
7 -87 c4 -48 13 -132 21 -187 7 -55 21 -192 31 -304 l18 -204 -37 -32 c-20
-17 -54 -37 -75 -44 -22 -8 -59 -29 -82 -47 -27 -21 -54 -34 -72 -34 -25 0
-32 -7 -48 -43 -11 -24 -25 -68 -31 -98 -6 -30 -21 -65 -34 -79 -40 -44 -47
-68 -43 -153 l3 -82 -95 -6 c-52 -4 -109 -11 -126 -17 -30 -10 -33 -8 -96 62
-36 39 -97 96 -136 126 -73 57 -82 75 -58 113 10 15 13 36 9 64 l-6 43 -33
-30 c-19 -16 -33 -32 -32 -36 2 -3 -5 -10 -14 -15 -13 -7 -16 -17 -11 -39 4
-23 2 -30 -11 -30 -9 0 -16 -5 -16 -11 0 -5 5 -7 10 -4 6 3 10 3 10 0 0 -12
-25 -31 -60 -45 -19 -7 -39 -17 -45 -22 -5 -4 -21 -8 -36 -8 -15 0 -40 -5 -56
-11 -84 -33 -399 -53 -444 -28 -13 7 -34 12 -47 10 -18 -2 -22 2 -20 21 2 17
-3 24 -20 26 -12 2 -22 7 -22 12 0 5 7 7 15 4 8 -4 15 -1 15 5 0 6 -6 11 -12
12 -7 0 -5 4 4 7 14 6 7 11 -27 23 l-45 17 0 -34 c0 -65 -18 -43 -25 31 -7 71
-6 77 18 109 27 34 136 94 215 117 74 21 48 38 -69 44 -39 2 -72 5 -74 7 -2 1
-6 28 -8 58 -5 42 -3 50 4 34 12 -23 104 -68 120 -59 25 16 4 39 -67 71 -73
34 -76 37 -72 65 3 17 1 32 -2 34 -4 3 -54 0 -111 -5 -57 -5 -137 -10 -178
-12 -67 -3 -74 -1 -78 17 -13 55 -14 83 -5 89 13 8 -29 56 -49 56 -7 0 -37 -6
-66 -12 l-53 -13 0 -92 c0 -106 -3 -103 87 -77 54 16 55 15 111 -11 137 -64
180 -144 198 -365 10 -137 40 -315 57 -341 9 -14 22 -80 31 -163 9 -77 18
-142 21 -145 3 -3 27 3 52 12 57 21 68 13 78 -53 l6 -45 -57 -20 c-58 -21 -83
-45 -46 -45 11 0 33 7 48 15 31 16 60 19 67 8 3 -5 12 -51 21 -103 9 -52 21
-115 26 -140 6 -25 19 -92 31 -150 12 -58 25 -125 30 -150 16 -80 27 -97 77
-116 49 -19 160 -24 239 -12 70 12 206 63 260 98 85 55 91 81 66 260 -2 19 -4
58 -4 87 0 29 -4 55 -10 58 -5 4 -7 15 -4 25 3 10 1 21 -5 25 -8 5 -6 13 6 26
16 18 16 19 1 13 -10 -3 -17 -1 -17 5 0 6 5 11 10 11 13 0 13 47 0 55 -6 3
-10 13 -10 21 0 8 5 12 10 9 6 -4 10 7 10 24 0 17 -4 31 -10 31 -5 0 -10 9
-10 20 0 11 5 20 10 20 6 0 10 38 10 94 l0 94 69 27 c68 27 69 27 124 11 30
-9 69 -16 87 -16 29 0 31 2 29 33 -2 17 -5 37 -8 42 -3 6 -6 15 -7 22 -2 14
124 42 175 40 30 -2 36 -6 43 -33 5 -21 26 -44 74 -78 36 -26 78 -52 92 -58
15 -6 92 -13 172 -15 175 -6 184 -10 260 -125 47 -70 89 -108 119 -108 20 0
196 193 249 273 66 100 350 390 438 447 77 51 168 88 225 92 24 2 139 0 254
-5 211 -7 291 -3 475 27 103 17 210 21 210 8 0 -5 -16 -45 -35 -89 -90 -208
-160 -440 -218 -721 -19 -89 -37 -166 -41 -170 -9 -8 -698 -6 -811 3 -44 4
-107 11 -140 16 -33 4 -80 11 -105 15 -25 3 -56 8 -70 10 -86 13 -202 16 -196
5 4 -6 31 -11 59 -11 29 -1 84 -5 122 -10 215 -30 393 -41 753 -47 l393 -6 -6
-41 c-4 -23 -18 -97 -32 -166 -14 -69 -27 -138 -30 -154 -3 -16 -23 -46 -44
-67 -55 -55 -65 -75 -89 -169 -61 -246 -51 -591 20 -743 12 -26 43 -69 69 -96
25 -26 58 -67 73 -90 l28 -41 422 2 422 3 9 37 c5 21 13 38 18 38 4 0 6 7 3
15 -3 8 -2 20 3 27 4 7 9 27 10 43 2 17 4 44 6 60 3 36 31 80 46 71 5 -4 7
-14 4 -23 -4 -9 -2 -14 3 -11 5 3 20 1 34 -4 24 -10 24 -11 5 -18 -17 -7 -17
-9 -3 -9 14 -1 16 -5 8 -25 -10 -27 -5 -36 22 -36 23 0 23 -9 1 -26 -16 -12
-15 -13 12 -14 18 0 39 -10 54 -25 l23 -25 -27 0 c-14 0 -24 -4 -20 -10 3 -5
12 -7 20 -3 15 5 19 -4 15 -44 -1 -17 4 -23 19 -23 13 0 21 7 21 18 1 16 1 16
14 0 12 -17 96 -18 1428 -18 1230 0 1417 2 1428 14 13 17 4 40 -11 30 -15 -9
1 99 16 111 8 7 11 28 9 58 -2 31 0 46 8 44 14 -3 31 68 25 108 -2 16 2 35 9
43 11 10 14 11 14 1 0 -10 3 -10 13 0 10 11 10 14 0 18 -21 8 -15 20 12 27 25
6 34 29 15 41 -5 3 -10 18 -10 33 -3 84 -1 115 9 125 6 6 11 20 11 32 0 11 6
29 14 40 16 23 18 104 3 123 -7 9 -4 19 9 35 16 18 16 20 1 8 -23 -18 -35 -5
-15 15 15 15 21 14 75 -19 55 -34 146 -113 154 -134 2 -6 27 -26 54 -45 135
-94 215 -148 220 -148 9 0 140 -63 145 -70 3 -4 19 -11 37 -14 17 -4 62 -26
100 -48 37 -23 101 -55 142 -70 41 -16 107 -49 146 -74 40 -24 75 -44 78 -44
4 0 54 -29 112 -65 57 -35 121 -74 142 -85 21 -11 63 -36 93 -55 54 -34 80
-43 80 -27 0 8 -34 29 -250 157 -69 41 -152 91 -184 112 -85 55 -83 53 -181
109 -186 105 -311 172 -335 179 -35 10 -231 114 -255 135 -11 10 -35 25 -53
34 -21 11 -38 30 -48 55 -11 29 -25 43 -57 57 -49 21 -151 93 -143 101 7 8
-15 28 -52 47 -32 17 -45 33 -17 22 8 -3 15 -1 15 3 0 5 -7 11 -15 15 -10 3
-15 19 -15 46 0 22 -4 40 -10 40 -5 0 -10 4 -10 10 0 5 6 9 13 7 9 -1 12 21
12 84 0 58 4 91 14 103 7 9 14 41 15 70 1 30 5 58 9 62 4 4 2 13 -4 20 -6 8
-9 20 -6 29 4 8 -1 21 -9 30 -14 14 -19 97 -15 252 1 47 -1 54 -29 79 -18 16
-27 19 -33 11 -5 -8 -7 -5 -5 7 2 12 -5 24 -18 31 -11 5 -19 15 -17 22 2 6 -1
14 -6 18 -6 3 -11 19 -11 34 0 15 -4 31 -9 36 -5 6 -12 25 -16 42 -6 28 -4 33
13 33 31 0 32 10 7 50 -45 72 -49 109 -20 212 14 51 39 161 56 243 17 83 35
155 40 161 5 7 23 14 40 18 60 12 109 92 109 179 0 38 20 101 86 276 47 124
108 278 134 341 57 136 72 211 68 341 -2 80 -6 101 -23 119 -42 46 -101 62
-174 45 l-34 -7 6 75 c3 41 12 88 20 104 9 16 23 66 31 112 9 45 18 86 21 91
4 6 37 191 51 285 3 17 6 91 8 166 2 82 8 145 16 159 18 33 4 155 -22 200 -18
30 -19 45 -13 114 4 45 2 105 -4 140 -6 34 -15 97 -20 141 -6 44 -22 109 -36
145 -25 60 -26 71 -20 162 6 84 5 98 -8 98 -8 0 -18 11 -21 25 -13 50 -26 14
-20 -50 6 -58 5 -63 -12 -61 -11 2 -24 19 -34 47 -9 24 -32 76 -50 114 -29 59
-35 80 -34 135 1 36 -2 54 -5 41 -4 -14 -11 -26 -17 -28 -12 -4 -34 61 -34
100 0 15 -7 45 -16 67 -13 31 -21 39 -34 35 -17 -5 -58 40 -113 126 -11 16
-27 29 -38 29 -11 0 -31 18 -48 43 -17 23 -48 62 -70 87 -126 140 -203 236
-208 261 -3 16 -11 29 -18 29 -30 0 -123 56 -156 94 -34 37 -38 40 -62 29 -16
-8 -29 -9 -32 -3 -8 12 -1711 12 -1740 0z m929 -530 c11 3 32 1 47 -7 14 -7
46 -17 70 -22 84 -18 122 -30 132 -40 6 -6 19 -11 29 -11 10 0 18 -4 18 -9 0
-5 6 -9 13 -8 44 1 69 -6 95 -28 19 -15 33 -21 37 -15 10 17 25 11 25 -9 0
-14 10 -22 33 -27 17 -4 26 -9 20 -11 -7 -3 -13 -12 -13 -20 0 -11 6 -14 22
-10 12 4 28 1 35 -5 11 -9 18 -7 31 6 14 14 15 18 3 25 -9 6 -10 11 -2 15 6 4
11 2 11 -4 0 -7 6 -10 14 -7 9 4 16 -3 19 -19 3 -16 -1 -28 -9 -31 -17 -6 -18
-23 -1 -23 15 -1 59 -68 52 -80 -3 -4 2 -10 10 -14 16 -6 21 -36 6 -36 -23 0
-41 14 -41 31 0 10 -7 19 -15 19 -18 0 -20 -23 -3 -49 6 -10 8 -26 3 -37 -5
-13 -9 -15 -12 -6 -6 16 -33 15 -33 -2 0 -22 -29 -41 -42 -28 -16 16 -28 15
-22 -2 9 -23 -15 -56 -40 -56 -20 0 -48 -20 -82 -62 -7 -7 -26 -26 -44 -41
-29 -25 -35 -26 -53 -14 -12 8 -26 22 -31 32 -34 60 -49 50 -73 -47 -9 -34
-21 -71 -28 -81 -12 -18 -14 -17 -29 4 -12 17 -13 25 -4 30 19 12 5 18 -19 8
-25 -9 -31 -44 -10 -52 6 -3 -2 -10 -18 -16 -17 -6 -35 -21 -40 -34 -8 -16
-22 -24 -56 -28 -26 -4 -56 -12 -67 -18 -27 -14 -80 -3 -93 20 -7 14 -21 19
-53 19 l-44 0 -11 48 -12 48 -45 -2 c-24 -1 -50 -7 -58 -13 -20 -17 -67 -23
-111 -14 -30 7 -40 14 -40 28 0 22 -22 56 -44 70 -11 6 -13 4 -8 -8 3 -8 0
-21 -8 -27 -10 -8 -17 -6 -28 10 -11 16 -23 21 -48 18 -29 -2 -34 0 -37 20 -2
12 -10 22 -18 22 -8 0 -14 6 -14 13 0 9 -3 8 -9 -2 -5 -7 -14 -10 -20 -7 -6 4
-20 4 -32 1 -14 -5 -18 -13 -15 -28 3 -12 3 -16 0 -9 -7 14 -40 16 -49 2 -3
-5 -18 -10 -32 -10 -21 0 -24 2 -13 15 10 12 10 18 1 29 -10 11 -8 16 9 21 12
4 28 22 37 41 10 20 24 34 35 34 10 0 18 3 18 8 0 4 9 18 19 32 16 20 21 22
35 11 11 -9 16 -10 16 -2 0 6 -4 11 -9 11 -15 0 -19 61 -4 67 7 3 18 15 24 26
9 16 9 19 -3 15 -10 -4 -14 1 -14 16 1 14 -9 26 -32 38 -45 22 -48 26 -16 20
23 -4 26 -2 22 15 -4 13 5 32 23 53 16 18 27 36 24 39 -4 3 -11 -1 -16 -9 -7
-11 -9 -7 -7 15 3 31 38 51 38 21 0 -12 13 -15 67 -13 63 2 67 3 77 30 6 15
21 30 33 33 25 7 46 -3 38 -17 -4 -5 -1 -9 4 -9 6 0 11 4 11 9 0 5 11 12 25
15 14 4 25 14 26 24 0 13 3 12 11 -5 13 -26 38 -31 38 -7 0 11 6 13 19 9 13
-4 27 1 39 13 18 18 102 32 219 36 23 0 45 4 49 8 4 4 12 4 18 -1 6 -5 20 -5
30 -1z m-1104 -50 c0 -5 -8 -14 -17 -19 -15 -8 -15 -11 -3 -12 8 -1 23 -1 33
0 16 2 22 -11 17 -34 -5 -23 -7 -31 -13 -45 -3 -8 -7 -24 -9 -34 -2 -11 -9
-21 -16 -24 -11 -3 -12 0 -3 16 8 15 7 23 -4 32 -16 13 -18 9 -15 -32 1 -19
-3 -28 -14 -28 -17 0 -39 -34 -29 -44 3 -3 15 -6 25 -6 10 0 18 -7 18 -15 0
-9 -9 -15 -24 -15 -23 0 -51 -22 -40 -32 3 -3 -9 -10 -25 -16 -17 -6 -31 -16
-31 -22 0 -15 33 -26 38 -12 2 7 8 10 13 6 15 -9 -14 -31 -50 -39 -24 -5 -31
-4 -27 4 4 6 1 11 -7 11 -9 0 -12 -9 -9 -29 l4 -28 41 21 c67 36 72 36 73 10
1 -13 -2 -24 -7 -24 -5 0 -9 -11 -9 -25 0 -25 -15 -35 -22 -14 -3 8 -15 9 -37
4 -25 -5 -30 -10 -20 -16 11 -7 9 -9 -7 -9 -25 0 -49 -24 -39 -40 9 -15 31
-12 50 6 10 10 20 13 25 8 11 -11 2 -54 -11 -54 -14 0 -10 -30 5 -46 17 -17
36 -18 36 -3 0 5 5 7 11 3 8 -5 8 -9 -1 -14 -8 -5 -2 -10 19 -15 35 -8 32 -25
-5 -25 -15 0 -24 6 -24 15 0 8 -5 15 -10 15 -6 0 -13 -7 -16 -15 -12 -30 -42
-9 -65 45 l-11 25 -16 -32 c-9 -18 -23 -33 -33 -33 -9 0 -22 -14 -30 -32 -7
-17 -15 -26 -17 -20 -5 15 -62 16 -62 2 0 -5 10 -10 23 -10 18 0 19 -2 7 -10
-8 -5 -32 -10 -52 -10 -29 0 -38 4 -39 18 0 12 -3 11 -10 -7 -6 -15 -14 -21
-25 -17 -10 4 -18 -1 -21 -13 -4 -16 -11 -19 -34 -14 -22 4 -29 2 -29 -11 0
-9 5 -16 11 -16 5 0 7 -4 4 -10 -3 -5 -15 -10 -26 -10 -12 0 -19 -7 -19 -20 0
-27 -13 -25 -26 4 -8 17 -8 41 -2 78 5 29 11 71 13 93 7 70 86 237 164 345 36
51 210 220 226 220 8 0 20 6 27 13 26 24 59 38 103 44 25 3 48 10 51 14 7 12
24 11 24 -1z m1923 -78 c-3 -12 -10 -22 -15 -22 -5 0 -7 3 -5 8 2 4 7 16 11
26 9 25 17 16 9 -12z m-213 -8 c0 -16 -2 -16 -24 -8 -13 5 -14 9 -5 20 13 16
29 9 29 -12z m-70 8 c8 -4 16 -17 17 -28 2 -18 -2 -21 -20 -17 -24 6 -57 32
-57 45 0 9 38 10 60 0z m250 -8 c0 -8 -5 -12 -10 -9 -6 4 -8 11 -5 16 9 14 15
11 15 -7z m307 -28 c5 -8 33 -26 64 -40 31 -13 59 -32 62 -40 4 -9 16 -16 28
-16 31 0 191 -163 183 -185 -4 -10 -2 -15 6 -13 6 2 24 -20 39 -48 21 -39 26
-56 18 -69 -8 -15 -7 -17 6 -12 11 4 14 2 10 -9 -3 -8 -18 -18 -34 -21 -16 -3
-29 -12 -29 -19 0 -8 -7 -14 -16 -14 -16 0 -16 12 1 52 5 13 2 15 -13 11 -11
-3 -25 2 -33 12 -8 9 -24 28 -36 41 -13 14 -23 31 -23 39 0 8 -5 15 -10 15 -6
0 -18 13 -29 30 -10 16 -20 28 -23 25 -2 -3 -17 8 -31 25 -15 16 -31 30 -36
30 -5 0 -11 9 -14 20 -3 11 -10 20 -17 20 -6 0 -8 -4 -5 -10 3 -5 -1 -10 -10
-10 -8 0 -20 12 -26 27 -8 22 -12 24 -19 13 -6 -8 -10 -12 -10 -8 0 3 -3 13
-6 22 -4 11 -1 16 10 16 9 0 16 5 16 10 0 13 -44 31 -94 39 -24 4 -43 14 -50
26 -6 11 -15 24 -21 28 -6 5 -2 6 8 3 10 -3 28 1 40 9 27 19 84 19 94 1z
m-342 -6 c3 -5 1 -10 -4 -10 -6 0 -11 5 -11 10 0 6 2 10 4 10 3 0 8 -4 11 -10z
m-31 -113 c13 -20 5 -30 -18 -21 -9 3 -16 15 -16 26 0 22 18 20 34 -5z m361
13 c-3 -5 -13 -10 -21 -10 -8 0 -14 5 -14 10 0 6 9 10 21 10 11 0 17 -4 14
-10z m-2215 -100 c0 -5 -4 -10 -10 -10 -5 0 -10 5 -10 10 0 6 5 10 10 10 6 0
10 -4 10 -10z m1850 -60 c0 -5 -2 -10 -4 -10 -3 0 -8 5 -11 10 -3 6 -1 10 4
10 6 0 11 -4 11 -10z m-1850 -20 c0 -5 -5 -10 -11 -10 -5 0 -7 5 -4 10 3 6 8
10 11 10 2 0 4 -4 4 -10z m1710 -70 c0 -5 -7 -10 -15 -10 -8 0 -15 5 -15 10 0
6 7 10 15 10 8 0 15 -4 15 -10z m-1553 -22 c-3 -8 -6 -5 -6 6 -1 11 2 17 5 13
3 -3 4 -12 1 -19z m1446 -32 c4 -10 0 -12 -14 -9 -10 3 -16 9 -13 14 8 13 21
11 27 -5z m-1621 -38 c-6 -6 -15 -9 -18 -5 -4 3 -4 14 0 23 5 13 9 15 18 6 9
-9 9 -15 0 -24z m-53 -4 c-15 -18 -22 -13 -13 10 3 9 10 13 16 10 5 -3 4 -12
-3 -20z m469 -6 c19 -19 14 -26 -13 -20 -25 4 -31 13 -18 25 9 10 17 9 31 -5z
m-193 -26 c1 -15 -4 -22 -15 -22 -15 0 -20 25 -11 48 4 12 25 -8 26 -26z
m2745 -37 c0 -8 -4 -15 -10 -15 -5 0 -7 7 -4 15 4 8 8 15 10 15 2 0 4 -7 4
-15z m-2406 -24 c3 -5 0 -14 -7 -19 -10 -8 -13 -6 -14 9 -2 19 11 26 21 10z
m-694 -31 c-8 -5 -19 -9 -25 -9 -5 0 -4 3 3 6 6 2 12 12 12 21 0 13 3 13 12 4
10 -10 10 -15 -2 -22z m634 15 c3 -9 0 -15 -9 -15 -9 0 -12 6 -9 15 4 8 7 15
9 15 2 0 5 -7 9 -15z m-451 -12 c17 -5 16 -6 -2 -20 -11 -7 -18 -20 -15 -28 8
-19 -1 -19 -23 0 -10 8 -27 21 -38 29 -20 14 -20 15 5 25 14 5 32 7 40 4 8 -3
23 -8 33 -10z m-106 -45 c-3 -8 -6 -5 -6 6 -1 11 2 17 5 13 3 -3 4 -12 1 -19z
m-337 -2 c0 -3 -4 -8 -10 -11 -5 -3 -10 -1 -10 4 0 6 5 11 10 11 6 0 10 -2 10
-4z m1438 -98 c-7 -20 -48 -23 -48 -4 0 11 9 16 26 16 16 0 24 -5 22 -12z
m-1541 -24 c-3 -3 -12 -4 -19 -1 -8 3 -5 6 6 6 11 1 17 -2 13 -5z m-1357 -343
c60 -22 254 -134 265 -151 8 -12 -170 -7 -395 11 -69 6 -189 11 -267 12 -79 1
-143 5 -143 8 0 20 172 112 251 134 75 21 216 14 289 -14z m2439 -35 c9 -8 30
-16 46 -18 24 -2 32 -9 38 -33 5 -16 8 -41 8 -54 -1 -23 0 -23 17 -8 17 16 20
15 42 -8 13 -14 31 -25 41 -25 21 0 44 -53 34 -77 -5 -10 -7 -22 -6 -26 1 -5
-7 -11 -18 -14 -10 -3 -22 -12 -25 -21 -9 -25 -36 -68 -36 -59 0 5 -7 1 -16
-7 -16 -17 -41 -20 -68 -10 -20 8 -20 28 -1 44 12 10 13 16 3 28 -11 13 -10
15 5 9 21 -8 35 19 18 36 -8 8 -11 8 -11 -1 0 -7 -8 -12 -17 -12 -10 0 -26
-14 -35 -30 -9 -17 -21 -30 -26 -30 -21 0 -46 30 -47 56 0 30 -25 47 -26 17 0
-10 -3 -13 -6 -5 -2 6 -13 12 -23 12 -19 0 -34 -25 -24 -41 3 -6 3 -21 0 -34
-5 -19 -12 -24 -31 -23 -14 1 -25 5 -25 9 0 3 -21 9 -47 13 -51 7 -93 34 -93
60 0 10 -9 16 -25 16 -14 0 -25 5 -25 11 0 22 21 49 39 49 10 0 24 7 31 15 10
12 10 15 -4 15 -26 0 -18 27 10 34 33 9 42 1 26 -24 -11 -18 -10 -20 9 -20 14
0 19 -5 16 -15 -4 -8 -2 -17 3 -20 6 -4 10 -14 10 -23 0 -13 -2 -14 -9 -3 -6
10 -10 10 -16 2 -4 -7 3 -21 16 -32 24 -20 44 -26 34 -9 -4 6 -1 18 6 26 10
12 10 20 1 35 -10 15 -9 19 2 19 7 0 21 -15 30 -32 l16 -33 -2 35 c-3 29 -7
36 -28 38 -22 3 -59 36 -60 53 0 4 20 9 43 10 38 4 43 2 39 -13 -2 -10 1 -18
7 -18 6 0 11 -9 11 -20 0 -23 5 -24 51 -8 l34 12 -29 6 c-44 8 -45 30 -2 30
20 0 36 5 36 10 0 6 7 10 15 10 8 0 14 -6 13 -12 -2 -8 7 -13 22 -13 16 0 26
6 28 18 3 12 -3 17 -22 17 -30 0 -42 16 -26 35 14 17 4 38 -15 31 -19 -7 -27
5 -14 21 15 17 38 17 58 -1z m215 -32 c26 -10 18 -24 -14 -24 -22 0 -28 4 -24
15 7 16 14 18 38 9z m71 -4 c3 -5 1 -10 -4 -10 -6 0 -11 5 -11 10 0 6 2 10 4
10 3 0 8 -4 11 -10z m-155 -28 c0 -15 -2 -15 -10 -2 -13 20 -13 33 0 25 6 -3
10 -14 10 -23z m275 -102 c3 -5 1 -10 -4 -10 -6 0 -11 5 -11 10 0 6 2 10 4 10
3 0 8 -4 11 -10z m488 -72 c2 -7 -1 -23 -6 -36 -8 -18 -8 -26 4 -33 11 -7 9
-9 -8 -9 -12 0 -25 -5 -28 -10 -5 -8 -11 -8 -20 0 -10 8 -15 4 -23 -20 -8 -20
-18 -30 -31 -30 -12 0 -21 3 -21 8 0 15 41 73 55 78 8 4 15 16 15 28 0 13 3
26 7 29 11 12 51 8 56 -5z m37 -34 c0 -8 -4 -12 -10 -9 -5 3 -10 10 -10 16 0
5 5 9 10 9 6 0 10 -7 10 -16z m-1670 -3 c0 -5 -7 -14 -16 -22 -14 -11 -14 -13
1 -21 9 -5 29 -6 46 -3 31 7 64 -9 53 -26 -8 -13 -62 -11 -66 3 -3 7 -7 2 -10
-10 -4 -12 -2 -20 3 -16 5 3 14 2 20 -2 18 -11 -8 -21 -42 -16 -22 3 -27 7
-18 13 10 6 7 9 -11 9 -14 0 -35 8 -47 18 l-22 17 23 26 c12 14 29 29 37 32
22 9 49 8 49 -2z m137 -58 c-7 -6 -76 33 -77 44 0 25 26 20 52 -10 15 -17 26
-32 25 -34z m153 8 c0 -10 -83 -51 -105 -51 -8 0 -15 4 -15 8 0 9 26 23 75 40
40 13 45 14 45 3z m-141 -36 c2 -2 -10 -15 -25 -29 -27 -23 -30 -23 -48 -8
-16 15 -16 17 -2 20 9 2 16 10 16 19 0 12 6 14 27 8 16 -4 30 -8 32 -10z m191
-10 c10 -12 10 -15 0 -15 -8 0 -21 -7 -31 -16 -29 -26 -43 -12 -19 19 25 31
33 33 50 12z m-475 -5 c3 -5 1 -10 -4 -10 -6 0 -11 5 -11 10 0 6 2 10 4 10 3
0 8 -4 11 -10z m820 -11 c5 -5 -10 -9 -38 -9 -36 0 -47 4 -47 15 0 13 7 15 38
9 20 -3 41 -10 47 -15z m305 11 c0 -5 -4 -10 -10 -10 -5 0 -10 5 -10 10 0 6 5
10 10 10 6 0 10 -4 10 -10z m-200 -7 c-1 -18 -17 -32 -45 -37 -24 -5 -26 -5
-9 3 12 5 24 16 27 25 6 16 27 23 27 9z m-243 -19 c3 -8 1 -20 -5 -26 -15 -15
-43 8 -35 28 7 19 32 18 40 -2z m970 -10 c-3 -3 -12 -4 -19 -1 -8 3 -5 6 6 6
11 1 17 -2 13 -5z m-1832 -104 c-3 -5 -10 -10 -16 -10 -5 0 -9 5 -9 10 0 6 7
10 16 10 8 0 12 -4 9 -10z m-2755 -119 c0 -5 -6 -14 -14 -20 -16 -13 -32 2
-21 19 8 12 35 13 35 1z m-83 -273 c-3 -7 -5 -2 -5 12 0 14 2 19 5 13 2 -7 2
-19 0 -25z m2363 -158 c0 -5 -3 -10 -7 -11 -5 0 -19 -2 -33 -5 -24 -4 -24 -3
-6 11 23 17 46 20 46 5z m-313 -81 c-1 -12 -6 -18 -15 -14 -7 3 -28 5 -45 6
-18 0 -26 3 -19 6 6 2 10 8 8 12 -3 4 13 7 34 8 33 2 38 -1 37 -18z m1445 4
c-6 -2 -9 -10 -6 -15 4 -7 2 -8 -4 -4 -18 11 -14 26 6 25 10 0 12 -3 4 -6z
m1828 -47 c0 -3 -4 -8 -10 -11 -5 -3 -10 -1 -10 4 0 6 5 11 10 11 6 0 10 -2
10 -4z m-2201 -25 c9 -6 10 -11 2 -15 -13 -8 -31 1 -31 15 0 11 11 11 29 0z
m2318 -47 c-9 -9 -28 6 -21 18 4 6 10 6 17 -1 6 -6 8 -13 4 -17z m-1059 7 c8
-5 15 -34 17 -71 3 -34 8 -67 13 -74 5 -6 9 -53 10 -105 1 -55 7 -100 14 -108
9 -11 9 -13 -2 -11 -7 2 -15 -3 -17 -9 -3 -7 2 -13 11 -13 9 0 16 -5 16 -11 0
-5 -5 -7 -10 -4 -17 11 -38 -57 -34 -112 2 -31 -1 -53 -6 -53 -6 0 -10 -8 -9
-17 0 -11 3 -13 6 -5 2 6 9 12 15 12 7 0 9 -17 6 -45 -4 -28 -1 -51 8 -63 11
-16 10 -23 -6 -47 -17 -26 -17 -32 -4 -63 8 -19 23 -42 33 -51 11 -9 21 -28
23 -41 2 -18 9 -25 25 -24 12 0 20 -3 17 -7 -2 -4 0 -10 6 -14 18 -11 10 -35
-14 -41 -27 -6 -48 -50 -40 -82 7 -24 -38 -78 -71 -86 -16 -4 -23 -11 -19 -18
4 -6 3 -8 -4 -4 -6 3 -13 2 -17 -4 -9 -14 -101 -13 -142 2 -18 7 -35 20 -39
30 -6 21 -30 24 -41 4 -8 -13 -25 -20 -49 -17 -6 0 -16 12 -22 26 -7 14 -20
25 -31 25 -11 0 -23 5 -27 11 -4 7 -10 7 -16 1 -13 -13 -48 -3 -48 14 0 8 -4
14 -9 14 -19 0 -19 29 0 48 10 12 19 26 19 32 0 5 16 28 35 49 20 22 34 45 33
52 -2 8 7 15 20 17 16 2 22 8 18 18 -4 10 3 16 22 20 28 6 28 6 28 82 -1 71
21 167 47 210 5 8 2 12 -10 13 -12 1 -10 3 7 8 20 5 26 16 32 51 4 25 3 60 -2
80 -15 53 -12 96 9 130 14 24 20 28 24 16 10 -25 27 -19 27 9 0 15 6 25 15 25
8 0 17 14 21 35 3 19 11 35 16 35 6 0 7 16 3 39 -4 24 -2 42 4 46 6 3 11 15
11 25 0 27 48 40 78 21z m-3893 -128 c20 -15 19 -15 -5 -9 -14 3 -31 6 -37 6
-7 0 -13 5 -13 10 0 15 33 11 55 -7z m3567 -374 c-12 -10 -26 -19 -31 -19 -6
0 -14 -18 -17 -39 -5 -31 -11 -40 -30 -44 -23 -4 -24 -2 -22 49 1 29 5 49 9
43 12 -19 49 13 49 43 0 35 20 40 44 11 18 -24 18 -25 -2 -44z m18 -119 c0
-11 -4 -20 -9 -20 -14 0 -23 18 -16 30 10 17 25 11 25 -10z m-540 -241 c0 -6
-4 -7 -10 -4 -5 3 -10 11 -10 16 0 6 5 7 10 4 6 -3 10 -11 10 -16z m-160 -116
c0 -15 -26 -18 -35 -3 -3 6 -15 10 -26 10 -10 0 -19 5 -19 10 0 6 7 10 15 10
8 0 15 8 15 17 0 14 4 12 25 -7 14 -13 25 -29 25 -37z m-70 -13 c-20 -13 -33
-13 -25 0 3 6 14 10 23 10 15 0 15 -2 2 -10z m-5012 -323 c-17 -17 -68 -31
-68 -18 0 9 44 29 68 30 11 1 11 -1 0 -12z m5156 -63 c21 -8 21 -34 0 -34 -8
0 -12 5 -9 10 3 6 1 10 -4 10 -6 0 -11 5 -11 10 0 12 3 12 24 4z m16 -73 c0
-6 -4 -12 -9 -15 -13 -8 -42 4 -35 15 7 12 44 12 44 0z m10 -38 c-1 -13 -24
-37 -52 -56 l-28 -17 0 26 c0 15 8 33 18 40 18 14 62 19 62 7z m-876 -92 c10
-44 16 -91 12 -105 -3 -14 -2 -26 3 -26 4 0 11 -14 15 -31 8 -43 -40 -126
-121 -207 -35 -34 -63 -68 -63 -75 0 -16 -49 -115 -50 -102 -1 6 -8 -8 -16
-30 -8 -22 -14 -67 -13 -102 1 -36 -3 -68 -10 -76 -6 -8 -13 -49 -15 -92 -4
-83 -8 -90 -63 -101 -37 -7 -90 16 -84 37 2 8 6 30 8 49 2 19 8 44 12 55 5 11
14 56 21 100 6 44 14 94 17 110 4 29 4 29 -12 10 -17 -19 -17 -19 -11 10 3 17
10 53 16 80 24 121 97 322 173 475 39 78 45 85 77 91 86 15 83 17 104 -70z
m757 46 c-8 -8 -11 -7 -11 4 0 20 13 34 18 19 3 -7 -1 -17 -7 -23z m132 -45
c-6 -45 -18 -48 -18 -4 0 22 15 55 22 48 1 -1 -1 -21 -4 -44z m-72 -35 c-8 -8
-11 -3 -11 19 1 25 2 27 11 11 8 -14 8 -22 0 -30z m-1135 -49 c-13 -35 -45
-125 -72 -200 -69 -194 -73 -168 -7 47 27 90 82 215 94 215 4 0 -2 -28 -15
-62z m-2401 -147 c21 -17 115 -41 157 -41 24 0 52 7 62 15 31 23 46 18 46 -15
0 -17 4 -38 9 -48 19 -38 49 -182 38 -182 -7 0 -5 -5 3 -10 19 -12 14 -12
-112 1 -152 15 -218 39 -310 113 -32 25 -38 35 -38 68 0 41 11 70 39 101 12
15 24 17 55 12 22 -3 45 -9 51 -14z m-615 -42 c55 -46 114 -113 127 -147 7
-17 -35 -62 -58 -62 -9 0 -42 -10 -73 -21 -31 -12 -58 -20 -60 -18 -2 2 -7 70
-11 152 -6 103 -4 147 3 147 6 0 38 -23 72 -51z m-285 -19 c3 -5 -1 -10 -10
-10 -9 0 -13 5 -10 10 3 6 8 10 10 10 2 0 7 -4 10 -10z m-656 -38 c15 -27 -7
-48 -25 -24 -8 9 -14 23 -14 30 0 19 28 14 39 -6z m670 9 c16 -10 6 -31 -14
-31 -17 0 -28 17 -20 30 8 12 16 12 34 1z m-632 -23 c-3 -8 -6 -5 -6 6 -1 11
2 17 5 13 3 -3 4 -12 1 -19z m531 0 c-2 -11 3 -23 11 -26 10 -3 12 1 8 17 -8
33 10 34 24 2 11 -24 18 -29 39 -25 28 5 64 -14 43 -23 -20 -7 -15 -30 7 -36
20 -5 28 -27 10 -27 -5 0 -10 -5 -10 -10 0 -22 -24 -38 -41 -27 -11 7 -21 5
-37 -9 -23 -19 -31 -51 -10 -38 6 4 26 7 44 6 20 -1 37 5 42 13 4 9 22 19 40
24 26 8 32 7 32 -5 0 -8 -4 -13 -9 -9 -17 10 -23 -15 -7 -31 9 -8 16 -25 16
-37 -1 -18 -3 -16 -15 11 -8 17 -21 32 -30 32 -21 0 -19 -9 10 -64 29 -55 29
-56 10 -56 -8 0 -19 -10 -26 -21 -10 -20 -9 -21 15 -15 19 5 26 2 26 -8 0 -7
3 -29 6 -47 4 -23 3 -30 -4 -20 -6 9 -12 10 -16 2 -4 -6 4 -13 19 -17 27 -7
34 -24 10 -24 -8 0 -15 5 -15 11 0 8 -5 8 -15 -1 -11 -9 -12 -16 -5 -25 5 -6
7 -15 3 -18 -11 -12 -23 -7 -23 9 0 9 -6 14 -12 12 -21 -7 -14 -33 10 -36 18
-3 22 -10 22 -43 0 -39 0 -39 -40 -39 -32 0 -38 -3 -33 -16 3 -9 9 -11 12 -6
3 5 24 11 47 13 35 4 40 2 36 -13 -3 -13 -14 -18 -43 -18 -22 0 -39 -4 -39
-10 0 -5 18 -10 40 -10 29 0 40 -4 40 -15 0 -12 -7 -14 -26 -9 -24 6 -25 5
-13 -14 16 -26 2 -44 -15 -19 -14 18 -46 24 -46 7 0 -5 -7 -10 -15 -10 -8 0
-15 -6 -15 -14 0 -21 17 -29 24 -11 7 19 21 19 40 -1 14 -14 14 -17 -2 -39 -9
-12 -21 -21 -25 -18 -4 3 -3 11 4 19 6 8 10 17 7 20 -9 8 -55 -14 -61 -30 -4
-9 -13 -13 -22 -10 -11 5 -18 0 -22 -15 -8 -31 -28 -26 -46 12 l-16 32 2 -32
c1 -19 8 -33 15 -33 6 0 12 -11 12 -25 0 -14 -4 -25 -10 -25 -5 0 -10 5 -10
10 0 7 -6 7 -20 0 -16 -8 -21 -6 -31 11 -9 17 -8 23 2 30 9 6 2 8 -21 8 -19 0
-29 -3 -22 -6 15 -6 16 -33 0 -33 -14 0 -48 30 -48 42 0 4 7 8 16 8 26 0 45
31 28 47 -7 8 -11 21 -8 31 5 14 3 14 -10 -3 -14 -17 -14 -20 -1 -28 20 -11
19 -23 -2 -31 -10 -4 -20 -1 -25 9 -5 8 -13 13 -19 10 -15 -10 -10 22 5 38 11
11 13 22 6 43 -4 16 -9 23 -9 17 -1 -7 -6 -13 -12 -13 -6 0 -8 7 -5 15 4 11
-3 19 -20 25 -27 11 -24 30 4 30 15 1 15 2 -2 15 -14 11 -16 15 -5 15 9 0 5 8
-11 20 l-25 20 23 18 22 17 -30 18 c-32 19 -43 51 -13 40 13 -5 15 -2 10 11
-4 10 -7 24 -7 32 0 8 -3 13 -7 13 -20 -3 -24 2 -12 17 10 13 10 17 -1 24 -8
5 -19 29 -25 54 -11 43 -11 45 12 51 13 3 23 10 23 16 0 6 6 6 19 -1 26 -13
58 -13 63 1 2 7 17 12 33 13 26 1 30 5 30 28 0 14 3 30 8 34 4 4 7 2 7 -5 0
-7 5 -9 10 -6 17 10 11 32 -10 38 -17 4 -20 14 -20 65 0 44 4 61 15 66 9 3 15
0 15 -9 0 -23 28 -18 32 5 4 26 24 25 21 -1 -2 -11 3 -19 12 -19 8 0 16 6 16
13 1 6 2 17 4 22 1 6 3 13 3 18 1 4 9 7 18 7 10 0 14 -7 12 -22z m-165 -100
c5 -70 -5 -93 -28 -62 -8 10 -15 14 -15 7 0 -7 -9 -9 -25 -5 -32 9 -31 28 1
25 13 -1 24 2 24 8 0 5 -5 9 -11 9 -8 0 -8 5 1 15 10 12 10 18 0 30 -16 19 -5
35 24 35 22 0 24 -5 29 -62z m-83 43 c0 -12 -20 -25 -27 -18 -7 7 6 27 18 27
5 0 9 -4 9 -9z m-310 -69 c0 -5 -7 -17 -15 -28 -15 -19 -20 -8 -9 20 6 17 24
22 24 8z m385 -83 c-4 -6 -13 -8 -21 -5 -8 3 -14 0 -14 -6 0 -6 -3 -9 -6 -5
-10 10 6 27 27 27 12 0 17 -4 14 -11z m400 -139 c3 -5 1 -10 -4 -10 -6 0 -11
5 -11 10 0 6 2 10 4 10 3 0 8 -4 11 -10z m3731 -81 c7 -36 14 -131 17 -213 4
-123 3 -145 -8 -136 -8 6 -12 17 -9 25 3 7 0 16 -5 20 -6 3 -9 11 -5 16 3 6 3
18 -1 27 -4 9 -8 32 -10 50 -1 19 -6 37 -11 40 -12 9 -18 86 -6 78 5 -3 7 5 4
20 -3 20 -7 23 -14 12 -9 -12 -5 35 8 105 9 46 27 25 40 -44z m1507 -94 c-3
-8 -9 -15 -14 -15 -10 0 -12 24 -3 33 11 11 24 -3 17 -18z m92 15 c3 -5 -1
-10 -9 -10 -9 0 -16 5 -16 10 0 6 4 10 9 10 6 0 13 -4 16 -10z m-5317 -21 c-2
-6 -8 -10 -13 -10 -5 0 -11 4 -13 10 -2 6 4 11 13 11 9 0 15 -5 13 -11z m3160
-105 c26 -7 25 -22 -2 -127 -20 -77 -27 -88 -72 -103 -57 -20 -74 -18 -74 9 0
58 32 203 47 215 18 13 63 16 101 6z m3463 -80 c-5 -16 -10 -21 -10 -12 -1 18
10 51 15 45 2 -1 -1 -16 -5 -33z m-3711 2 c0 -3 -4 -8 -10 -11 -5 -3 -10 -1
-10 4 0 6 5 11 10 11 6 0 10 -2 10 -4z m3743 -91 c-7 -21 -13 -19 -13 6 0 11
4 18 10 14 5 -3 7 -12 3 -20z m-46 -7 c-3 -8 -6 -5 -6 6 -1 11 2 17 5 13 3 -3
4 -12 1 -19z m-6757 -18 c0 -5 -7 -10 -15 -10 -8 0 -15 5 -15 10 0 6 7 10 15
10 8 0 15 -4 15 -10z m-50 -45 c-7 -9 -15 -13 -17 -11 -7 7 7 26 19 26 6 0 6
-6 -2 -15z m6828 -80 c0 -25 -2 -24 -9 10 -10 51 -10 92 1 50 4 -16 8 -43 8
-60z"/>
<path d="M5990 6475 c0 -8 2 -15 4 -15 2 0 6 7 10 15 3 8 1 15 -4 15 -6 0 -10
-7 -10 -15z"/>
<path d="M5930 6465 c-7 -9 -10 -19 -6 -22 8 -9 38 9 44 25 5 17 -23 15 -38
-3z"/>
<path d="M7177 6423 c-3 -5 -8 -30 -11 -57 -5 -33 -4 -46 3 -41 6 3 11 17 11
31 0 18 5 24 18 22 12 -2 18 5 20 25 3 21 -1 27 -17 27 -11 0 -22 -3 -24 -7z"/>
<path d="M7136 6267 c-6 -13 -3 -22 10 -32 25 -19 40 -19 47 0 7 17 -9 30 -18
15 -10 -17 -23 -11 -28 13 -3 20 -4 20 -11 4z"/>
<path d="M5888 6163 c7 -3 16 -2 19 1 4 3 -2 6 -13 5 -11 0 -14 -3 -6 -6z"/>
<path d="M7000 6106 c0 -8 4 -17 9 -20 10 -7 23 19 14 28 -11 11 -23 6 -23 -8z"/>
<path d="M6000 6050 c0 -5 7 -10 15 -10 8 0 15 5 15 10 0 6 -7 10 -15 10 -8 0
-15 -4 -15 -10z"/>
<path d="M6220 5939 c0 -5 5 -7 10 -4 6 3 10 8 10 11 0 2 -4 4 -10 4 -5 0 -10
-5 -10 -11z"/>
<path d="M5405 6330 c-18 -8 -17 -9 8 -9 15 -1 27 4 27 9 0 12 -8 12 -35 0z"/>
<path d="M5282 6010 c0 -14 2 -19 5 -12 2 6 2 18 0 25 -3 6 -5 1 -5 -13z"/>
<path d="M6128 5243 c6 -2 18 -2 25 0 6 3 1 5 -13 5 -14 0 -19 -2 -12 -5z"/>
<path d="M1024 2065 c10 -8 23 -12 29 -8 11 7 -12 23 -33 23 -12 -1 -11 -4 4
-15z"/>
<path d="M1108 2060 c-7 -11 -18 -20 -25 -20 -7 0 -13 -7 -13 -15 0 -8 3 -15
8 -15 10 0 36 31 45 53 9 23 0 21 -15 -3z"/>
<path d="M960 1980 c0 -19 3 -21 12 -12 9 9 9 15 0 24 -9 9 -12 7 -12 -12z"/>
<path d="M1040 1980 c0 -5 5 -10 10 -10 6 0 10 5 10 10 0 6 -4 10 -10 10 -5 0
-10 -4 -10 -10z"/>
<path d="M1200 1900 c0 -5 5 -10 11 -10 5 0 7 5 4 10 -3 6 -8 10 -11 10 -2 0
-4 -4 -4 -10z"/>
<path d="M1202 1768 c2 -6 10 -14 16 -16 7 -2 10 2 6 12 -7 18 -28 22 -22 4z"/>
<path d="M1060 1431 c0 -6 5 -13 10 -16 6 -3 10 1 10 9 0 9 -4 16 -10 16 -5 0
-10 -4 -10 -9z"/>
<path d="M8301 6364 c0 -11 3 -14 6 -6 3 7 2 16 -1 19 -3 4 -6 -2 -5 -13z"/>
<path d="M13 3723 c-8 -3 -11 -85 -12 -294 l-2 -290 24 6 c22 6 25 3 31 -33 7
-48 16 -52 121 -59 93 -6 253 18 300 46 28 16 30 21 30 77 -1 96 1 95 -101 61
-79 -26 -104 -29 -230 -32 -136 -2 -141 -2 -136 17 2 11 16 26 29 35 29 19
165 53 214 53 46 0 52 7 34 39 -8 14 -26 62 -40 105 -14 43 -42 103 -61 132
-45 68 -165 150 -201 137z"/>
<path d="M453 3030 c-23 -9 -32 -30 -14 -30 20 0 61 20 61 30 0 12 -17 12 -47
0z"/>
<path d="M473 2987 c-42 -14 -47 -50 -7 -43 27 5 64 33 64 48 0 10 -15 9 -57
-5z"/>
<path d="M260 2721 c0 -5 5 -13 10 -16 6 -3 10 -2 10 4 0 5 -4 13 -10 16 -5 3
-10 2 -10 -4z"/>
<path d="M58 2662 c-20 -15 -41 -36 -46 -47 -12 -27 -16 -495 -4 -495 6 0 13
12 17 27 6 24 8 26 16 10 6 -9 7 -22 4 -27 -8 -13 48 -13 100 1 38 10 66 15
92 18 7 0 17 10 23 21 9 17 7 23 -18 37 -25 14 -61 77 -50 88 9 9 84 -27 107
-53 25 -29 85 -57 101 -47 4 2 6 15 4 27 -2 13 -9 59 -15 103 -12 86 -21 111
-38 108 -6 -2 -11 6 -11 17 0 11 -5 19 -12 17 -6 -1 -14 12 -18 30 -6 25 -3
37 12 53 22 23 21 63 -2 68 -8 1 -45 -20 -83 -48 -74 -57 -100 -58 -67 -4 26
40 20 63 -21 99 -38 31 -45 31 -91 -3z m234 -183 c11 -63 5 -73 -31 -55 -38
20 -47 63 -17 87 30 26 40 19 48 -32z m-164 -82 c2 -56 0 -77 -7 -67 -5 8 -8
17 -5 21 2 4 0 19 -5 32 -7 18 -7 27 2 31 9 5 9 7 0 12 -7 3 -13 22 -13 42 0
29 3 33 12 24 8 -8 14 -47 16 -95z m-111 21 c-3 -7 -5 -2 -5 12 0 14 2 19 5
13 2 -7 2 -19 0 -25z m13 -134 c0 -14 -4 -23 -9 -20 -5 3 -7 15 -4 26 7 28 13
25 13 -6z"/>
<path d="M390 2024 c-19 -13 -87 -40 -150 -60 -145 -45 -138 -42 -115 -43 11
0 42 6 69 14 57 17 79 19 54 4 -10 -5 -18 -22 -18 -36 0 -22 2 -24 16 -12 13
10 17 10 24 -1 4 -7 15 -10 23 -7 12 5 27 -10 27 -28 0 -11 -83 -50 -120 -56
-25 -4 -61 -12 -80 -17 -26 -6 -39 -5 -48 4 -16 17 -15 34 1 34 8 0 14 7 14
15 0 16 -13 20 -21 6 -3 -5 -15 -11 -27 -14 -17 -5 -20 -2 -16 14 3 12 0 19
-9 19 -11 0 -14 -17 -14 -77 1 -65 5 -85 25 -118 32 -52 32 -95 0 -133 -16
-19 -25 -42 -25 -64 0 -32 2 -35 30 -33 16 1 36 8 45 15 9 8 28 10 50 7 19 -3
35 -2 35 2 0 4 37 15 83 25 45 11 86 23 92 27 5 5 19 9 32 9 13 0 23 5 23 10
0 6 11 10 24 10 14 0 39 12 56 27 l32 27 -7 80 c-6 73 -36 277 -51 349 -7 33
-9 33 -54 1z m-15 -63 c2 -9 7 -50 10 -91 7 -90 23 -225 31 -262 5 -20 1 -29
-15 -37 -20 -11 -21 -9 -21 37 0 30 -6 54 -14 61 -8 6 -16 40 -19 79 -7 92
-26 174 -39 166 -6 -4 -15 0 -20 7 -7 11 -11 11 -15 2 -5 -15 -33 -18 -33 -4
0 12 56 24 71 15 8 -5 10 0 6 17 -5 21 -3 24 23 25 19 1 31 -5 35 -15z m-78
-7 c-3 -3 -12 -4 -19 -1 -8 3 -5 6 6 6 11 1 17 -2 13 -5z m-87 -178 c0 -8 -17
-18 -37 -24 l-38 -10 36 -1 c19 -1 44 5 55 13 13 10 23 11 31 4 29 -23 7 -51
-48 -62 -13 -2 -38 -10 -56 -16 -52 -19 -67 -11 -70 37 -2 41 -2 42 35 49 20
4 44 10 52 15 23 13 40 11 40 -5z m-19 -136 c40 -22 16 -83 -38 -96 -35 -9
-57 7 -61 44 -3 25 2 34 25 46 34 18 48 19 74 6z"/>
<path d="M12 1899 c12 -7 24 -7 36 0 14 9 11 10 -18 10 -29 0 -32 -1 -18 -10z"/>
<path d="M180 1878 c0 -11 8 -18 20 -18 11 0 20 5 20 11 0 5 -5 7 -11 3 -6 -3
-15 0 -20 7 -7 11 -9 10 -9 -3z"/>
<path d="M7 1873 c7 -2 19 -2 26 0 6 3 1 5 -13 5 -14 0 -19 -2 -13 -5z"/>
<path d="M2696 1231 c-8 -51 -1 -65 13 -27 6 14 7 35 2 48 -7 19 -9 15 -15
-21z"/>
<path d="M8312 1230 c0 -14 2 -19 5 -12 2 6 2 18 0 25 -3 6 -5 1 -5 -13z"/>
<path d="M2672 1135 c-6 -22 -16 -65 -23 -95 -6 -30 -15 -62 -20 -71 -10 -19
0 -89 12 -89 5 0 9 9 9 19 0 11 4 22 9 25 7 5 17 50 26 121 1 6 4 21 8 35 4
14 3 41 -2 60 l-8 35 -11 -40z"/>
<path d="M8306 1135 c-3 -8 -1 -15 4 -15 6 0 10 7 10 15 0 8 -2 15 -4 15 -2 0
-6 -7 -10 -15z"/>
<path d="M2630 852 c0 -12 19 -26 26 -19 2 2 -2 10 -11 17 -9 8 -15 8 -15 2z"/>
<path d="M2642 800 c0 -14 2 -19 5 -12 2 6 2 18 0 25 -3 6 -5 1 -5 -13z"/>
<path d="M2646 515 c1 -136 -1 -256 -3 -266 -8 -29 -20 -14 -37 44 -18 63 -42
98 -60 91 -20 -8 -44 -72 -52 -137 -3 -31 -11 -60 -17 -64 -7 -4 -8 0 -4 12 4
9 3 23 -2 29 -5 6 -14 30 -20 54 -7 23 -16 42 -21 42 -6 0 -10 6 -10 14 0 8
-4 17 -9 20 -5 4 -9 -15 -9 -40 0 -52 -23 -87 -44 -66 -8 8 -8 15 0 25 13 15
6 27 -14 27 -8 0 -11 -6 -7 -15 3 -9 -2 -22 -13 -29 -14 -11 -18 -28 -19 -72
-2 -65 -3 -68 -27 -59 -15 6 -30 38 -33 75 -1 8 -3 20 -4 27 0 6 -11 9 -23 6
-17 -3 -19 -2 -9 5 22 16 5 28 -34 24 -26 -3 -35 -8 -31 -19 3 -7 -1 -16 -9
-19 -8 -4 -15 -15 -15 -25 0 -10 -4 -19 -9 -19 -8 0 -13 -26 -27 -125 -3 -21
-8 -43 -10 -47 -3 -4 143 -8 324 -8 l329 0 -4 78 c-2 42 -11 106 -18 143 -16
74 -25 177 -27 313 0 51 -8 124 -17 161 l-17 67 2 -247z"/>
<path d="M2396 385 c4 -8 10 -12 15 -9 14 8 10 24 -6 24 -9 0 -12 -6 -9 -15z"/>
<path d="M3206 233 c-4 -4 -17 -8 -28 -8 -26 0 -37 -25 -11 -26 10 -1 21 -1
26 0 11 2 9 -17 -3 -24 -6 -4 -8 -15 -5 -25 3 -10 1 -21 -5 -25 -18 -11 0 -25
25 -19 18 4 27 -1 41 -25 10 -17 26 -34 36 -37 10 -3 18 -11 18 -18 0 -8 14
-16 31 -20 44 -9 269 -8 269 2 0 12 -68 54 -79 48 -9 -6 -37 17 -101 79 -14
14 -35 25 -47 25 -12 0 -35 14 -51 30 -17 17 -40 30 -51 30 -12 0 -21 5 -21
10 0 11 -33 14 -44 3z m54 -59 c0 -8 -5 -12 -10 -9 -6 4 -8 11 -5 16 9 14 15
11 15 -7z m-40 -24 c0 -5 -4 -10 -10 -10 -5 0 -10 5 -10 10 0 6 5 10 10 10 6
0 10 -4 10 -10z"/>
<path d="M1737 80 c-48 -39 -87 -73 -87 -75 0 -3 46 -5 103 -5 l102 0 -9 75
c-6 41 -12 75 -16 75 -3 0 -45 -32 -93 -70z"/>
<path d="M8170 139 c0 -5 5 -7 10 -4 6 3 10 8 10 11 0 2 -4 4 -10 4 -5 0 -10
-5 -10 -11z"/>
</g>
</svg>
