<?xml version="1.0" standalone="no"?>
<!DOCTYPE svg PUBLIC "-//W3C//DTD SVG 20010904//EN"
 "http://www.w3.org/TR/2001/REC-SVG-20010904/DTD/svg10.dtd">
<svg version="1.0" xmlns="http://www.w3.org/2000/svg"
 width="1280.000000pt" height="720.000000pt" viewBox="0 0 1280.000000 720.000000"
 preserveAspectRatio="xMidYMid meet">
<metadata>
Created by potrace 1.16, written by Peter Selinger 2001-2019
</metadata>
<g transform="translate(0.000000,720.000000) scale(0.100000,-0.100000)"
fill="#000000" stroke="none">
<path d="M6610 7059 c-68 -20 -302 -43 -333 -33 -10 3 -16 1 -15 -6 2 -6 -14
-17 -35 -24 -20 -8 -44 -19 -52 -26 -14 -12 -35 -6 -35 9 0 5 14 14 30 21 17
7 33 17 37 23 11 18 -100 -3 -149 -28 -55 -29 -70 -32 -42 -9 19 15 19 16 -1
9 -11 -4 -65 -11 -120 -16 -117 -10 -149 -21 -189 -67 -19 -22 -36 -32 -51
-30 -25 3 -55 -18 -55 -38 0 -8 -3 -14 -7 -14 -5 0 -19 -10 -33 -21 -23 -18
-23 -19 -2 -9 l22 11 -17 -36 c-11 -23 -26 -38 -43 -42 -43 -9 -70 -32 -70
-58 0 -13 -6 -30 -14 -37 -7 -8 -13 -25 -12 -38 1 -16 -5 -25 -14 -26 -8 0
-27 -6 -42 -12 -24 -10 -26 -14 -19 -40 6 -19 4 -36 -5 -53 -7 -13 -13 -33
-14 -45 0 -11 -9 -29 -20 -39 -24 -21 -27 -77 -6 -94 12 -10 20 -9 41 5 35 23
41 12 16 -29 -11 -19 -21 -37 -21 -40 0 -3 18 0 39 5 32 8 44 7 63 -6 12 -9
31 -16 41 -16 10 0 21 -9 24 -20 3 -11 8 -18 12 -16 3 2 15 -2 26 -10 16 -12
17 -14 2 -14 -21 0 -22 -16 -2 -24 19 -7 19 -22 0 -30 -19 -7 -55 23 -55 46 0
26 -18 22 -22 -4 -2 -15 -11 -24 -24 -26 -25 -4 -37 -35 -21 -51 17 -17 -2
-27 -24 -13 -19 12 -20 11 -17 -10 2 -15 11 -24 24 -26 31 -4 58 -37 49 -59
-5 -10 -8 -21 -7 -24 1 -8 -31 -5 -46 5 -17 10 5 39 25 32 7 -3 13 1 13 10 0
8 -5 12 -10 9 -6 -4 -18 -1 -26 6 -13 10 -17 10 -25 -2 -4 -8 -6 -22 -3 -32 7
-21 -12 -47 -34 -47 -8 0 -20 -8 -27 -17 -9 -12 -24 -16 -49 -15 -39 3 -49
-12 -16 -23 11 -3 20 -10 20 -15 0 -5 -7 -7 -16 -3 -17 6 -34 -12 -34 -36 0
-11 4 -9 16 5 8 10 12 12 8 4 -7 -13 -5 -13 9 -2 10 9 22 10 32 5 14 -8 12
-11 -10 -21 -14 -6 -25 -16 -25 -20 0 -5 -21 -17 -47 -27 -27 -10 -61 -28 -78
-39 -16 -12 -32 -22 -34 -24 -3 -1 3 -10 12 -20 16 -16 19 -15 41 11 13 15 30
27 37 27 8 0 25 9 39 20 28 22 52 26 45 7 -3 -7 -32 -25 -65 -40 -41 -20 -60
-34 -60 -47 0 -10 -6 -20 -12 -23 -7 -2 -9 -8 -5 -13 4 -5 12 -2 17 6 7 11 12
12 21 3 8 -8 6 -13 -10 -18 -24 -7 -41 0 -41 19 0 8 -11 13 -27 12 -20 -1 -28
-6 -27 -18 1 -10 -4 -18 -12 -18 -8 0 -14 -7 -14 -15 0 -8 7 -15 15 -15 8 0
15 -4 15 -9 0 -12 -26 -32 -33 -25 -8 8 -19 -34 -12 -46 3 -5 13 -10 21 -10 8
0 14 -5 14 -11 0 -7 -11 -9 -30 -5 -25 5 -30 2 -30 -14 0 -11 5 -20 10 -20 6
0 10 5 10 10 0 6 5 10 10 10 6 0 10 -18 10 -40 0 -22 5 -40 10 -40 6 0 10 -10
9 -22 0 -13 -3 -17 -6 -10 -2 6 -12 12 -21 12 -13 0 -10 -7 12 -26 19 -19 24
-29 16 -34 -7 -4 -16 -45 -21 -90 -8 -70 -7 -86 6 -100 14 -16 14 -18 0 -23
-8 -4 -15 -15 -15 -25 0 -11 -7 -25 -16 -33 -8 -7 -13 -21 -11 -31 4 -13 0
-18 -14 -18 -10 0 -19 -7 -19 -15 0 -8 -4 -15 -10 -15 -5 0 -12 -11 -16 -25
-5 -20 -11 -24 -30 -19 -15 4 -24 2 -24 -6 0 -20 -26 13 -34 43 -6 24 -9 26
-21 14 -8 -8 -17 -25 -20 -38 -3 -13 -14 -34 -23 -47 -17 -22 -18 -22 -70 77
-63 119 -107 162 -227 221 -102 49 -204 77 -322 86 -100 8 -100 8 -187 73 -93
70 -254 159 -349 192 -201 70 -382 19 -622 -176 -38 -31 -67 -46 -97 -51 -162
-23 -381 -116 -473 -199 -27 -25 -57 -45 -67 -45 -10 0 -18 -5 -18 -11 0 -6
-14 -27 -30 -46 -33 -37 -38 -53 -15 -53 26 0 21 -20 -30 -135 -7 -16 -16 -38
-19 -47 -3 -10 -12 -18 -20 -18 -9 0 -29 -28 -48 -67 -32 -67 -32 -70 -36
-240 -3 -146 -2 -173 10 -173 8 0 23 -9 33 -20 17 -18 17 -28 5 -142 -7 -68
-11 -134 -9 -148 5 -30 33 -34 35 -5 5 111 14 79 38 -135 l22 -191 -25 -15
c-23 -16 -24 -18 -18 -128 4 -61 11 -147 17 -191 14 -103 28 -254 36 -381 l7
-101 -29 -27 c-16 -16 -51 -38 -79 -51 -27 -13 -67 -37 -89 -54 -22 -18 -50
-31 -66 -31 -36 0 -56 -31 -77 -117 -9 -37 -32 -89 -50 -116 -32 -47 -34 -54
-32 -131 1 -45 -2 -95 -6 -113 -6 -28 -3 -35 33 -70 87 -85 178 -113 363 -113
106 0 109 -1 138 -29 17 -16 50 -58 73 -92 60 -88 86 -103 220 -125 91 -14
162 -17 362 -16 138 1 266 7 285 12 28 8 63 40 163 152 159 178 575 582 646
627 28 18 52 36 52 40 0 4 19 18 43 31 23 13 52 31 65 41 12 9 55 27 95 40 78
25 217 31 330 15 l57 -9 -25 -43 c-36 -61 -33 -111 10 -199 48 -96 85 -139
149 -169 29 -14 57 -31 63 -38 12 -15 23 -64 29 -122 2 -22 6 -42 9 -45 11
-11 -41 -52 -79 -62 -28 -8 -62 -32 -114 -82 -60 -59 -82 -89 -117 -162 -54
-114 -70 -196 -62 -331 6 -91 12 -115 52 -215 25 -62 57 -128 71 -146 30 -40
29 -51 -27 -192 -21 -54 -44 -120 -50 -147 -12 -50 -53 -159 -128 -336 -33
-77 -42 -113 -46 -175 -3 -43 -7 -102 -11 -130 l-5 -53 30 0 c17 0 31 3 31 8
1 43 32 248 43 278 61 164 146 354 170 376 15 14 27 31 27 38 0 7 21 45 46 85
44 71 74 107 74 88 0 -5 15 -7 34 -5 19 2 43 -1 53 -8 15 -9 13 -11 -14 -7
-18 2 -30 0 -27 -5 3 -4 11 -8 18 -8 16 0 17 -31 1 -46 -6 -7 -22 -14 -34 -16
l-23 -3 21 -24 c25 -29 26 -40 6 -47 -8 -4 -15 -18 -15 -34 0 -36 -23 -60 -51
-53 -18 5 -20 3 -12 -13 6 -10 9 -38 7 -62 -2 -36 1 -45 19 -52 12 -5 16 -9 9
-9 -7 -1 -21 -8 -29 -17 -13 -12 -13 -18 -4 -24 10 -5 10 -13 2 -28 -9 -17 -8
-19 9 -15 11 3 26 0 34 -6 11 -9 15 -9 20 1 3 7 4 4 1 -7 -2 -11 0 -27 5 -35
8 -12 13 -13 29 -3 15 10 22 9 31 -2 6 -8 9 -19 6 -24 -4 -5 -2 -12 4 -16 6
-3 10 4 10 18 0 15 10 31 25 41 30 20 32 32 5 39 -20 5 -37 33 -26 44 3 3 13
0 22 -7 13 -12 17 -11 25 1 5 8 8 21 6 29 -2 15 21 50 34 50 3 0 6 -21 7 -46
0 -35 5 -49 22 -61 18 -13 21 -23 18 -59 -2 -24 0 -44 4 -44 4 0 11 -14 16
-32 9 -37 -6 -98 -24 -91 -6 2 -14 -3 -18 -12 -4 -10 3 -19 19 -27 28 -13 33
-33 10 -42 -8 -3 -15 -9 -14 -13 4 -24 -3 -45 -21 -60 -31 -27 -24 -33 38 -33
52 0 60 3 72 25 7 13 17 22 23 18 5 -3 5 -8 1 -12 -5 -3 -10 -12 -12 -18 -1
-10 27 -13 118 -13 101 0 120 2 120 15 0 19 40 75 53 75 5 0 7 -20 5 -45 l-6
-45 34 0 c34 0 34 1 34 45 0 25 3 45 8 45 10 0 52 -63 52 -78 0 -9 256 -12
1111 -10 977 3 1113 5 1119 18 4 8 15 31 25 50 10 19 29 58 42 85 40 83 63
124 84 150 9 11 20 30 24 43 3 12 10 22 15 22 18 0 263 441 275 494 3 16 14
44 45 111 15 33 32 82 39 109 7 27 19 63 28 80 9 17 19 51 21 76 2 25 5 47 7
48 2 2 16 -3 32 -12 15 -9 39 -20 54 -25 32 -11 187 -129 255 -193 77 -74 209
-167 320 -227 198 -107 262 -146 432 -260 95 -64 198 -132 227 -151 30 -19 85
-56 122 -81 312 -212 513 -342 519 -336 3 3 -40 36 -97 74 -56 37 -122 82
-148 100 -25 18 -120 82 -211 142 -191 128 -358 242 -374 256 -41 36 -265 177
-361 227 -161 84 -198 105 -273 155 -45 31 -104 80 -130 108 -26 29 -72 69
-102 91 -30 21 -57 41 -60 44 -16 16 -90 69 -117 83 -18 10 -46 32 -63 49 -35
38 -34 61 6 140 14 27 24 49 23 50 0 2 3 12 6 23 18 53 30 81 38 86 15 10 24
72 21 135 -9 143 -17 225 -24 229 -4 2 -3 30 3 61 13 76 -6 244 -39 342 -57
172 -149 320 -276 444 -43 42 -78 85 -78 95 0 10 11 50 24 88 19 59 30 75 67
103 65 49 224 209 274 275 59 77 176 277 209 354 32 77 33 140 5 226 l-21 64
39 65 c22 35 49 89 61 119 12 30 33 83 47 119 15 36 33 99 41 140 8 41 21 98
29 125 8 28 19 90 25 138 6 49 24 129 40 180 17 50 30 104 30 119 0 15 3 28 8
28 8 0 24 60 53 210 20 101 21 108 5 180 -10 41 -26 104 -36 140 -10 36 -22
88 -26 115 -8 59 -40 118 -146 275 -108 160 -126 179 -179 185 -18 3 -35 9
-38 14 -3 5 -21 7 -38 5 -35 -4 -44 11 -21 34 9 9 5 12 -20 12 -18 0 -32 3
-32 8 0 4 -12 8 -27 9 -15 0 -29 6 -31 12 -2 5 -21 37 -43 71 -21 33 -39 65
-39 71 0 15 -61 89 -73 89 -6 0 -1 -10 10 -22 30 -33 56 -88 42 -88 -6 0 -32
20 -58 45 -56 56 -152 126 -162 120 -4 -3 -33 8 -66 23 -32 16 -74 35 -93 42
-19 7 -39 17 -45 21 -5 3 -26 10 -45 14 -19 4 -39 11 -45 15 -5 4 -26 11 -45
15 -19 4 -60 20 -90 35 -68 34 -216 95 -252 104 -14 3 -34 9 -44 13 -12 4 -15
3 -10 -5 9 -16 1 -15 -37 2 -55 24 -197 66 -223 66 -26 0 -106 18 -139 31 -34
13 -86 20 -199 25 -60 3 -120 10 -133 15 -13 5 -44 9 -68 9 -24 0 -47 5 -50
10 -3 6 -22 10 -41 10 -19 0 -34 5 -34 10 0 6 9 10 20 10 11 0 20 4 20 10 0 5
12 16 28 24 35 19 22 18 -58 -5z m-304 -654 c10 -8 29 -15 41 -15 12 0 25 -5
28 -11 4 -6 13 -8 21 -5 8 3 26 1 41 -5 16 -6 29 -6 32 -1 3 6 24 7 46 5 22
-3 86 -6 143 -7 83 -1 102 -4 102 -16 0 -13 2 -13 9 -1 5 8 16 11 26 8 9 -4
13 -11 10 -17 -3 -6 4 -10 18 -10 15 0 28 -9 37 -25 7 -13 17 -22 22 -19 16
10 49 -8 59 -32 5 -14 13 -23 18 -19 5 3 19 -8 31 -25 12 -16 28 -30 36 -30
17 0 19 -16 2 -23 -8 -3 -6 -6 5 -6 9 -1 17 -8 17 -17 0 -8 -5 -12 -10 -9 -6
3 -15 -6 -21 -22 -10 -27 -11 -28 -26 -8 -14 19 -15 17 -10 -22 4 -32 2 -43
-8 -43 -8 0 -15 -8 -17 -17 -3 -16 -6 -16 -23 4 -18 21 -20 21 -37 6 -10 -9
-18 -22 -18 -28 0 -7 -7 -18 -15 -25 -10 -9 -15 -9 -15 -1 0 18 -27 12 -32 -7
-4 -12 -22 -23 -52 -32 -25 -7 -46 -18 -45 -24 4 -34 -5 -46 -56 -70 -65 -30
-66 -31 -59 -11 4 9 0 15 -10 15 -9 0 -16 -7 -16 -16 0 -9 -18 -34 -40 -55
-22 -22 -40 -46 -40 -54 0 -10 -10 -15 -33 -15 -27 0 -35 -5 -44 -30 -8 -21
-18 -30 -35 -30 -12 -1 -34 -7 -47 -14 -13 -7 -32 -11 -42 -9 -11 3 -21 -1
-25 -11 -3 -9 -13 -16 -21 -16 -8 0 -11 5 -7 11 4 8 0 9 -15 4 -12 -3 -21 -3
-20 2 4 20 -2 34 -12 28 -6 -4 -8 -13 -5 -21 3 -8 -1 -14 -9 -14 -20 0 -19
-14 1 -31 15 -12 14 -14 -7 -19 -18 -5 -25 -1 -29 13 -7 28 -38 46 -48 29 -11
-16 -73 13 -79 38 -3 10 -15 22 -28 28 -14 6 -26 23 -30 41 -4 17 -13 31 -20
31 -7 0 -20 3 -29 6 -11 4 -16 1 -16 -10 0 -9 6 -16 13 -16 6 0 4 -5 -7 -11
-23 -14 -38 5 -30 38 6 21 4 22 -27 13 -19 -6 -37 -10 -41 -10 -13 0 -9 33 7
64 19 35 19 40 0 32 -10 -4 -15 1 -15 15 0 12 -8 23 -20 26 -21 6 -28 33 -9
33 8 0 8 5 -1 15 -7 8 -21 15 -31 15 -12 0 -19 7 -19 20 0 13 7 20 20 20 11 0
20 5 20 10 0 13 -37 13 -42 0 -1 -5 -23 -12 -48 -16 -44 -7 -44 -6 -28 12 12
14 14 24 7 37 -14 23 -39 22 -39 -3 0 -11 -4 -20 -8 -20 -5 0 -7 13 -4 29 2
16 -1 38 -7 50 -9 16 -8 24 5 39 16 19 17 19 40 -4 25 -26 53 -31 72 -12 18
18 15 26 -14 44 -21 14 -27 15 -34 4 -7 -11 -11 -10 -24 3 -19 19 -5 31 24 22
16 -5 20 -2 20 19 0 19 5 26 20 26 11 0 20 -4 20 -10 0 -5 -4 -10 -10 -10 -5
0 -10 -5 -10 -11 0 -7 13 -10 34 -7 26 3 33 1 27 -9 -10 -18 -1 -84 10 -77 5
3 9 13 9 24 0 11 10 21 28 25 18 5 22 9 12 13 -28 10 -40 42 -16 42 20 0 27
13 16 30 -8 13 -12 12 -24 -5 -14 -19 -15 -19 -22 -1 -4 11 -2 21 7 27 14 8
21 10 82 13 16 1 33 8 38 16 7 10 12 11 15 4 8 -18 40 -5 54 22 8 13 20 24 27
24 8 0 24 6 36 14 12 8 40 17 62 21 21 4 52 13 67 21 15 8 38 14 53 14 14 0
25 5 25 10 0 15 44 12 66 -5z m-2666 -975 c72 -30 201 -106 236 -139 l29 -26
-80 -3 c-44 -2 -173 4 -288 13 -114 8 -261 15 -327 15 -69 0 -120 4 -120 9 0
23 141 109 220 135 75 24 82 25 180 22 72 -2 108 -9 150 -26z m1835 -321 c4
-6 19 -7 37 -4 21 5 35 2 48 -10 10 -9 24 -14 29 -10 7 3 11 -2 11 -14 0 -10
-6 -22 -12 -25 -7 -4 3 -4 22 -1 l35 5 -22 -19 c-31 -26 -29 -41 5 -41 15 0
34 -4 42 -10 12 -7 12 -12 -4 -29 -23 -25 -53 -27 -78 -4 -16 14 -21 15 -28 3
-7 -11 -11 -10 -26 5 -10 10 -19 25 -19 33 0 18 -31 39 -42 28 -4 -4 1 -14 11
-22 23 -16 21 -20 -17 -29 -17 -5 -27 -3 -27 4 0 6 -6 11 -14 11 -7 0 -21 12
-31 26 -9 14 -22 23 -29 21 -6 -3 -12 3 -12 13 0 10 3 17 6 15 3 -2 12 1 20 6
13 8 11 13 -10 30 -14 11 -20 18 -13 15 6 -4 14 -2 18 4 8 13 92 13 100 -1z
m347 -20 c-27 -10 -19 -33 8 -26 12 3 17 0 14 -8 -3 -8 3 -12 18 -10 13 1 15
0 6 -2 -10 -2 -18 -11 -18 -19 0 -16 35 -19 45 -4 7 11 37 1 48 -17 5 -7 13
-11 18 -8 5 4 0 19 -12 36 -11 16 -24 27 -29 24 -16 -10 -21 15 -6 30 18 18
26 19 26 2 0 -13 50 -43 85 -50 19 -4 19 -5 -1 -6 -26 -1 -50 -26 -34 -36 5
-3 10 2 10 11 0 14 3 15 12 6 8 -8 8 -15 -2 -27 -10 -13 -9 -15 6 -16 17 -1
17 -2 2 -6 -10 -2 -18 -9 -18 -14 0 -6 -8 -6 -19 1 -24 12 -34 0 -26 -32 3
-13 1 -30 -5 -38 -9 -13 -11 -13 -20 0 -5 8 -10 11 -11 5 0 -5 -4 -1 -8 10 -5
13 -3 24 7 31 22 16 7 44 -23 44 -23 0 -24 -2 -15 -21 13 -23 -4 -53 -25 -45
-7 2 -18 -1 -24 -7 -14 -14 -31 6 -31 38 0 11 -9 26 -20 33 -18 11 -20 10 -20
-15 0 -26 -1 -26 -17 -10 -16 16 -15 19 17 46 l35 29 -22 31 c-13 16 -23 32
-23 35 0 6 36 13 70 14 l25 1 -23 -10z m-869 -711 c30 -66 39 -108 28 -122
-13 -16 0 -120 19 -156 12 -22 12 -21 36 13 13 20 24 39 24 42 0 3 12 23 26
45 18 26 31 37 42 33 10 -4 13 -2 8 5 -10 16 3 54 15 47 5 -4 9 -15 9 -26 0
-10 7 -19 15 -19 8 0 15 5 15 10 0 13 36 -5 68 -33 17 -16 22 -31 22 -68 0
-39 4 -49 20 -54 11 -3 20 -13 20 -21 0 -8 9 -23 20 -34 12 -12 18 -25 15 -30
-4 -6 7 -10 23 -10 23 0 32 -6 41 -27 6 -16 16 -36 23 -46 11 -15 10 -20 -4
-31 -21 -16 -24 -30 -4 -23 11 4 14 -4 12 -34 0 -21 -4 -39 -8 -39 -5 0 -8
-10 -7 -22 0 -13 3 -18 6 -11 3 10 9 10 24 0 25 -15 24 -33 -1 -47 -11 -6 -20
-8 -20 -5 0 4 -13 -3 -29 -14 -16 -12 -43 -24 -60 -27 -38 -8 -50 -23 -27 -36
12 -7 14 -14 6 -27 -5 -10 -6 -22 -2 -26 4 -4 -5 -5 -20 -3 -16 3 -28 1 -28
-3 0 -5 4 -9 9 -9 13 0 19 -48 8 -59 -8 -8 -7 -15 1 -23 35 -35 -24 -108 -88
-108 -49 0 -142 26 -151 43 -4 7 -27 14 -51 16 -23 1 -45 6 -48 10 -7 10 -111
8 -127 -2 -7 -5 -17 -6 -22 -3 -5 3 -33 8 -62 10 -30 2 -62 7 -71 11 -13 5
-18 2 -18 -9 0 -20 -16 -21 -24 -1 -14 38 41 149 115 230 93 102 117 149 111
215 -5 51 -2 472 3 481 7 11 42 27 61 28 7 1 18 -14 27 -31z m3297 -1143 c8 0
16 -8 18 -18 3 -12 -20 -41 -66 -86 -77 -75 -107 -87 -216 -82 -61 2 -104 21
-140 60 -22 24 -3 40 22 18 35 -32 130 -41 155 -15 10 9 26 13 41 11 31 -6
109 41 127 77 20 38 32 52 38 43 3 -4 13 -8 21 -8z m-27 -899 c9 -7 17 -16 17
-20 0 -4 -8 -6 -17 -4 -15 2 -18 -4 -18 -35 0 -21 3 -41 7 -43 4 -3 8 4 8 14
0 11 6 25 14 31 12 11 14 5 12 -34 -2 -25 1 -48 6 -51 5 -4 7 -18 3 -33 -6
-25 -6 -25 9 -6 13 16 15 17 10 3 -3 -10 -1 -18 5 -18 6 0 10 -10 10 -22 -1
-17 -2 -19 -6 -5 -10 37 -33 10 -33 -39 0 -17 4 -23 12 -18 8 5 9 2 4 -12 -5
-10 -8 -26 -9 -34 0 -8 -4 -20 -9 -27 -12 -15 0 -91 18 -118 8 -11 14 -38 14
-60 -1 -37 -2 -39 -15 -21 -8 11 -15 31 -15 44 l0 25 -21 -27 c-11 -14 -17
-31 -14 -36 4 -6 4 -18 0 -28 -5 -14 -7 -14 -16 -2 -8 11 -9 3 -6 -27 3 -29 1
-43 -6 -43 -7 0 -5 -5 3 -10 12 -8 12 -10 1 -10 -9 0 -12 -10 -9 -34 2 -20 0
-32 -6 -29 -5 3 -7 -5 -4 -21 3 -14 1 -26 -3 -26 -5 0 -9 -7 -9 -15 0 -18 -27
-104 -41 -128 -6 -11 -11 -37 -11 -58 0 -25 -9 -53 -24 -75 -13 -19 -24 -41
-24 -49 0 -8 -4 -15 -9 -15 -6 0 -46 -37 -91 -82 -59 -61 -83 -79 -89 -69 -5
8 -42 17 -90 22 -95 11 -164 43 -155 71 4 12 -3 21 -20 30 -30 13 -32 23 -12
44 17 16 30 19 21 4 -4 -6 -1 -17 5 -25 10 -12 15 -12 36 2 13 8 24 22 24 29
0 8 7 14 15 14 19 0 82 56 90 81 4 10 13 19 21 19 8 0 14 9 14 20 0 23 -10 25
-29 7 -11 -10 -13 -9 -8 6 4 10 2 28 -4 39 -9 17 -8 24 3 32 8 6 17 19 21 29
6 16 14 18 47 12 38 -6 56 6 28 19 -7 3 1 5 18 3 25 -3 30 0 27 14 -6 21 -40
31 -64 18 -10 -5 -29 -9 -43 -9 -27 0 -43 -15 -26 -25 18 -11 11 -22 -19 -28
-17 -4 -30 -14 -34 -27 -3 -11 -9 -20 -14 -19 -15 4 -55 -17 -52 -26 3 -16
-44 -36 -68 -30 -18 4 -23 1 -23 -15 0 -13 -12 -28 -30 -38 -16 -9 -30 -20
-30 -24 0 -5 -12 -8 -26 -8 -14 0 -37 -9 -51 -20 -14 -11 -31 -20 -38 -20 -7
0 -18 -7 -26 -16 -20 -24 -85 -54 -116 -53 -25 0 -26 1 -8 9 11 5 14 9 8 9
-16 1 -17 51 -2 51 12 0 40 25 40 37 0 4 6 7 13 5 7 -1 19 9 26 23 7 14 16 25
20 25 6 0 148 112 205 162 17 14 64 54 105 88 41 34 87 73 102 86 15 14 32 23
38 19 6 -3 7 0 4 9 -4 9 -1 16 6 16 7 0 21 10 32 23 11 12 24 23 29 23 5 1 14
2 19 3 6 0 10 6 10 12 0 6 -7 8 -16 5 -14 -5 -15 -4 -4 9 7 8 16 13 20 10 4
-2 12 7 18 20 7 14 17 24 23 23 6 -2 14 3 17 11 3 9 0 11 -9 6 -10 -6 -11 -5
-4 3 6 7 25 14 42 18 25 5 32 2 37 -14 6 -18 9 -19 34 -6 15 7 42 26 61 42 29
24 32 31 23 48 -6 12 -8 30 -5 42 4 16 1 22 -11 22 -18 0 -22 15 -6 25 5 3 7
12 3 21 -3 9 0 14 7 12 7 -2 15 3 17 10 3 6 0 12 -6 12 -6 0 -11 8 -11 18 0
14 2 14 9 3 6 -10 9 1 9 32 -1 31 5 53 16 66 11 12 15 27 12 39 -4 11 0 24 9
32 12 10 13 16 4 26 -15 18 1 18 24 0z m-6183 -17 c107 -50 183 -60 234 -34
36 19 36 19 36 -8 0 -13 5 -28 10 -33 14 -14 52 -193 44 -206 -17 -27 -273 13
-345 53 -32 19 -102 71 -111 84 -24 33 2 120 44 149 28 20 34 20 88 -5z m5797
-1387 c-2 -35 -11 -59 -32 -88 -40 -52 -52 -64 -65 -64 -6 0 -15 -11 -20 -25
-5 -14 -16 -25 -25 -25 -8 0 -15 -7 -15 -15 0 -8 -7 -15 -15 -15 -8 0 -15 5
-15 11 0 6 -8 8 -17 5 -10 -3 -5 5 11 18 17 14 33 23 38 20 4 -3 8 0 8 6 0 6
-7 13 -15 16 -26 11 -16 31 15 31 39 0 62 20 38 34 -15 8 -15 12 3 49 11 22
28 44 39 50 11 6 18 15 15 20 -5 7 3 11 47 19 4 0 6 -21 5 -47z"/>
<path d="M0 3453 c0 -232 2 -275 18 -318 25 -70 43 -77 172 -70 135 8 248 30
273 52 16 16 18 26 12 78 -3 33 -10 63 -14 68 -4 4 -27 0 -52 -9 -108 -38
-349 -60 -389 -34 -42 26 44 65 200 91 35 5 65 11 67 12 7 8 -78 231 -103 268
-29 43 -142 129 -170 129 -12 0 -14 -44 -14 -267z"/>
<path d="M23 3018 c-21 -10 -23 -18 -23 -100 0 -48 3 -88 8 -88 4 0 28 8 54
17 l48 17 61 -29 c62 -30 125 -89 153 -143 18 -35 27 -92 56 -345 14 -124 26
-190 39 -215 13 -25 24 -82 34 -170 8 -73 19 -138 24 -143 6 -6 27 -3 56 8 56
21 67 14 74 -50 5 -38 2 -47 -18 -61 -13 -9 -30 -16 -39 -16 -21 -1 -65 -36
-53 -43 5 -3 27 3 50 13 79 35 79 35 91 -12 6 -24 16 -81 22 -128 10 -74 31
-191 47 -255 8 -34 34 -149 40 -177 5 -24 53 -82 53 -64 0 5 6 3 13 -3 26 -21
147 -24 237 -7 134 27 224 65 288 122 l43 39 0 82 c0 46 -3 88 -7 94 -4 7 -9
32 -11 57 -2 25 -6 73 -8 106 -3 34 -6 66 -6 71 -1 6 2 22 6 38 5 17 3 27 -4
27 -15 0 -14 57 2 63 9 3 9 7 0 17 -9 10 -9 17 0 32 10 15 9 20 -2 28 -12 6
-12 12 -3 23 7 7 9 17 5 21 -6 6 -5 59 2 116 2 14 4 28 4 33 1 4 9 7 19 7 15
1 15 2 -3 16 -18 13 -20 29 -23 155 -2 82 0 145 6 151 12 12 141 -99 176 -153
44 -65 36 -84 -49 -117 l-50 -19 70 -2 c39 -1 93 -2 120 -4 l50 -2 -2 35 c-4
68 -7 75 -29 72 -15 -2 -32 11 -60 44 -42 52 -87 95 -181 173 -38 31 -63 59
-63 71 0 11 4 20 10 20 19 0 30 38 22 76 l-8 37 -32 -40 c-18 -23 -35 -55 -38
-72 -10 -49 -89 -118 -144 -127 -3 0 -23 -6 -45 -13 -22 -7 -71 -15 -110 -18
-38 -2 -75 -9 -82 -14 -13 -11 -236 -14 -277 -3 -14 3 -26 10 -26 15 0 5 -9 9
-19 9 -11 0 -26 7 -35 15 -8 8 -21 12 -30 9 -11 -4 -14 0 -11 19 4 20 0 26
-20 29 -27 6 -35 -9 -11 -18 8 -3 12 -12 9 -20 -11 -30 -51 32 -58 90 -6 46
-4 61 13 88 31 48 76 80 170 117 111 45 108 61 -13 61 -61 0 -63 1 -74 30 -5
17 -8 37 -5 45 5 13 9 13 27 0 12 -8 29 -15 39 -15 10 0 18 -4 18 -10 0 -5 6
-10 14 -10 8 0 17 -6 19 -12 3 -7 6 -1 6 14 1 34 -19 54 -70 70 -22 6 -46 20
-53 30 -7 10 -16 15 -20 11 -3 -4 -3 8 0 27 l7 33 -39 -6 c-73 -11 -305 -29
-319 -23 -7 2 -16 28 -20 58 -10 86 -22 108 -59 107 -17 0 -41 -5 -53 -11z
m1136 -804 c13 -21 19 -44 16 -55 -5 -15 -1 -19 15 -19 16 0 20 -4 15 -19 -4
-13 1 -24 17 -35 17 -12 20 -18 10 -28 -7 -7 -12 -32 -12 -57 0 -35 3 -42 12
-33 26 26 40 14 33 -30 -6 -36 -5 -40 10 -35 12 5 16 2 13 -11 -2 -10 -11 -16
-21 -14 -14 2 -16 -2 -11 -22 5 -20 2 -26 -10 -26 -20 0 -21 -16 -1 -28 9 -4
17 -24 18 -43 1 -18 7 -37 12 -42 6 -4 1 -15 -12 -26 -20 -17 -21 -22 -10 -50
6 -17 19 -33 28 -36 14 -5 15 -10 6 -29 -7 -14 -18 -21 -27 -19 -10 3 -20 -5
-27 -20 -9 -19 -8 -25 6 -34 18 -12 14 -20 -14 -25 -16 -2 -21 3 -23 25 -3 20
-8 27 -20 25 -24 -5 -29 -48 -5 -48 29 0 44 -32 26 -55 -13 -19 -14 -18 -8 8
9 36 -16 37 -53 2 -25 -24 -26 -27 -9 -36 9 -5 17 -14 17 -18 0 -12 -39 -21
-46 -10 -7 12 -34 11 -34 -1 0 -5 9 -10 19 -10 20 0 35 -25 25 -41 -8 -14 -32
-11 -59 7 -20 13 -29 14 -60 3 -36 -14 -48 -38 -17 -40 14 0 14 -2 -3 -9 -11
-5 -14 -9 -7 -9 17 -1 15 -21 -3 -21 -8 0 -15 9 -15 20 0 11 -9 34 -20 52 -18
31 -19 33 -2 40 13 6 11 7 -8 7 -44 -2 -60 1 -60 10 0 5 9 11 20 14 12 3 20
14 20 25 0 18 -5 20 -37 15 -27 -5 -34 -3 -29 6 5 8 0 14 -13 18 -28 7 -27 19
3 27 13 3 26 15 29 26 6 23 6 23 -27 10 -21 -7 -26 -6 -31 10 -4 11 -4 24 0
30 3 5 -1 20 -9 32 -17 27 -27 96 -15 103 11 7 -1 68 -15 77 -8 5 -7 13 1 27
7 11 9 22 5 25 -4 2 -7 33 -7 68 0 59 1 63 22 61 15 -2 27 5 34 20 7 12 16 25
22 28 12 8 -1 31 -14 24 -5 -4 -12 1 -15 9 -3 9 -12 16 -19 16 -7 0 -15 7 -19
15 -3 8 -1 15 4 15 6 0 10 18 10 40 0 33 4 40 20 41 62 4 80 3 80 -4 0 -5 7
-1 16 7 19 19 65 21 83 4 10 -11 15 -10 25 5 7 9 18 17 25 17 6 0 11 5 11 10
0 6 7 10 16 10 9 0 27 9 41 20 34 27 38 26 62 -16z"/>
<path d="M26 2659 l-26 -20 0 -234 c0 -128 3 -240 6 -249 8 -21 79 -21 147 0
69 22 77 31 50 52 -12 9 -29 34 -38 55 -15 35 -14 37 4 37 35 0 75 -21 101
-51 18 -22 35 -31 60 -32 40 -2 39 -3 26 108 -10 80 -15 95 -32 95 -8 0 -14 5
-14 10 0 6 -9 20 -20 32 -23 25 -25 63 -5 98 17 30 19 60 3 60 -6 0 -34 -17
-62 -38 -50 -38 -95 -65 -97 -60 -6 12 -5 48 1 48 4 0 12 12 18 26 11 23 9 29
-17 55 -35 34 -68 37 -105 8z"/>
<path d="M367 2023 c-34 -24 -49 -53 -28 -53 8 0 13 -39 26 -190 3 -30 10 -86
16 -123 12 -73 8 -97 -16 -97 -10 0 -15 10 -15 29 0 16 -5 42 -11 58 -11 27
-24 84 -36 166 -3 20 -9 37 -14 37 -5 0 -9 -4 -9 -8 0 -13 -72 -46 -93 -43
-16 2 -17 -1 -7 -18 11 -22 30 -28 30 -10 0 8 5 8 15 -1 8 -7 15 -23 15 -36 0
-20 -9 -26 -72 -44 -40 -12 -79 -23 -85 -25 -20 -7 -43 36 -43 81 0 29 -5 44
-16 48 -8 3 -12 10 -9 16 3 5 1 10 -5 10 -9 0 -10 -24 -6 -87 9 -118 9 -167 1
-237 -7 -54 -6 -58 11 -52 11 3 35 8 54 11 115 16 351 92 380 121 11 11 14 33
12 87 -2 66 -47 375 -55 383 -2 2 -20 -8 -40 -23z"/>
<path d="M3677 1040 c-8 -61 -5 -240 3 -235 11 7 -1 -139 -12 -152 -6 -7 -11
-33 -12 -58 -3 -62 -23 -80 -85 -77 -69 3 -81 -12 -82 -101 -1 -40 -2 -102 -3
-139 0 -36 -4 -69 -8 -73 -8 -8 -58 18 -79 41 -9 11 -33 54 -53 97 -21 42 -42
77 -47 77 -13 0 -39 -25 -39 -38 0 -15 -63 -28 -105 -21 -48 9 -65 -3 -39 -28
17 -17 16 -18 -22 -23 -37 -5 -39 -7 -36 -35 2 -16 7 -34 12 -38 12 -13 0 -47
-16 -47 -20 0 -17 -28 4 -33 16 -4 16 -5 0 -6 -11 -1 -18 -9 -18 -22 0 -14
-10 -24 -29 -32 -16 -6 -32 -19 -35 -30 -2 -10 -9 -16 -14 -13 -5 3 -9 -8 -8
-24 l1 -30 468 0 c305 0 467 3 467 10 0 6 -7 10 -15 10 -9 0 -15 9 -15 24 0
14 -4 28 -10 31 -5 3 -10 17 -10 31 0 13 -4 24 -10 24 -5 0 -12 17 -16 38 -3
20 -16 91 -29 157 -30 155 -55 342 -71 525 -3 41 -8 79 -11 84 -3 4 -9 43 -12
85 l-7 76 -7 -55z"/>
<path d="M2248 242 c-31 -21 -127 -82 -213 -137 l-156 -100 151 -3 c82 -1 218
-1 301 0 l150 3 -45 65 c-25 35 -57 97 -71 137 -19 52 -32 73 -44 72 -9 0 -42
-17 -73 -37z"/>
<path d="M5000 149 c-34 -14 -35 -16 -15 -39 25 -28 13 -35 -37 -20 -24 7 -55
12 -70 12 -14 -1 -29 5 -32 13 -8 23 -23 18 -28 -10 -4 -17 -1 -25 9 -25 9 0
11 -5 6 -12 -4 -7 -8 -22 -8 -33 0 -14 -6 -19 -17 -17 -10 2 -18 -2 -18 -8 0
-15 52 -12 74 5 20 15 20 15 0 30 -17 13 -17 14 -1 15 9 0 17 5 17 10 0 6 5
10 10 10 6 0 10 -17 10 -39 l0 -39 105 -1 c89 -1 107 2 112 15 9 24 -11 49
-38 49 -17 0 -24 6 -24 20 0 15 -6 19 -22 17 -25 -4 -32 15 -9 24 19 7 29 34
13 33 -7 0 -23 -5 -37 -10z"/>
</g>
</svg>
