<?xml version="1.0" standalone="no"?>
<!DOCTYPE svg PUBLIC "-//W3C//DTD SVG 20010904//EN"
 "http://www.w3.org/TR/2001/REC-SVG-20010904/DTD/svg10.dtd">
<svg version="1.0" xmlns="http://www.w3.org/2000/svg"
 width="1280.000000pt" height="720.000000pt" viewBox="0 0 1280.000000 720.000000"
 preserveAspectRatio="xMidYMid meet">
<metadata>
Created by potrace 1.16, written by Peter Selinger 2001-2019
</metadata>
<g transform="translate(0.000000,720.000000) scale(0.100000,-0.100000)"
fill="#000000" stroke="none">
<path d="M6350 7159 c-107 -7 -223 -26 -173 -28 12 -1 24 -5 27 -10 3 -5 -39
-12 -94 -16 -55 -3 -102 -11 -105 -16 -4 -5 -15 -9 -26 -9 -10 0 -19 -4 -19
-9 0 -11 -25 -21 -65 -27 -16 -3 -39 -9 -50 -14 -41 -18 -89 -30 -118 -30 -16
0 -66 -9 -111 -19 -44 -11 -129 -24 -187 -30 -111 -11 -168 -32 -190 -72 -8
-15 -21 -19 -64 -19 -32 0 -57 -5 -62 -13 -11 -16 -48 -34 -102 -47 -25 -7
-75 -29 -112 -50 -37 -21 -83 -43 -102 -49 -20 -7 -41 -19 -48 -27 -6 -8 -36
-21 -65 -30 -29 -8 -69 -26 -89 -40 -20 -13 -41 -24 -48 -24 -7 0 -25 -9 -42
-20 -16 -11 -40 -20 -53 -20 -13 0 -21 -4 -18 -9 3 -4 -18 -11 -47 -14 -28 -3
-69 -13 -90 -22 -34 -14 -36 -17 -22 -31 19 -20 20 -54 0 -54 -11 0 -15 -12
-15 -44 0 -63 -14 -92 -59 -123 -22 -16 -45 -40 -51 -55 -7 -14 -25 -32 -41
-39 -37 -15 -67 -54 -109 -138 -28 -56 -32 -75 -34 -155 -1 -56 -9 -114 -21
-151 -26 -83 -31 -220 -10 -291 9 -31 14 -58 12 -60 -2 -2 -51 23 -109 56
-241 138 -402 154 -590 59 -74 -37 -164 -97 -229 -151 -36 -30 -59 -41 -106
-48 -166 -27 -374 -116 -457 -195 -25 -25 -51 -45 -56 -45 -16 0 -12 20 5 26
8 4 15 10 15 15 0 21 -40 -13 -46 -39 -4 -15 -22 -45 -41 -66 -38 -45 -42 -61
-13 -53 25 6 25 0 -2 -79 -19 -52 -27 -64 -45 -64 -12 0 -25 -5 -29 -11 -4 -8
0 -9 15 -4 15 5 21 2 21 -10 0 -21 -30 -31 -41 -14 -6 10 -9 4 -9 -18 0 -17
-4 -34 -9 -37 -4 -3 -18 -34 -31 -68 -24 -67 -34 -217 -21 -328 5 -46 9 -55
27 -58 17 -2 23 -12 28 -43 3 -22 2 -47 -2 -57 -5 -9 -12 -65 -15 -124 -5 -83
-3 -107 7 -111 24 -9 36 16 36 71 0 93 17 47 24 -65 3 -59 12 -150 19 -201 13
-91 13 -93 -7 -104 -12 -6 -24 -16 -28 -22 -8 -12 -2 -101 13 -221 6 -44 21
-186 34 -315 l23 -235 -31 -33 c-17 -18 -56 -44 -86 -58 -30 -14 -70 -36 -87
-49 -18 -14 -44 -25 -57 -25 -39 0 -62 -37 -87 -144 -6 -26 -24 -65 -39 -85
-36 -46 -42 -74 -35 -150 8 -69 12 -71 25 -9 11 46 41 85 76 99 12 4 31 25 42
46 28 55 75 101 123 123 24 11 86 61 138 111 52 51 109 98 125 104 41 18 132
26 310 30 95 2 176 9 220 19 39 9 122 19 185 23 87 4 135 12 200 34 47 15 115
33 152 39 43 6 93 24 140 49 40 21 86 42 102 45 29 7 29 7 22 -31 -32 -185
-37 -259 -35 -522 l3 -274 -75 -34 c-86 -40 -124 -49 -277 -69 -119 -16 -149
-21 -272 -49 -41 -9 -122 -25 -180 -35 -58 -10 -145 -27 -195 -38 -49 -11
-118 -23 -151 -26 -34 -3 -68 -8 -75 -10 -8 -3 -68 -10 -134 -16 -122 -10
-245 -36 -245 -51 0 -5 -8 -9 -17 -9 -9 0 -13 -3 -10 -6 4 -4 37 0 74 9 92 21
166 34 238 42 103 10 381 62 780 145 55 12 150 27 210 36 101 13 155 26 287
68 56 18 53 23 67 -107 6 -48 12 -91 15 -95 2 -4 7 -46 11 -93 3 -47 10 -101
16 -120 6 -19 12 -52 14 -74 4 -40 9 -68 40 -220 9 -44 17 -87 18 -95 1 -8 4
-17 8 -20 13 -12 40 -81 34 -89 -3 -5 -1 -12 5 -16 5 -3 10 -19 10 -35 0 -52
-78 -63 -285 -40 -159 17 -220 22 -277 22 -26 1 -45 5 -42 10 7 10 1 10 -31
-2 -19 -7 -24 -7 -19 2 5 8 2 9 -12 4 -37 -16 -57 -19 -51 -9 8 12 -156 8
-180 -6 -13 -6 -29 -5 -52 5 -45 19 -58 18 -78 -6 -20 -23 -98 -29 -106 -7 -3
6 -6 -3 -6 -21 -1 -35 -21 -36 -21 -1 0 11 -5 17 -10 14 -5 -3 -10 -15 -10
-25 0 -22 -19 -37 -29 -23 -7 10 -97 11 -107 0 -13 -12 -34 -7 -34 8 0 8 -7
15 -15 15 -8 0 -15 -6 -15 -14 0 -18 -31 -29 -54 -20 -10 4 -15 12 -12 20 4
10 -1 10 -25 2 -19 -7 -34 -7 -42 0 -6 5 -27 13 -45 17 -32 7 -34 6 -27 -15 7
-21 5 -22 -19 -16 -14 3 -26 3 -25 -1 3 -20 -4 -21 -39 -9 -21 8 -56 16 -77
20 -87 13 -110 22 -114 41 -4 22 24 45 56 45 30 0 30 18 0 29 -13 5 -31 21
-41 35 -16 25 -16 26 8 37 19 9 37 9 71 0 36 -9 50 -9 61 0 11 9 14 8 14 -6 0
-14 3 -15 15 -5 8 7 15 16 15 20 0 9 -77 31 -105 29 -11 -1 -43 5 -72 13 -59
17 -67 11 -57 -41 4 -18 0 -42 -10 -62 -16 -32 -16 -35 4 -61 11 -15 20 -39
20 -53 0 -14 4 -25 8 -25 5 0 8 -16 8 -37 -1 -26 -7 -38 -21 -44 -11 -4 -15
-8 -9 -8 20 -2 54 -86 48 -120 -6 -27 -9 -30 -32 -24 -21 5 -24 3 -19 -11 4
-9 2 -16 -3 -16 -18 0 -10 -19 10 -25 24 -8 25 -21 5 -42 -17 -16 -71 -10 -60
7 3 5 -4 20 -15 32 -12 13 -26 33 -31 46 -9 24 -49 31 -49 8 0 -8 -9 -21 -21
-29 -20 -14 -20 -16 -3 -25 18 -10 18 -11 0 -31 -11 -12 -25 -21 -32 -21 -24
0 -25 -20 -2 -29 l23 -9 -27 -11 c-18 -7 -28 -18 -28 -31 0 -12 -9 -24 -22
-29 -13 -5 -32 -18 -42 -30 -11 -11 -27 -21 -36 -21 -9 0 -25 -9 -34 -19 -10
-10 -38 -22 -64 -26 -26 -4 -59 -15 -73 -26 -15 -10 -36 -19 -47 -19 -12 0
-24 -5 -27 -10 -4 -6 -15 -8 -24 -5 -18 5 -71 -38 -71 -57 0 -6 -11 -7 -25 -4
-20 5 -27 2 -34 -17 -6 -16 -21 -27 -43 -32 -18 -4 -28 -9 -21 -11 7 -3 2 -15
-13 -31 -13 -14 -23 -33 -22 -41 2 -9 -6 -16 -19 -17 -13 -1 -23 2 -23 7 0 14
-30 9 -36 -7 -5 -13 -8 -13 -21 0 -8 8 -21 15 -29 15 -8 0 -14 6 -14 14 0 8
-4 16 -8 18 -4 2 -21 43 -37 92 -56 175 -28 371 81 566 29 52 60 120 68 150
22 86 134 326 191 409 26 39 33 57 25 66 -7 9 -7 14 2 18 10 3 12 29 9 98 -2
67 -6 88 -12 74 -7 -14 -8 -6 -4 25 3 25 8 84 12 132 l6 86 60 22 c42 16 71
20 101 16 113 -16 145 -18 162 -7 18 10 18 10 1 11 -14 0 -17 5 -12 20 4 12 2
20 -5 20 -6 0 -8 5 -5 10 3 5 1 10 -5 10 -20 0 1 20 37 35 19 8 63 19 97 24
l61 9 -55 1 c-30 0 -75 -4 -100 -10 -76 -19 -83 -17 -121 31 -43 52 -81 89
-164 155 -69 55 -79 73 -57 98 10 12 15 33 13 65 -1 25 -3 48 -5 49 -6 6 -96
-90 -96 -101 0 -6 -6 -20 -14 -31 -7 -11 -15 -24 -16 -30 -6 -24 -13 -35 -22
-35 -6 0 -8 7 -5 15 4 8 2 17 -3 20 -6 4 -10 -1 -10 -10 0 -11 -5 -15 -15 -11
-9 3 -15 0 -15 -9 0 -9 6 -12 15 -9 8 4 15 1 15 -5 0 -10 -24 -15 -72 -14 -10
0 -18 -7 -18 -15 0 -9 -6 -12 -16 -8 -8 3 -25 1 -37 -5 -11 -7 -37 -13 -57
-15 -19 -2 -51 -6 -70 -10 -19 -3 -47 -6 -61 -8 -14 -1 -30 -5 -35 -9 -6 -3
-39 -4 -75 -2 -35 1 -79 3 -97 4 -19 1 -39 9 -49 21 -10 11 -25 20 -34 20 -17
0 -49 30 -33 30 5 0 2 5 -6 10 -13 9 -13 11 -1 19 11 7 4 14 -27 29 -46 22
-48 20 -43 -35 3 -35 -16 -27 -23 8 -11 56 -6 110 12 141 20 34 113 89 201
119 93 32 80 47 -47 51 l-72 3 -6 32 c-9 50 -3 54 51 27 58 -28 71 -29 78 -10
7 19 -6 29 -73 57 -72 29 -82 38 -77 65 7 40 -4 45 -79 35 -38 -5 -117 -13
-176 -16 l-108 -7 0 31 c0 17 -6 40 -12 51 -10 16 -10 22 -1 28 8 5 4 15 -11
33 -22 25 -26 26 -67 17 -24 -5 -54 -10 -65 -10 -20 0 -22 -6 -23 -94 -2 -94
-2 -94 23 -94 13 0 47 5 75 12 66 15 121 -6 190 -70 66 -62 90 -118 101 -239
18 -200 42 -359 60 -394 11 -22 25 -91 35 -175 9 -76 19 -141 21 -144 3 -2 26
3 51 12 26 9 50 15 55 12 12 -8 29 -80 22 -97 -3 -8 -30 -25 -60 -37 -30 -13
-53 -28 -51 -34 5 -13 8 -13 69 10 26 10 50 15 53 12 9 -9 55 -247 55 -283 0
-17 3 -35 7 -39 4 -3 8 -15 10 -25 1 -10 14 -72 28 -137 14 -66 25 -122 25
-126 0 -11 53 -58 65 -58 5 0 16 -4 24 -9 12 -8 3 -23 -45 -76 -165 -186 -240
-291 -413 -585 -57 -96 -114 -191 -126 -210 -40 -63 -85 -140 -85 -145 0 -3
333 -5 740 -5 l740 0 27 55 c25 50 32 57 82 76 30 11 85 27 122 36 l67 16 120
-61 c66 -34 128 -62 136 -62 9 0 16 -4 16 -10 0 -5 25 -10 55 -10 31 0 78 -9
107 -20 48 -18 77 -20 318 -20 l265 0 -120 61 c-66 33 -134 69 -151 79 -17 10
-62 35 -100 55 -38 21 -71 40 -74 44 -3 4 -19 13 -37 20 -18 7 -35 22 -38 32
-4 10 -14 19 -24 19 -26 0 -71 38 -65 55 4 10 0 12 -15 8 -14 -3 -23 0 -27 11
-3 9 -13 16 -21 16 -8 0 -11 5 -8 10 11 18 102 4 186 -28 15 -6 30 -8 34 -4 3
4 11 -1 16 -11 6 -9 14 -15 19 -12 5 3 11 1 15 -5 3 -5 19 -10 34 -10 15 0 42
-7 59 -15 17 -9 57 -20 89 -25 32 -5 69 -14 83 -19 14 -5 61 -17 105 -26 44
-9 89 -21 100 -26 24 -10 219 -50 232 -48 4 1 16 -1 26 -6 9 -4 26 -5 37 -2
13 3 20 0 20 -8 0 -12 6 -11 35 1 23 9 42 11 53 6 9 -5 29 -12 45 -16 21 -5
27 -3 27 10 0 16 1 16 18 1 23 -21 111 -38 174 -34 42 2 47 0 42 -15 -5 -16
-2 -17 21 -8 36 14 152 5 195 -14 19 -8 31 -16 25 -16 -5 -1 11 -8 36 -15 29
-9 50 -23 59 -39 l13 -25 367 -1 367 -1 -4 23 c-2 13 2 32 11 43 14 19 15 19
21 -8 5 -17 2 -33 -5 -42 -11 -13 34 -15 378 -15 364 0 391 1 395 18 4 16 5
16 6 0 1 -17 23 -18 317 -18 254 0 315 3 311 13 -3 7 1 26 7 42 l13 30 12 -23
c7 -12 9 -32 6 -42 -6 -20 3 -20 722 -20 599 1 724 3 705 14 -20 10 -21 14 -9
24 8 7 30 10 51 8 31 -4 36 -2 36 14 0 23 -10 26 -28 8 -23 -23 -12 3 13 30
16 17 25 39 25 59 0 17 4 35 10 38 6 3 10 1 10 -5 0 -17 45 29 46 48 1 9 4 27
8 38 4 15 2 23 -9 28 -22 8 -19 23 10 52 17 17 23 30 17 37 -19 23 -25 79 -11
89 10 7 8 8 -8 5 -14 -3 -28 2 -39 14 -11 12 -13 19 -5 19 8 0 10 7 6 20 -4
12 -1 28 6 37 11 13 10 17 -4 28 -29 21 -21 38 16 31 22 -4 27 -3 17 3 -12 9
-12 11 4 17 11 4 21 2 26 -6 5 -7 10 -8 14 -2 9 15 -18 32 -61 39 -45 7 -53
16 -44 52 5 19 15 27 34 29 28 3 35 16 16 27 -6 4 -8 22 -4 46 4 25 3 39 -4
39 -6 0 -11 -6 -11 -13 0 -18 -24 -67 -32 -67 -5 0 -8 7 -8 15 0 8 -9 15 -20
15 -23 0 -26 10 -8 28 10 10 10 15 -2 22 -12 8 -10 10 8 10 15 0 22 6 22 20 0
12 -5 17 -14 14 -8 -3 -17 -1 -21 5 -3 6 2 11 12 11 19 0 43 18 43 32 0 4 -7
8 -15 8 -11 0 -15 12 -15 45 0 33 4 45 15 45 8 0 15 5 15 10 0 13 33 13 47 -1
17 -17 26 7 11 30 -7 11 -24 21 -38 23 -24 3 -25 6 -25 63 0 55 -2 60 -22 59
-29 -1 -32 16 -28 175 3 110 6 136 19 143 12 7 16 24 16 69 0 69 17 147 36
170 8 8 14 22 14 30 0 8 5 20 10 25 7 7 5 21 -6 43 -13 25 -13 35 -4 46 10 12
9 15 -9 15 -14 0 -21 -6 -21 -20 0 -11 -6 -20 -14 -20 -7 0 -22 -22 -33 -48
-15 -37 -32 -56 -67 -78 -27 -17 -44 -34 -41 -42 6 -16 -44 -37 -58 -23 -6 6
0 18 17 34 l27 25 -26 45 c-14 25 -25 52 -25 61 0 25 -34 75 -53 78 -30 5 -22
22 19 42 21 11 47 23 58 28 54 27 184 26 299 -2 45 -11 127 -29 182 -40 187
-37 380 -78 509 -109 71 -17 131 -30 133 -28 5 6 -172 55 -292 82 -117 27
-313 71 -404 91 -36 8 -67 18 -70 23 -9 13 -326 82 -335 73 -3 -2 -8 8 -12 22
-3 15 -9 25 -12 22 -2 -3 -18 2 -33 11 -22 13 -26 20 -17 30 6 7 17 13 24 13
8 0 14 8 14 18 0 10 4 22 10 28 5 5 14 50 19 99 12 110 32 185 69 267 31 67
62 101 102 113 41 13 70 36 88 70 9 18 28 52 41 76 13 24 25 62 25 85 1 35 -6
48 -46 93 -27 29 -48 56 -48 60 0 3 12 15 27 26 14 11 32 34 40 52 17 43 17
135 -2 180 -8 19 -15 45 -15 57 0 12 -9 27 -20 34 -11 7 -20 21 -20 31 0 11
-5 23 -10 26 -15 9 -40 74 -40 104 0 22 10 31 58 56 63 33 128 92 142 131 24
62 -4 145 -57 175 -13 7 -23 16 -23 21 0 5 -16 24 -35 42 -19 19 -35 38 -35
44 0 6 -7 9 -15 6 -9 -4 -15 0 -15 10 0 9 -4 16 -8 16 -17 0 -6 -52 17 -76 27
-28 22 -50 -16 -66 -15 -7 -35 -18 -44 -26 -10 -7 -31 -14 -48 -14 -16 -1 -32
-7 -35 -15 -3 -7 -14 -13 -25 -13 -11 0 -21 -4 -23 -9 -7 -19 -108 -60 -164
-66 -56 -6 -60 -5 -70 18 -10 21 -7 31 18 68 l29 43 -27 14 c-18 10 -33 11
-43 5 -20 -11 -91 10 -72 22 7 4 11 16 8 26 -5 18 -1 20 30 23 25 2 17 16 -21
36 -34 17 -41 17 -50 5 -13 -18 -27 -9 -43 27 -10 22 -10 26 1 22 21 -8 30 15
14 34 -7 9 -13 31 -13 47 0 23 5 31 23 33 24 4 25 7 22 65 -1 35 5 44 67 106
37 37 78 82 91 99 21 27 27 30 49 21 28 -10 83 -67 83 -86 0 -6 14 -23 30 -37
17 -14 33 -39 36 -55 4 -21 12 -31 24 -31 10 0 20 -5 22 -12 3 -7 10 -8 17 -4
9 6 5 14 -16 28 -15 11 -20 17 -10 14 12 -4 17 -2 14 6 -2 7 -12 12 -21 12
-12 -1 -15 3 -11 17 4 12 1 21 -9 25 -9 3 -13 10 -10 15 3 5 -2 9 -10 9 -22 0
-21 40 2 41 12 0 10 3 -8 10 -16 7 -20 13 -13 17 7 4 22 30 35 58 24 50 64
109 76 109 4 0 16 5 26 12 19 10 18 11 -3 18 -16 5 -20 11 -15 23 4 10 17 53
28 97 12 44 31 96 44 116 28 47 28 54 -8 134 -16 37 -30 74 -30 83 0 15 -2 15
-10 2 -8 -11 -9 -8 -4 13 5 21 1 36 -15 58 -36 49 -53 109 -56 199 -2 84 -2
84 10 40 l13 -45 -6 65 c-3 41 -11 70 -21 78 -12 10 -13 15 -3 18 18 8 15 32
-8 56 -11 12 -20 29 -20 37 1 13 4 12 16 -4 16 -19 16 -19 11 10 -12 66 -21
90 -33 98 -8 4 -14 18 -14 30 0 18 2 19 10 7 8 -11 9 -7 4 15 -4 17 -10 34
-15 39 -4 5 -5 -1 -2 -13 3 -11 1 -21 -5 -21 -6 0 -13 13 -17 29 -3 16 -13 35
-21 41 -7 7 -11 16 -8 21 3 5 0 9 -6 9 -6 0 -9 4 -6 9 3 5 -1 11 -9 15 -8 3
-15 10 -15 17 0 19 -48 70 -53 56 -3 -7 -6 -4 -6 6 -1 22 -61 88 -73 81 -4 -3
-5 3 -1 13 3 10 3 15 -1 11 -8 -6 -96 75 -96 88 0 10 -42 44 -54 44 -12 0 -49
55 -52 77 -3 18 17 31 54 35 24 2 38 11 54 36 16 26 17 31 4 26 -19 -7 -20 0
-4 29 15 29 11 89 -8 104 -10 7 -12 13 -5 18 27 16 -40 92 -179 201 -41 32
-89 71 -106 87 -79 70 -174 141 -228 168 -62 32 -182 53 -210 37 -8 -5 -36 -4
-63 2 -78 17 -83 17 -203 9z m148 -613 c17 -9 37 -16 44 -16 20 0 98 -92 98
-116 0 -23 42 -64 66 -64 8 0 14 -8 14 -19 0 -10 9 -21 19 -24 15 -3 18 -11
15 -28 -5 -22 -4 -23 9 -7 18 22 36 6 29 -28 -5 -26 -17 -32 -26 -11 -3 6 -3
-1 1 -18 7 -36 21 -55 39 -55 12 0 12 -4 0 -28 -9 -18 -11 -33 -5 -44 9 -16
-11 -48 -31 -48 -13 0 -18 -36 -7 -55 7 -14 6 -21 -8 -31 -15 -11 -16 -16 -6
-28 29 -35 -23 -50 -54 -16 -10 11 -20 18 -23 15 -3 -3 -12 0 -19 7 -11 9 -17
9 -23 -3 -8 -11 -13 -12 -27 -2 -10 6 -17 16 -15 22 1 6 -5 11 -14 11 -12 0
-15 -7 -10 -27 3 -16 3 -22 0 -15 -3 6 -17 12 -30 12 -13 0 -24 4 -24 8 0 16
-35 49 -47 45 -6 -2 -17 4 -25 15 -10 15 -27 19 -78 21 -67 2 -75 5 -75 24 0
15 -56 29 -147 36 -4 1 -10 10 -13 22 -4 11 -20 25 -36 31 -22 8 -29 16 -27
32 2 15 -2 21 -17 21 -11 0 -21 -6 -21 -12 -1 -7 -2 -17 -3 -23 -1 -13 -28
-13 -36 0 -4 6 -1 17 5 25 16 19 6 32 -31 40 -34 8 -51 -1 -29 -15 17 -10 13
-15 -17 -24 -17 -5 -24 -1 -35 21 -13 26 -17 28 -67 25 -47 -2 -52 -1 -47 15
3 10 1 25 -4 33 -8 12 -10 11 -10 -7 0 -20 -3 -21 -32 -12 -23 6 -34 5 -40 -4
-5 -8 -8 -5 -8 9 0 13 8 24 20 27 24 6 26 25 4 34 -13 5 -10 9 12 18 18 7 29
19 29 31 0 12 7 19 20 19 13 0 27 14 41 43 28 55 28 56 54 42 16 -9 25 -9 33
-1 6 6 18 11 28 11 9 0 48 16 88 36 61 30 84 36 158 40 48 3 89 6 90 7 1 2 51
2 111 1 77 -2 119 -7 140 -18z m-2933 -1106 c68 -11 188 -66 288 -131 l68 -44
-98 -3 c-54 -2 -150 2 -213 8 -63 6 -202 13 -309 17 l-194 6 29 24 c51 41 183
104 247 118 77 17 106 17 182 5z m3295 -15 c10 -13 9 -19 -6 -36 -10 -12 -32
-28 -47 -36 -26 -13 -27 -16 -12 -27 16 -11 15 -14 -9 -29 -14 -9 -32 -17 -41
-17 -8 0 -15 -4 -15 -10 0 -20 -35 -50 -60 -50 -23 1 -24 2 -7 14 9 7 17 19
17 27 0 11 -2 11 -10 -1 -11 -18 -23 -8 -14 14 3 9 15 16 25 16 10 0 19 6 19
13 0 18 74 94 100 102 11 3 20 13 20 21 0 19 24 18 40 -1z m-2238 -1783 c-3
-18 18 -46 62 -81 20 -16 37 -33 37 -38 0 -14 40 -23 58 -13 22 11 32 4 24
-17 -5 -13 -2 -13 19 1 25 16 104 31 146 27 21 -2 13 -30 -14 -48 -33 -21
-119 -20 -161 2 -15 8 -38 15 -50 15 -20 0 -95 43 -145 83 -17 14 -23 34 -20
70 2 13 9 17 25 15 12 -2 21 -9 19 -16z m-10 -439 c-12 -21 -21 -94 -28 -218
-3 -49 -5 -95 -6 -101 -1 -6 7 -63 16 -125 16 -100 32 -156 68 -236 6 -11 8
-26 4 -31 -3 -5 0 -12 8 -15 7 -3 16 -20 19 -37 7 -33 26 -61 88 -133 20 -23
40 -57 44 -75 3 -18 11 -30 15 -27 5 3 14 -4 20 -15 6 -11 8 -20 6 -20 -3 0 5
-11 17 -24 12 -13 55 -59 95 -102 41 -43 83 -96 94 -118 11 -21 57 -76 102
-121 46 -46 93 -97 106 -115 13 -18 45 -57 71 -88 27 -30 49 -59 49 -63 0 -4
20 -29 45 -54 24 -26 47 -56 51 -67 3 -11 24 -37 45 -58 21 -21 39 -46 39 -56
0 -22 -46 -86 -175 -249 -106 -133 -141 -184 -174 -245 -13 -25 -36 -66 -52
-91 -16 -25 -29 -49 -29 -53 0 -14 -34 -81 -44 -88 -22 -14 -26 23 -11 88 10
42 23 73 35 81 17 12 18 22 13 76 -5 60 -4 65 26 97 17 19 31 44 31 57 0 22
-24 53 -42 53 -6 0 -8 10 -4 24 3 14 2 27 -3 30 -5 4 -8 37 -6 74 1 37 -1 72
-6 77 -4 6 -14 49 -22 95 -19 106 -51 235 -64 252 -5 7 -10 30 -12 51 -1 21
-16 63 -32 94 -16 30 -29 63 -29 72 0 67 -114 296 -180 361 -28 28 -140 195
-140 210 0 5 -4 10 -9 10 -5 0 -11 -22 -15 -50 -4 -27 -10 -50 -14 -50 -15 0
-62 25 -62 33 0 4 -11 7 -25 7 -20 0 -25 -5 -26 -27 l0 -28 -10 25 c-6 13 -13
27 -17 30 -4 3 -14 25 -21 50 -7 25 -19 58 -27 73 -8 16 -14 48 -14 72 0 23
-7 60 -16 81 -13 30 -15 58 -11 124 9 118 60 254 142 375 25 39 53 85 61 104
8 19 17 32 20 28 3 -3 1 -14 -4 -24z m-384 -190 c-26 -41 -58 -107 -58 -118 0
-4 -7 -23 -16 -43 -9 -21 -23 -52 -30 -69 -8 -18 -20 -48 -28 -65 -22 -52 -60
-315 -56 -391 1 -18 2 -51 1 -73 -1 -40 -2 -42 -48 -55 -26 -7 -54 -14 -62
-15 -39 -5 -81 -17 -81 -24 0 -15 13 -19 31 -10 10 6 45 14 79 18 46 7 63 6
71 -4 6 -8 13 -53 14 -101 2 -48 7 -108 10 -133 5 -36 2 -50 -12 -66 -36 -42
-99 -58 -121 -31 -5 6 -18 38 -27 69 -9 32 -21 60 -26 63 -5 4 -9 17 -9 31 0
13 -4 24 -8 24 -5 0 -17 55 -27 123 -21 140 -33 532 -16 507 6 -8 11 -72 11
-143 0 -81 4 -126 10 -122 5 3 7 25 4 48 -3 24 1 67 10 102 9 32 16 83 16 112
0 28 5 55 10 58 6 3 10 14 10 23 0 14 -2 15 -10 2 -18 -29 -23 2 -11 84 6 46
19 104 27 130 13 38 20 46 40 46 13 0 57 9 97 20 122 34 222 55 225 48 2 -3
-7 -24 -20 -45z m-2787 -720 c59 -50 123 -118 139 -149 13 -22 11 -27 -11 -48
-19 -19 -144 -66 -173 -66 -3 0 -6 12 -6 28 0 22 -2 24 -11 12 -9 -12 -10 -11
-5 4 4 11 7 73 7 138 0 65 3 118 8 118 4 0 27 -17 52 -37z m-261 -278 c10 -12
10 -19 2 -27 -20 -20 -13 -28 22 -28 21 0 36 -6 40 -15 3 -8 13 -15 23 -15 16
0 16 -1 0 -17 -17 -17 -19 -17 -28 0 -10 17 -39 24 -39 10 1 -14 28 -58 34
-55 15 6 26 1 26 -13 0 -8 -4 -15 -10 -15 -12 0 -13 -33 -1 -45 5 -6 7 -34 4
-62 -5 -47 -8 -53 -29 -53 -12 0 -26 -5 -30 -12 -4 -7 -3 -8 5 -4 6 4 14 0 17
-8 3 -9 16 -16 28 -17 11 -1 3 -5 -18 -10 -26 -6 -43 -6 -50 1 -15 15 -36 12
-36 -5 0 -8 8 -15 19 -15 26 0 48 -54 31 -75 -7 -8 -21 -15 -31 -15 -15 0 -19
-8 -19 -37 0 -21 -7 -47 -15 -57 -14 -19 -15 -18 -21 11 -5 26 -10 31 -29 27
-18 -3 -24 1 -27 16 -2 15 -6 17 -18 9 -11 -8 -12 -12 -2 -16 6 -2 12 -11 12
-19 0 -8 10 -14 23 -14 l22 -1 -22 -18 c-13 -11 -23 -28 -23 -40 0 -16 -5 -19
-22 -14 -13 3 -36 7 -53 9 -16 1 -33 3 -37 3 -5 1 -8 15 -8 31 0 28 2 30 20
20 14 -7 20 -7 20 0 0 5 -4 10 -10 10 -5 0 -10 14 -10 31 0 24 -4 30 -15 25
-9 -3 -18 1 -21 9 -4 8 -15 15 -26 15 -10 0 -16 5 -13 10 4 6 11 8 16 5 5 -4
9 -2 9 2 0 5 -9 14 -21 21 -17 11 -19 16 -7 29 12 15 10 16 -14 9 -26 -6 -28
-4 -28 24 0 30 14 41 23 18 2 -7 8 -10 12 -6 10 10 -4 48 -19 48 -6 0 -22 20
-34 45 -18 37 -20 55 -15 108 4 51 2 66 -11 80 -22 22 -12 38 22 35 32 -3 133
9 182 22 19 5 58 14 85 21 28 7 56 19 63 26 18 17 37 16 52 -2z m946 -994 c5
-4 44 -14 87 -21 42 -7 77 -17 77 -22 0 -5 6 -8 13 -7 27 3 48 -1 43 -10 -8
-12 56 -21 69 -10 18 17 32 9 27 -16 -3 -16 -11 -25 -23 -25 -11 0 -19 -4 -19
-10 0 -19 -48 -21 -131 -5 -46 9 -97 17 -114 18 -43 3 -59 30 -56 95 1 23 10
28 27 13z m794 -11 c13 -7 21 -7 25 1 4 5 19 8 33 5 15 -3 43 -8 62 -10 19 -3
46 -9 60 -14 14 -5 101 -10 193 -10 115 0 173 -4 183 -13 10 -8 18 -9 27 0 8
6 16 8 20 5 3 -3 52 -7 109 -9 124 -5 200 -16 251 -38 20 -9 40 -16 42 -16 21
-1 55 -15 55 -22 0 -5 9 -9 20 -9 23 0 27 -25 5 -34 -8 -3 -15 -13 -15 -21 0
-9 4 -14 9 -11 43 27 97 -85 75 -156 -4 -13 0 -18 13 -18 22 0 44 -45 46 -95
1 -20 7 -35 15 -35 6 0 12 -8 12 -18 0 -10 6 -24 12 -30 10 -10 10 -15 -2 -22
-14 -9 -13 -15 21 -81 6 -13 2 -18 -14 -23 -18 -5 -20 -8 -7 -16 8 -5 11 -10
5 -11 -33 -3 -50 -10 -57 -23 -9 -16 -38 -22 -38 -8 0 4 -37 7 -82 7 -46 1
-130 8 -188 18 -58 9 -152 21 -210 27 -58 6 -116 15 -130 19 -14 5 -56 14 -95
21 -38 6 -142 29 -230 50 -88 21 -217 52 -287 69 -70 17 -137 31 -149 31 -12
0 -36 4 -53 9 -17 5 -51 15 -76 21 -25 6 -81 22 -125 35 -114 34 -130 38 -133
36 -2 -2 -13 4 -25 12 -12 8 -36 17 -52 21 -44 10 -85 50 -85 82 0 25 2 26 38
20 20 -4 43 -7 50 -6 56 6 118 -2 133 -17 8 -8 18 -8 35 0 18 8 28 7 36 -1 7
-7 33 -12 59 -12 26 0 49 -4 51 -9 2 -6 34 -4 78 3 41 8 91 12 110 11 19 -1
48 5 64 13 16 7 39 12 52 9 14 -2 25 1 28 10 5 11 9 11 26 1 17 -11 22 -10 30
2 8 13 10 12 10 -2 0 -10 4 -18 8 -18 10 0 57 49 51 53 -2 2 -17 11 -33 21
-28 18 -29 18 -24 -2 4 -15 1 -18 -13 -15 -11 3 -15 11 -12 20 9 23 -19 35
-39 16 -11 -10 -18 -12 -18 -5 0 7 -11 12 -24 12 -13 0 -26 7 -30 15 -7 20
-26 19 -26 -1 0 -8 -5 -12 -11 -9 -7 5 -5 13 7 26 11 12 14 27 10 44 -6 24
-26 36 -26 15 0 -5 5 -10 10 -10 16 0 12 -18 -10 -40 -23 -23 -37 -25 -43 -7
-3 9 -7 9 -20 -1 -14 -12 -20 -9 -48 19 -27 28 -29 33 -15 41 27 15 19 38 -14
38 -19 0 -30 5 -30 14 0 15 69 24 190 26 35 0 66 3 69 5 7 8 31 6 51 -5z"/>
<path d="M1 3433 c-2 -238 1 -295 11 -285 22 22 35 13 42 -27 9 -55 44 -66
195 -58 146 8 242 32 260 66 8 16 -2 128 -13 138 -3 3 -43 -7 -88 -22 -73 -24
-99 -28 -220 -29 -75 0 -140 2 -144 6 -13 13 26 46 75 63 25 8 85 21 133 27
l86 12 -17 26 c-10 14 -23 47 -30 74 -20 83 -67 172 -114 219 -48 47 -119 87
-154 87 -20 0 -21 -4 -22 -297z"/>
<path d="M52 2663 c-16 -16 -34 -37 -39 -48 -6 -11 -11 -125 -12 -252 l-3
-233 74 4 c91 5 168 22 187 40 12 13 10 18 -16 43 -28 25 -53 63 -53 77 0 23
97 -19 105 -45 7 -22 59 -49 93 -49 17 0 22 4 19 14 -3 8 -11 52 -17 98 -16
118 -19 128 -35 128 -8 0 -15 6 -15 14 0 8 -7 17 -16 20 -13 5 -15 15 -11 48
3 24 11 44 16 46 17 6 13 48 -6 63 -11 10 -14 10 -9 2 4 -7 2 -13 -4 -13 -5 0
-38 -20 -72 -45 -34 -25 -66 -45 -70 -45 -14 0 -9 37 7 50 24 20 18 56 -16 84
-39 33 -69 33 -107 -1z"/>
<path d="M401 2036 c-50 -37 -300 -116 -366 -116 -15 0 -24 -4 -20 -10 3 -5 2
-10 -3 -10 -6 0 -11 -41 -11 -95 -1 -87 1 -99 24 -133 34 -49 34 -103 0 -136
-33 -34 -33 -96 0 -92 11 1 26 6 33 10 7 4 12 2 12 -5 0 -9 4 -8 15 1 8 6 36
14 62 16 26 2 57 8 68 13 11 5 50 17 88 27 37 9 67 21 67 27 0 5 6 7 13 4 23
-9 101 37 111 66 13 36 -23 330 -53 435 l-6 23 -34 -25z m-34 -64 c7 -4 16
-60 23 -137 6 -72 15 -152 20 -178 7 -32 7 -55 0 -68 -19 -34 -32 -22 -28 26
2 27 -1 46 -8 49 -10 4 -18 47 -29 146 -1 14 -5 32 -8 40 -4 8 -7 29 -9 45 -3
25 -7 30 -27 27 l-25 -2 24 20 c27 23 6 28 -24 5 -11 -8 -29 -13 -40 -9 -18 4
-18 3 -6 -6 12 -9 13 -12 1 -17 -7 -3 -20 -14 -29 -24 -9 -10 -38 -26 -64 -35
-52 -17 -65 -28 -20 -18 61 14 122 37 132 49 17 20 69 1 70 -26 0 -10 -93 -46
-164 -63 -64 -16 -69 -16 -87 0 -14 12 -16 21 -9 35 14 24 13 29 -6 29 -8 0
-12 -4 -9 -10 3 -5 2 -10 -2 -10 -5 0 -14 10 -21 21 -18 28 -2 44 49 53 31 6
37 3 42 -14 4 -15 13 -20 41 -20 20 0 36 5 36 10 0 6 -8 10 -17 10 -15 0 -15
2 -4 9 12 8 12 10 0 14 -8 2 -4 3 7 1 13 -2 24 3 28 12 4 11 13 14 31 10 14
-4 25 -2 25 2 0 9 53 29 80 31 8 0 20 -3 27 -7z"/>
<path d="M9330 910 c0 -5 -9 -10 -20 -10 -25 0 -43 -35 -35 -67 3 -15 1 -29
-5 -33 -6 -4 -12 -41 -13 -83 -1 -42 -5 -77 -9 -77 -5 0 -8 -11 -8 -24 0 -14
-5 -37 -10 -51 -7 -17 -7 -33 0 -45 7 -13 6 -19 -5 -24 -8 -3 -14 -9 -13 -13
3 -9 -5 -13 -26 -13 -9 0 -12 7 -9 21 4 14 -2 28 -20 45 -19 17 -28 39 -33 74
-11 81 -28 76 -52 -15 -7 -27 -14 -59 -15 -70 -1 -11 -6 -27 -12 -35 -5 -8 -8
-25 -6 -37 1 -15 -3 -23 -13 -23 -20 0 -32 -20 -17 -30 12 -6 3 -15 -47 -44
-20 -12 -31 33 -15 66 8 15 12 32 8 38 -3 6 -7 28 -7 50 0 22 -4 40 -9 40 -5
0 -9 -8 -9 -18 0 -10 -11 -29 -26 -42 -19 -19 -23 -30 -18 -50 4 -14 6 -35 6
-47 -3 -40 -76 -98 -92 -73 -4 7 -12 -9 -19 -33 -7 -30 -18 -48 -30 -52 -18
-6 -35 -38 -32 -62 1 -7 -4 -13 -11 -13 -7 0 -23 -23 -36 -50 -12 -28 -26 -50
-31 -50 -5 0 -14 -13 -20 -30 l-10 -30 320 0 319 0 -6 24 c-4 18 0 28 17 40
13 9 18 16 11 16 -6 0 -12 9 -12 20 0 11 -5 19 -12 18 -7 -2 -13 9 -13 25 -1
15 2 27 6 27 4 0 10 20 13 45 9 54 33 105 51 105 7 0 15 7 19 15 6 18 -2 45
-15 45 -5 0 -9 5 -9 10 0 17 37 11 45 -7 7 -17 8 -16 15 2 5 11 9 36 9 56 1
19 6 40 12 46 14 14 1 36 -17 29 -8 -3 -14 -1 -14 5 0 5 11 14 24 19 34 13 38
25 16 45 -15 13 -17 22 -10 36 14 26 12 71 -5 93 -8 11 -15 14 -15 8 0 -7 -10
-12 -22 -12 -13 0 -18 3 -12 8 6 4 14 24 18 45 4 20 11 37 16 37 5 0 5 12 -1
29 -5 15 -9 32 -8 37 4 23 -2 54 -11 54 -5 0 -10 -4 -10 -10z"/>
<path d="M8410 824 c0 -8 -10 -14 -21 -14 -27 0 -48 -27 -49 -61 0 -14 -9 -34
-19 -43 -11 -10 -17 -24 -15 -31 3 -7 -6 -15 -23 -20 -26 -7 -26 -8 -8 -15 15
-7 16 -9 4 -9 -9 -1 -37 -17 -63 -37 -25 -19 -51 -32 -56 -29 -6 3 -7 -1 -4
-9 3 -9 1 -16 -4 -16 -6 0 -13 -9 -17 -19 -3 -11 -15 -23 -26 -26 -13 -4 -19
-15 -19 -36 0 -16 -5 -28 -11 -27 -6 2 -25 -18 -43 -44 -17 -26 -39 -50 -48
-53 -21 -8 -48 -33 -48 -45 0 -5 7 -7 15 -4 24 10 17 -12 -10 -30 -14 -9 -25
-25 -25 -36 0 -11 -4 -20 -10 -20 -5 0 -10 -7 -10 -15 0 -9 -7 -18 -15 -21 -8
-4 -15 -17 -15 -30 0 -14 -6 -27 -14 -30 -18 -7 -27 -29 -31 -72 l-3 -33 86 3
c80 3 87 5 90 24 2 12 12 30 23 40 10 9 19 21 19 26 0 16 62 87 82 94 18 5 55
64 41 64 -20 1 34 30 56 31 14 0 21 3 14 5 -18 8 -4 33 16 29 14 -2 16 3 13
26 -3 21 0 29 11 29 9 0 18 9 22 19 3 11 13 22 21 25 10 4 13 13 9 26 -4 12
-2 20 5 20 6 0 16 13 21 30 6 16 15 30 20 30 12 0 39 67 39 99 0 16 8 31 22
40 18 11 20 15 7 25 -8 6 -15 21 -16 33 -2 17 5 26 30 37 31 12 67 53 67 75 0
6 -25 10 -55 10 -40 -1 -55 -5 -55 -15z"/>
</g>
</svg>
