<?xml version="1.0" standalone="no"?>
<!DOCTYPE svg PUBLIC "-//W3C//DTD SVG 20010904//EN"
 "http://www.w3.org/TR/2001/REC-SVG-20010904/DTD/svg10.dtd">
<svg version="1.0" xmlns="http://www.w3.org/2000/svg"
 width="1280.000000pt" height="720.000000pt" viewBox="0 0 1280.000000 720.000000"
 preserveAspectRatio="xMidYMid meet">

<g transform="translate(0.000000,720.000000) scale(0.100000,-0.100000)"
fill="#000000" stroke="none">
<path d="M4532 7170 c-8 -17 -29 -49 -48 -71 -37 -44 -46 -73 -14 -44 11 10
20 13 20 7 0 -6 -17 -20 -37 -31 -21 -10 -47 -28 -57 -40 -11 -12 -23 -21 -29
-21 -5 0 -68 -39 -140 -86 -258 -171 -431 -388 -543 -681 -72 -190 -167 -500
-167 -550 0 -17 -5 -17 -90 7 -39 11 -85 22 -101 25 l-29 6 7 84 c8 99 41 300
55 337 5 14 35 51 66 84 69 71 73 80 124 228 43 125 50 179 26 210 -8 11 -15
27 -15 37 0 22 -48 69 -71 69 -11 0 -19 -4 -19 -9 0 -5 -10 -13 -22 -16 -37
-11 -79 -56 -103 -111 -87 -192 -171 -532 -190 -764 -13 -161 -16 -180 -31
-180 -40 0 -207 -101 -304 -184 -34 -29 -67 -48 -89 -51 -157 -25 -365 -107
-448 -177 -30 -25 -49 -34 -66 -31 -25 5 -45 -12 -50 -44 -1 -11 -17 -37 -35
-59 -36 -44 -40 -61 -14 -66 18 -3 18 -7 -6 -70 -21 -57 -28 -68 -48 -68 -26
0 -49 -33 -40 -57 4 -9 0 -25 -7 -37 -45 -72 -60 -183 -49 -356 7 -93 8 -95
33 -98 23 -3 27 -9 32 -44 3 -22 1 -52 -4 -65 -13 -34 -12 -220 1 -228 23 -14
37 15 32 68 -3 33 -1 48 5 42 6 -5 18 -84 27 -175 9 -91 19 -179 22 -196 5
-25 1 -32 -21 -42 -27 -12 -27 -13 -21 -85 4 -39 12 -106 18 -147 5 -41 23
-185 38 -320 l28 -245 -21 -24 c-12 -12 -49 -37 -82 -53 -33 -17 -76 -42 -95
-56 -19 -15 -44 -25 -55 -24 -12 2 -29 -5 -38 -15 -16 -18 -47 -120 -47 -155
0 -9 -8 -25 -18 -35 -42 -43 -47 -57 -52 -152 l-5 -96 -75 -6 c-41 -3 -96 -12
-123 -19 l-47 -12 -66 70 c-50 55 -161 149 -242 208 -2 1 3 15 10 31 14 31 13
113 -3 113 -5 0 -9 -4 -9 -9 0 -5 -27 -32 -60 -59 -44 -37 -55 -52 -44 -56 24
-9 7 -24 -23 -20 -16 2 -22 1 -15 -2 34 -16 -15 -48 -93 -59 -27 -5 -55 -14
-62 -21 -8 -7 -20 -11 -27 -8 -8 3 -17 1 -21 -5 -4 -7 7 -11 30 -11 21 0 34
-4 30 -10 -3 -5 -19 -7 -35 -4 -18 4 -39 0 -58 -12 -26 -15 -33 -16 -47 -4
-14 11 -18 11 -25 0 -13 -20 -71 -23 -85 -4 -11 16 -12 16 -18 0 -5 -12 -20
-16 -72 -16 -39 0 -65 4 -65 11 0 5 -4 8 -9 5 -5 -3 -23 -1 -41 5 -25 9 -31
16 -26 32 6 24 -29 56 -62 57 -13 0 -20 4 -17 10 3 6 2 10 -4 10 -5 0 -16 3
-25 6 -13 5 -16 -1 -16 -27 0 -21 -3 -30 -10 -23 -11 11 -17 135 -6 152 17 28
127 91 206 119 47 16 87 33 90 38 3 6 -32 11 -86 13 l-92 3 -10 39 c-12 49 -1
52 73 15 62 -30 65 -30 65 -1 0 20 -12 29 -74 56 -68 30 -76 36 -83 69 -7 28
-14 35 -29 33 -10 -1 -68 -7 -129 -12 -194 -17 -215 -21 -215 -39 0 -9 23 -31
50 -49 57 -37 105 -98 120 -151 5 -20 14 -85 20 -146 6 -60 15 -130 20 -155
22 -103 22 -130 3 -130 -14 0 -15 2 -4 9 8 5 9 11 3 15 -8 5 -18 58 -27 146
-6 55 -22 80 -37 57 -5 -8 -8 -6 -8 6 0 9 -7 17 -15 17 -16 0 -33 68 -19 79 5
3 15 19 23 34 13 24 13 29 -2 44 -15 15 -20 13 -72 -22 l-56 -39 3 -140 3
-140 35 -9 c19 -5 47 -22 62 -38 23 -25 34 -29 82 -29 41 0 56 -4 56 -14 0 -7
10 -26 21 -41 26 -32 49 -125 54 -211 5 -97 13 -124 39 -124 12 0 27 5 33 11
6 6 23 9 36 5 20 -5 27 -14 32 -48 8 -47 -3 -60 -67 -80 -21 -6 -38 -17 -38
-25 0 -17 10 -17 69 6 l49 18 15 -56 c9 -31 23 -94 32 -141 9 -47 27 -130 40
-185 13 -55 29 -125 35 -155 16 -74 33 -98 86 -121 139 -59 496 35 561 148 17
30 18 41 6 160 -6 70 -15 205 -18 298 -4 94 -9 177 -12 185 -8 22 -4 153 5
161 4 3 38 18 75 33 70 27 84 28 187 7 25 -5 56 -7 70 -4 23 4 25 9 22 39 -4
30 -6 33 -20 22 -13 -11 -14 -10 -4 8 6 12 9 24 6 26 -3 3 7 9 21 12 14 4 23
11 20 15 -5 9 83 18 122 13 14 -2 25 -14 33 -36 13 -40 108 -109 182 -131 31
-9 91 -15 150 -15 85 0 101 3 118 20 39 39 38 39 -132 59 -102 12 -173 39
-247 95 -52 39 -53 41 -48 83 5 46 48 113 73 113 8 0 40 -11 72 -24 31 -13 84
-29 118 -36 53 -10 65 -10 94 5 38 20 41 18 65 -64 8 -31 23 -81 31 -110 l16
-55 32 53 c172 292 327 460 541 590 129 79 152 85 312 82 81 -1 161 3 184 9
23 6 43 10 45 8 8 -8 -27 -201 -45 -248 -11 -27 -42 -86 -70 -129 -28 -44 -61
-110 -73 -148 -12 -37 -27 -71 -32 -75 -7 -5 -6 -8 2 -8 8 0 11 -7 8 -18 -8
-25 -44 -222 -61 -334 -22 -151 -64 -246 -188 -433 -22 -33 -75 -130 -117
-215 -144 -288 -130 -247 -130 -396 0 -129 -1 -133 -41 -240 -73 -196 -126
-280 -137 -221 -2 10 -19 46 -39 80 -19 34 -50 114 -68 177 -19 63 -43 146
-55 183 -12 38 -32 110 -45 160 l-25 92 6 -95 c3 -52 9 -115 14 -140 5 -29 5
-47 -2 -51 -7 -4 -6 -9 1 -13 14 -9 15 -36 1 -36 -5 0 -10 7 -10 16 0 11 -5
14 -16 10 -9 -3 -18 -6 -20 -6 -9 0 -2 -98 10 -131 9 -25 10 -43 3 -60 -10
-24 -10 -23 -20 11 -6 19 -14 37 -17 40 -14 12 -40 80 -40 107 0 36 -26 134
-38 142 -5 3 -11 14 -15 24 -3 9 -16 17 -28 17 -18 0 -20 -5 -16 -26 3 -19 -1
-28 -17 -34 -21 -8 -21 -8 4 -19 24 -10 25 -10 4 -16 -26 -8 -39 -57 -24 -86
9 -15 7 -19 -5 -19 -9 0 -13 -5 -10 -10 4 -6 8 -25 10 -43 5 -58 17 -107 26
-107 6 0 5 -9 -1 -20 -11 -21 -40 -28 -40 -10 0 6 4 10 9 10 15 0 -43 57 -66
64 -26 8 -43 -17 -43 -62 0 -42 -51 -78 -169 -117 -53 -17 -140 -17 -238 1
-29 5 -33 4 -33 -15 0 -11 6 -21 13 -22 6 0 2 -4 -10 -9 -19 -8 -23 -17 -23
-52 0 -84 -28 -213 -65 -298 -20 -47 -39 -91 -42 -97 -4 -10 184 -13 921 -13
518 0 926 4 926 9 0 4 -24 9 -52 10 -29 0 -54 5 -56 11 -2 5 -16 10 -30 10
-15 0 -33 4 -41 9 -7 5 -25 5 -40 1 -41 -11 -121 33 -121 67 0 7 -11 18 -24
24 -16 8 -22 17 -19 30 4 15 -2 23 -26 32 -24 9 -30 16 -25 30 4 13 2 17 -5
13 -16 -10 -71 22 -71 42 0 10 -7 27 -15 38 -16 22 -20 74 -5 74 6 0 5 8 -2
20 -10 16 -9 22 11 39 16 14 25 35 28 66 3 25 10 45 14 45 5 0 9 9 9 20 0 30
-13 24 -35 -17 -29 -52 -46 -68 -56 -51 -6 8 -7 -1 -4 -22 3 -19 3 -29 -1 -22
-3 6 -10 10 -15 6 -5 -3 -9 -1 -9 4 0 16 26 73 31 68 3 -3 5 3 6 12 1 9 19 64
42 122 l40 105 -4 121 -3 121 45 89 c24 49 64 132 87 184 23 52 75 149 116
215 153 249 163 277 214 585 20 117 39 216 42 221 3 5 7 28 9 50 4 35 55 144
75 159 14 10 79 146 89 185 5 22 15 82 22 133 6 51 16 95 20 98 5 3 62 12 126
20 202 25 353 56 493 99 184 58 328 91 342 77 13 -13 2 -48 -24 -71 -26 -25
-22 -78 6 -73 31 6 8 -16 -32 -28 -20 -7 -41 -16 -46 -21 -6 -5 -23 -9 -38 -9
-26 0 -33 -8 -29 -37 3 -18 -16 -16 -27 3 -8 14 -12 14 -31 3 -11 -8 -19 -19
-17 -26 3 -6 -8 -16 -24 -22 -34 -12 -85 -56 -85 -74 0 -6 -12 -13 -27 -15
-16 -2 -28 -9 -28 -15 0 -11 -86 -57 -107 -57 -4 0 -13 -8 -20 -19 -8 -13 -19
-17 -36 -14 -18 4 -28 -1 -36 -15 -6 -11 -7 -23 -3 -27 4 -4 1 -6 -7 -3 -17 5
-72 -45 -75 -69 -2 -10 -10 -17 -18 -15 -9 1 -21 -4 -28 -13 -16 -19 -5 -49
15 -41 8 3 15 1 15 -4 0 -5 -19 -13 -42 -17 -34 -5 -38 -8 -23 -14 19 -7 19
-8 -1 -8 -11 -1 -24 -5 -30 -10 -15 -15 -203 -59 -281 -67 -40 -3 -73 -10 -73
-14 0 -3 44 -1 98 6 145 20 242 21 253 3 13 -20 11 -27 -8 -32 -10 -2 -3 -3
15 -1 17 1 32 -1 32 -7 0 -5 -3 -9 -7 -9 -15 0 -34 -53 -23 -64 7 -7 10 -6 10
2 0 7 6 12 13 12 15 0 40 -45 41 -75 1 -11 8 -20 16 -20 8 0 20 -3 25 -7 31
-19 86 -19 124 0 21 11 42 18 45 15 3 -4 6 3 6 15 0 27 34 30 49 5 9 -17 10
-17 16 -1 9 24 2 53 -13 53 -6 0 -12 5 -11 10 0 6 7 9 15 7 9 -2 27 4 41 13
13 9 28 14 31 10 4 -3 0 -10 -7 -14 -8 -6 -9 -11 -3 -15 6 -3 14 3 17 14 9 29
29 19 33 -16 6 -46 41 -76 43 -36 0 15 1 15 8 -2 6 -15 12 -5 30 45 13 35 33
87 46 114 12 28 26 61 30 75 4 14 11 30 15 35 4 6 13 28 20 50 7 22 26 68 42
102 15 34 28 64 28 68 0 14 92 197 96 192 3 -3 7 -58 9 -123 2 -66 5 -130 8
-144 2 -14 7 -50 12 -80 11 -81 33 -173 67 -280 63 -199 68 -218 68 -248 0
-17 5 -34 10 -37 6 -3 10 -16 10 -29 0 -12 3 -26 8 -30 4 -4 7 -11 8 -14 1
-19 28 -98 36 -107 4 -5 8 -18 8 -30 0 -12 4 -25 9 -30 18 -19 51 -135 51
-178 0 -39 22 -99 50 -132 9 -11 -2 -22 -57 -57 -37 -25 -95 -57 -128 -73 -33
-16 -73 -38 -90 -50 -16 -12 -38 -25 -47 -28 -18 -6 -240 -156 -248 -167 -3
-4 -24 -17 -47 -29 -24 -12 -50 -32 -59 -46 -9 -14 -23 -25 -32 -25 -8 0 -12
-3 -9 -6 4 -4 -15 -23 -41 -42 -64 -49 -74 -60 -69 -75 2 -6 0 -22 -4 -35 -6
-16 -5 -21 2 -17 5 4 4 -8 -4 -27 -16 -41 -17 -134 -1 -131 13 3 7 -34 -7 -43
-5 -3 -9 -36 -9 -74 0 -38 -5 -72 -10 -75 -18 -11 -10 -25 14 -25 14 0 28 -4
31 -10 3 -5 2 -10 -3 -10 -16 0 -46 -71 -33 -79 6 -4 12 -28 14 -53 1 -26 6
-50 10 -54 11 -11 8 -34 -4 -32 -6 2 -14 -3 -16 -9 -3 -8 4 -13 19 -13 20 -1
21 -2 6 -11 -10 -5 -18 -21 -18 -34 0 -17 -6 -25 -17 -25 -15 0 -16 -2 -3 -10
13 -8 11 -11 -7 -16 -13 -4 -23 -11 -23 -16 0 -5 9 -7 19 -3 24 7 37 -11 21
-30 -11 -13 10 -15 155 -15 155 0 167 1 161 18 -6 16 -5 16 8 -1 12 -15 34
-17 204 -17 142 0 192 3 196 13 5 9 7 9 12 0 9 -20 27 -15 21 6 -3 13 3 22 19
30 27 12 39 49 28 89 -4 15 -6 35 -5 44 2 14 -5 18 -28 18 -35 0 -39 7 -13 26
15 12 15 13 1 14 -21 0 -53 36 -44 49 4 7 -5 11 -24 11 -17 0 -31 5 -31 11 0
8 -4 8 -13 0 -10 -8 -19 -4 -35 19 -28 37 -28 40 8 80 17 18 30 37 30 42 0 4
8 8 18 8 9 0 13 -4 7 -8 -5 -4 -16 -17 -23 -30 -10 -19 -10 -25 2 -37 20 -20
25 -19 19 5 -7 25 22 38 47 22 24 -15 35 11 15 32 -22 22 3 26 43 7 29 -13 34
-13 42 -1 21 32 8 -4 -16 -47 -16 -29 -22 -49 -16 -55 7 -7 14 -3 22 11 15 29
33 16 25 -20 -8 -36 32 -82 67 -76 13 2 17 2 11 0 -21 -7 -14 -23 10 -23 33 1
64 27 49 42 -17 17 -15 38 4 38 8 0 13 -4 9 -10 -10 -16 6 -59 23 -63 10 -2 7
-3 -5 -2 -29 3 -47 -10 -38 -25 6 -10 9 -9 15 0 4 7 12 10 18 6 11 -6 10 -102
-2 -128 -5 -11 -3 -17 7 -20 13 -3 14 -8 2 -40 l-13 -38 587 0 c499 1 589 3
605 15 27 21 53 20 36 0 -11 -13 22 -15 290 -15 297 0 302 0 297 20 -3 11 -1
23 4 26 5 3 9 0 9 -7 0 -7 2 -10 5 -7 3 3 1 17 -4 31 -8 19 -7 27 5 31 8 3 14
16 14 30 0 28 16 42 43 38 9 -2 17 2 17 7 0 6 7 11 15 11 8 0 15 -4 15 -10 0
-5 5 -10 10 -10 6 0 5 8 -2 19 -10 16 -9 23 4 38 17 20 14 43 -7 43 -8 0 -19
8 -25 18 -9 14 -10 12 -7 -14 2 -25 0 -31 -11 -26 -11 4 -13 19 -8 76 10 104
8 101 72 101 49 0 57 3 65 23 5 13 4 33 -1 48 -6 14 -10 39 -10 55 0 17 -8 44
-17 62 -9 18 -16 45 -14 60 2 18 -4 34 -16 42 -23 18 0 20 27 3 15 -10 22 -10
32 0 9 9 8 12 -7 12 -18 0 -17 2 5 20 16 12 33 17 48 13 27 -6 74 31 66 52 -3
8 1 12 12 12 9 -1 18 3 20 8 4 11 -41 35 -67 35 -10 0 -21 5 -24 10 -3 6 1 10
9 10 9 0 16 5 16 10 0 13 -6 13 -32 -1 -17 -9 -19 -8 -13 10 3 12 -2 36 -14
59 -15 29 -17 42 -8 51 8 8 8 11 0 11 -6 0 -13 -6 -16 -12 -3 -10 -7 -10 -17
-1 -10 9 -7 16 14 34 17 15 23 26 16 34 -14 17 -8 58 12 81 12 14 16 24 9 28
-5 4 -8 13 -5 21 4 8 10 13 14 10 4 -3 11 6 14 20 5 19 13 25 35 25 17 0 31 6
35 15 3 8 11 14 18 13 8 -2 13 7 13 22 0 18 6 26 24 30 14 3 23 8 20 11 -2 4
3 15 12 25 23 28 49 89 49 117 0 23 3 25 39 20 22 -3 52 -2 66 1 22 6 25 9 15
21 -16 20 5 20 40 0 25 -14 50 -5 50 18 0 19 35 36 73 37 37 0 38 1 32 29 -5
25 -3 30 17 33 13 2 23 10 23 18 0 8 -5 14 -11 13 -7 -1 -10 6 -7 18 6 20 6
20 20 -1 17 -24 38 -27 29 -3 -6 14 -3 14 16 -3 13 -12 37 -26 53 -31 47 -16
99 -50 83 -55 -7 -3 3 -5 22 -5 49 0 276 -66 373 -108 45 -20 107 -50 137 -69
30 -18 127 -71 215 -117 88 -46 192 -100 230 -121 107 -58 412 -208 421 -208
10 1 -58 38 -276 152 -74 39 -146 79 -160 88 -14 10 -65 38 -115 62 -142 71
-213 110 -310 169 -49 31 -130 72 -180 93 -49 20 -99 41 -110 46 -11 5 -46 14
-77 20 -32 6 -60 16 -63 21 -4 5 -14 9 -24 9 -10 0 -24 6 -31 14 -6 8 -17 13
-25 10 -7 -3 -16 0 -20 5 -3 6 -11 9 -16 6 -5 -4 -9 -2 -9 3 0 5 -13 15 -28
21 -43 18 -82 59 -82 87 0 15 -14 38 -35 60 -19 19 -35 39 -35 44 0 5 -6 13
-13 17 -10 6 -9 12 5 25 10 10 20 13 23 8 4 -6 15 -10 25 -10 11 0 24 -12 31
-29 7 -17 21 -32 31 -34 12 -4 18 -15 18 -33 0 -27 0 -27 19 -8 13 13 16 23 8
32 -5 7 -7 16 -3 19 4 4 11 1 16 -7 13 -21 28 -2 32 40 2 27 8 36 26 38 12 2
22 10 22 18 0 11 6 13 20 9 15 -5 23 2 40 36 11 24 20 51 20 61 0 10 5 18 11
18 7 0 9 14 5 43 -3 23 -7 50 -8 59 -1 9 -6 14 -10 12 -4 -3 -8 -1 -8 4 0 20
-104 129 -132 138 -10 3 -18 12 -18 19 0 9 -6 12 -15 9 -15 -6 -85 32 -85 46
0 4 -20 21 -45 37 -25 15 -45 34 -45 41 0 6 -3 12 -7 12 -5 0 -17 14 -28 31
-11 16 -35 39 -52 50 -18 11 -33 27 -33 35 0 8 -6 14 -12 14 -7 0 -24 17 -38
38 -14 20 -28 42 -33 47 -4 6 -22 33 -39 60 -69 108 -143 186 -238 250 -88 59
-100 96 -63 188 62 154 71 188 113 417 10 58 20 120 22 139 3 29 8 35 47 50
65 24 83 54 91 156 4 47 11 90 16 94 5 5 45 4 88 -1 44 -5 94 -7 113 -3 43 8
96 55 130 114 30 53 72 101 87 101 6 0 22 -21 36 -48 24 -44 27 -47 65 -46 79
2 280 148 328 239 21 38 22 53 21 260 0 184 -4 236 -21 317 -24 109 -60 190
-86 194 -10 1 -38 20 -63 41 -59 49 -64 52 -184 99 -25 10 -51 24 -58 31 -22
22 -56 37 -77 36 -15 -1 -16 -1 -3 3 13 4 16 13 12 37 -11 60 -76 262 -116
357 -40 95 -144 301 -157 310 -4 3 -20 26 -36 52 -17 27 -33 48 -37 48 -3 0
-19 20 -35 45 -15 25 -31 45 -35 45 -4 0 -16 17 -27 38 -10 20 -33 45 -51 55
-34 20 -54 59 -45 88 6 18 -4 93 -11 86 -3 -2 -8 -24 -12 -48 l-8 -44 -40 55
c-40 56 -84 150 -84 183 0 10 -4 16 -10 12 -12 -7 -50 66 -50 97 0 27 -9 41
-32 54 -30 16 -118 127 -118 149 0 16 -2 17 -10 5 -7 -12 -26 3 -93 73 l-84
87 -994 0 -994 0 -13 -30z m971 -144 c11 -5 23 -4 30 3 12 12 119 15 131 4 8
-8 23 -12 87 -22 26 -4 59 -15 74 -25 15 -10 35 -16 46 -13 10 3 23 -1 30 -9
6 -8 15 -11 20 -8 5 3 9 -2 9 -10 0 -18 25 -22 35 -6 10 16 42 12 49 -6 8 -22
-4 -40 -15 -23 -5 8 -9 9 -9 3 0 -5 7 -19 15 -30 8 -10 15 -30 15 -44 0 -22 1
-23 16 -8 14 14 14 21 4 53 -9 28 -9 40 -1 48 9 9 19 4 39 -19 23 -26 33 -31
62 -27 22 3 30 1 22 -5 -10 -6 -8 -14 8 -32 24 -28 24 -22 1 -49 l-19 -21 -17
27 c-16 24 -19 25 -30 10 -7 -9 -17 -17 -24 -17 -12 0 -15 -13 -4 -23 3 -4 12
-2 19 4 17 14 27 -7 22 -48 -3 -25 -4 -26 -18 -12 -14 15 -16 15 -32 -4 -10
-11 -18 -24 -18 -28 0 -4 -16 -11 -35 -15 -19 -3 -38 -11 -42 -17 -4 -6 0 -8
10 -4 8 3 21 -1 27 -9 10 -11 9 -14 -6 -15 -42 -3 -47 -4 -51 -15 -2 -6 5 -14
17 -17 13 -3 18 -10 14 -21 -5 -12 -10 -13 -27 -3 -12 7 -25 16 -28 20 -3 5
-9 2 -12 -7 -8 -20 -43 -21 -50 -2 -8 20 -46 16 -58 -6 -7 -13 -6 -18 5 -18 8
0 16 6 19 13 8 24 37 -14 36 -47 l-1 -31 -9 32 c-7 24 -13 30 -29 26 -12 -3
-23 -17 -26 -32 -11 -49 -27 -83 -34 -71 -4 7 -12 -1 -20 -19 -7 -17 -19 -31
-26 -31 -17 0 -18 12 -2 28 6 6 8 15 4 19 -4 4 -12 0 -17 -10 -6 -9 -17 -17
-24 -17 -17 0 -20 -26 -5 -35 6 -3 10 -12 10 -18 0 -8 -3 -9 -8 -1 -5 7 -14 7
-30 -2 l-23 -12 28 -7 c24 -6 25 -8 10 -16 -9 -6 -22 -7 -27 -4 -6 3 -22 -1
-38 -10 -25 -15 -29 -15 -57 0 l-30 17 33 -6 c26 -4 32 -2 32 12 0 10 5 23 12
30 6 6 8 15 4 19 -4 4 -15 -3 -25 -16 -12 -16 -24 -22 -35 -18 -9 4 -16 2 -16
-3 0 -6 -10 -10 -22 -10 -22 1 -22 1 -4 15 15 12 16 16 5 32 -8 10 -23 19 -34
21 -11 2 -28 12 -37 24 l-18 20 -18 -23 -19 -22 -7 27 c-8 33 -1 46 25 46 11
0 18 4 14 9 -10 17 -60 5 -60 -14 0 -24 -23 -31 -31 -11 -7 17 -34 22 -34 6 0
-5 -8 -10 -18 -10 -21 0 -66 43 -55 53 4 4 -3 14 -15 23 -12 8 -19 20 -16 26
5 7 2 8 -5 4 -8 -6 -10 -21 -6 -47 5 -31 4 -39 -8 -39 -8 0 -17 14 -21 33 -5
23 -9 28 -15 18 -6 -10 -10 -10 -16 -1 -4 7 -18 9 -37 5 -28 -7 -29 -6 -16 14
10 16 10 23 0 33 -9 9 -12 9 -12 0 0 -7 -15 -12 -39 -12 -22 0 -44 -6 -51 -15
-7 -9 -15 -13 -18 -10 -12 11 -12 48 -1 61 6 8 9 20 6 29 -8 21 9 28 34 14 28
-14 38 1 32 46 -3 24 1 39 15 53 10 10 21 29 25 41 3 13 3 20 0 17 -9 -8 -33
14 -33 30 0 7 15 20 34 29 19 9 36 25 39 36 3 13 11 17 21 13 9 -3 16 -2 16 4
0 18 33 23 50 7 15 -14 18 -14 30 0 7 8 20 15 29 15 10 0 27 9 39 20 12 11 24
20 27 20 3 0 18 8 32 18 49 32 137 46 176 28z m818 -36 c5 0 18 -9 28 -19 17
-17 24 -18 56 -8 25 7 39 8 43 0 4 -5 22 -18 40 -27 63 -32 194 -140 246 -201
64 -78 96 -118 97 -125 5 -34 4 -69 -2 -86 -6 -16 -3 -24 12 -31 20 -8 20 -9
-1 -28 -18 -16 -20 -16 -14 -2 6 17 -7 22 -48 19 -10 -1 -18 5 -18 14 0 8 -26
42 -57 75 -32 33 -61 69 -65 82 -4 16 -6 17 -7 5 -1 -10 -7 -18 -15 -18 -9 0
-12 8 -8 25 3 20 0 25 -16 25 -11 0 -27 11 -36 25 -9 14 -22 25 -30 25 -7 0
-18 11 -24 25 -6 14 -18 25 -27 25 -8 0 -15 5 -15 10 0 6 -11 15 -24 20 -14 5
-26 19 -28 32 -2 17 -10 23 -28 24 -44 1 -48 4 -43 23 3 10 0 22 -6 25 -6 4
-11 0 -11 -8 0 -9 -5 -16 -11 -16 -6 0 -9 6 -7 12 3 7 -1 19 -9 26 -19 20 -17
66 3 58 9 -3 20 -6 25 -6z m-74 -22 c-3 -8 -6 -5 -6 6 -1 11 2 17 5 13 3 -3 4
-12 1 -19z m-1572 -58 c-1 -19 3 -30 12 -30 14 0 18 -26 5 -34 -5 -3 -19 4
-30 15 -21 19 -22 19 -22 1 0 -10 -6 -24 -12 -31 -11 -10 -10 -15 4 -25 11 -8
15 -20 12 -34 -8 -28 -31 -36 -30 -10 1 27 -22 35 -30 11 -3 -10 -10 -26 -15
-35 -5 -10 -9 -24 -9 -32 0 -8 -7 -16 -15 -20 -8 -3 -15 -12 -15 -20 0 -8 -13
-29 -29 -47 -25 -27 -28 -36 -19 -53 8 -15 8 -21 0 -24 -9 -3 -9 -9 -1 -23 9
-17 13 -18 25 -8 13 10 17 10 25 -2 5 -8 9 -17 9 -21 0 -12 -58 -10 -62 2 -2
6 -8 6 -18 0 -13 -8 -12 -10 3 -10 23 0 22 -27 -3 -35 -11 -3 -29 -18 -40 -32
l-20 -26 0 24 c-1 20 -2 22 -13 9 -7 -8 -30 -21 -52 -29 -22 -7 -57 -24 -77
-37 -21 -13 -39 -24 -42 -24 -11 0 -11 119 0 156 21 70 72 165 129 239 64 84
101 119 177 169 52 34 60 36 92 27 34 -9 40 -7 37 12 0 4 5 7 12 7 9 0 13 -11
12 -30z m-59 -267 c-10 -10 -19 5 -10 18 6 11 8 11 12 0 2 -7 1 -15 -2 -18z
m-56 -33 c0 -5 -5 -10 -11 -10 -5 0 -7 5 -4 10 3 6 8 10 11 10 2 0 4 -4 4 -10z
m44 -26 c9 -22 -3 -32 -14 -14 -12 19 -12 30 -1 30 5 0 12 -7 15 -16z m1316
-28 c0 -11 -19 -15 -25 -6 -3 5 1 10 9 10 9 0 16 -2 16 -4z m-1434 -164 c-8
-9 -18 -13 -22 -10 -8 9 19 37 29 31 5 -3 2 -12 -7 -21z m857 -298 c21 -8 9
-44 -14 -44 -19 0 -27 29 -12 43 8 8 8 8 26 1z m-111 -33 c-4 -10 2 -12 27 -6
24 5 37 2 52 -11 16 -14 24 -16 38 -7 13 8 21 9 29 1 8 -8 14 -4 22 16 9 26
10 26 35 10 14 -9 35 -30 47 -47 21 -29 21 -30 2 -23 -28 12 -64 19 -64 13 0
-3 11 -18 25 -33 l26 -28 46 17 c44 16 46 16 73 -6 35 -27 54 -68 45 -96 -8
-26 12 -28 31 -3 13 16 13 16 14 0 0 -10 5 -18 11 -18 5 0 7 -5 3 -11 -4 -8
-9 -7 -15 2 -6 11 -12 9 -28 -5 -20 -18 -21 -18 -31 8 -5 15 -15 24 -20 21 -6
-4 -24 -4 -40 0 -25 6 -28 9 -20 25 7 13 6 19 -5 24 -10 3 -15 -1 -15 -13 0
-18 -34 -44 -102 -79 -32 -16 -45 -47 -28 -67 10 -11 2 -13 -44 -8 l-56 6 -1
-34 c0 -19 -3 -28 -6 -20 -5 11 -7 11 -14 0 -6 -11 -13 -9 -31 7 -29 27 -57
27 -85 1 -17 -15 -23 -17 -23 -6 0 10 -2 11 -8 2 -5 -8 -13 -9 -22 -3 -8 6
-25 10 -37 10 -19 0 -23 6 -23 30 0 17 5 30 11 30 5 0 8 4 4 10 -3 5 -12 7
-20 4 -8 -3 -25 7 -40 23 -14 15 -34 37 -45 49 -25 27 -25 40 0 54 12 6 25 22
30 36 12 31 55 35 47 4 -3 -11 -1 -20 4 -20 5 0 9 9 9 19 0 27 40 39 56 16 12
-16 15 -15 43 6 24 17 29 28 25 46 -4 13 -4 33 -1 46 5 17 13 22 40 22 25 0
33 -4 29 -14z m458 -31 c0 -5 -5 -10 -11 -10 -5 0 -7 5 -4 10 3 6 8 10 11 10
2 0 4 -4 4 -10z m-590 -4 c0 -11 -19 -15 -25 -6 -3 5 1 10 9 10 9 0 16 -2 16
-4z m-1907 -77 c-5 -5 -7 7 -4 29 5 34 6 35 9 8 2 -16 0 -32 -5 -37z m2517
-34 c0 -8 -7 -15 -15 -15 -26 0 -18 20 13 29 1 1 2 -6 2 -14z m258 6 c-4 -12
3 -14 25 -5 12 4 25 1 35 -10 15 -15 15 -16 -5 -16 -22 0 -33 -18 -33 -54 0
-32 -10 -39 -30 -21 -19 17 -27 11 -48 -37 -11 -26 -1 -40 13 -18 8 12 25 13
25 1 0 -15 -37 -19 -84 -8 -39 9 -46 14 -46 34 0 13 5 23 10 23 6 0 10 8 10
18 0 24 19 42 36 35 8 -3 17 3 20 13 12 33 80 76 72 45z m112 -26 c0 -8 -7
-15 -15 -15 -26 0 -18 20 13 29 1 1 2 -6 2 -14z m-240 -27 c0 -6 -6 -5 -15 2
-8 7 -15 14 -15 16 0 2 7 1 15 -2 8 -4 15 -11 15 -16z m-1996 -82 c-5 -54 -2
-86 9 -122 19 -59 40 -199 35 -237 l-3 -28 -62 48 c-62 47 -62 48 -57 88 8 58
55 276 65 302 15 41 20 24 13 -51z m2206 54 c0 -13 -11 -13 -30 0 -12 8 -11
10 8 10 12 0 22 -4 22 -10z m-1130 -102 c0 -23 -26 -23 -50 0 -18 17 -19 20
-3 41 l16 24 18 -24 c10 -13 19 -32 19 -41z m584 54 c7 -12 -6 -26 -37 -40
-22 -9 -32 -9 -47 1 -28 17 -19 31 20 34 18 2 36 5 38 8 8 7 20 6 26 -3z
m-784 -12 c0 -5 -2 -10 -4 -10 -3 0 -8 5 -11 10 -3 6 -1 10 4 10 6 0 11 -4 11
-10z m-50 -16 c0 -2 -9 -4 -20 -4 -11 0 -20 4 -20 9 0 5 9 7 20 4 11 -3 20 -7
20 -9z m2632 -61 c17 -38 39 -93 50 -123 17 -51 17 -56 2 -67 -16 -12 -71 -8
-87 7 -12 10 -25 158 -15 173 4 6 8 27 8 45 0 17 3 32 6 32 3 0 19 -30 36 -67z
m-2682 41 c0 -8 -5 -12 -10 -9 -6 4 -8 11 -5 16 9 14 15 11 15 -7z m48 -12 c2
-7 -3 -12 -12 -12 -9 0 -16 -4 -16 -10 0 -5 -7 -10 -15 -10 -8 0 -15 5 -15 10
0 6 7 10 15 10 8 0 15 7 15 16 0 17 22 14 28 -4z m62 -22 c-24 -15 -31 -11
-18 10 9 13 16 16 23 9 7 -7 5 -13 -5 -19z m730 -1 c0 -12 -37 -12 -45 0 -3 5
3 11 12 13 21 5 33 0 33 -13z m-1953 -101 c-3 -8 -6 -5 -6 6 -1 11 2 17 5 13
3 -3 4 -12 1 -19z m-62 -36 c26 -10 47 -21 47 -25 0 -4 -3 -35 -6 -68 l-7 -61
-87 7 c-48 4 -90 9 -94 12 -5 2 -8 41 -8 85 l0 81 55 -7 c30 -3 75 -14 100
-24z m-305 -62 l0 -70 -122 0 -123 1 34 29 c32 27 185 110 204 110 4 0 7 -31
7 -70z m337 -122 c-3 -8 -6 -5 -6 6 -1 11 2 17 5 13 3 -3 4 -12 1 -19z m-10
-120 c-3 -8 -6 -5 -6 6 -1 11 2 17 5 13 3 -3 4 -12 1 -19z m3921 -70 c-2 -39
-7 -53 -18 -53 -17 0 -26 79 -15 123 l6 25 15 -22 c10 -14 14 -39 12 -73z
m-5168 -8 c-12 -23 -40 -27 -40 -6 0 14 14 24 38 25 10 1 10 -4 2 -19z m3480
-118 c0 -10 3 -22 8 -26 4 -4 8 -22 9 -39 5 -79 13 -139 22 -155 5 -9 6 -61 2
-115 -5 -79 -3 -100 9 -112 10 -10 10 -15 2 -15 -7 0 -12 -9 -12 -20 0 -11 4
-20 9 -20 4 0 6 -18 4 -39 -3 -27 3 -52 19 -82 13 -26 21 -56 19 -76 -1 -21 3
-35 11 -38 8 -3 15 -18 16 -32 3 -39 -50 -85 -103 -89 -22 -1 -50 -5 -61 -9
-16 -5 -26 -1 -36 14 -11 16 -29 22 -67 25 -54 5 -98 26 -108 53 -7 19 13 32
38 26 11 -3 26 0 34 7 16 13 20 31 8 29 -23 -4 -23 4 1 36 22 29 26 43 24 90
-1 31 -5 58 -9 61 -7 4 -4 44 7 99 15 78 15 117 1 153 -17 42 -10 65 18 60 13
-2 22 10 36 52 10 30 19 70 19 88 0 50 26 92 55 92 18 0 25 -5 25 -18z m-1058
-87 c0 -5 -5 -11 -11 -13 -6 -2 -11 4 -11 13 0 9 5 15 11 13 6 -2 11 -8 11
-13z m-2562 -93 c0 -10 -22 -32 -32 -32 -13 0 -9 28 5 33 19 8 27 8 27 -1z
m3497 -8 c-3 -3 -12 -4 -19 -1 -8 3 -5 6 6 6 11 1 17 -2 13 -5z m-1933 -76 c5
-31 -5 -125 -19 -170 -4 -10 -12 -17 -18 -15 -17 5 -11 178 6 205 14 21 24 14
31 -20z m-424 -15 c0 -9 -64 -73 -73 -73 -6 0 0 11 12 24 17 18 22 32 17 49
-8 32 1 39 25 19 10 -9 19 -18 19 -19z m-1223 -175 c-3 -8 -6 -5 -6 6 -1 11 2
17 5 13 3 -3 4 -12 1 -19z m1050 -5 c-2 -5 -14 -41 -27 -80 -12 -40 -24 -73
-27 -73 -13 0 6 92 26 124 13 20 25 36 27 36 3 0 3 -3 1 -7z m4718 -290 c-10
-66 -17 -46 -8 23 4 32 9 51 11 40 2 -10 1 -38 -3 -63z m-2775 47 c0 -5 -7
-10 -15 -10 -8 0 -15 -4 -15 -9 0 -5 -9 -11 -20 -14 -22 -6 -27 12 -8 31 15
15 58 16 58 2z m0 -66 c35 1 33 -28 -2 -32 -16 -2 -28 1 -28 7 0 5 -3 18 -6
28 -4 11 -3 14 3 7 4 -6 19 -11 33 -10z m-103 -26 c-3 -8 -6 -5 -6 6 -1 11 2
17 5 13 3 -3 4 -12 1 -19z m549 1 c8 -14 -18 -31 -30 -19 -9 9 0 30 14 30 5 0
12 -5 16 -11z m-542 -55 c28 -11 17 -24 -19 -24 -34 0 -47 13 -22 23 18 8 23
8 41 1z m-2410 -79 c15 -11 16 -15 5 -15 -8 0 -24 7 -35 15 -14 11 -15 14 -4
14 8 0 24 -6 34 -14z m3165 -949 c41 -10 68 -11 125 -3 77 11 106 7 106 -17 0
-22 -36 -30 -135 -31 -49 0 -95 -3 -102 -8 -6 -4 -23 -2 -37 4 -18 9 -33 9
-48 2 -45 -20 -64 9 -31 47 20 24 49 25 122 6z m-5359 -266 c-43 -23 -50 -24
-50 -6 0 13 22 21 70 24 8 1 -1 -7 -20 -18z m6707 -152 c-3 -8 -6 -5 -6 6 -1
11 2 17 5 13 3 -3 4 -12 1 -19z m-2782 -49 c10 -15 -1 -23 -20 -15 -9 3 -13
10 -10 16 8 13 22 13 30 -1z m2819 -15 c11 -28 6 -34 -13 -17 -11 9 -18 20
-15 25 8 13 21 9 28 -8z m-2920 -45 c31 4 59 4 62 -1 6 -9 -5 -11 -58 -8 -34
1 -38 -1 -38 -23 0 -18 -7 -27 -25 -31 -15 -4 -27 -16 -31 -32 -4 -14 -18 -38
-31 -52 -22 -24 -25 -25 -34 -9 -6 9 -17 17 -24 17 -8 0 -15 5 -15 10 0 6 5
10 11 10 5 0 7 5 4 10 -10 16 26 24 46 11 16 -9 19 -8 19 9 0 11 -7 20 -15 20
-21 0 -19 12 11 48 20 24 30 29 43 22 10 -5 42 -5 75 -1z m-4025 -61 c13 -58
5 -74 -32 -64 -20 5 -25 14 -30 48 -4 32 -2 45 11 55 29 22 38 15 51 -39z
m4029 21 c-2 -6 -8 -10 -13 -10 -5 0 -11 4 -13 10 -2 6 4 11 13 11 9 0 15 -5
13 -11z m2971 -34 c0 -5 -4 -3 -9 5 -5 8 -9 22 -9 30 0 16 17 -16 18 -35z
m-3212 -1 c-3 -3 -12 -4 -19 -1 -8 3 -5 6 6 6 11 1 17 -2 13 -5z m3183 -47 c0
-18 -2 -19 -10 -7 -13 20 -13 43 0 35 6 -3 10 -16 10 -28z m-3324 -43 c-3 -9
-6 -20 -6 -25 0 -5 -6 -9 -14 -9 -9 0 -12 8 -8 25 2 14 11 25 19 25 10 0 13
-6 9 -16z m134 6 c0 -5 -4 -10 -10 -10 -5 0 -10 5 -10 10 0 6 5 10 10 10 6 0
10 -4 10 -10z m3257 -32 c-3 -8 -6 -5 -6 6 -1 11 2 17 5 13 3 -3 4 -12 1 -19z
m-5891 -10 c75 -57 171 -149 188 -181 16 -32 17 -38 4 -51 -16 -16 -207 -90
-214 -83 -2 2 -6 44 -9 93 -3 49 -8 124 -10 167 -3 42 -1 77 3 77 5 0 22 -10
38 -22z m5861 -65 c-3 -10 -5 -4 -5 12 0 17 2 24 5 18 2 -7 2 -21 0 -30z
m-6733 -59 c8 -31 3 -39 -19 -30 -22 8 -31 36 -14 47 22 13 26 11 33 -17z
m476 -108 c0 -2 3 -11 6 -20 3 -9 1 -16 -5 -16 -6 0 -11 6 -11 14 0 8 -8 17
-17 19 -14 4 -12 5 5 6 12 0 22 -1 22 -3z m112 -28 c-6 -6 -15 -8 -19 -4 -4 4
-1 11 7 16 8 5 17 7 19 4 3 -2 -1 -10 -7 -16z m-202 -9 c0 -11 -27 -12 -34 0
-3 4 -3 11 0 14 8 8 34 -3 34 -14z m-380 2 c0 -6 -4 -13 -10 -16 -5 -3 -10 1
-10 9 0 9 5 16 10 16 6 0 10 -4 10 -9z m497 -67 c-3 -3 -12 -4 -19 -1 -8 3 -5
6 6 6 11 1 17 -2 13 -5z m146 -18 c-2 -3 -3 -11 -3 -18 0 -9 -3 -9 -12 0 -8 8
-15 9 -25 1 -10 -9 -13 -7 -13 9 0 17 5 20 28 18 15 -2 26 -6 25 -10z m-222
-24 c0 -11 3 -12 6 -4 2 6 22 12 43 12 21 0 41 -6 43 -12 4 -8 6 -7 6 3 1 20
24 31 46 23 21 -8 19 -32 -2 -37 -16 -3 -16 -5 2 -12 45 -18 75 -47 75 -71 0
-13 -4 -24 -9 -24 -12 0 -41 29 -41 41 0 12 -27 12 -35 -1 -11 -17 5 -32 21
-19 11 9 14 7 14 -15 0 -14 5 -26 10 -26 6 0 10 -7 10 -15 0 -8 -4 -15 -10
-15 -5 0 -10 -4 -10 -10 0 -5 17 -10 39 -10 43 0 65 -17 51 -40 -7 -10 -10
-11 -10 -2 0 7 -15 12 -40 12 -36 0 -40 -2 -40 -26 0 -22 2 -24 15 -14 27 22
34 5 9 -25 -22 -28 -24 -28 -24 -8 0 12 -4 24 -10 28 -5 3 -7 12 -3 20 6 17
-22 21 -32 5 -3 -5 -13 -6 -23 -3 -9 3 2 -14 26 -38 47 -50 51 -59 23 -59 -10
0 -24 -7 -31 -15 -16 -20 1 -42 38 -48 21 -3 18 -4 -10 -6 -37 -1 -38 -2 -38
-41 0 -33 -3 -40 -20 -40 -20 0 -27 14 -11 24 5 3 9 34 10 68 0 35 5 64 11 66
19 7 0 20 -20 15 -11 -3 -17 -9 -14 -14 8 -13 -15 -49 -32 -49 -20 0 -52 -30
-32 -30 8 -1 6 -6 -7 -15 -17 -13 -20 -13 -28 0 -4 8 -17 15 -27 15 -28 0 -25
18 3 22 12 2 22 10 22 18 0 9 -7 14 -17 12 -11 -2 -18 3 -18 13 0 8 5 15 11
15 11 0 43 69 35 77 -2 3 -14 -5 -25 -16 -26 -26 -58 -27 -66 -2 -3 11 -14 22
-23 25 -9 3 1 4 23 4 60 -1 75 1 75 12 0 5 -16 12 -35 16 -40 7 -54 21 -31 30
22 9 22 102 1 111 -9 3 -19 2 -23 -2 -4 -4 -1 -10 6 -12 17 -6 16 -83 -2 -83
-9 0 -15 20 -20 61 -5 52 -3 64 12 75 9 7 27 10 39 7 16 -3 30 3 50 24 30 31
43 32 44 5z m6949 -122 c0 -5 -7 -10 -16 -10 -8 0 -12 5 -9 10 3 6 10 10 16
10 5 0 9 -4 9 -10z m-6680 -20 c0 -5 -7 -10 -15 -10 -8 0 -15 5 -15 10 0 6 7
10 15 10 8 0 15 -4 15 -10z m-43 -196 c-3 -3 -12 -4 -19 -1 -8 3 -5 6 6 6 11
1 17 -2 13 -5z m3 -49 c0 -17 -2 -18 -24 -9 -23 9 -20 24 4 24 11 0 20 -7 20
-15z m-180 -55 c0 -32 -9 -37 -28 -18 -7 7 -8 17 -1 30 15 27 29 22 29 -12z
m6620 -40 c0 -5 -7 -10 -16 -10 -8 0 -12 5 -9 10 3 6 10 10 16 10 5 0 9 -4 9
-10z m-686 -155 c3 -8 1 -15 -4 -15 -6 0 -10 7 -10 15 0 8 2 15 4 15 2 0 6 -7
10 -15z m-1 -102 c-4 -10 -14 -13 -29 -9 -17 5 -24 2 -24 -8 0 -8 5 -18 10
-21 8 -5 8 -11 0 -20 -8 -9 -7 -17 4 -28 14 -13 14 -16 0 -21 -9 -3 -20 -4
-25 0 -12 7 -1 80 18 122 14 32 16 33 33 17 10 -9 16 -24 13 -32z m61 -97 c-8
-34 -33 -35 -26 -1 2 14 8 22 13 19 5 -3 9 0 9 7 0 7 2 10 5 7 4 -3 3 -17 -1
-32z m-134 -56 c6 -11 16 -17 25 -14 8 4 15 2 15 -4 0 -5 -8 -12 -19 -15 -10
-2 -20 -16 -23 -31 -4 -20 -1 -26 13 -26 13 0 19 7 19 21 0 11 5 17 10 14 6
-3 10 4 10 16 0 22 0 22 15 3 19 -25 19 -45 0 -38 -13 5 -14 2 -5 -21 15 -40
13 -75 -6 -75 -12 0 -15 -6 -11 -21 3 -12 -3 -60 -14 -108 -11 -47 -22 -97
-25 -111 -3 -14 -9 -34 -14 -45 -5 -11 -14 -40 -20 -65 -13 -51 -40 -112 -53
-121 -4 -3 -7 -10 -6 -15 4 -16 -5 -37 -63 -144 -20 -36 -39 -80 -43 -98 -8
-39 -50 -71 -68 -53 -6 6 -20 11 -30 11 -35 0 -74 38 -97 96 -23 55 -63 108
-74 96 -3 -3 -6 19 -6 49 0 37 3 49 10 39 7 -12 11 -10 18 11 12 31 34 50 48
41 6 -4 19 -22 28 -39 16 -31 41 -44 48 -24 2 5 16 13 31 16 23 6 29 4 34 -14
5 -21 33 -30 33 -11 0 6 -4 10 -10 10 -5 0 -10 7 -10 15 0 8 -6 15 -14 15 -8
0 -16 10 -18 23 -2 17 -10 23 -40 25 -34 3 -65 32 -33 32 9 0 15 10 15 24 0
13 11 31 25 42 14 10 25 24 25 30 0 6 7 17 16 24 11 10 14 23 9 52 -6 34 -4
39 19 49 30 14 33 31 10 54 -15 14 -15 17 3 33 11 10 17 27 15 40 -3 19 0 23
15 20 12 -3 17 -11 16 -26 -2 -16 3 -22 17 -22 20 0 28 24 12 34 -4 3 -6 21
-4 42 3 25 7 32 13 23 12 -20 40 10 42 45 2 24 5 26 39 22 29 -4 36 -2 31 10
-3 7 2 17 11 20 22 8 20 31 -2 36 -12 3 -24 -2 -31 -13 -14 -23 -53 -26 -45
-4 4 8 12 15 19 15 7 0 18 7 25 15 17 21 37 19 50 -5z m-2424 -237 c-3 -8 -1
-11 4 -8 6 4 10 -6 10 -21 0 -27 -1 -27 -15 -8 -17 22 -20 69 -4 59 6 -4 8
-14 5 -22z m-132 -100 c-2 -20 -12 -46 -24 -57 l-20 -20 0 35 c0 34 23 79 39
79 5 0 7 -17 5 -37z m-109 -130 c-11 -62 -45 -88 -45 -35 0 30 24 72 42 72 6
0 8 -13 3 -37z m163 -36 c3 -31 0 -37 -16 -37 -24 0 -32 17 -25 54 8 41 37 30
41 -17z m-122 -145 c-25 -25 -33 31 -10 66 l19 27 3 -39 c2 -25 -2 -44 -12
-54z m234 21 c0 -18 -3 -33 -6 -33 -15 0 -33 37 -34 69 0 33 0 34 20 16 12
-11 20 -31 20 -52z m2565 18 c-3 -6 -16 -11 -28 -11 -21 1 -21 1 3 15 27 14
36 13 25 -4z m-2715 -96 c0 -26 -28 -67 -41 -60 -14 10 -11 53 8 81 17 27 33
18 33 -21z m93 7 c10 -17 17 -40 15 -51 -5 -33 -39 1 -48 49 -9 49 5 50 33 2z
m390 31 c4 -3 -2 -13 -14 -21 -24 -17 -37 -9 -19 13 14 16 23 19 33 8z m2250
-45 c7 -50 2 -61 -21 -47 -19 12 -25 58 -10 77 18 21 25 14 31 -30z m-5013
-33 c0 -8 -4 -15 -10 -15 -16 0 -11 -43 9 -81 11 -20 16 -40 13 -46 -9 -14
-78 -33 -87 -25 -4 4 -5 -2 -3 -13 5 -32 -24 -24 -36 11 -6 16 -23 43 -38 59
l-28 30 -125 -125 c-69 -69 -125 -120 -125 -114 0 6 7 30 15 55 18 54 34 182
28 228 -3 33 -3 33 29 26 85 -17 203 -16 273 4 88 24 85 24 85 6z m707 -7 c-3
-8 -6 -5 -6 6 -1 11 2 17 5 13 3 -3 4 -12 1 -19z m4233 -2 c0 -3 -4 -8 -10
-11 -5 -3 -10 -1 -10 4 0 6 5 11 10 11 6 0 10 -2 10 -4z m-2760 -69 c0 -18 -6
-41 -13 -52 -13 -17 -14 -16 -20 14 -6 30 8 71 25 71 5 0 8 -15 8 -33z m2160
18 c7 -9 8 -15 2 -15 -5 0 -12 7 -16 15 -3 8 -4 15 -2 15 2 0 9 -7 16 -15z
m-1743 -17 c-3 -8 -6 -5 -6 6 -1 11 2 17 5 13 3 -3 4 -12 1 -19z m2293 -48 c0
-5 -4 -10 -10 -10 -5 0 -10 5 -10 10 0 6 5 10 10 10 6 0 10 -4 10 -10z m-2292
-22 c7 -7 12 -19 12 -27 0 -14 -1 -14 -10 -1 -5 8 -10 11 -10 5 0 -11 -20 16
-20 28 0 11 15 8 28 -5z m359 6 c-3 -3 -12 -4 -19 -1 -8 3 -5 6 6 6 11 1 17
-2 13 -5z m-243 -55 c-3 -5 -10 -7 -15 -3 -5 3 -7 10 -3 15 3 5 10 7 15 3 5
-3 7 -10 3 -15z m-127 -46 c-3 -10 -5 -2 -5 17 0 19 2 27 5 18 2 -10 2 -26 0
-35z m140 -35 c-2 -13 -4 -3 -4 22 0 25 2 35 4 23 2 -13 2 -33 0 -45z m1382
-14 c1 -12 -8 -32 -18 -45 l-19 -24 -7 36 c-5 27 -2 44 11 64 16 25 19 26 25
9 4 -11 8 -29 8 -40z m302 14 c-11 -28 -71 -57 -71 -34 0 21 65 72 78 61 1 -1
-2 -14 -7 -27z m-1621 -50 c0 -16 -3 -19 -11 -11 -6 6 -8 16 -5 22 11 17 16
13 16 -11z m1451 -7 c-11 -20 -60 -51 -81 -51 -25 0 21 60 53 68 39 11 42 9
28 -17z m-1521 9 c8 -5 12 -11 10 -13 -3 -2 -16 -11 -30 -20 -24 -17 -24 -17
-2 -17 12 0 22 -4 22 -10 0 -5 -9 -10 -20 -10 -11 0 -20 -6 -21 -12 0 -7 -5 3
-11 22 -7 24 -6 36 1 38 6 2 11 10 11 18 0 16 18 18 40 4z m1275 -38 c-3 -17
-13 -36 -21 -43 -12 -9 -14 -6 -14 20 0 37 20 75 33 62 5 -5 6 -23 2 -39z
m-1940 18 c3 -5 1 -10 -4 -10 -6 0 -11 5 -11 10 0 6 2 10 4 10 3 0 8 -4 11
-10z m565 -35 c0 -8 -4 -17 -10 -20 -6 -4 -10 5 -10 20 0 15 4 24 10 20 6 -3
10 -12 10 -20z m511 -48 c-13 -13 -26 -3 -16 12 3 6 11 8 17 5 6 -4 6 -10 -1
-17z"/>
<path d="M5998 6793 c7 -3 16 -2 19 1 4 3 -2 6 -13 5 -11 0 -14 -3 -6 -6z"/>
<path d="M6017 6764 c-2 -3 -3 -14 0 -25 6 -22 43 -26 43 -4 0 15 -34 38 -43
29z"/>
<path d="M4306 6411 c-4 -7 -5 -15 -2 -18 9 -9 19 4 14 18 -4 11 -6 11 -12 0z"/>
<path d="M5201 5794 c0 -11 3 -14 6 -6 3 7 2 16 -1 19 -3 4 -6 -2 -5 -13z"/>
<path d="M5225 5759 c-4 -6 -5 -13 -2 -16 7 -7 27 6 27 18 0 12 -17 12 -25 -2z"/>
<path d="M730 2020 c19 -13 30 -13 30 0 0 6 -10 10 -22 10 -19 0 -20 -2 -8
-10z"/>
<path d="M788 1779 c-10 -5 -15 -16 -12 -24 9 -23 21 -18 26 10 3 14 5 25 4
25 0 0 -9 -5 -18 -11z"/>
<path d="M6730 1079 c0 -6 7 -17 15 -25 16 -16 19 -7 9 20 -7 18 -24 22 -24 5z"/>
<path d="M6673 1066 c-4 -7 -15 -16 -23 -19 -8 -3 4 -3 28 0 31 4 42 2 42 -7
0 -8 3 -11 6 -7 3 3 3 15 -1 26 -7 24 -40 28 -52 7z"/>
<path d="M6540 931 c0 -6 5 -13 10 -16 6 -3 10 1 10 9 0 9 -4 16 -10 16 -5 0
-10 -4 -10 -9z"/>
<path d="M6602 864 c0 -25 3 -42 8 -38 15 16 16 84 2 84 -5 0 -9 -21 -10 -46z"/>
<path d="M6480 590 c0 -5 9 -10 20 -10 11 0 20 5 20 10 0 6 -9 10 -20 10 -11
0 -20 -4 -20 -10z"/>
<path d="M7038 6579 c3 -23 8 -36 11 -30 9 13 2 71 -8 71 -4 0 -5 -19 -3 -41z"/>
<path d="M0 3591 l0 -169 38 9 c20 5 58 9 85 9 50 0 55 4 33 29 -7 9 -21 43
-31 76 -25 89 -94 215 -117 215 -4 0 -8 -76 -8 -169z"/>
<path d="M230 3373 c-38 -15 -98 -28 -145 -32 l-80 -6 -3 -79 -3 -79 78 6 c93
6 211 34 236 55 9 8 17 27 17 42 0 55 -13 120 -24 119 -6 -1 -40 -13 -76 -26z"/>
<path d="M277 3164 c-15 -8 -25 -19 -22 -24 8 -13 65 9 65 26 0 17 -8 17 -43
-2z"/>
<path d="M288 3117 c-35 -13 -38 -46 -5 -43 33 4 67 25 67 41 0 17 -23 18 -62
2z"/>
<path d="M50 2850 c0 -5 7 -10 16 -10 8 0 12 5 9 10 -3 6 -10 10 -16 10 -5 0
-9 -4 -9 -10z"/>
<path d="M448 2683 c-1 -5 -16 -16 -33 -25 -28 -16 -47 -48 -28 -48 13 0 83
60 83 71 0 11 -17 12 -22 2z"/>
<path d="M728 2573 c6 -2 18 -2 25 0 6 3 1 5 -13 5 -14 0 -19 -2 -12 -5z"/>
<path d="M690 2560 c-9 -6 -10 -10 -3 -10 6 0 15 5 18 10 8 12 4 12 -15 0z"/>
<path d="M940 2520 c-23 -18 -23 -20 -5 -20 29 0 52 17 40 29 -7 7 -19 3 -35
-9z"/>
<path d="M480 2449 c0 -5 5 -7 10 -4 6 3 10 8 10 11 0 2 -4 4 -10 4 -5 0 -10
-5 -10 -11z"/>
<path d="M1 2308 c-1 -49 6 -56 43 -42 19 7 22 46 4 43 -28 -3 -37 2 -41 24
-2 12 -5 1 -6 -25z"/>
<path d="M3088 2333 c6 -2 18 -2 25 0 6 3 1 5 -13 5 -14 0 -19 -2 -12 -5z"/>
<path d="M2738 2283 c6 -2 18 -2 25 0 6 3 1 5 -13 5 -14 0 -19 -2 -12 -5z"/>
<path d="M2623 2273 c9 -2 25 -2 35 0 9 3 1 5 -18 5 -19 0 -27 -2 -17 -5z"/>
<path d="M2518 2263 c7 -3 16 -2 19 1 4 3 -2 6 -13 5 -11 0 -14 -3 -6 -6z"/>
<path d="M2463 2253 c9 -2 23 -2 30 0 6 3 -1 5 -18 5 -16 0 -22 -2 -12 -5z"/>
<path d="M1590 2195 c0 -8 2 -15 4 -15 2 0 6 7 10 15 3 8 1 15 -4 15 -6 0 -10
-7 -10 -15z"/>
<path d="M199 2159 c-24 -16 -69 -36 -99 -44 -30 -9 -65 -20 -77 -25 -28 -11
-31 -50 -5 -50 16 -1 16 -2 0 -13 -10 -8 -13 -18 -9 -25 9 -15 61 1 61 19 0 8
5 7 17 -2 9 -8 18 -13 20 -11 10 7 23 0 17 -10 -5 -10 -4 -10 6 -1 19 17 4 63
-20 63 -14 0 -18 5 -13 16 5 13 1 15 -18 9 -18 -5 -20 -4 -9 4 8 6 26 7 39 4
18 -4 22 -3 16 7 -6 10 -2 12 16 7 13 -4 29 -7 35 -7 5 0 11 -21 13 -47 2 -45
13 -132 27 -214 7 -40 -8 -58 -30 -40 -12 10 -21 55 -30 146 -3 27 -7 30 -35
28 -18 0 -40 -8 -50 -17 -10 -9 -30 -16 -45 -16 -23 0 -25 -2 -16 -19 7 -14 7
-20 -2 -23 -6 -2 -9 -9 -7 -16 3 -9 12 -8 33 3 21 11 33 12 40 5 16 -16 -5
-43 -42 -55 -36 -10 -40 -28 -17 -71 13 -25 13 -31 0 -51 -8 -12 -15 -44 -15
-71 0 -47 1 -49 25 -44 14 2 25 9 25 14 0 6 6 8 14 5 7 -3 26 1 42 10 16 8 64
26 107 40 81 26 103 46 113 99 3 15 2 34 -2 43 -4 9 -8 18 -9 21 -2 8 -17 121
-20 155 -2 17 -8 42 -13 56 -6 14 -13 51 -17 82 -4 32 -10 59 -14 62 -4 2 -27
-9 -52 -26z m-149 -93 c0 -9 -30 -14 -35 -6 -4 6 3 10 14 10 12 0 21 -2 21 -4z
m178 -314 c2 -13 -2 -30 -9 -39 -12 -13 -14 -13 -20 4 -4 10 -8 28 -8 41 -1
31 33 26 37 -6z"/>
<path d="M7597 1820 c5 -20 15 -25 26 -13 8 7 -11 33 -23 33 -5 0 -6 -9 -3
-20z"/>
<path d="M2207 1768 c-16 -69 -29 -169 -23 -175 15 -15 29 20 37 98 6 49 6 86
1 91 -6 6 -12 0 -15 -14z"/>
<path d="M2231 1194 c0 -11 3 -14 6 -6 3 7 2 16 -1 19 -3 4 -6 -2 -5 -13z"/>
<path d="M6946 1131 c-4 -7 -5 -15 -2 -18 9 -9 19 4 14 18 -4 11 -6 11 -12 0z"/>
<path d="M7090 871 c0 -11 6 -21 13 -24 20 -7 37 4 37 24 0 14 -7 19 -25 19
-18 0 -25 -5 -25 -19z"/>
<path d="M3763 787 c-25 -11 -31 -27 -9 -27 14 0 42 28 35 34 -2 2 -14 -1 -26
-7z"/>
<path d="M9485 475 c-14 -13 -25 -33 -25 -45 0 -11 -14 -56 -30 -100 -17 -43
-33 -89 -35 -102 -6 -30 -26 -70 -43 -83 -7 -5 -14 -32 -16 -60 -2 -27 -7 -58
-11 -68 -7 -16 -2 -18 61 -15 66 3 69 4 68 28 -1 14 4 28 10 32 6 4 11 24 11
45 0 31 4 38 25 43 22 5 25 12 28 55 2 32 9 55 19 63 13 9 14 15 5 24 -16 16
-15 61 3 105 20 48 19 80 -4 93 -29 15 -39 13 -66 -15z m35 -261 c0 -8 -5 -12
-10 -9 -6 4 -8 11 -5 16 9 14 15 11 15 -7z"/>
<path d="M6945 410 c-3 -5 1 -10 10 -10 9 0 13 5 10 10 -3 6 -8 10 -10 10 -2
0 -7 -4 -10 -10z"/>
<path d="M6800 390 c0 -13 11 -13 30 0 12 8 11 10 -7 10 -13 0 -23 -4 -23 -10z"/>
<path d="M6904 389 c-10 -17 13 -36 27 -22 12 12 4 33 -11 33 -5 0 -12 -5 -16
-11z"/>
<path d="M4590 360 c0 -5 5 -10 11 -10 5 0 7 5 4 10 -3 6 -8 10 -11 10 -2 0
-4 -4 -4 -10z"/>
<path d="M6828 353 c-16 -3 -28 -11 -28 -19 0 -11 4 -12 19 -4 11 5 29 10 40
10 12 0 21 5 21 10 0 10 -3 10 -52 3z"/>
<path d="M4740 250 c0 -5 5 -10 10 -10 6 0 10 5 10 10 0 6 -4 10 -10 10 -5 0
-10 -4 -10 -10z"/>
<path d="M4826 192 c-3 -5 -8 -28 -12 -51 -4 -26 -13 -45 -23 -48 -54 -16 -54
-16 -33 -43 10 -14 17 -31 15 -37 -3 -9 9 -13 44 -13 l49 0 -4 36 c-3 23 0 40
9 46 11 7 9 8 -5 4 -15 -5 -17 -2 -12 16 12 47 -10 118 -28 90z m-19 -118 c-3
-3 -12 -4 -19 -1 -8 3 -5 6 6 6 11 1 17 -2 13 -5z"/>
<path d="M4785 141 c-3 -5 -1 -12 5 -16 5 -3 10 1 10 9 0 18 -6 21 -15 7z"/>
<path d="M4720 124 c0 -8 5 -12 10 -9 6 4 8 11 5 16 -9 14 -15 11 -15 -7z"/>
<path d="M2870 95 c0 -8 4 -15 10 -15 5 0 7 7 4 15 -4 8 -8 15 -10 15 -2 0 -4
-7 -4 -15z"/>
<path d="M9112 20 c-10 -17 -10 -20 3 -20 8 0 15 9 15 20 0 11 -1 20 -3 20 -1
0 -8 -9 -15 -20z"/>
<path d="M4710 15 c-7 -8 -8 -15 -2 -15 5 0 15 7 22 15 7 8 8 15 2 15 -5 0
-15 -7 -22 -15z"/>
</g>
</svg>
