<?xml version="1.0" standalone="no"?>
<!DOCTYPE svg PUBLIC "-//W3C//DTD SVG 20010904//EN"
 "http://www.w3.org/TR/2001/REC-SVG-20010904/DTD/svg10.dtd">
<svg version="1.0" xmlns="http://www.w3.org/2000/svg"
 width="1280.000000pt" height="720.000000pt" viewBox="0 0 1280.000000 720.000000"
 preserveAspectRatio="xMidYMid meet">

<g transform="translate(0.000000,720.000000) scale(0.100000,-0.100000)"
fill="#000000" stroke="none">
<path d="M5236 7179 c-30 -16 -36 -23 -25 -30 12 -8 12 -11 -1 -19 -8 -5 -20
-8 -27 -5 -6 2 -17 -3 -23 -11 -8 -9 -32 -14 -67 -14 -33 0 -52 -4 -48 -10 7
-12 -21 -25 -96 -44 -76 -19 -132 -49 -179 -96 -47 -47 -74 -96 -72 -130 3
-44 -86 -121 -213 -183 -165 -81 -314 -186 -430 -302 -170 -169 -244 -295
-385 -650 -78 -196 -109 -291 -144 -446 -5 -25 -9 -27 -88 -32 -46 -3 -96 -9
-112 -13 l-28 -7 6 64 c12 114 27 212 51 344 40 212 45 222 133 312 71 72 81
87 125 193 75 178 76 185 41 265 -33 77 -58 96 -102 75 -52 -24 -57 -27 -57
-36 0 -14 -15 -34 -26 -34 -6 0 -7 5 -3 12 4 7 3 8 -5 4 -30 -19 -129 -256
-187 -444 -62 -205 -107 -453 -124 -697 -6 -82 -15 -152 -21 -153 -5 -2 -37
-25 -71 -50 -33 -26 -68 -53 -77 -59 -9 -7 -51 -19 -93 -27 -185 -36 -351
-107 -442 -191 -55 -50 -71 -56 -63 -22 6 21 6 21 -8 3 -8 -11 -15 -26 -15
-33 0 -8 -16 -30 -35 -50 -39 -41 -47 -68 -15 -58 25 8 25 3 -4 -69 -18 -43
-32 -63 -53 -72 -26 -11 -26 -12 -5 -13 20 -1 21 -3 11 -23 -11 -20 -13 -20
-24 -5 -19 26 -28 20 -22 -12 4 -18 1 -33 -7 -40 -30 -25 -71 -172 -53 -190 8
-8 8 -14 -1 -23 -17 -17 -17 -227 1 -230 6 0 19 -1 27 -2 18 -1 31 -71 20
-101 -4 -11 -11 -69 -15 -128 -7 -105 -7 -107 14 -107 17 0 21 6 21 34 0 19 4
37 9 40 5 4 12 -37 16 -91 4 -54 11 -136 15 -183 9 -83 8 -86 -16 -105 -21
-18 -24 -29 -24 -88 0 -37 6 -125 14 -195 17 -149 36 -405 36 -478 0 -60 -9
-71 -101 -115 -35 -17 -80 -44 -99 -59 -19 -15 -40 -25 -47 -23 -37 13 -72
-39 -93 -140 -6 -31 -20 -63 -32 -73 -37 -35 -48 -69 -48 -159 0 -81 -1 -85
-22 -85 -20 -1 -21 -2 -7 -13 9 -7 19 -23 22 -37 10 -36 15 -42 86 -93 76 -55
133 -70 246 -65 73 3 80 5 92 28 15 30 2 38 -62 39 -92 2 -216 50 -298 116
-32 26 -37 36 -37 70 0 44 28 98 59 115 17 8 34 6 83 -14 124 -48 190 -59 214
-37 5 5 19 12 32 16 19 5 22 3 22 -18 0 -13 7 -44 15 -67 8 -23 15 -54 15 -67
0 -45 23 -19 95 109 38 69 88 147 110 174 23 27 49 61 58 77 43 67 299 204
435 232 61 13 211 9 226 -5 6 -7 -31 -183 -47 -222 -8 -18 -42 -76 -76 -128
-36 -56 -70 -123 -82 -162 -12 -38 -26 -68 -32 -68 -9 0 -9 -2 0 -8 9 -6 3
-52 -23 -187 -52 -265 -70 -340 -99 -402 -22 -50 -150 -260 -165 -273 -13 -11
-101 -174 -178 -331 l-82 -167 1 -123 c1 -112 -2 -131 -26 -199 -15 -41 -36
-92 -46 -112 -24 -48 -24 -48 10 -48 27 0 31 6 72 108 42 104 43 111 47 237
l4 130 104 208 c57 115 117 228 133 250 176 261 212 343 261 612 17 94 38 199
46 235 8 36 19 87 24 114 6 32 32 86 79 160 62 100 111 210 111 250 0 8 5 37
10 63 l11 49 57 11 c31 6 98 29 147 51 71 32 118 44 220 60 226 35 248 39 324
60 119 33 271 56 284 43 12 -12 15 -89 21 -438 2 -140 7 -207 16 -218 6 -8 9
-18 6 -23 -5 -8 12 -108 34 -202 29 -121 63 -281 66 -315 2 -22 10 -60 18 -85
8 -25 24 -76 36 -115 13 -38 23 -74 24 -80 1 -5 8 -21 15 -34 7 -13 8 -20 2
-17 -13 9 28 -87 42 -96 7 -4 7 -11 1 -20 -23 -29 -16 -99 18 -187 6 -16 5
-28 -4 -38 -12 -15 -141 -83 -157 -83 -11 0 -136 -57 -341 -157 -215 -104
-252 -123 -276 -147 -11 -12 -36 -35 -55 -52 -25 -23 -35 -40 -34 -60 0 -16
-4 -32 -8 -35 -5 -4 -9 -39 -9 -78 1 -56 -2 -71 -14 -71 -7 0 -14 -4 -14 -10
0 -5 7 -6 17 -3 10 4 14 2 10 -4 -11 -17 4 -73 19 -73 8 0 14 3 14 8 0 4 16
25 36 47 l35 40 -4 -48 -5 -48 61 3 c55 3 62 5 67 27 8 37 29 38 36 2 l7 -31
1427 0 c784 0 1430 3 1434 7 4 4 15 8 24 8 11 0 16 7 15 20 -2 25 13 35 55 35
20 0 31 5 30 13 -2 7 5 11 15 9 9 -2 20 4 23 12 3 9 10 14 15 11 15 -10 99 17
99 31 0 10 13 12 53 8 32 -2 47 -1 38 5 -22 14 5 23 50 16 27 -5 46 -2 62 8
22 14 96 16 129 2 11 -4 20 0 28 14 7 15 21 21 44 21 22 0 40 8 55 24 13 14
29 22 37 19 8 -3 20 -1 27 5 6 5 31 16 55 23 46 13 55 28 20 30 -57 3 -105 1
-128 -5 -14 -3 -38 -9 -55 -12 -16 -4 -37 -17 -48 -30 -20 -26 -46 -31 -65
-12 -8 8 -15 8 -26 -1 -12 -10 -23 -10 -50 -1 -25 8 -41 8 -55 1 -11 -6 -32
-11 -46 -11 -14 0 -35 -5 -46 -10 -13 -8 -19 -7 -19 0 0 6 -5 8 -10 5 -6 -4
-8 -10 -5 -15 3 -5 -14 -13 -37 -17 -34 -7 -44 -13 -46 -31 -4 -28 -19 -29
-27 -1 -4 11 -9 18 -12 15 -11 -10 -45 16 -39 30 3 8 1 14 -4 14 -6 0 -10 -8
-10 -18 0 -26 -25 -58 -34 -43 -4 6 -12 9 -17 6 -5 -4 -9 1 -9 10 0 8 7 18 15
21 17 7 20 30 6 38 -13 8 -42 -4 -35 -15 3 -5 -2 -9 -10 -9 -21 0 -21 49 -1
56 11 5 15 21 15 59 0 30 5 55 11 57 6 2 13 19 15 38 2 21 13 43 27 55 19 16
23 28 21 62 l-4 42 44 6 c29 5 46 13 49 23 2 10 17 24 33 32 33 17 63 49 64
68 0 6 9 12 20 12 11 0 20 7 20 15 0 9 12 20 26 25 14 6 28 19 31 30 3 12 14
20 26 20 11 0 30 11 43 25 20 21 21 25 6 26 -38 2 36 17 91 18 31 1 57 6 57
11 0 6 10 10 23 10 12 0 32 7 44 15 18 13 22 13 33 0 15 -18 34 -9 26 11 -3 9
3 19 17 24 12 6 40 21 62 35 47 29 50 29 67 12 7 -7 36 -18 63 -25 71 -16 217
-59 305 -90 41 -15 77 -27 80 -27 10 -2 116 -50 160 -73 25 -13 70 -36 100
-50 118 -56 478 -238 540 -272 36 -20 124 -67 195 -105 72 -37 139 -74 150
-82 11 -7 24 -13 30 -13 14 0 -47 40 -125 82 -63 34 -181 99 -305 168 -33 18
-76 43 -95 55 -19 11 -91 47 -160 78 -144 67 -228 110 -285 146 -22 14 -43 24
-47 23 -5 -1 -8 3 -8 8 0 6 -4 10 -10 10 -15 0 -164 72 -171 82 -4 6 -18 11
-33 11 -14 1 -26 4 -26 7 0 8 -99 40 -130 43 -14 1 -27 4 -30 7 -11 11 -72 40
-84 40 -7 0 -23 10 -36 22 -14 13 -28 22 -32 21 -4 -2 -21 10 -39 26 -17 16
-37 27 -43 25 -6 -2 -19 1 -29 8 -16 12 -16 15 -2 33 11 14 18 16 21 8 4 -10
11 -10 25 -2 11 5 24 7 30 4 5 -4 16 -1 24 5 12 10 15 10 15 0 0 -6 6 -10 13
-8 6 3 12 11 12 18 0 7 9 16 19 20 13 4 20 17 21 36 2 39 20 80 39 87 19 7 28
-6 20 -27 -3 -9 -2 -16 4 -16 11 0 23 32 27 73 3 27 -8 36 -20 17 -8 -13 -35
-13 -35 0 0 6 9 10 19 10 18 0 30 17 37 48 6 32 14 40 32 35 15 -3 21 2 24 21
6 33 -8 57 -21 36 -6 -8 -13 -11 -17 -7 -4 3 -1 13 6 22 14 17 6 46 -12 43 -7
-2 -17 11 -22 27 -7 23 -25 41 -71 68 -34 20 -67 37 -73 37 -7 0 -12 8 -12 18
0 16 -56 77 -71 77 -4 0 -11 3 -15 8 -4 4 -15 7 -25 7 -9 0 -26 11 -36 25 -10
14 -29 27 -42 30 -24 4 -105 84 -139 135 -9 14 -25 31 -34 38 -10 7 -18 20
-18 28 0 8 -4 14 -10 14 -5 0 -9 4 -7 9 1 5 -14 24 -34 43 -20 19 -48 52 -61
74 -42 65 -161 186 -247 249 -44 33 -81 66 -81 73 0 7 15 50 33 95 31 78 48
129 82 250 27 99 55 226 55 255 0 47 20 92 40 92 30 0 76 46 88 88 7 22 10 59
7 83 -3 24 -2 50 3 57 9 13 8 13 145 -17 59 -14 72 -14 120 0 48 13 110 68
145 128 48 83 70 89 104 30 37 -66 53 -72 120 -43 124 52 274 168 311 239 28
54 40 156 41 325 0 222 -36 417 -80 434 -9 3 -12 10 -9 16 3 5 0 7 -9 4 -8 -3
-19 3 -25 15 -6 11 -19 22 -28 25 -10 3 -27 19 -38 36 -12 18 -29 30 -42 30
-13 0 -23 5 -23 10 0 6 -5 10 -11 10 -22 0 -140 63 -149 80 -9 17 -47 33 -80
34 -8 1 -16 10 -18 20 -3 14 0 17 12 13 9 -4 16 -1 16 6 0 21 -80 319 -94 351
-8 17 -21 54 -31 81 -43 124 -196 411 -248 465 -8 8 -23 28 -33 45 -27 42 -45
65 -76 96 -25 24 -28 34 -28 94 0 68 -13 80 -25 24 -7 -30 -7 -30 -27 -12 -22
20 -108 190 -108 215 0 9 -6 18 -13 21 -13 5 -25 42 -42 120 -3 15 -12 27 -19
27 -15 0 -116 130 -116 149 0 6 -8 11 -19 11 -10 0 -25 10 -34 23 -8 12 -30
38 -48 57 -19 20 -52 58 -74 85 -22 27 -56 68 -76 90 -20 22 -42 54 -50 72 -7
17 -17 29 -21 27 -12 -7 -95 45 -118 73 -10 13 -24 22 -29 18 -7 -3 -8 0 -5 9
7 19 -7 21 -23 5 -9 -9 -28 -2 -76 25 -36 20 -70 36 -76 36 -5 0 -29 13 -53
28 -45 30 -151 52 -273 57 -33 2 -73 10 -90 19 -21 11 -31 12 -36 4 -6 -9 -14
-9 -34 0 -18 8 -105 12 -288 12 -245 -1 -265 -2 -301 -21z m569 -590 c39 -5
84 -14 100 -19 17 -4 45 -11 62 -15 18 -4 35 -11 38 -16 4 -5 15 -9 26 -9 10
0 19 -4 19 -10 0 -5 6 -10 13 -10 6 0 25 -7 40 -15 15 -8 35 -12 45 -9 13 5
14 4 3 -4 -11 -8 -5 -15 28 -33 31 -18 42 -32 47 -57 4 -18 2 -38 -5 -46 -6
-7 -11 -24 -11 -37 -1 -61 -2 -69 -11 -69 -17 0 -9 -18 11 -23 30 -8 24 -25
-15 -41 -19 -8 -35 -21 -35 -28 0 -7 -16 -24 -34 -36 -38 -26 -71 -19 -71 15
0 12 -6 17 -20 15 -30 -6 -46 -23 -44 -46 2 -22 -17 -76 -26 -76 -4 0 -3 9 0
20 8 26 -23 28 -32 3 -4 -10 -11 -22 -17 -26 -8 -6 -7 -10 2 -14 19 -8 14 -23
-8 -23 -11 0 -20 -5 -20 -11 0 -19 -33 -38 -67 -39 -17 0 -35 -5 -38 -11 -4
-6 -13 -8 -21 -5 -8 3 -11 0 -7 -10 8 -20 -15 -44 -43 -44 -13 0 -24 -6 -24
-12 0 -7 -5 -5 -11 5 -6 10 -8 21 -5 24 3 4 6 1 6 -5 0 -7 8 -5 18 6 14 13 15
22 7 39 -14 31 -65 33 -65 3 0 -31 -15 -24 -30 16 -8 20 -16 31 -18 25 -5 -16
-32 -13 -32 3 0 8 7 17 15 20 13 4 14 10 5 26 -13 24 -28 25 -65 6 -31 -16
-170 -22 -145 -6 13 9 13 11 0 20 -27 18 -41 12 -34 -15 5 -19 2 -25 -11 -25
-9 0 -13 5 -10 10 3 6 -3 10 -14 10 -14 0 -21 6 -21 20 0 12 7 20 18 20 14 0
15 2 2 10 -9 6 -17 5 -21 -2 -4 -7 -13 -7 -25 0 -11 5 -34 7 -51 5 -28 -5 -33
-2 -33 16 0 24 -10 27 -28 9 -10 -10 -15 -10 -21 1 -5 8 -14 10 -21 6 -10 -6
-9 -10 4 -17 17 -10 22 -38 6 -38 -5 0 -15 9 -22 20 -7 11 -21 20 -32 20 -15
0 -16 -3 -6 -15 7 -8 11 -15 9 -16 -2 0 -18 -3 -35 -5 -28 -4 -32 -2 -38 27
-9 44 -8 59 4 59 6 0 10 -9 10 -19 0 -29 54 -22 58 7 2 11 10 26 17 32 12 10
12 17 0 45 -7 19 -11 43 -8 54 5 20 -9 26 -89 33 -42 4 -20 24 34 30 43 5 47
3 53 -19 6 -27 50 -52 65 -37 6 6 6 21 1 39 -5 17 -10 23 -10 15 -1 -8 -11 4
-23 28 -14 26 -29 42 -40 42 -10 0 -18 5 -18 10 0 6 18 10 40 10 33 0 40 3 40
20 0 13 5 17 14 14 9 -3 17 3 21 16 5 16 1 26 -15 37 l-22 15 31 19 c37 23 69
24 95 4 22 -17 61 -20 51 -5 -3 5 -13 6 -23 3 -10 -4 -14 -2 -9 3 5 5 23 10
40 11 65 4 98 11 120 25 13 9 37 13 60 10 25 -3 44 1 55 11 28 25 125 27 267
6z m-992 -36 c-7 -2 -13 -11 -13 -20 0 -11 7 -13 28 -9 21 4 31 0 45 -19 15
-21 16 -25 2 -25 -8 0 -15 -7 -15 -16 0 -9 -13 -29 -30 -44 -37 -34 -38 -47
-5 -62 31 -14 33 -32 3 -23 -37 11 -43 11 -40 -3 2 -9 -6 -12 -20 -11 -36 5
-36 -14 -1 -36 35 -21 43 -52 17 -62 -9 -3 -14 -13 -11 -24 3 -11 1 -19 -4
-19 -5 0 -8 -21 -6 -47 2 -47 30 -93 57 -93 5 0 10 -9 10 -20 0 -11 6 -20 14
-20 26 0 26 -41 1 -66 -30 -30 -56 -32 -29 -3 19 21 18 21 -14 50 -17 16 -32
33 -32 39 0 17 -22 11 -27 -8 -4 -16 -12 -18 -56 -14 l-52 4 1 -41 c1 -43 -14
-56 -23 -21 -6 24 -38 26 -59 5 -14 -13 -13 -15 8 -16 l23 -2 -23 -4 c-12 -2
-20 -9 -17 -14 11 -17 -4 -9 -24 12 -11 12 -26 19 -34 16 -11 -4 -13 0 -10 14
3 10 0 19 -6 19 -6 0 -11 -7 -11 -15 0 -23 -60 -20 -60 3 -1 16 -2 16 -13 0
-7 -9 -26 -17 -42 -18 -45 -3 -49 -1 -34 16 9 11 10 17 1 23 -12 7 -8 60 7 89
6 11 8 22 5 25 -8 7 54 132 94 189 40 59 189 198 224 210 15 6 28 13 28 18 0
8 72 37 110 43 36 6 47 6 33 0z m1733 -49 c29 6 36 4 40 -11 4 -15 13 -17 48
-15 49 4 87 -16 186 -97 87 -71 98 -82 151 -149 63 -78 115 -197 118 -274 2
-52 0 -56 -23 -60 -21 -4 -25 -1 -28 21 -2 16 -12 30 -25 36 -13 5 -23 18 -23
27 0 12 -5 16 -17 11 -10 -3 -15 -3 -11 2 4 4 -6 20 -22 35 -17 16 -30 33 -30
38 0 6 -3 12 -7 14 -11 4 -43 67 -43 84 0 8 -10 14 -22 14 -30 0 -52 15 -44
28 7 12 -61 79 -76 74 -5 -1 -12 6 -15 17 -3 11 -18 25 -34 31 -17 8 -29 20
-29 31 0 18 -25 25 -67 20 -9 -1 -11 8 -7 29 6 27 4 30 -19 30 -13 0 -30 7
-37 15 -7 9 -19 14 -26 11 -7 -3 -25 1 -39 8 -19 10 -22 16 -13 24 19 15 51
20 65 9 7 -5 29 -6 49 -3z m-1536 -24 c0 -5 -4 -10 -10 -10 -5 0 -10 5 -10 10
0 6 5 10 10 10 6 0 10 -4 10 -10z m1228 -19 c-2 -5 -14 -4 -28 2 l-25 10 25 6
c24 7 35 0 28 -18z m145 22 c-7 -2 -19 -2 -25 0 -7 3 -2 5 12 5 14 0 19 -2 13
-5z m-99 -18 c3 -8 5 -18 5 -21 0 -4 5 -10 13 -15 15 -10 18 -110 3 -121 -6
-5 -6 -11 2 -19 10 -10 9 -15 -5 -25 -22 -17 -32 -17 -32 0 0 8 -10 18 -22 22
l-22 7 23 18 c21 17 20 24 -1 20 -5 0 -8 4 -8 10 0 6 6 9 13 6 8 -3 20 -1 28
4 11 7 12 12 2 29 -7 11 -13 29 -13 40 0 11 -4 20 -10 20 -5 0 -10 9 -10 20 0
23 25 27 34 5z m131 -5 c3 -5 1 -10 -4 -10 -6 0 -11 5 -11 10 0 6 2 10 4 10 3
0 8 -4 11 -10z m-1535 -50 c0 -11 -4 -20 -9 -20 -5 0 -7 9 -4 20 3 11 7 20 9
20 2 0 4 -9 4 -20z m1520 -50 c0 -13 -7 -20 -20 -20 -13 0 -20 7 -20 20 0 13
7 20 20 20 13 0 20 -7 20 -20z m-1466 -36 c8 -21 1 -28 -18 -21 -9 4 -13 13
-10 22 8 20 20 19 28 -1z m106 -74 c0 -5 -9 -10 -20 -10 -12 0 -20 -7 -21 -17
-1 -17 -2 -17 -6 0 -2 9 -11 17 -19 17 -8 0 -14 5 -14 10 0 6 18 10 40 10 22
0 40 -4 40 -10z m-187 -35 c1 -5 -6 -11 -15 -13 -11 -2 -18 3 -18 13 0 17 30
18 33 0z m1394 -27 c-3 -7 -5 -2 -5 12 0 14 2 19 5 13 2 -7 2 -19 0 -25z
m-1440 -10 c-3 -8 -6 -5 -6 6 -1 11 2 17 5 13 3 -3 4 -12 1 -19z m233 2 c0
-11 -4 -20 -10 -20 -5 0 -10 9 -10 20 0 11 5 20 10 20 6 0 10 -9 10 -20z
m-195 -64 c0 -43 0 -43 -22 -29 -15 10 -23 11 -23 4 0 -6 -4 -11 -10 -11 -18
0 -10 31 15 55 34 35 40 31 40 -19z m1992 38 c-3 -3 -12 -4 -19 -1 -8 3 -5 6
6 6 11 1 17 -2 13 -5z m-1907 -114 c0 -5 -7 -10 -15 -10 -8 0 -15 5 -15 10 0
6 7 10 15 10 8 0 15 -4 15 -10z m340 -14 c0 -2 -7 -6 -15 -10 -8 -3 -15 -1
-15 4 0 6 7 10 15 10 8 0 15 -2 15 -4z m250 -41 c0 -8 -2 -15 -4 -15 -2 0 -6
7 -10 15 -3 8 -1 15 4 15 6 0 10 -7 10 -15z m30 5 c0 -5 -2 -10 -4 -10 -3 0
-8 5 -11 10 -3 6 -1 10 4 10 6 0 11 -4 11 -10z m1475 -60 c3 -5 1 -10 -4 -10
-6 0 -11 5 -11 10 0 6 2 10 4 10 3 0 8 -4 11 -10z m-2631 -8 c-6 -4 -13 -15
-17 -25 -4 -10 -11 -15 -17 -12 -16 10 -12 33 8 38 28 8 38 7 26 -1z m296 -12
c0 -5 -4 -10 -10 -10 -5 0 -10 5 -10 10 0 6 5 10 10 10 6 0 10 -4 10 -10z
m-1456 -237 c-3 -21 -10 -42 -16 -48 -7 -7 -8 2 -3 30 4 22 9 43 11 47 11 17
14 6 8 -29z m2250 -24 c-3 -5 -10 -7 -15 -3 -5 3 -7 10 -3 15 3 5 10 7 15 3 5
-3 7 -10 3 -15z m-117 -65 c1 -28 19 -45 38 -37 7 2 19 -2 26 -10 24 -23 60
-39 75 -33 9 3 12 10 9 16 -4 6 1 7 11 3 13 -5 15 -2 9 15 -8 27 12 29 55 7
29 -15 40 -35 20 -35 -5 0 -10 -7 -10 -16 0 -8 4 -13 9 -9 5 3 13 0 17 -6 4
-8 -3 -9 -25 -4 -22 5 -35 2 -46 -9 -14 -13 -13 -16 5 -26 11 -6 20 -20 20
-30 0 -11 7 -20 15 -20 21 0 9 -24 -18 -35 -12 -6 -22 -19 -22 -29 0 -13 -11
-23 -32 -30 -18 -6 -32 -15 -31 -21 1 -5 -7 -12 -18 -13 -10 -2 -23 -8 -28
-13 -16 -14 -46 -10 -46 6 0 8 9 24 20 35 21 21 26 40 11 40 -5 0 -14 -7 -21
-15 -7 -8 -27 -19 -44 -23 -21 -6 -32 -15 -34 -30 -2 -14 -10 -22 -22 -22 -10
0 -22 -4 -25 -10 -10 -16 -38 -12 -32 5 8 20 -9 28 -54 27 -24 -1 -44 4 -55
16 -10 9 -22 17 -28 17 -6 0 -12 10 -14 23 -4 26 -8 27 -30 6 -14 -15 -17 -15
-29 2 -19 26 -16 57 7 72 11 7 20 19 20 27 0 8 6 15 14 15 8 0 17 7 20 16 3 8
10 13 15 10 5 -3 7 3 4 14 -6 24 15 27 31 4 16 -22 42 -9 61 32 17 36 35 37
35 3 0 -10 4 -19 9 -19 13 0 32 26 24 33 -8 9 26 47 42 47 7 0 15 7 19 15 9
24 21 18 23 -11z m-60 10 c-3 -3 -12 -4 -19 -1 -8 3 -5 6 6 6 11 1 17 -2 13
-5z m197 -9 c6 -18 -16 -30 -39 -21 -20 7 -8 36 15 36 10 0 21 -7 24 -15z
m-1603 -170 c-9 -49 -8 -71 4 -110 15 -53 32 -265 21 -265 -4 0 -37 17 -72 38
l-65 37 6 49 c10 80 74 318 93 346 l17 25 3 -29 c2 -16 -1 -57 -7 -91z m1139
35 c0 -5 -4 -10 -10 -10 -5 0 -10 5 -10 10 0 6 5 10 10 10 6 0 10 -4 10 -10z
m-330 -75 c14 -16 10 -18 -14 -9 -9 3 -16 10 -16 15 0 14 16 11 30 -6z m290
-5 c0 -5 -7 -10 -15 -10 -8 0 -15 5 -15 10 0 6 7 10 15 10 8 0 15 -4 15 -10z
m1111 -32 c-8 -40 -22 -42 -32 -6 -7 26 -3 30 32 37 4 0 3 -14 0 -31z m-1391
8 c0 4 11 -3 24 -15 14 -13 30 -20 36 -16 15 9 40 -13 40 -37 0 -24 26 -34 45
-18 10 9 15 9 15 1 0 -6 7 -11 15 -11 8 0 15 -4 15 -9 0 -5 -7 -14 -15 -21
-10 -9 -15 -9 -15 -1 0 16 -27 13 -34 -4 -6 -18 -56 -16 -56 2 0 21 -18 24
-47 10 -23 -13 -29 -13 -38 -1 -13 18 -71 3 -90 -23 -11 -15 -16 -16 -27 -5
-11 11 -8 18 15 38 16 13 33 21 39 18 7 -4 8 -2 4 5 -4 6 4 32 19 57 22 37 29
43 41 33 8 -6 14 -8 14 -3z m1354 -32 c10 -27 7 -36 -9 -20 -8 8 -15 19 -15
25 0 17 17 13 24 -5z m-1071 -44 c9 -11 17 -31 17 -45 0 -20 -5 -25 -24 -25
-20 0 -22 4 -18 26 3 15 -1 29 -8 34 -12 8 -6 30 8 30 4 0 15 -9 25 -20z
m1041 14 c20 -8 21 -34 1 -34 -8 0 -15 6 -15 14 0 8 -6 17 -12 19 -9 4 -9 6
-1 6 6 1 18 -2 27 -5z m-404 -34 c0 -5 -4 -10 -10 -10 -5 0 -10 5 -10 10 0 6
5 10 10 10 6 0 10 -4 10 -10z m380 1 c0 -6 -4 -13 -10 -16 -5 -3 -10 1 -10 9
0 9 5 16 10 16 6 0 10 -4 10 -9z m1455 -49 c27 -64 75 -212 75 -232 0 -23 -8
-26 -70 -22 l-50 4 -2 96 c0 54 0 104 1 112 2 8 5 32 8 52 6 44 17 41 38 -10z
m-2395 28 c0 -5 -4 -10 -10 -10 -5 0 -10 5 -10 10 0 6 5 10 10 10 6 0 10 -4
10 -10z m138 -13 c4 -20 -25 -34 -40 -19 -15 15 -1 44 19 40 10 -2 19 -11 21
-21z m-650 -32 c-3 -3 -9 2 -12 12 -6 14 -5 15 5 6 7 -7 10 -15 7 -18z m-1051
2 c-4 -12 -10 -48 -34 -212 -4 -27 -8 -41 -10 -29 -4 19 -13 22 -85 27 -49 3
-84 10 -89 18 -8 14 -2 100 9 110 11 11 109 29 152 29 39 0 40 1 40 35 0 19 5
35 11 35 6 0 9 -6 6 -13z m317 -191 c81 -52 81 -59 0 -51 -38 4 -70 9 -72 10
-5 4 9 75 15 75 2 0 28 -15 57 -34z m-694 -1 c0 -9 -9 -15 -21 -15 -18 0 -19
2 -9 15 7 8 16 15 21 15 5 0 9 -7 9 -15z m4436 -322 c8 -51 -11 -126 -29 -120
-14 4 -21 105 -12 155 5 27 9 31 20 22 8 -6 17 -32 21 -57z m-4404 -210 c6
-12 17 -23 25 -25 8 -2 -13 -28 -52 -66 -71 -68 -86 -69 -30 -2 33 39 35 47
37 118 1 43 3 59 5 37 2 -22 9 -50 15 -62z m2631 49 c20 -22 24 -67 32 -342 4
-112 11 -210 16 -216 6 -7 6 -15 1 -18 -9 -5 -4 -42 19 -131 6 -22 10 -59 9
-82 0 -24 4 -43 10 -43 23 0 8 -41 -22 -61 -32 -19 -53 -20 -90 -4 -14 5 -18
2 -18 -13 0 -38 -53 -38 -92 1 -18 18 -70 28 -88 17 -10 -6 -23 -1 -44 18 -24
23 -28 24 -22 7 5 -18 1 -20 -34 -20 -25 0 -36 3 -30 9 17 17 12 39 -7 32 -15
-5 -15 -4 1 9 11 8 27 15 35 15 14 0 14 1 1 10 -8 5 -10 10 -5 10 6 0 18 15
28 33 10 18 27 37 39 42 32 15 61 73 54 109 -3 17 -8 47 -12 67 -6 35 -8 37
-45 37 -21 0 -41 -3 -44 -9 -10 -15 -52 -10 -59 7 -3 8 -2 12 3 9 15 -9 24 34
11 50 -16 20 -5 45 20 45 11 0 20 5 20 10 0 6 -4 10 -10 10 -5 0 -10 5 -10 10
0 6 6 10 13 10 7 0 23 11 35 25 24 28 57 33 66 10 3 -8 11 -15 17 -15 8 0 9
16 5 54 -8 57 15 126 40 126 7 0 19 9 27 20 8 11 17 17 20 14 8 -9 25 37 30
78 4 39 16 63 37 71 24 9 26 8 43 -11z m-2163 -92 c0 -34 -9 -89 -22 -127 -24
-76 -25 -79 -34 -70 -12 12 -15 118 -5 131 6 7 10 24 9 37 -2 29 31 101 43 93
5 -3 9 -32 9 -64z m-647 -197 c-25 -80 -28 -87 -40 -108 -19 -32 -27 -9 -14
37 11 39 55 118 65 118 2 0 -3 -21 -11 -47z m-803 -38 c0 -8 -4 -15 -10 -15
-5 0 -10 7 -10 15 0 8 5 15 10 15 6 0 10 -7 10 -15z m815 -35 c-5 -8 -11 -8
-17 -2 -6 6 -7 16 -3 22 5 8 11 8 17 2 6 -6 7 -16 3 -22z m1397 -132 c-8 -8
-9 -4 -5 13 4 13 8 18 11 10 2 -7 -1 -18 -6 -23z m998 -72 c0 -8 -4 -17 -9
-21 -12 -7 -24 12 -16 25 9 15 25 12 25 -4z m2537 -153 c-3 -10 -5 -2 -5 17 0
19 2 27 5 18 2 -10 2 -26 0 -35z m-2936 8 c-9 -16 -6 -21 20 -31 25 -11 32
-10 42 3 15 20 93 12 102 -11 3 -8 4 -15 3 -16 -67 -33 -83 -44 -83 -56 0 -8
-13 -23 -28 -34 -24 -16 -31 -17 -53 -6 -19 11 -27 11 -36 2 -9 -9 -7 -12 8
-12 10 0 25 -9 32 -20 12 -19 10 -20 -36 -20 -26 0 -53 5 -59 11 -13 13 -67 3
-58 -10 6 -11 -23 -23 -37 -15 -6 4 -14 1 -18 -6 -6 -9 -11 -7 -19 9 -11 19
-9 21 14 21 16 0 25 6 25 15 0 8 7 15 15 15 8 0 15 5 15 10 0 15 -19 12 -37
-5 -16 -17 -34 -16 -40 2 -2 6 5 13 17 16 14 3 20 13 20 32 0 14 -4 24 -9 20
-10 -6 1 44 14 65 7 12 63 4 80 -11 14 -14 35 -11 35 6 0 8 7 15 15 15 8 0 15
7 15 15 0 9 9 15 25 15 22 0 24 -3 16 -19z m2924 -83 c-4 -24 -11 -50 -17 -58
-7 -12 -8 -11 -4 5 2 11 7 37 11 58 3 20 8 37 11 37 3 0 3 -19 -1 -42z m-5280
-18 c8 -13 -15 -13 -35 0 -12 8 -11 10 7 10 12 0 25 -4 28 -10z m2703 -80 c6
0 12 -9 12 -19 0 -29 -68 -35 -95 -8 l-20 20 23 -6 c15 -4 22 -1 22 10 0 11 6
14 23 9 12 -3 28 -6 35 -6z m59 4 c-3 -3 -12 -4 -19 -1 -8 3 -5 6 6 6 11 1 17
-2 13 -5z m-349 -306 c8 -8 9 -15 1 -25 -9 -10 -5 -13 19 -13 23 0 30 -4 26
-14 -3 -8 -12 -12 -20 -9 -8 3 -14 1 -15 -3 -1 -5 -2 -24 -4 -42 -2 -23 -12
-41 -34 -59 -17 -14 -31 -33 -31 -42 -1 -13 -3 -13 -15 3 -15 19 -15 19 -16
-5 0 -22 -1 -22 -8 -4 -5 11 -2 45 6 78 7 32 10 69 7 81 -4 16 0 25 10 29 9 4
16 13 16 22 0 18 41 20 58 3z m-158 -129 c0 -22 -29 -40 -47 -30 -17 10 -16
11 5 17 12 3 22 13 22 21 0 8 5 11 10 8 6 -3 10 -11 10 -16z m198 -51 c-2 -14
-13 -24 -30 -29 -16 -4 -28 -4 -28 1 0 4 9 10 20 13 11 3 20 12 20 21 0 9 5
16 11 16 6 0 9 -10 7 -22z m544 -623 c21 -4 42 -13 48 -20 9 -11 3 -16 -30
-25 -53 -14 -113 -2 -118 24 -5 23 16 38 43 32 11 -3 37 -8 57 -11z m281 -7
c25 -13 4 -38 -32 -38 -15 0 -31 -4 -36 -9 -14 -12 -106 21 -97 34 19 29 120
37 165 13z m1147 -386 c0 -15 -2 -15 -10 -2 -13 20 -13 33 0 25 6 -3 10 -14
10 -23z m19 -177 c0 -5 -4 -3 -9 5 -5 8 -9 22 -9 30 0 16 17 -16 18 -35z m41
-126 c0 -6 -4 -7 -10 -4 -5 3 -10 11 -10 16 0 6 5 7 10 4 6 -3 10 -11 10 -16z
m380 -895 c0 -2 -7 -4 -15 -4 -8 0 -15 4 -15 10 0 5 7 7 15 4 8 -4 15 -8 15
-10z m-670 -213 c-10 -21 -30 -37 -30 -26 0 14 21 45 31 45 6 0 6 -7 -1 -19z
m-5 -128 c-6 -27 -12 -33 -47 -54 -21 -11 -22 -6 -7 24 29 56 66 76 54 30z
m-1600 -123 c37 -31 7 -106 -57 -140 -59 -31 -111 -23 -133 21 -14 27 -14 33
1 65 16 34 50 61 61 50 4 -3 -1 -14 -10 -24 -24 -26 -13 -78 18 -86 57 -14
109 41 86 91 -6 13 -19 23 -30 23 -11 0 -23 5 -27 11 -9 15 71 6 91 -11z
m-1335 -54 c0 -2 -7 -7 -16 -10 -8 -3 -12 -2 -9 4 6 10 25 14 25 6z m200 -150
c0 -37 -1 -39 -15 -20 -8 10 -14 39 -14 64 0 44 0 44 14 20 8 -14 14 -43 15
-64z m-150 -70 c0 -23 -9 -45 -25 -63 l-24 -28 -1 33 c0 36 24 92 40 92 6 0
10 -15 10 -34z m177 -158 c-3 -7 -5 -2 -5 12 0 14 2 19 5 13 2 -7 2 -19 0 -25z"/>
<path d="M5120 6340 c0 -5 4 -10 9 -10 6 0 13 5 16 10 3 6 -1 10 -9 10 -9 0
-16 -4 -16 -10z"/>
<path d="M5105 6230 c3 -5 10 -10 16 -10 5 0 9 5 9 10 0 6 -7 10 -16 10 -8 0
-12 -4 -9 -10z"/>
<path d="M6106 6144 c-4 -11 -1 -14 11 -12 9 2 18 9 21 16 6 18 -25 15 -32 -4z"/>
<path d="M4672 6143 c4 -21 33 -25 33 -3 0 8 -8 16 -18 18 -14 3 -18 -1 -15
-15z"/>
<path d="M4720 6090 c0 -5 5 -10 11 -10 5 0 7 5 4 10 -3 6 -8 10 -11 10 -2 0
-4 -4 -4 -10z"/>
<path d="M5240 5475 c0 -8 5 -15 10 -15 6 0 10 7 10 15 0 8 -4 15 -10 15 -5 0
-10 -7 -10 -15z"/>
<path d="M5511 5464 c0 -11 3 -14 6 -6 3 7 2 16 -1 19 -3 4 -6 -2 -5 -13z"/>
<path d="M5040 5354 c0 -12 4 -14 13 -7 6 6 19 13 27 16 9 3 3 6 -12 6 -20 1
-28 -4 -28 -15z"/>
<path d="M5520 5344 c0 -8 5 -12 10 -9 6 3 10 10 10 16 0 5 -4 9 -10 9 -5 0
-10 -7 -10 -16z"/>
<path d="M5270 5265 c0 -8 5 -15 10 -15 6 0 10 7 10 15 0 8 -4 15 -10 15 -5 0
-10 -7 -10 -15z"/>
<path d="M5620 4131 c0 -12 5 -21 10 -21 6 0 10 6 10 14 0 8 -4 18 -10 21 -5
3 -10 -3 -10 -14z"/>
<path d="M5578 4073 c7 -3 16 -2 19 1 4 3 -2 6 -13 5 -11 0 -14 -3 -6 -6z"/>
<path d="M5725 3620 c3 -5 11 -10 16 -10 6 0 7 5 4 10 -3 6 -11 10 -16 10 -6
0 -7 -4 -4 -10z"/>
<path d="M4940 3717 c-33 -15 -33 -14 -26 -26 7 -11 66 15 66 30 0 11 -8 11
-40 -4z"/>
<path d="M5000 3690 c0 -5 7 -10 16 -10 8 0 12 5 9 10 -3 6 -10 10 -16 10 -5
0 -9 -4 -9 -10z"/>
<path d="M5010 3240 c0 -19 3 -21 12 -12 9 9 9 15 0 24 -9 9 -12 7 -12 -12z"/>
<path d="M5041 3224 c0 -11 3 -14 6 -6 3 7 2 16 -1 19 -3 4 -6 -2 -5 -13z"/>
<path d="M7273 6085 c0 -22 2 -30 4 -17 2 12 2 30 0 40 -3 9 -5 -1 -4 -23z"/>
<path d="M6 3443 c-3 -4 -6 -114 -6 -245 l0 -238 23 15 c33 21 172 55 227 55
54 0 65 7 46 29 -7 9 -21 47 -30 85 -36 148 -118 253 -229 295 -14 6 -28 7
-31 4z"/>
<path d="M387 2963 c-74 -30 -263 -50 -338 -36 l-51 11 7 -52 c9 -70 25 -98
60 -108 41 -13 227 -2 300 17 102 26 105 29 105 100 0 89 -11 97 -83 68z"/>
<path d="M27 2747 c-27 -11 -27 -12 -27 -105 0 -84 2 -93 18 -88 59 18 71 17
120 -8 114 -58 166 -136 177 -266 27 -336 34 -392 57 -430 15 -26 23 -64 30
-145 5 -60 12 -126 16 -145 8 -37 6 -37 84 -24 40 7 36 12 53 -70 6 -28 -4
-37 -67 -60 -53 -20 -69 -51 -19 -36 15 4 38 13 51 20 18 10 25 9 38 -4 9 -8
16 -23 17 -33 1 -10 8 -47 15 -83 7 -36 16 -101 20 -145 4 -44 13 -98 20 -120
6 -22 16 -66 21 -98 13 -83 39 -156 59 -167 120 -64 369 -33 527 66 84 53 87
62 79 226 -4 78 -11 149 -17 159 -12 22 -12 89 0 89 9 0 -1 59 -14 80 -6 9 -4
11 4 5 9 -5 12 0 9 16 -2 13 -9 23 -16 21 -14 -2 -16 34 -2 43 5 3 10 -2 10
-12 1 -17 1 -17 11 0 7 12 7 27 1 45 -24 65 -24 68 -13 52 8 -12 11 -5 12 30
1 25 1 56 0 69 -4 41 8 71 28 71 10 0 40 9 66 21 50 22 89 22 174 0 24 -7 50
-10 58 -7 15 6 18 66 3 66 -5 0 -10 8 -10 19 0 14 16 24 70 41 39 13 69 24 68
26 -2 1 -41 -4 -88 -12 l-85 -15 -14 23 c-19 30 -164 174 -220 219 l-45 36 17
35 c11 23 14 47 10 72 l-6 37 -33 -32 c-18 -18 -40 -47 -49 -66 -9 -19 -23
-37 -31 -40 -11 -4 -12 -9 -3 -19 16 -20 -3 -40 -54 -57 -96 -33 -118 -38
-138 -32 -13 5 -25 2 -29 -6 -5 -7 -21 -14 -37 -15 -15 -1 -39 -6 -53 -12 -42
-16 -259 -15 -308 2 -23 8 -42 12 -42 9 0 -3 -14 11 -30 32 -24 30 -28 41 -19
52 10 11 8 12 -6 7 -14 -6 -16 -4 -10 6 5 8 4 11 -2 7 -5 -4 -19 3 -31 13 -12
11 -23 20 -24 20 -2 0 -2 -20 0 -45 5 -52 -14 -63 -22 -12 -17 111 -16 117 22
159 41 45 97 76 199 109 105 33 96 46 -34 51 -67 3 -73 5 -79 28 -7 23 -6 51
1 58 2 2 30 -10 63 -27 51 -26 61 -28 66 -15 3 9 6 19 6 23 0 7 -94 53 -132
65 -12 3 -18 18 -20 48 -2 33 -7 42 -18 39 -39 -11 -354 -31 -362 -23 -5 5
-13 38 -18 74 -15 104 -17 107 -73 85z m394 -232 c-39 -17 -51 -19 -51 -6 0
11 23 18 60 19 22 1 21 0 -9 -13z m1013 -568 c97 -96 109 -120 75 -152 -22
-20 -185 -82 -194 -74 -6 7 -7 36 -6 182 1 175 -5 173 125 44z m-975 -16 c19
-16 19 -20 6 -31 -13 -11 -19 -11 -32 3 -9 8 -13 23 -10 31 8 20 9 20 36 -3z
m481 -15 c0 -26 20 -28 55 -7 34 20 65 19 65 -1 0 -6 -7 -8 -15 -4 -10 4 -15
-1 -15 -14 0 -24 35 -27 59 -6 31 28 44 23 47 -16 2 -21 -1 -40 -7 -43 -5 -4
-9 -1 -9 4 0 6 -7 11 -15 11 -10 0 -15 -10 -15 -30 0 -16 5 -30 10 -30 6 0 10
5 10 12 0 13 29 -22 30 -36 0 -4 -7 -6 -15 -2 -20 7 -71 -44 -67 -67 5 -23 38
-18 34 5 -4 23 12 30 54 22 30 -5 35 -10 30 -27 -7 -27 10 -46 34 -40 16 4 20
0 20 -22 0 -23 -3 -25 -14 -16 -10 8 -16 9 -21 1 -10 -17 -32 -11 -38 10 -3
11 -10 20 -16 20 -14 0 -14 -27 -1 -35 6 -4 8 -15 5 -26 -5 -14 0 -21 19 -29
31 -12 35 -46 6 -55 -26 -8 -26 -22 0 -30 11 -3 24 -21 30 -38 l10 -32 -5 33
c-2 17 0 32 5 32 16 0 23 -49 10 -65 -7 -8 -10 -22 -6 -30 6 -17 4 -18 -18 -9
-9 3 -16 15 -16 26 0 11 -5 16 -11 13 -6 -4 -7 -19 -4 -36 8 -37 -8 -59 -45
-59 -15 0 -30 -7 -34 -15 -4 -12 4 -14 56 -8 45 5 59 3 54 -5 -4 -7 -21 -12
-37 -12 -16 0 -32 -6 -35 -14 -3 -8 -23 -17 -45 -21 -37 -6 -55 -25 -24 -25 8
0 15 -4 15 -10 0 -18 48 -11 53 8 4 16 5 16 6 0 0 -9 -11 -30 -26 -46 l-28
-28 -20 31 c-19 30 -21 31 -45 17 l-25 -14 28 6 c33 8 36 -9 5 -33 -21 -18
-21 -18 13 -15 19 2 28 1 22 -2 -7 -3 -13 -12 -13 -19 0 -7 6 -15 13 -18 10
-4 10 -7 0 -18 -11 -11 -13 -10 -13 3 0 9 -11 18 -25 20 -14 3 -25 1 -25 -4 0
-14 -30 -41 -37 -34 -3 3 -1 17 5 31 15 32 16 56 2 35 -8 -12 -10 -12 -10 -1
0 11 -3 11 -16 0 -11 -9 -20 -10 -32 -3 -9 6 -36 10 -60 9 -35 -1 -41 2 -37
16 4 11 -2 19 -17 23 l-23 6 23 18 c20 16 21 19 8 37 -19 24 -20 61 -3 69 6 3
0 3 -15 0 -23 -5 -26 -3 -21 14 3 13 -4 28 -23 45 -17 16 -25 31 -21 41 4 9
10 16 14 15 4 -1 17 -1 28 0 19 2 19 2 1 16 -14 11 -17 24 -15 64 3 35 0 51
-8 51 -29 0 -41 73 -17 110 13 21 76 43 85 29 8 -14 49 10 49 29 0 10 -7 12
-25 8 -20 -5 -25 -3 -25 13 0 10 -9 21 -21 24 -30 8 -23 52 9 51 26 -1 29 13
5 33 -16 13 -16 14 9 10 15 -2 25 -1 23 3 -2 4 7 12 22 19 30 14 26 20 -19 31
-33 8 -32 8 11 9 l43 1 -4 -33 c-3 -30 -1 -33 20 -29 21 4 23 9 17 39 -3 18
-3 38 0 43 9 15 25 12 25 -4z m250 -26 c0 -5 -7 -10 -15 -10 -8 0 -15 5 -15
10 0 6 7 10 15 10 8 0 15 -4 15 -10z m-726 -115 c-3 -7 -12 -16 -20 -19 -8 -3
-13 -2 -11 2 2 4 7 15 10 25 4 10 11 16 16 12 6 -3 8 -12 5 -20z m253 -327
c-2 -13 -4 -5 -4 17 -1 22 1 32 4 23 2 -10 2 -28 0 -40z m560 -174 c-3 -3 -12
-4 -19 -1 -8 3 -5 6 6 6 11 1 17 -2 13 -5z m-174 -170 c9 -10 -4 -34 -19 -34
-8 0 -14 6 -14 13 0 22 19 35 33 21z m-187 -60 c13 -3 24 -10 24 -15 0 -12
-17 -11 -25 1 -3 6 -17 10 -31 10 -13 0 -24 5 -24 11 0 6 7 8 16 5 9 -3 27 -9
40 -12z m121 -26 c-3 -8 -6 -5 -6 6 -1 11 2 17 5 13 3 -3 4 -12 1 -19z"/>
<path d="M980 1864 c0 -10 7 -14 23 -12 18 2 21 -1 19 -19 -2 -13 2 -23 7 -23
18 0 13 42 -6 56 -24 18 -43 17 -43 -2z"/>
<path d="M870 1770 c0 -5 7 -10 16 -10 8 0 12 5 9 10 -3 6 -10 10 -16 10 -5 0
-9 -4 -9 -10z"/>
<path d="M1040 1765 c0 -8 4 -15 10 -15 5 0 7 7 4 15 -4 8 -8 15 -10 15 -2 0
-4 -7 -4 -15z"/>
<path d="M910 1730 c0 -5 4 -10 9 -10 5 0 16 -3 25 -6 11 -4 16 -1 16 10 0 10
-9 16 -25 16 -14 0 -25 -4 -25 -10z"/>
<path d="M1008 1723 c-10 -2 -18 -9 -18 -14 0 -15 43 -7 48 9 4 12 0 13 -30 5z"/>
<path d="M1124 1689 c-8 -14 11 -33 25 -25 11 7 4 36 -9 36 -5 0 -12 -5 -16
-11z"/>
<path d="M888 1683 c7 -3 16 -2 19 1 4 3 -2 6 -13 5 -11 0 -14 -3 -6 -6z"/>
<path d="M1105 1520 c-3 -5 -1 -10 4 -10 6 0 11 5 11 10 0 6 -2 10 -4 10 -3 0
-8 -4 -11 -10z"/>
<path d="M950 1198 c0 -18 18 -34 28 -24 3 4 -2 14 -11 23 -16 16 -17 16 -17
1z"/>
<path d="M870 1165 c-14 -16 -5 -35 16 -35 15 0 20 35 5 44 -5 3 -14 -1 -21
-9z"/>
<path d="M418 2753 c-10 -2 -18 -9 -18 -14 0 -15 43 -7 48 9 4 12 0 13 -30 5z"/>
<path d="M430 2704 c-14 -7 -29 -15 -33 -17 -5 -1 -5 -10 -2 -19 6 -14 10 -15
46 0 25 10 39 21 37 30 -4 21 -18 23 -48 6z"/>
<path d="M200 2441 c0 -6 4 -13 10 -16 6 -3 7 1 4 9 -7 18 -14 21 -14 7z"/>
<path d="M13 2403 c-10 -3 -13 -70 -13 -282 l0 -278 44 -6 c33 -5 56 -1 90 14
57 25 64 36 31 49 -14 5 -28 18 -31 27 -3 10 -12 30 -20 46 -14 25 -14 27 5
27 35 0 75 -20 101 -50 19 -23 35 -31 65 -33 37 -2 40 0 38 23 -1 14 -5 62 -9
108 -4 45 -11 85 -16 88 -4 3 -8 15 -9 27 -1 21 -2 20 -9 -3 l-8 -25 -7 23
c-4 12 -11 22 -15 22 -15 0 -21 52 -8 81 7 16 16 29 20 29 15 0 8 41 -7 46 -9
4 -48 -15 -93 -45 -42 -28 -78 -47 -80 -41 -2 5 5 25 16 42 23 39 17 65 -24
97 -27 21 -38 24 -61 14z m205 -205 c12 -62 4 -76 -35 -62 -23 8 -28 16 -30
46 -2 29 3 41 20 53 12 8 24 15 28 15 3 0 11 -24 17 -52z m-170 -93 c1 -61 -1
-76 -9 -62 -6 11 -9 30 -6 43 2 14 0 45 -4 70 -5 26 -6 51 -2 57 11 19 20 -25
21 -108z"/>
<path d="M4203 2343 c-16 -6 -17 -49 -2 -59 6 -3 18 1 27 10 15 15 15 18 2 26
-12 8 -9 10 13 10 15 0 27 5 27 10 0 10 -45 12 -67 3z"/>
<path d="M4146 2159 c-20 -24 -36 -49 -36 -56 0 -7 -6 -13 -14 -13 -9 0 -12
-7 -9 -20 3 -11 0 -27 -8 -36 -18 -21 -75 -44 -113 -44 -17 0 -56 -9 -86 -20
-30 -11 -73 -20 -95 -20 -47 0 -152 -14 -215 -30 -25 -6 -79 -16 -120 -21
-181 -25 -190 -27 -95 -22 50 2 144 6 210 9 66 3 134 9 150 14 17 4 37 8 45 8
8 0 43 5 78 12 35 6 67 8 72 5 6 -4 10 -1 10 4 0 12 40 15 55 3 14 -9 35 -59
35 -80 0 -15 -2 -15 -10 -2 -13 20 -13 4 1 -21 9 -18 12 -16 35 26 13 25 24
53 24 61 0 7 4 14 8 14 8 0 62 100 62 117 1 4 9 26 20 48 11 22 19 47 20 56 0
8 5 20 12 27 6 6 9 14 6 17 -3 3 -22 -13 -42 -36z m-109 -215 c-3 -3 -12 -4
-19 -1 -8 3 -5 6 6 6 11 1 17 -2 13 -5z"/>
<path d="M540 2049 c0 -5 5 -7 10 -4 6 3 10 8 10 11 0 2 -4 4 -10 4 -5 0 -10
-5 -10 -11z"/>
<path d="M2958 1843 c7 -3 16 -2 19 1 4 3 -2 6 -13 5 -11 0 -14 -3 -6 -6z"/>
<path d="M3638 1842 c-12 -5 -14 -12 -9 -21 7 -11 11 -9 20 8 7 11 10 21 9 20
-2 0 -11 -3 -20 -7z"/>
<path d="M2858 1833 c6 -2 18 -2 25 0 6 3 1 5 -13 5 -14 0 -19 -2 -12 -5z"/>
<path d="M2618 1813 c7 -3 16 -2 19 1 4 3 -2 6 -13 5 -11 0 -14 -3 -6 -6z"/>
<path d="M2470 1790 c-18 -12 -2 -12 25 0 13 6 15 9 5 9 -8 0 -22 -4 -30 -9z"/>
<path d="M2428 1773 c7 -3 16 -2 19 1 4 3 -2 6 -13 5 -11 0 -14 -3 -6 -6z"/>
<path d="M303 1736 c-18 -13 -30 -26 -26 -30 4 -4 0 -4 -10 0 -12 4 -17 1 -17
-11 0 -11 5 -15 14 -12 21 8 37 -16 35 -54 -2 -63 13 -274 22 -296 11 -30 1
-53 -23 -53 -17 0 -20 6 -17 44 3 26 -1 48 -8 55 -7 7 -13 27 -13 45 0 18 -3
55 -6 81 -8 54 7 53 -149 10 -86 -24 -88 -24 -33 -19 57 5 80 -8 38 -21 -11
-4 -18 -11 -15 -16 4 -5 19 -3 35 6 41 21 52 19 48 -12 -2 -18 -11 -29 -28
-34 -14 -4 -53 -15 -88 -25 -47 -13 -62 -22 -62 -36 0 -19 15 -24 25 -8 10 15
71 12 85 -5 33 -40 -36 -109 -86 -86 -24 10 -24 10 -24 -43 l0 -53 42 8 c120
22 149 31 235 71 11 6 26 7 32 4 17 -11 90 41 97 69 3 14 3 53 0 88 -17 164
-19 180 -41 320 -7 43 -17 45 -62 13z"/>
<path d="M3922 1735 c0 -16 2 -22 5 -12 2 9 2 23 0 30 -3 6 -5 -1 -5 -18z"/>
<path d="M3950 1740 c0 -5 5 -10 10 -10 6 0 10 5 10 10 0 6 -4 10 -10 10 -5 0
-10 -4 -10 -10z"/>
<path d="M3660 1718 c0 -7 5 -20 10 -28 8 -12 10 -9 10 13 0 15 -4 27 -10 27
-5 0 -10 -6 -10 -12z"/>
<path d="M167 1684 c-41 -13 -47 -17 -37 -30 10 -11 10 -14 -1 -14 -8 -1 -4
-6 9 -13 12 -7 20 -16 17 -19 -3 -3 6 -3 20 0 16 3 33 -2 46 -13 19 -18 19
-18 16 5 -2 13 -9 26 -15 28 -6 2 -8 10 -5 18 3 8 0 14 -7 14 -7 0 -2 9 11 20
29 24 14 25 -54 4z m3 -34 c0 -12 -7 -20 -16 -20 -13 0 -14 3 -5 14 9 11 9 15
-1 19 -8 4 -7 6 5 6 11 1 17 -6 17 -19z"/>
<path d="M3690 1690 c0 -5 7 -10 15 -10 8 0 15 5 15 10 0 6 -7 10 -15 10 -8 0
-15 -4 -15 -10z"/>
<path d="M65 1650 c-13 -5 -14 -9 -5 -9 8 0 24 4 35 9 13 5 14 9 5 9 -8 0 -24
-4 -35 -9z"/>
<path d="M107 1604 c-4 -4 -7 -14 -7 -23 0 -11 3 -12 11 -4 6 6 10 16 7 23 -2
6 -7 8 -11 4z"/>
<path d="M51 1574 c-1 -6 -11 -16 -23 -23 -23 -11 -23 -11 2 -5 31 8 33 10 27
26 -3 7 -6 8 -6 2z"/>
<path d="M2233 1260 c3 -28 2 -62 -3 -76 -7 -19 -6 -31 4 -46 14 -19 15 -19
24 -1 19 37 23 127 6 151 -26 37 -37 27 -31 -28z"/>
<path d="M1300 1233 c0 -18 2 -33 4 -33 9 0 13 39 5 51 -6 10 -9 4 -9 -18z"/>
<path d="M9955 670 c-3 -5 2 -38 10 -72 16 -60 38 -98 57 -98 4 0 8 8 9 18 0
12 3 11 10 -6 5 -13 7 -28 3 -33 -3 -5 -1 -9 5 -9 11 0 17 18 26 81 4 35 2 49
-10 59 -8 7 -15 18 -15 25 0 8 -8 11 -20 8 -16 -4 -19 -2 -13 12 4 13 3 16 -5
11 -6 -4 -20 -2 -31 4 -13 6 -22 7 -26 0z"/>
<path d="M9907 576 c-6 -15 1 -26 15 -26 11 0 10 27 -1 34 -5 3 -11 0 -14 -8z"/>
<path d="M2231 434 c0 -11 3 -14 6 -6 3 7 2 16 -1 19 -3 4 -6 -2 -5 -13z"/>
<path d="M7879 364 c-6 -8 -18 -14 -25 -14 -14 0 -20 -31 -8 -43 10 -10 84 37
84 53 0 15 -40 18 -51 4z"/>
<path d="M2195 319 c-4 -6 -5 -12 -2 -15 2 -3 7 2 10 11 7 17 1 20 -8 4z"/>
<path d="M7791 294 c0 -11 3 -14 6 -6 3 7 2 16 -1 19 -3 4 -6 -2 -5 -13z"/>
<path d="M3616 225 c-8 -8 -19 -15 -24 -15 -5 0 -15 -7 -22 -15 -7 -8 -8 -15
-4 -15 11 0 84 48 84 55 0 10 -19 4 -34 -10z"/>
<path d="M9550 202 c0 -5 15 -19 33 -32 l32 -23 -29 31 c-31 34 -36 37 -36 24z"/>
<path d="M2141 183 c-1 -6 -4 -20 -7 -30 -5 -17 -5 -17 6 0 6 10 9 23 6 30 -3
9 -5 9 -5 0z"/>
<path d="M3483 163 c-7 -2 -13 -9 -13 -14 0 -14 24 -11 46 6 19 14 19 14 -1
14 -11 0 -26 -3 -32 -6z"/>
<path d="M1901 21 c-8 -5 -53 -7 -100 -4 -50 3 -97 1 -111 -5 -19 -8 5 -11
103 -11 106 -1 127 1 127 14 0 17 0 18 -19 6z"/>
</g>
</svg>
